<?xml version="1.0" encoding="UTF-8"?>
<svg xmlns="http://www.w3.org/2000/svg" viewBox="0 0 1024 1024">
  <defs>
    <style>
      .cls-1, .cls-2 {
        stroke: #fff;
      }

      .cls-1, .cls-3, .cls-4, .cls-5, .cls-6, .cls-7 {
        stroke-linecap: round;
        stroke-linejoin: round;
      }

      .cls-1, .cls-4, .cls-6, .cls-7 {
        stroke-width: 4px;
      }

      .cls-1, .cls-4, .cls-8 {
        fill: #151922;
      }

      .cls-2 {
        stroke-miterlimit: 10;
      }

      .cls-2, .cls-3, .cls-7 {
        fill: none;
      }

      .cls-9 {
        fill: #ee4b2b;
      }

      .cls-3, .cls-4, .cls-5, .cls-6, .cls-7 {
        stroke: #151922;
      }

      .cls-5, .cls-6 {
        fill: #fff;
      }
    </style>
  </defs>
  <g id="background">
    <circle class="cls-9" cx="512" cy="516.91" r="369.67"/>
  </g>
  <g id="base">
    <path class="cls-1" d="M771.15,353.04c-2.56,20.21-7.07,37.39-12.78,51.99-19.12,48.9-51.66,68.86-69.59,76.45l-27.69-81.18c42.68-175.75-7.61-243.22-8.72-244.69-.01-.01-.01-.03-.01-.03-169.94-101.97-284.1-21.38-284.1-21.38,0,0-11.25,12.92-24.22,28.11,3.17-6.23,6.11-11.8,8.7-16.58,6.91-12.75,16.7-23.72,28.65-31.95,155.65-107.18,291.09-16.95,325.38,4.25,35.6,22.01,79.28,117.81,64.38,235Z"/>
    <path class="cls-4" d="M768.15,357.04c-2.56,20.21-7.07,37.39-12.78,51.99-19.12,48.9-51.66,68.86-69.59,76.45l-27.69-81.18c42.68-175.75-7.61-243.22-8.72-244.69-.01-.01-.01-.03-.01-.03-169.94-101.97-284.1-21.38-284.1-21.38,0,0-11.25,12.92-24.22,28.11,3.17-6.23,6.11-11.8,8.7-16.58,6.91-12.75,16.7-23.72,28.65-31.95,155.65-107.18,291.09-16.95,325.38,4.25,35.6,22.01,79.28,117.81,64.38,235Z"/>
    <path class="cls-6" d="M685.78,485.48c-7.77,3.3-12.79,4.27-12.79,4.27,0,0-11.14,40.65-21.54,79.59-5.48,20.44-10.73,40.39-14.07,53.77-9.71,38.85-121.07,106.18-145.01,124.3-23.95,18.13-55.67,23.96-55.67,23.96,0,0-28.1-1.26-52.32-5.11-10.47-1.66-20.21-3.8-26.66-6.54-21.36-9.07-40.14-78.34-40.14-78.34l-24.61-135.3-12.13-36.44c-7.47-22.36-6.71-46.66,2.09-68.49,.18-.46,.37-.91,.56-1.37l9.36-22.26c5.07-12.06,5.74-25.47,2.17-38.06-1.2-4.25-2.19-8.46-2.99-12.55-4.94-25.24-2.93-46.14-2.93-46.14,5.36-54.82,32.76-116.72,51.97-154.46,6.15-7.21,11.92-13.9,16.28-18.95,6.24-7.22,13.83-13.13,22.4-17.34,35.76-17.56,135.26-51.08,269.64,29.55,0,0,0,.01,.01,.03,1.12,1.47,51.4,68.94,8.72,244.69l27.69,81.18Z"/>
    <path class="cls-4" d="M473.91,540.25l-45.2,14.71c-5.91,1.93-12.4,.65-17.13-3.39l-28.44-24.22-.85-11.39,12.07,9.75c8.16,6.59,19.21,8.36,29.01,4.61l24.96-9.51c23.95-1.94,25.57,19.42,25.57,19.42Z"/>
    <path class="cls-7" d="M406.58,333.4l16.51,27.19-17.13,109.73c-12.86,10.65-19.48,30.21-23.66,45.64"/>
    <path class="cls-8" d="M342.81,611.25s9.93-50.07,62.15-15.54c0,0,38.84-18.56,72.08,10.36,33.23,28.92,33.66,32.8,42.73,36.69,0,0-97.76-27.61-115.45-19.84,0,0-39.49-20.73-61.5-11.66Z"/>
    <path class="cls-3" d="M365.26,653.11s18.44,20.03,70.35,17.79"/>
    <circle class="cls-8" cx="557.53" cy="414.22" r="45.53"/>
    <circle class="cls-8" cx="363.51" cy="398.46" r="45.53"/>
    <path class="cls-8" d="M524.92,318.19c-2.56,1.29-19.82,25.46-18.53,24.6s110.06,13.38,110.06,13.38l3.02-22.77-94.55-15.21Z"/>
    <polygon class="cls-8" points="302.67 310.42 306.99 329.84 394.6 333.41 382.3 304.81 302.67 310.42"/>
    <path class="cls-8" d="M629.04,639.27c-3,11.36-5.68,21.68-7.67,29.65-9.71,38.85-121.07,106.18-145.01,124.3-23.95,18.13-55.67,23.96-55.67,23.96,0,0-3.89-.18-10.03-.6-.11-.01-.23-.01-.34-.03l-17.95-49.13c.05,.01,.09,.01,.14,.01,21.96,2.94,44.18,3.93,44.18,3.93,0,0,31.72-5.83,55.67-23.96,20.88-15.8,108.22-69.02,136.68-108.15Z"/>
    <path class="cls-6" d="M640.62,922.87c-46.03,32.17-91.57,38.19-130.39,33.23-63.8-8.12-109.48-45.86-109.48-45.86l18.45-47.58s-7.66-21.01-16.95-46.7c-5.81-16.07-12.27-33.97-17.89-49.69,2.64,.41,5.31,.81,8,1.16l17.95,49.13,10.38,.62s31.72-5.83,55.67-23.96c8.29-6.28,27.08-18.46,48.5-33.32,40.4-28.03,90.16-65.59,96.51-90.98,1.99-7.97,4.67-18.29,7.67-29.65,4.18-5.75,7.09-11.19,8.33-16.15,3.35-13.38,8.6-33.34,14.07-53.77,7.74,4.28,16.12,1.81,21.67-.92-35.21,106.81-12.8,162.48,26.74,202.95,0,0,31.07,88.36-59.23,151.49Z"/>
    <path class="cls-6" d="M292.83,417.52l-9.36,22.26c-.19,.46-.38,.91-.56,1.37-9.04-16.28-19.26-36.64-18.12-46.77,1.69-15.01,6.3-28.94,27.21-27.47,.8,4.1,1.79,8.3,2.99,12.55,3.58,12.59,2.9,26-2.17,38.06Z"/>
    <path class="cls-3" d="M468.08,495.58s13.6,19.67,5.83,44.67"/>
    <path class="cls-3" d="M449.62,454.91s10.89-87.19,10.89-89.78c0,0,5.13-7.25,13.41-12.2"/>
    <path class="cls-3" d="M644.93,471.84s-14.03,104.55-100.24,84"/>
    <path class="cls-3" d="M348.42,737.71c-33.66-144.16-28.05-211.05-28.05-211.05-37.98-20.29-36.25-50.93-36.25-50.93l18.56-69.43"/>
    <path class="cls-3" d="M358.78,749.36c.86-1.73,12.95-20.56,62.58,13.67"/>
    <path class="cls-8" d="M441.41,817.18s7.77,20.87,44.67,25.41l5.18,27.19h-7.77l-7.46-18.13s-23.62-4.2-34.62-34.47Z"/>
    <path class="cls-3" d="M571.22,515.18s-8.1,112.74-37.88,146.92"/>
    <path class="cls-3" d="M582.54,523.74s-3.4,81.03-25.01,119.01"/>
    <path class="cls-3" d="M297.24,349.27s-9.92,84.81,15.98,106.17c25.9,21.36,76.85,11.01,76.85,11.01,0,0,37.74-82.87,22.2-104.23-15.54-21.36-115.03-12.95-115.03-12.95Z"/>
    <path class="cls-3" d="M480.96,368.69c-1.47,.33-15.62,9.73-4.93,47.92,10.69,38.19,17.17,60.73,17.17,60.73,0,0,108.12,8.96,115.24-5.49,7.12-14.46,23.31-89.4,23.31-89.4,0,0-66.39-32.65-150.78-13.76Z"/>
    <path class="cls-3" d="M308.04,497.52s3.24,100.99,23.95,194.22"/>
    <path class="cls-3" d="M365.26,148.57s-59.32,99.7-58.27,181.27"/>
    <path class="cls-3" d="M365.26,166.7s-46.73,90.7-45.24,152.41"/>
    <path class="cls-3" d="M557.53,943.58c37.1-65.58,94.36-329.01,103.19-360.61"/>
    <path class="cls-5" d="M365.26,629.38c-.57-2.81-9.9,23.15,35.5,32.72,0,0-31.37-12.51-35.5-32.72Z"/>
    <path class="cls-5" d="M421.85,572.54l-15.9,13.58s13.97-1.14,15.9-13.58Z"/>
    <path class="cls-5" d="M497.08,424.69s11.65,39.23,49.2,44.27c0,0,6.04,2.02,0,5.47-6.04,3.45-47.04-13.17-49.2-49.74Z"/>
    <path class="cls-5" d="M308.04,403.98s11.65,48.94,37.55,47.94c0,0,9.06,5.68,0,7.84-9.06,2.16-31.08-10.77-37.55-55.78Z"/>
    <path class="cls-3" d="M512,376.23s44.26-36.03,91.07,6.21c0,0-41.52-57.58-91.07-6.21Z"/>
    <path class="cls-3" d="M319.72,362.46s44.26-36.03,91.07,6.21c0,0-41.52-57.58-91.07-6.21Z"/>
    <path class="cls-3" d="M409.04,677.18c-43.7,11.65-72.92,42.73-72.92,42.73"/>
    <path class="cls-3" d="M336.12,708.25s30.46-26.75,58.49-37.17"/>
    <path class="cls-3" d="M351.37,684.26c7.36-5.25,16.51-11.17,25.43-14.16"/>
    <path class="cls-3" d="M358.51,214.61s-28.58,63.61-22.4,103.58"/>
    <path class="cls-3" d="M363.51,239.21s-15.61,44.25-7.8,78.98"/>
    <path class="cls-3" d="M372.58,266.4s-5.41,29.35,0,46.61"/>
    <polyline class="cls-3" points="410.31 816.56 428.1 863.62 407.16 915.06"/>
    <path class="cls-5" d="M400.43,624.84c-.89,.43-3.04,7.34-3.04,6.69s6.04-5.18,6.04-5.18l-3-1.51Z"/>
    <path class="cls-6" d="M667.81,451.88s5.77-28.58,26.22-43.7c18-13.32,50.12-14.62,61.34,.85,3.84,5.31,7.13,12.34,9.55,21.49,17.48,66.03-85.46,134.01-85.46,134.01,0,0-1.09,.89-2.95,2.03-.95,.58-2.08,1.24-3.39,1.88-1.37,.67-2.9,1.33-4.56,1.86-5.07,1.67-11.27,2.28-17.1-.95-3.93-2.17-7.68-6.09-10.83-12.59"/>
    <path class="cls-7" d="M686.2,480.04s3.17,4.32,11.58-8.2c8.42-12.52,6.47-57.84,44.67-47.15"/>
    <path class="cls-3" d="M679,523.74l13.6-23.31s51.22-16.65,21.72-69.51"/>
    <path class="cls-8" d="M676.5,566.56c-.95,.58-2.08,1.24-3.39,1.88-1.37,.67-2.9,1.33-4.56,1.86l-4.11-11.78c-3.88-11.37,8.56-17.27,10.2-10.66l1.86,18.7Z"/>
    <path class="cls-5" d="M666.38,555.84l30.1,36.21-19.4-42.92c-1.64-6.61-14.59-4.66-10.7,6.71Z"/>
    <path class="cls-3" d="M415.73,920.82c-.51-.33,22.22-55.01,22.22-55.01l-14.03-35.74"/>
    <path class="cls-3" d="M441.41,850.79c-.22,1.08,6.91,17.91,6.91,17.91l-23.53,57.63"/>
    <path class="cls-2" d="M386.34,380.75s16.96,24.55-7.82,24.27-11.55-30.69-11.55-30.69c7.81-.18,14.23,2.02,19.37,6.43Z"/>
    <path class="cls-2" d="M382.17,400.59s-14.71,25.96-25.25,3.53c-10.54-22.43,22.6-23.77,22.6-23.77,3.57,6.95,4.38,13.69,2.65,20.23Z"/>
    <path class="cls-2" d="M578.16,399.9s14.95,25.82-9.72,23.57c-24.68-2.26-9.07-31.51-9.07-31.51,7.8,.44,14.03,3.15,18.8,7.95Z"/>
    <path class="cls-2" d="M571.12,414.13s-6.31,29.17-23.05,10.9c-16.74-18.27,14.49-29.42,14.49-29.42,5.48,5.58,8.26,11.77,8.56,18.52Z"/>
    <path class="cls-2" d="M660.72,307.89s15.33-2.04,35.76-9.7c0,0-9.93,16.85-32.79,27.57l-2.97-17.87Z"/>
  </g>
</svg>