<?xml version="1.0" encoding="UTF-8"?>
<svg xmlns="http://www.w3.org/2000/svg" viewBox="0 0 1024 1024">
  <defs>
    <style>
      .cls-1, .cls-2, .cls-3, .cls-4, .cls-5, .cls-6, .cls-7, .cls-8, .cls-9, .cls-10, .cls-11, .cls-12, .cls-13 {
        stroke: #151922;
      }

      .cls-1, .cls-2, .cls-14, .cls-4, .cls-5, .cls-15, .cls-6, .cls-8, .cls-9, .cls-10, .cls-16, .cls-11, .cls-12, .cls-13 {
        stroke-linecap: round;
        stroke-linejoin: round;
      }

      .cls-1, .cls-2, .cls-9, .cls-10, .cls-13 {
        fill: #fff;
      }

      .cls-1, .cls-12 {
        stroke-width: 1.5px;
      }

      .cls-2, .cls-14, .cls-16, .cls-11 {
        stroke-width: 2px;
      }

      .cls-3, .cls-4, .cls-15, .cls-6, .cls-8, .cls-16, .cls-11, .cls-12 {
        fill: none;
      }

      .cls-3, .cls-4, .cls-13 {
        stroke-width: .5px;
      }

      .cls-3, .cls-7 {
        stroke-miterlimit: 10;
      }

      .cls-14, .cls-5, .cls-7, .cls-17 {
        fill: #151922;
      }

      .cls-14, .cls-15, .cls-16 {
        stroke: #fff;
      }

      .cls-18 {
        fill: #ee4b2b;
      }

      .cls-6, .cls-7, .cls-9 {
        stroke-width: 3px;
      }
    </style>
  </defs>
  <g id="background">
    <rect class="cls-18" x="469.17" y="41.24" width="287.32" height="498.73" transform="translate(7.12 -14.56) rotate(1.37)"/>
    <rect class="cls-18" x="781.96" y="61.88" width="130.73" height="100.54" transform="translate(714.97 956.56) rotate(-88.63)"/>
    <rect class="cls-18" x="673.34" y="327.53" width="335.29" height="100.54" transform="translate(443.21 1209.51) rotate(-88.63)"/>
  </g>
  <g id="base">
    <g>
      <path class="cls-2" d="M797.65,883.23c-1.33-4.73-3.69-9.25-7.26-12.63s-6.5-4.59-9.82-5.51c-4.05-.88-8.47-.74-12.22,.9,0,0,0,0,0,0-1.03-.25-17.38-3.8-18.43-4.05-1.9-2.79-4.3-4.61-7.02-5.84-.11-.1-.26-.17-.48-.22-2.82-1.18-5.97-1.77-9.24-2.12-11.17-1.22-21.8,.47-32.48,3.94-12.7,4.13-24.57,10.32-36.33,16.5-7.8,4.11-15.68,8.26-22.38,13.94-6.71,5.68-12.23,13.08-13.97,21.59-.95,4.63-.63,9.77,1.96,13.69,22.36,1.41,43.84,5.94,65.44,10.17,1.21,.24,2.43,.47,3.64,.7,4.65,.91,9.3,1.78,13.97,2.6,1.88,.33,3.76,.65,5.65,.95,5.22,.86,10.46,1.63,15.75,2.26,.26-.95,.27-1.99,0-2.94-.58-2.11-2.26-3.78-4.29-4.78,.3-.17,.6-.35,.9-.52,1.2,.6,2.6,.85,3.91,.99,2.59,.29,5.18,.52,7.77,.7,1.73,.12,3.57,.19,5.06-.87,1.91-1.36,2.69-4.4,2.1-6.95-.44-1.88-1.5-3.46-2.85-4.64,.23-.18,.46-.35,.69-.54,2.24,.81,4.52,1.44,6.83,1.87,2.94,.56,6.05,.78,8.82-.52,2.78-1.31,5.11-4.5,4.97-8.07-.12-3.35-2.36-6.08-4.99-7.34,.28-.28,.56-.57,.84-.85,2.99,2.47,6.54,3.8,10.4,3.85,2.11,.02,4.87-.86,6.36-4.18,2.95-6.59-1.66-9.4-3.71-11.48-.37-.38-.75-.73-1.14-1.07,.2-.23,.39-.45,.59-.68,2.01,.92,4.04,1.78,6.11,2.54,2.3,.85,4.68,1.61,7.14,1.64,2.45,.02,5.02-.79,6.62-2.65,2.37-2.75,2.06-6.89,1.07-10.38Z"/>
      <path class="cls-10" d="M699.06,934.29c-1.21-.23-2.43-.46-3.64-.7-21.6-4.23-43.08-8.76-65.44-10.17-2.59-3.92-2.91-9.06-1.96-13.69,1.74-8.51,7.26-15.91,13.97-21.59,6.7-5.68,14.58-9.83,22.38-13.94,11.76-6.18,23.63-12.37,36.33-16.5,10.68-3.47,21.31-5.16,32.48-3.94,3.27,.35,6.42,.94,9.24,2.12,2.92,1.23,5.49,3.11,7.5,6.06"/>
      <path class="cls-8" d="M744.68,881.29l10.68,5.33c8.24,.95,15.49,2.73,20.76,6.15"/>
      <path class="cls-8" d="M734.63,894.31c.49,.34,10.2,6.77,10.2,6.77,6.7,.12,13.11,1.91,19.37,4.57"/>
      <path class="cls-8" d="M722.52,907.06l7.62,6.85c6.89,.66,12.85,2.73,17.59,6.65"/>
      <polyline class="cls-8" points="709.14 918.15 717.09 926.52 730.14 931.31"/>
      <path class="cls-10" d="M734.43,940.1c-5.29-.63-10.53-1.4-15.75-2.26-1.89-.3-3.77-.62-5.65-.95,.19-.58,.48-1.14,.86-1.61,2.16-2.7,7.58-3.51,10.88-3.91,1.74-.21,3.68,.17,5.38,1.01,2.03,1,3.71,2.67,4.29,4.78,.26,.95,.25,1.99,0,2.94Z"/>
    </g>
    <ellipse class="cls-8" cx="250.86" cy="428.68" rx="7.64" ry="11.25"/>
    <line class="cls-8" x1="250.86" y1="466.7" x2="250.86" y2="439.93"/>
    <path class="cls-9" d="M817.51,726.11s-2.71,15.27-3.72,31.98c-.55,9.23-3.38,18.19-8.25,26.05-12.85,20.77-42.51,58.32-97.2,77-24.4,21.1-50.26,41.92-78.54,62.27-2.44-.16-4.89-.28-7.35-.35-5.72-.17-11.43-.35-17.13-.52,8.3-44.58-22.51-112.56-57.07-106.86,1.73-1.13,177.1-116.16,228.92-122.77,0,0,34.72,3.07,40.34,33.2Z"/>
    <path class="cls-2" d="M749.42,694.14c-26.43,26.42-60.54-2.22-60.54-2.22l-55.17-46.85c25.82-15.36,49.06-52.99,51.69-72.54l16.3,15.95-6.85-107.44c-8.18,1.53-16.28,.41-22.36-4.38-20.43-16.09-29.87-37.28-29.87-37.28,0-.94,.05-1.88,.15-2.82-.05,.01-.1,.01-.15,.01-4.59,0-14.17-2.52-17.17-4.7,0,0-8.88-8.32-10.41-17-.64-3.62,1.76-6.68,4.09-7.91,1.48-.78,3.56-1.61,5.68-2.38l-2.87-5.03c-.81-1.83,2.96-9.11,9.57-10.29,3.25-.58,8.6,.34,12.83,1.65l-1.72-2.38-15.25-16.13c-9.63-6.98-17.69-21.61-17.69-21.61,0,0-.77-8.17,10.47-7.92l7.22,5.94c-4.67-4.41,3.56-13.44,9.12-9.91l18.88,15.47,14.06,15.06,16.71,19.1s4.77,3.04,11.16,8.28l1.49-19.72s-.51-4.69,1.53-7.66c0,0,4.59-11.91,27.83-16.68l3.06,3.93-12.76,15.72s.51,4.94-2.68,7.49c0,0,16.27,50.34,16.21,50.49,.43,5.51,.38,21.79-2.3,26.62l35.23,185.36s9.25,27.05-15.49,51.78Z"/>
    <path class="cls-9" d="M685.4,572.53c-2.63,19.55-25.87,57.18-51.69,72.54-11.7,6.97-23.93,9.36-35.01,3.42l-32.98-28.08c-8.66,30.42-20.94,70.74-32.4,98.19l5.34,96.2c.7,1,1.43,2.09,2.18,3.25,11.13,17.4,26.24,52.59,4.59,95.3-11.2-3.04-22.34-5.69-33.28-5.61-65.03,.44-131.57,24.47-187.66,20.92-20.77-1.32-37.04-8.18-52.01-16.09-3.84-2.03-7.59-4.13-11.31-6.22-6.71-22.65-14.56-65.69-7.6-132.24,1.94-18.57,5.04-38.98,9.64-61.28,0,0,.77-124.65,23.92-186.99,3.35-9.03,4.79-18.64,4.09-28.24-1.07-14.92-7.08-31.52,6.34-53.9,18.37-30.61,51.7-31.8,51.7-31.8l72.84-23.37s.22,.7,.93,1.79c2.11,3.22,8.52,9.84,26.34,11.83,18.88,2.1,48.02,1.81,62.63,5.32,8.16,1.96,17.82,8.2,27.52,15.07,8.35,5.92,41.67,30.68,47.68,37.01,19.57,10.73,27.83,23.33,36.37,35.28,24.79,27.82,58.59,66.23,59.31,66.79,2.47,1.91,3.2,5.79,2.52,10.91Z"/>
    <path class="cls-9" d="M454.89,339.8c-2.44,15.65-9.56,41.99-30.06,49.89h-.01c-.59,.23-1.18,.44-1.79,.63,2.11,3.22,8.52,9.84,26.34,11.83,18.88,2.1,48.02,1.81,62.63,5.32,8.16,1.96,17.82,8.2,27.52,15.07l2.57-6.39c5.1,3.42,16.82,9.73,25.38,2.21,11.23-9.87,35.14-46.74,39.57-75.68,0,0-2.13-8.74,1.96-18.28,3.6-8.39,9.19-9.87,11.3-19.27,1.72-7.72,3.18-16.63,4.19-23.48l-1.68-44.92c-.42-11.35-4.82-22.23-12.52-30.58-19.8-21.43-64.62-52.52-138.01-11.45-47.4,26.53-17.39,145.1-17.39,145.1Z"/>
    <path class="cls-14" d="M647.13,282.19s-12.94,4.65-22.64-.54c-1.63-.87-3.16-2.02-4.53-3.51-8.33,17.77-21.85,23.8-21.85,23.8l-12.26,37.78-5.4-8.98c2.99-7.75,2.34-12.04,1.34-14.23-1.24,2.22-2.61,4.4-4.11,6.53-9.19,34.05-48,32-48,32-8.51,6.47-8.85,20.26-8.85,20.26-16.6-1.02-26.55-26.73-26.55-26.73-7.83,11.58-9.19,23.83-9.19,23.83-13.96-3.4-19.07-39.83-19.07-39.83-3.55,3.25-7.36,5.58-11.13,7.23-13.21,5.8-25.98,3.33-25.98,3.33,10.9-9.87,12.6-43.92,12.6-43.92-10.55,3.41-21.45,10.56-21.45,10.56-1.68-9.4,10.2-28.05,10.55-28.59-8.5,5.78-13.95,.67-13.95,.67,23.15-21.79,.61-41.98,36.77-84.76,23.74-28.09,50.46-27.32,64.85-24.26,10.52,.31,31.32-9.96,61.87-1.53,19.75,5.45,45.53,22.04,52,54.38,1.93,9.66,5.79,29.28,12.25,37.79,0,0-9.17-.68-15.08-11.34-.28,6.06,.01,27.44,17.81,30.06Z"/>
    <path class="cls-8" d="M557.19,348.81s1.08,13.04,11.64,5.55"/>
    <path class="cls-11" d="M566.79,360.15s-16.34,42.55,.68,58.21"/>
    <line class="cls-10" x1="555.55" y1="382.62" x2="542.09" y2="416.15"/>
    <path class="cls-8" d="M423.03,390.32c-.96,.31-1.95,.58-2.97,.81"/>
    <path class="cls-8" d="M424.82,389.69c-.59,.23-1.18,.44-1.79,.63-.71-1.09-.93-1.79-.93-1.79l2.72,1.16Z"/>
    <path class="cls-8" d="M533.32,718.6c-4.46,10.69-8.8,19.42-12.75,24.87"/>
    <line class="cls-8" x1="539.55" y1="830.79" x2="538.66" y2="814.8"/>
    <line class="cls-11" x1="565.72" y1="620.41" x2="535.72" y2="594.87"/>
    <line class="cls-8" x1="743.47" y1="629.34" x2="701.7" y2="588.48"/>
    <path class="cls-7" d="M605.32,922.54c-6.04-.2-12.08-.4-18.11-.6-13.85-.47-27.87-4.82-41.78-8.59,21.65-42.71,6.54-77.9-4.59-95.3,2.48-1.19,4.95-1.97,7.4-2.36h.01c34.56-5.71,65.37,62.27,57.07,106.85Z"/>
    <path class="cls-8" d="M540.84,818.05c-.43,.2-.86,.42-1.29,.65"/>
    <path class="cls-11" d="M708.34,861.14c27.57-23.81,53.28-47.98,78.53-72.23"/>
    <path class="cls-6" d="M954.11,937.26c-1.19-.1-2.39-.19-3.58-.27"/>
    <path class="cls-7" d="M950.53,912.23v24.76c-39.57-2.81-81.54,.78-123.32,3.22v-27.47c2.15-3,16.37-5.09,34.45-6.17,1.08-.06,2.09,.56,2.48,1.57,1.46,3.81,5.15,6.52,9.48,6.52,4.56,0,8.43-3.02,9.7-7.17,.32-1.04,1.28-1.75,2.36-1.77,30.9-.38,62.84,1.7,64.84,6.51Z"/>
    <path class="cls-8" d="M913.26,908.4l10.72-18.64c2.81-4.6,11.23,1.61,9.19,5.36l-12,20.68-7.91-7.4Z"/>
    <path class="cls-8" d="M883.38,893.34l5.49,29.6-11.61,2.82-5.62-30.13c0-4.22,10.72-5.88,11.74-2.3Z"/>
    <path class="cls-7" d="M261.17,906.35c-13.41-7.54-26.44-15.01-41.62-18.88-54.86-13.99-115.53-8.62-149.36-6.13v-107.23H253.57c-6.96,66.55,.89,109.59,7.6,132.24Z"/>
    <path class="cls-6" d="M827.21,940.21c-23.8,1.39-47.53,2.4-70.72,1.64-7.49-.25-14.86-.87-22.15-1.75-5.29-.63-10.53-1.4-15.75-2.26-1.89-.3-3.77-.62-5.65-.95-4.67-.82-9.32-1.69-13.97-2.6-1.21-.23-2.43-.46-3.64-.7-21.6-4.23-43.08-8.76-65.44-10.17-.03-.01-.06-.01-.09-.01"/>
    <path class="cls-8" d="M76.8,433.69s33.6,96.55,32.8,96.69,79.98-23.55,79.98-23.55l-31.14-99.01-81.63,25.87Z"/>
    <path class="cls-10" d="M250.86,461.47h0c1.76,0,3.19,1.43,3.19,3.19v11.87h-6.38v-11.87c0-1.76,1.43-3.19,3.19-3.19Z"/>
    <rect class="cls-10" x="247.67" y="436.16" width="6.38" height="7.53" rx="3.19" ry="3.19"/>
    <line class="cls-11" x1="249.67" y1="419.95" x2="258.49" y2="413.09"/>
    <ellipse class="cls-5" cx="258.6" cy="413.09" rx="2.38" ry="3.26" transform="translate(-118.61 104.5) rotate(-18.67)"/>
    <path class="cls-8" d="M191.92,111.84l5.79,257.8,196.8-4.42-5.79-257.8-196.8,4.42Z"/>
    <path class="cls-18" d="M369.01,144.31s-.06,.08-.1,.13c.04,.11,.05,.24-.02,.36-1.43,3-2.98,6.13-5.63,8.26-.65,.53-1.52,.88-2.1,1.5-.57,.6-.73,1.49-1.11,2.21-.36,.7-.88,1.3-1.49,1.78-.66,.52-1.36,.75-2.12,1.08-.81,.35-.93,1.17-1.07,1.95-.14,.83-.29,1.67-.46,2.49-.38,1.77-.83,3.52-1.37,5.24-.53,1.68-1.14,3.36-1.83,4.98,0,.02,0,.04-.02,.05,.47,.47,.91,.97,1.31,1.49,.22-.41,.96-.35,.94,.21-.02,.33-.06,.65-.11,.97,.16,.26,.05,.5-.14,.64-.41,1.74-1.3,3.34-2.02,5-.5,1.14-.9,2.33-.95,3.59-.06,1.44,.17,2.88,.21,4.32,.13,4.69-.89,9.39-2.91,13.62-1.1,2.31-2.51,4.45-4.15,6.4-.17,.83-.38,1.66-.67,2.46-1.12,3.13-3.25,5.89-6.33,7.25-.36,2.1-1.03,4.14-2.01,6.04-1.03,1.96-2.37,3.78-3.95,5.34-.78,.76-1.62,1.46-2.5,2.09-.94,.67-1.97,1.19-2.93,1.84-.48,.33-.95,.71-1.32,1.18-.42,.53-.65,1.18-.93,1.78-.49,1.07-1.19,1.99-2.05,2.79-1.93,1.77-4.19,3.25-6.29,4.83,.74,1.33,1.26,2.79,1.51,4.32,.39,2.39,.09,4.82-.04,7.22-.11,2.22-.1,4.45,.02,6.67,.01,0,.01,.02,.02,.03,.64,1.12,1.3,2.22,2,3.31,1.46,2.24,3.1,4.36,5.06,6.18,2.1,1.94,4.55,3.44,7.04,4.83,4.98,2.78,10.13,5.29,15.38,7.54,2.7,1.14,5.43,2.22,8.18,3.22,1.31,.47,2.62,.92,3.94,1.36,1.2,.4,2.45,.74,3.6,1.26,2.05,.94,3.29,2.8,2.83,5.09-.47,2.33-2.33,3.87-4.44,4.71-2.34,.93-4.9,.96-7.26,1.78-1.24,.43-2.27,1.14-3.12,2.16-.82,1-1.47,2.12-2.25,3.14-1.57,2.06-3.44,3.86-5.55,5.36-1.09,.78-2.26,1.51-3.53,1.99-1.3,.49-2.69,.6-4.06,.51-1.01-.06-2.02-.18-3.04-.33,3.45,7.36,6.9,14.7,10.52,21.98,2.8,5.66,5.57,11.34,8.53,16.92l-134.99,3.03c.95-3.09,1.87-6.18,2.79-9.28,3.45-11.7,6.68-23.46,9.71-35.27l-.2-3.47c-.5-8.92-1.01-17.83-1.51-26.74-.16-.19-.2-.5-.02-.7,.05-.36,.46-.47,.74-.31,2.37-.77,4.83-1.25,7.32-1.45-1.37-.65-2.66-1.46-3.87-2.4-1.82-1.42-3.69-2.95-5.24-4.68-1.48-1.66-2.55-3.61-2.6-5.87-.02-1.34,.25-2.67,.52-3.97,.29-1.38,.54-2.77,.75-4.17,.4-2.76,.63-5.54,.67-8.32,.04-2.64-.19-5.3,.01-7.94,.31-3.9,2.12-8.43,6.23-9.55-.2-2.25-.16-4.53,.66-6.64,1.07-2.73,3.38-4.46,6.03-5.54,3.05-1.25,6.36-1.94,9.53-2.81,1.83-.5,3.67-1.01,5.51-1.51-.23-1.06-.33-2.13-.09-3.21,.3-1.38,1.11-2.6,2.35-3.25-.36-1.34-.61-2.71-.73-4.09-.03-.23-.03-.45-.03-.67-1.14-1.45-2.08-3.1-2.8-4.81-.71-1.66-1.24-3.55-.87-5.37,.16-.77,.53-1.52,1.11-2.06,.36-.34,.85-.52,1.2-.85,.39-.38,.2-1.03,.2-1.52,0-2.93,1.55-5.71,3.91-7.38,.21-1.49,.56-2.96,.96-4.4,.81-2.94,1.61-6.13,3.72-8.44,1.85-2.03,4.55-2.98,7.16-3.64,3.2-.81,6.54-1.36,9.85-.99,2.61,.28,5.16,1.17,7.26,2.77,2.14,1.62,3.46,3.91,4.24,6.46,.82,2.69,1.13,5.51,2.02,8.18,.93,2.79,2.85,5.09,3.82,7.86,1.46,4.17,.9,8.9-1.35,12.67,.5,.54,.99,1.1,1.47,1.67,2.5,3.04,4.55,6.5,5.63,10.32,.15,.55,.28,1.09,.4,1.65,.8-.66,1.73-1.11,2.74-1.35-.69-3.07,2.93-5.47,4.97-7.1,1.52-1.21,3.05-2.42,4.55-3.64,1.24-1.01,2.48-2.09,3.42-3.39,.83-1.15,1.37-2.46,1.36-3.89-.01-1.47-.24-2.88,.55-4.19,1.26-2.14,3.8-3.09,5.2-5.14,1.38-2.05,1.94-4.52,2.77-6.82,.83-2.33,1.94-4.29,3.94-5.8,.86-.65,2.2-1.44,2.35-2.61,.09-.74-.39-1.41-.3-2.16,.07-.53,.33-1,.7-1.38,.56-.57,1.29-.91,2.05-1.15,.22-.61,.49-1.21,.72-1.78,.74-1.76,1.48-3.52,2.22-5.29,.72-1.73,1.58-3.48,1.99-5.32,.35-1.59,.3-3.37-.69-4.72-.8-1.09-2.03-1.77-2.97-2.72-.97-.97-1.45-2.12-1.57-3.48-.12-1.37,.16-2.93-.47-4.2-.69-1.35-2.45-1.67-3.15-3.03-.57-1.11,0-2.82,1.44-2.72,.26,.01,.41,.19,.47,.4,2.69,.26,4.6,3.02,6.21,4.96,.63,.77,1.25,1.55,1.9,2.3,.4,.45,.63,.58,1.04,.08,.3-.38,.61-.75,.91-1.13,1.23-1.5,2.45-3.01,3.67-4.51,.16-.17,.39-.19,.58-.09,.17-.21,.47-.31,.72-.07,.55,.54,.42,1.31,.1,1.95-.33,.68-.83,1.31-1.28,1.92-.35,.48-.74,.94-1.12,1.39-.06,.13-.12,.26-.18,.4-.22,.55-.35,1.32-.28,2.02,.31,.71,1.3,.94,2.02,.9,.72-.03,1.43-.21,2.13-.34,.72-.7,1.36-1.55,1.88-2.18,1.19-1.44,2.38-2.86,3.91-3.94,.23-.16,.56-.05,.69,.16,1.06,1.76-.97,3.55-1.87,4.89-.61,.91-1.17,1.88-1.64,2.87-.2,.42-.48,1.3,.34,.87,.47-.24,.85-.73,1.22-1.1,1.61-1.63,3.16-3.32,4.63-5.08,1.18-1.41,2.31-3.47,4.21-3.99,.27-.08,.53,.08,.62,.34,.63,1.87-.41,3.63-1.43,5.13-1.02,1.51-1.89,3.04-2.51,4.73,1.67-.61,3.21-1.47,4.59-2.55,.05-.06,.1-.12,.15-.18,.33-.67,.67-1.34,1.06-1.97,.51-.87,1.18-1.56,2.2-1.72,.31-.05,.53,.29,.49,.57,.08,.14,.1,.31,0,.46Z"/>
    <path class="cls-15" d="M494.28,348.57c-15.42-34.94-19.31-66.95-12.72-96.3"/>
    <path class="cls-15" d="M492.15,207.2c-15.24,27.42-20.13,83.33,27.66,107.33,0,0-19.41-43.4-6.38-67.91"/>
    <path class="cls-15" d="M469,271.94c-4.89,17.95-7.17,37.42-2.98,60.63"/>
    <path class="cls-15" d="M526.45,183.99c-.77,.08-46.72,21.24-64.34,64.91,0,0-5.88-28.71,24.28-54.37"/>
    <path class="cls-15" d="M430.61,281.18c10.06-9.06,3.44-35.03,19.51-49.04"/>
    <path class="cls-15" d="M452.66,245.34s-11.3-21.96,13.75-46.98"/>
    <path class="cls-15" d="M589.77,237.57s11.83,43.65-7.98,78.94"/>
    <line class="cls-15" x1="598.11" y1="301.94" x2="586.2" y2="307.32"/>
    <path class="cls-15" d="M598.11,187.13s42.6,28.07,21.85,91.01"/>
    <path class="cls-15" d="M549.17,203.98c.26,1.02-2.3,60,14.43,73.02,0,0-17.83-5.39-24.04-28.1,0,0-4.94,6.04-3.66,11.97,0,0-17.04-23.12-6.89-56.89"/>
    <path class="cls-8" d="M697,449.85c-24.26-16.34-6.89-43.91,0-49.02"/>
    <path class="cls-4" d="M690.62,399.55c-15.84,23.67-32.53,33.52-37.02,50.55"/>
    <path class="cls-12" d="M624.81,404.58c-2.12,.77-4.2,1.6-5.68,2.38-2.33,1.23-4.73,4.29-4.09,7.91,1.53,8.68,10.41,17,10.41,17,3,2.18,12.58,4.7,17.17,4.7,2.25,0,5.89-3.12,6.61-7"/>
    <path class="cls-12" d="M627.37,348.81l-7.22-5.94c-11.23-.26-10.47,7.91-10.47,7.91,0,0,8.06,14.63,17.69,21.61l15.25,16.13,16.83,23.38"/>
    <path class="cls-12" d="M639.75,398.53l5.52,10.07s4.35,1.8,11.76,11.63-4.6,11.51-4.6,11.51l-19.66-13.22-10.84-18.96c-.81-1.84,2.96-9.11,9.57-10.3"/>
    <path class="cls-10" d="M669.15,323.67l-44.96,47.71c2.19-2.33-3.84-8.45-6.75-5.05,.62-1.59,45.55-48.57,45.55-48.57,3.15-3.4,9.2,2.56,6.16,5.91Z"/>
    <path class="cls-1" d="M686.14,388.53l-16.71-19.1-14.06-15.05-18.88-15.47c-5.56-3.53-13.79,5.5-9.12,9.91,0,0,10.27,12.44,16.34,15.25l12.17,16.21,14.1,20.68"/>
    <path class="cls-16" d="M671.26,316.97c6.66-6.08,12.13-20.68,10.85-27.57-1.59-8.53-7.18-15.66-11.74-23.04-3.96-6.41-7.27-13.35-8.49-20.79-1.21-7.43-.17-15.44,4.01-21.71,2.65-3.97,8-9.29,19.23-9.53,7.54-.16,27.61,14.39,13.99,15.17-8.61,.49-14.21-10.36-22.06-14.28-3.9-1.96-7.91-3.7-12.01-5.21-3.21,1.26-6.41,2.52-9.62,3.79-3.25,1.29-7.95,2.05-9.38-1.14-1.04-2.32,.87-5.1,3.28-5.9s5.04-.18,7.48,.53c2.78,.8,5.53,1.71,8.24,2.72,13.9-5.49,27.81-10.98,41.71-16.46,7-2.76,14-5.53,20.76-8.81,5.83-2.83,11.9-6.52,14.13-12.6,2.54-6.94-1.02-15.01-6.81-19.61-5.78-4.6-13.3-6.38-20.63-7.31-10.3-1.32-20.71-1.23-31.09-1.15-22.4,.19-43.53,15.84-65.92,16.76-62.01,2.55-69.7-30.82-70.57-35.8-.78-4.51,1.13-9.19,4.22-12.57,3.08-3.37,7.22-5.6,11.46-7.32,8.12-3.29,16.72-4.87,25.45-5.2,8.01-.31,16.13,.43,24.11,1.84,.42-.18,.84-.35,1.26-.53,24.95-10.42,53.6-11.74,79.41-3.66,3.77,1.18,7.56,2.6,10.6,5.13s5.23,6.37,4.86,10.3c-.47,5.11-5.14,9.04-10.13,10.24-4.98,1.19-10.21,.2-15.2-.99-20.11-4.82-39.3-12.97-59.35-18.03-3.77-.95-7.59-1.79-11.45-2.46-3.36,1.44-6.73,2.93-10.32,3.54-4.04,.69-8.53,.11-11.61-2.6-.91-.8-1.63-1.74-2.18-2.78-2.37-4.49-1.4-10.71,1.86-14.86,4-5.11,10.45-7.63,16.76-9.13,6.31-1.51,12.87-2.24,18.83-4.8,13-5.58,21.14-19.19,23.88-33.08,.55-2.77,.91-5.55,1.12-8.35"/>
    <circle class="cls-10" cx="250.86" cy="488.15" r="21.45"/>
    <circle class="cls-13" cx="250.86" cy="488.15" r="17.2"/>
    <polygon class="cls-18" points="255.5 488.18 258.94 496.83 251.02 491.44 243.62 496.83 246.61 488.44 239.91 483.87 248.29 483.73 250.86 476.53 253.69 483.63 261.94 483.49 255.5 488.18"/>
    <polygon class="cls-10" points="169.69 478.88 138.3 488.33 136.26 488.95 107.8 497.53 103.29 483.63 89.2 440.3 151.95 421.01 166.61 468.83 169.69 478.88"/>
    <path class="cls-18" d="M169.69,478.88l-31.39,9.46-2.04,.62-28.46,8.57-4.52-13.9c.56-3.5,1.98-6.8,4.75-8.9,1.87-1.41,4.33-2.26,5.46-4.32,.63-1.15,.62-2.69,.48-4.31-.06-.03-.12-.07-.18-.1-3.77-2.11-6.35-6.19-6.65-10.47-.26-3.77,1.67-10.29,5.94-11.35,4.7-1.16,8.94,2.27,10.41,6.44,1.54,4.38,.91,9.45-1.68,13.3,.16,.77,.33,1.49,.56,2.02,.78,1.81,2.52,3.04,4.32,3.86,1.79,.82,3.73,1.33,5.49,2.24,1.35,.7,2.54,1.66,3.56,2.79,.65-1.58,1.55-3.04,2.66-4.34,1.02-1.21,2.22-2.26,3.17-3.53,.77-1,1.37-2.19,1.49-3.43-3.1,.82-6.3,1.18-9.5,1.05-.42-5.2-.86-10.4-1.28-15.6-.46-5.54,.67-12.24,7.72-12.33,2.54-.03,4.96,1.18,6.86,2.85,1.9,1.67,3.36,3.76,4.81,5.84,2.2,3.15,4.38,6.29,6.57,9.44-2.84,2.91-6.25,5.25-9.95,6.91,1.28,1,3.16,.81,4.82,.79,5.07-.06,10.12,2.27,13.37,6.16,.04,.06,.08,.1,.13,.16l3.08,10.04Z"/>
    <path class="cls-4" d="M204.12,122.35l5.31,236.24,172.88-3.88-5.31-236.24-172.88,3.88Z"/>
    <path class="cls-8" d="M374.57,566.82c1.79,11.06,6.71,21.59,14.04,30.06"/>
    <path class="cls-8" d="M379.21,570.96c3.06,6.13,6.12,12.26,9.18,18.39"/>
    <path class="cls-8" d="M481.54,560.12c27.37-3.72,53.22-17.71,71.29-38.59"/>
    <path class="cls-8" d="M515.27,555.47c8.63-3.12,16.79-7.52,24.14-13.03"/>
    <path class="cls-8" d="M285.87,555.59c3.35,6.13,8.61,11.18,14.87,14.27"/>
    <path class="cls-8" d="M289.88,554.71l7.67,6.11"/>
    <path class="cls-8" d="M337.5,671.06c1.74-.98,4.06-.06,5.29,1.51s1.66,3.61,2.05,5.57c3.27,16.52,6.54,33.03,9.81,49.55"/>
    <path class="cls-8" d="M339.97,680.98c4.01,19.46,8.02,38.91,12.03,58.37"/>
    <path class="cls-8" d="M309.27,748.61c-3.96,35.39,.85,71.73,13.88,104.87"/>
    <path class="cls-8" d="M301.49,776.65c-.3,12.33,.84,24.69,3.38,36.76"/>
    <path class="cls-8" d="M378.88,701.59c4.08,18.46,10.6,36.37,19.33,53.14"/>
    <path class="cls-8" d="M386.81,709.83c6.34,22.37,15.79,43.86,27.97,63.66"/>
    <path class="cls-8" d="M529.57,734.81c-4.43,12.47-10.88,24.22-19,34.66"/>
    <path class="cls-8" d="M540.9,840.73c-11.6,32.2-39.71,57.94-72.8,66.67"/>
    <path class="cls-8" d="M363.83,830.21c5.52,23.15,17.35,44.76,33.88,61.87-15.38-33.92-25.49-70.23-29.86-107.22"/>
    <path class="cls-8" d="M378.58,807.88c6.37,26.77,15.81,52.81,28.08,77.44"/>
    <path class="cls-8" d="M259.73,808.81c-4.58,31.77,.84,64.91,15.29,93.57"/>
    <path class="cls-8" d="M267.47,861.6c3.12,10.36,6.25,20.73,9.37,31.09"/>
    <path class="cls-8" d="M562.94,502.2c10.07,9.88,23.4,16.39,37.38,18.27"/>
    <path class="cls-8" d="M579.26,521.33c5.72,.93,11.44,1.86,17.17,2.79"/>
    <path class="cls-8" d="M674.87,582.85c-7.53,23.69-28.24,43.58-48.86,57.46"/>
    <path class="cls-4" d="M660.72,447.28c5.16-6.78,12.69-11.73,20.96-13.77"/>
    <path class="cls-4" d="M667.36,436.01l15.32-6.64"/>
    <path class="cls-10" d="M624.19,371.38s-2.31,2.68-5.54-.42c-2.29-2.21-1.21-4.63-1.21-4.63,2.91-3.4,8.94,2.72,6.75,5.05Z"/>
    <path class="cls-13" d="M227.99,103.09c-1.6,.24-3.07,.31-4.64-.18-1.3-.41-2.7-1.16-3.04-2.59,0,0,0-.01,0-.02-1.9,.49-3.76,1.21-5.66,1.7-.51,.13-.98,0-1.35-.26l-42.09,38.15s0,0,0,.01c.23-.18,.47-.36,.73-.49,.75-.4,1.59-.25,2.15,.33,.17-.02,.34-.05,.52-.06,1.53-.06,2.18,1.83,1.28,2.9,.83,.28,1.42,1.18,1.16,2.12-.18,.63-.39,1.25-.63,1.87,.14,.19,.28,.38,.43,.57,.2-.08,.41-.17,.61-.24,.86-.29,1.86,.31,2.13,1.16,.36,.33,.6,.8,.59,1.29-.01,.74-.19,1.44-.47,2.11,0,0,0,.01,0,.02,0,1.02,52.77-48.34,52.77-48.34l-1.37-.6c-1.04,.22-2.08,.41-3.13,.57Z"/>
    <path class="cls-13" d="M406.56,141.93c1.52-.75,3.14-1.25,4.8-1.62-5.76-6.19-38.33-41.18-44.84-46.42-.49,.7-1.57,1.04-2.31,.53-.25-.17-.52-.36-.78-.55-.48,.13-1.02,.28-1.61,.44-.42,1.97-3.06,2.49-4.82,2.21-.36-.06-.71-.15-1.06-.25,.39,1.1,.62,2.24,.36,3.5-.21,1.02-1.26,1.34-2.14,1.22-.36-.05-.71-.13-1.07-.22,10.76,11.9,45.19,47.98,45.19,47.98l4.4-2.36c.45-1.98,2.04-3.54,3.88-4.45Z"/>
    <path class="cls-13" d="M188.1,327.89l-2.74,1.71c-.04,.15-.08,.31-.12,.46-.22,.68-.72,1.09-1.31,1.21,.11,.89,.18,1.77,.12,2.66-.08,1.12-.37,2.34-1.44,2.92-.9,.49-1.79,.29-2.59-.17-.39,.35-.78,.73-1.16,1.11-.05,.28-.14,.55-.31,.79-.29,.39-.67,.58-1.08,.64l39.07,39.66s2.48,.12,5.77,.24c.03-.05,.07-.09,.1-.14,0,0,0,0,0,0,.07-.08,.13-.16,.19-.25-.03,.04-.11,.14-.16,.21,.02-.03,.05-.07,.11-.14,.08-.1,.15-.2,.24-.29,.31-.29,.64-.46,1.03-.6,.47-.17,.98-.21,1.48-.24,1.1-.05,2.21,.1,3.31,.12,.29,0,.57,0,.86,0,.13,0,.25-.01,.38-.02,.05,0,.09,0,.12-.01-.03,0-.05,0-.1,.02,.11-.02,.41-.04,.61-.1,0-.01,.02-.03,.12-.08,.2-.1,.16-.09,.02,.01,0,0-.01,0-.02,.01,.74-.58,1.71-.67,2.43,.02,.15,.14,.3,.28,.46,.42,.06,.05,.11,.09,.17,.14,.01,0,.02,.01,.05,.04,.3,.22,.61,.43,.91,.65,.19,.13,.37,.27,.56,.41,1.75-.06,2.94-.18,3.09-.41,.68-1.02-50.18-50.98-50.18-50.98Z"/>
    <path class="cls-13" d="M405.74,348.82c-.12-.09-.23-.19-.34-.3-.59-.63-.76-1.35-.69-2.09l-.11-.25c-.17,.05-.34,.1-.5,.17-1.06,.4-2.23-.63-2.21-1.68,.02-.89,.16-1.77,.36-2.63-4.79,3.34-41.09,36.58-41.09,36.58h.14c3.88-4.75,12.1-3.6,16.37,.56l4.63,.16,26.52-23.35-3.09-7.15Z"/>
    <line class="cls-13" x1="191.46" y1="123.98" x2="191.92" y2="137.33"/>
    <line class="cls-13" x1="196.29" y1="339.4" x2="196.55" y2="356.29"/>
    <line class="cls-13" x1="389.89" y1="120.49" x2="390.21" y2="134.66"/>
    <path class="cls-13" d="M377.51,365.6l15-.34c1.11-.02,1.99-.94,1.97-2.04l-.13-10.65"/>
    <line class="cls-13" x1="205.85" y1="110.76" x2="221.34" y2="110.36"/>
    <line class="cls-13" x1="209.6" y1="369.64" x2="226.7" y2="369.64"/>
    <path class="cls-17" d="M717.61,857.7s-21.3,13.43-12.28,19.55c0,0-44.86,23.18-45.86,36.96,0,0-6.09,8.22,13.73,14.95,.29,.1,.58,.19,.87,.29,20.87,6.78-44.2-6.03-44.2-6.03l76.9-60.94,10.83-4.78Z"/>
  </g>
  <g id="details">
    <path class="cls-3" d="M543.46,413.35c2.7,2.68,6.28,4.46,10.04,5.02s7.7-.13,11.06-1.92"/>
    <path class="cls-3" d="M544.29,410.74c5.72,4.55,13.65,6.18,20.7,4.26"/>
    <path class="cls-3" d="M545.66,407.91c4.68,3.85,11.11,5.47,17.05,4.32"/>
    <path class="cls-3" d="M547.39,405.08c3.7,3.89,9.49,5.66,14.74,4.5"/>
    <path class="cls-3" d="M547.2,402.82c4.04,3.3,9.39,4.93,14.59,4.45"/>
    <path class="cls-3" d="M549.06,400.27c3.06,2.52,7.16,3.72,11.1,3.26"/>
    <path class="cls-3" d="M549.72,396.63c2.72,2.49,6.49,3.8,10.17,3.53"/>
    <path class="cls-3" d="M551.45,393.99l-.35,.14c2.71,1.84,6.19,2.48,9.38,1.74"/>
    <path class="cls-3" d="M552.33,390.62c2.15,1.99,5.16,3.01,8.08,2.73"/>
    <path class="cls-3" d="M553.5,387.99c1.64,1.55,3.97,2.34,6.22,2.1"/>
    <path class="cls-3" d="M555.15,385.57c1.65,1.26,3.81,1.82,5.86,1.52"/>
    <path class="cls-3" d="M555.78,383.82l4.94,1.68"/>
    <path class="cls-3" d="M561.37,349.08c-.21,1.31,.09,2.7,.81,3.81s2.26,2.1,3.54,2.45c-.74,.73-1.97,.79-2.92,.36s-1.65-1.27-2.19-2.16c-1.08-1.81-1.58-3.97-1.41-6.07"/>
    <path class="cls-3" d="M565.6,352.7c.48,.92,1.43,1.59,2.46,1.73"/>
    <path class="cls-3" d="M571.91,342.87c-.73-1.76-.56-3.87,.45-5.49s2.83-2.7,4.73-2.82"/>
    <path class="cls-3" d="M570.26,339.98c-.35,1.4-.28,2.89,.2,4.25"/>
    <path class="cls-3" d="M568.98,342.28l-.08,1.79"/>
    <path class="cls-3" d="M472.28,398.74c14.24-1.91,28.91-.52,42.54,4.04"/>
    <path class="cls-3" d="M483.81,393.54c8.2-.16,16.43,.99,24.28,3.38"/>
    <path class="cls-3" d="M490.99,389.08l14.29,1.85"/>
    <path class="cls-3" d="M496.87,385.73l8.92,1.12"/>
    <path class="cls-3" d="M499.9,382.34l4.84,.36"/>
    <path class="cls-3" d="M500.92,378.61l4.09,.26"/>
    <path class="cls-3" d="M503.47,374.28l1.79,.26"/>
    <path class="cls-3" d="M534.45,659.29c2.07,.12,4.15,.11,6.22-.05"/>
    <path class="cls-3" d="M534.1,653.64c3.42,.23,6.86,.14,10.27-.24"/>
    <path class="cls-3" d="M526.11,648.47c6.85,1.29,13.92,1.39,20.81,.33"/>
    <path class="cls-3" d="M525.58,642.08c7.91,1.74,16.14,2.02,24.16,.89"/>
    <path class="cls-3" d="M526.44,636.28c8.42,1.52,17.03,1.96,25.57,1.32"/>
    <path class="cls-3" d="M527.31,630.57c8.56,2.5,17.61,3.27,26.48,2.29"/>
    <path class="cls-3" d="M528.23,624.89c8.92,2.56,18.39,3.18,27.57,1.83"/>
    <path class="cls-3" d="M527.6,619.05c9.71,2.02,19.62,3.05,29.53,3.04"/>
    <path class="cls-3" d="M528.63,614.38c9.73,2.54,19.92,3.25,29.9,2.1"/>
    <path class="cls-3" d="M527.83,609.59c9.29,2.16,18.92,2.8,28.41,1.88"/>
    <path class="cls-3" d="M528.14,604.96c7.43,1.64,15.07,2.32,22.67,2"/>
    <path class="cls-3" d="M529.36,600.92c5.3,1.41,10.81,2.05,16.29,1.91"/>
    <path class="cls-3" d="M542.21,600.07c-4.41-.42-8.81-.85-13.23-1.28"/>
    <path class="cls-3" d="M384.6,474.74c-8.03,24.91-12.18,51.06-12.25,77.23"/>
    <path class="cls-3" d="M374.4,495.24l-5.51,36.27"/>
    <path class="cls-3" d="M367.06,510.09l-3.06,15.32"/>
    <path class="cls-3" d="M684.74,476.44c9.69,.3,19.45-2.71,27.29-8.41"/>
    <path class="cls-3" d="M692.94,473.76c5.76-.77,11.34-2.78,16.28-5.84"/>
    <path class="cls-3" d="M679.89,391.63c-4.62,2.84-8.62,6.31-12.44,10.12-4.81,4.8-9.3,9.59-14.06,14.44"/>
    <path class="cls-3" d="M641.77,399.21c.21,.66,.12,1.4-.22,2"/>
    <path class="cls-3" d="M643.08,400.06v-.2c0,1.06-.33,2.12-.91,3.01"/>
    <path class="cls-3" d="M644.19,400.49c-.05,1.5-.6,2.98-1.54,4.16"/>
    <path class="cls-3" d="M645.47,400.28c-.14,2-.86,3.96-2.04,5.57"/>
    <path class="cls-3" d="M646.57,400.45c-.11,2.34-1.11,4.63-2.76,6.3"/>
    <path class="cls-3" d="M647.75,400.54c-.14,2.67-1.33,5.28-3.25,7.14-.01-.07-.03-.14-.04-.2"/>
    <path class="cls-3" d="M648.97,400.79c-.16,2.76-1.37,5.45-3.32,7.42"/>
    <path class="cls-3" d="M650.54,401.22c-.37,2.95-1.86,5.74-4.09,7.69-.02-.07-.05-.14-.07-.21"/>
    <path class="cls-3" d="M651.74,401.21c.05,3.34-1.49,6.66-4.07,8.77"/>
    <path class="cls-3" d="M653.14,402.32c-.09,3.41-1.8,6.74-4.51,8.8"/>
    <path class="cls-3" d="M654.16,404.06c-.03,2.98-1.48,5.91-3.83,7.73"/>
    <path class="cls-3" d="M655.12,405.81c-.38,2.84-1.99,5.49-4.34,7.13-.03-.06-.06-.13-.09-.19"/>
    <path class="cls-3" d="M656.12,407.1c-.68,2.5-2.17,4.77-4.2,6.39"/>
    <path class="cls-3" d="M656.92,408.21c-.64,2.57-2.18,4.91-4.28,6.52,.07-.04,.14-.07,.2-.11"/>
    <path class="cls-3" d="M657.92,409.51c-1.02,2.5-2.86,4.66-5.17,6.06"/>
    <path class="cls-3" d="M628.06,430.25c1.43-.76,2.72-1.78,3.79-2.99,1.77-1.98,2.93-4.49,3.33-7.11"/>
    <path class="cls-3" d="M629.19,430.97c3.76-1.95,6.63-5.64,7.48-9.8"/>
    <path class="cls-3" d="M631.11,432.03c1.56-.87,2.96-2.04,4.09-3.43,1.5-1.84,2.52-4.08,2.94-6.43"/>
    <path class="cls-3" d="M633.61,433.15c3.11-2.5,5.23-6.23,5.7-10.19"/>
    <path class="cls-3" d="M635.63,433.86c2.74-2.53,4.55-6.08,4.93-9.8"/>
    <path class="cls-3" d="M641.57,424.96c.2,3.55-1.39,7.13-4.08,9.43"/>
    <path class="cls-3" d="M639.43,434.81c2.39-2.33,3.94-5.54,4.27-8.86"/>
    <path class="cls-3" d="M645.6,427.24c-.59,2.9-1.92,5.65-3.82,7.92"/>
    <path class="cls-3" d="M646.9,428.13c-.46,2.61-1.56,5.08-3.16,7.19"/>
    <path class="cls-3" d="M645.28,435.37c1.41-1.95,2.27-4.3,2.43-6.71"/>
    <path class="cls-3" d="M634.69,418.47c2.34-.24,4.6-1.26,6.33-2.86s2.92-3.77,3.34-6.09"/>
    <path class="cls-3" d="M636.24,419.61c4.15-.59,7.91-3.44,9.6-7.28"/>
    <path class="cls-3" d="M637.63,420.97c4.19-1.18,7.85-4.14,9.87-8"/>
    <path class="cls-3" d="M639.02,422.33c4.05-1.02,7.61-3.85,9.5-7.56"/>
    <path class="cls-3" d="M640.81,424c4.11-1.04,7.61-4.21,9.04-8.2"/>
    <path class="cls-3" d="M643.01,424.85c3.99-1.06,7.43-4.02,9.08-7.8"/>
    <path class="cls-3" d="M644.5,426.39c3.8-1.25,7.07-4.04,8.89-7.6"/>
    <path class="cls-3" d="M646.45,427.53c3.22-1.18,6.01-3.52,7.73-6.49"/>
    <path class="cls-3" d="M648.36,428.78c3.35-1.46,6.17-4.12,7.82-7.38"/>
    <path class="cls-3" d="M649.87,429.61c3.29-1.11,6.07-3.63,7.5-6.79"/>
    <path class="cls-3" d="M650.89,430.9c3.66-1.31,6.68-4.3,8.02-7.96"/>
    <path class="cls-3" d="M652.81,431.81c2.7-1.48,4.97-3.74,6.45-6.45"/>
    <path class="cls-3" d="M633.9,376.09c2.24-3.79,5.59-6.91,9.53-8.87"/>
    <path class="cls-3" d="M635.73,376.63c1.38-2.18,3.23-4.07,5.38-5.5"/>
    <path class="cls-3" d="M636.91,378.44c1-1.78,2.46-3.31,4.19-4.39"/>
    <path class="cls-3" d="M638.16,379.59c.49-1.07,1.3-1.98,2.3-2.6"/>
    <path class="cls-3" d="M639.26,381.41l.65-1.14"/>
    <path class="cls-3" d="M645.82,389.61c2.66-2.66,5.9-4.73,9.43-6.02"/>
    <path class="cls-3" d="M647.58,365.66c1.55-3.41,4.62-6.1,8.2-7.18"/>
    <path class="cls-3" d="M649.4,366.83c1.03-2.69,3.07-4.97,5.63-6.28"/>
    <path class="cls-3" d="M650.41,369.56c-.09-1.17,.47-2.36,1.43-3.04"/>
    <path class="cls-3" d="M651.3,371.03l.72-1.62"/>
    <path class="cls-3" d="M659.4,382.14c1.12-4.05,4.08-7.55,7.89-9.31"/>
    <path class="cls-3" d="M628.84,346.19c3.82,6.44,9.25,11.9,15.67,15.75"/>
    <path class="cls-3" d="M639.51,356.2l2.56,2.16"/>
    <path class="cls-3" d="M611.45,349.64c1.5,4.1,3.8,7.91,6.75,11.13"/>
    <path class="cls-3" d="M615.04,353.85c.75,1.89,1.94,3.61,3.46,4.97"/>
    <path class="cls-3" d="M647.48,390.48c3.37,6.03,7.64,11.56,12.62,16.36"/>
    <path class="cls-3" d="M661.35,383.44c2.72,4.5,6.11,8.6,10.03,12.11"/>
    <path class="cls-3" d="M663.68,383.95l4.52,5.96"/>
    <path class="cls-3" d="M701.16,380.66l-1.57,17.88"/>
    <path class="cls-3" d="M703.98,367.09c-2.63,2.57-3.76,6.56-2.88,10.12"/>
    <path class="cls-3" d="M703.46,371.56c-.97,1.55-1.13,3.57-.43,5.25"/>
    <path class="cls-3" d="M691.74,414c-3,4.13-4.54,9.31-4.28,14.41s2.32,10.09,5.72,13.9"/>
    <path class="cls-3" d="M704.15,457c.56,3.67-.02,7.51-1.64,10.86"/>
    <path class="cls-3" d="M706.22,458.27c.29,3.27-.12,6.6-1.18,9.7"/>
    <path class="cls-3" d="M708.14,459.55c.22,2.36,0,4.75-.68,7.02"/>
    <path class="cls-3" d="M709.36,460.71c.35,1.74,.25,3.56-.3,5.25"/>
    <path class="cls-3" d="M711.29,460.83v3.83"/>
    <path class="cls-3" d="M713.22,461.34c.38,.63,.27,1.53-.26,2.05"/>
    <path class="cls-3" d="M702.96,478.54c-3.35,.95-6.72,1.9-10.08,2.86"/>
    <path class="cls-3" d="M703.26,480.6c-2.77,.39-5.47,1.16-8.03,2.28"/>
    <path class="cls-3" d="M703.61,482.97c-2.97,.47-5.89,1.25-8.71,2.31"/>
    <path class="cls-3" d="M704.11,486.45c-2.84,.54-5.68,1.09-8.52,1.64"/>
    <path class="cls-3" d="M704.62,489.92c-3.18,.65-6.36,1.29-9.53,1.94"/>
    <path class="cls-3" d="M695.12,494.93c3.14-1.31,6.46-2.2,9.85-2.61"/>
    <path class="cls-3" d="M705.43,495.5c-3.16,.67-6.33,1.34-9.49,2"/>
    <path class="cls-3" d="M695.64,501.59c0-.22,0-.45-.02-.68,3.41-.81,6.83-1.62,10.25-2.42"/>
    <path class="cls-3" d="M706.37,501.92c-3.59,.4-7.12,1.35-10.42,2.84"/>
    <path class="cls-3" d="M696.65,508.08c-.1-.1-.21-.2-.31-.3,3.4-1.23,6.96-1.98,10.56-2.21"/>
    <path class="cls-3" d="M707.46,509.41c-3.72,.16-7.42,.98-10.86,2.43"/>
    <path class="cls-3" d="M708,513.16c-3.71,.26-7.37,1.04-10.86,2.32"/>
    <path class="cls-3" d="M697.58,519.86c3.59-1.2,7.29-2.03,11.04-2.48"/>
    <path class="cls-3" d="M709.25,521.73c-3.94,.03-7.88,.88-11.48,2.49"/>
    <path class="cls-3" d="M709.85,525.83c-4.26,.48-8.45,1.53-12.43,3.11"/>
    <path class="cls-3" d="M710.44,529.94c-4.16,.13-8.29,1.08-12.06,2.83"/>
    <path class="cls-3" d="M710.98,533.65c-4.24,.08-8.47,.96-12.38,2.6"/>
    <path class="cls-3" d="M711.46,536.95c-4.44,.28-8.84,1.33-12.9,3.14"/>
    <path class="cls-3" d="M712.03,540.82c-4.4,.01-8.81,1-12.76,2.92"/>
    <path class="cls-3" d="M712.58,544.6c-4.65,.35-9.24,1.4-13.56,3.15"/>
    <path class="cls-3" d="M713.13,548.42c-4.69,.4-9.33,1.49-13.71,3.21"/>
    <path class="cls-3" d="M713.75,552.63c-4.88,.09-9.75,1.22-14.17,3.31"/>
    <path class="cls-3" d="M714.45,557.48c-4.78,0-9.56,.86-14.03,2.54"/>
    <path class="cls-3" d="M715.02,561.4c-5.06,.54-10.08,1.52-14.97,2.94"/>
    <path class="cls-3" d="M715.53,564.86c-5.09,.21-10.16,1.19-14.96,2.92"/>
    <path class="cls-3" d="M715.98,567.99c-5.37,.15-10.71,1.25-15.7,3.25"/>
    <path class="cls-3" d="M701.23,574.05c4.83-1.9,10.04-2.83,15.24-2.74"/>
    <path class="cls-3" d="M701.02,578.43c5.14-1.86,10.56-2.93,16.02-3.17"/>
    <path class="cls-3" d="M717.66,579.5c-5.33,.15-10.64,.97-15.78,2.42"/>
    <path class="cls-3" d="M701.48,585.52c5.34-1.86,11.01-2.75,16.67-2.66"/>
    <path class="cls-3" d="M701.67,588.45c5.64-.98,11.37-1.43,17.09-1.36"/>
    <path class="cls-3" d="M704.71,591.43c4.86-.59,9.76-.68,14.64-.27"/>
    <path class="cls-3" d="M707.58,594.24c3.98-.87,8.1-1.06,12.14-.58"/>
    <path class="cls-3" d="M711.52,598.09c2.81-.81,5.75-1.18,8.68-1.09"/>
    <path class="cls-3" d="M714.04,600.55c2.13-.58,4.35-.86,6.56-.85"/>
    <path class="cls-3" d="M721.2,603.82c-1.14,.07-2.28,.2-3.4,.41"/>
    <path class="cls-3" d="M721.67,607.09c-.27,.04-.55,.08-.82,.12"/>
    <path class="cls-3" d="M634.13,646.92c10.7-4.82,20.46-11.71,28.55-20.2"/>
    <path class="cls-3" d="M636.63,648.97c10.91-4.22,21.05-10.45,29.72-18.29"/>
    <path class="cls-3" d="M639.38,651.24c10.95-3.87,21.21-9.74,30.07-17.25h.01"/>
    <path class="cls-3" d="M643.08,654.28c10.97-3.33,21.22-9.03,29.78-16.65"/>
    <path class="cls-3" d="M647.85,658.2c10.44-3.76,20.18-9.5,28.5-16.84"/>
    <path class="cls-3" d="M652.85,662.3c9.36-5.03,18.14-11.13,26.12-18.16"/>
    <path class="cls-3" d="M656.35,665.18c9.51-4.35,18.22-10.48,25.51-17.98"/>
    <path class="cls-3" d="M659.86,668.07c9.22-4.51,17.77-10.41,25.24-17.45"/>
    <path class="cls-3" d="M662.96,670.61c8.74-4.97,16.96-10.85,24.5-17.5"/>
    <path class="cls-3" d="M667.24,674.13c8.62-4.68,16.48-10.77,23.14-17.97"/>
    <path class="cls-3" d="M670.72,676.99c8.43-4.65,16.09-10.7,22.52-17.85"/>
    <path class="cls-3" d="M674.82,680.36c8.26-4.54,15.78-10.41,22.2-17.3"/>
    <path class="cls-3" d="M678.85,683.67c8.39-3.94,15.97-9.64,22.04-16.64"/>
    <path class="cls-3" d="M681.56,685.9c8.15-4.1,15.55-9.71,21.66-16.49"/>
    <path class="cls-3" d="M684.7,688.48c8.02-4.07,15.37-9.45,21.65-15.89"/>
    <path class="cls-3" d="M688.88,691.92c7.33-4.77,14.23-10.2,20.6-16.2"/>
    <path class="cls-3" d="M693.22,695.48c7.45-4.28,14.2-9.76,19.91-16.17"/>
    <path class="cls-3" d="M696.86,698.47c7.19-4.47,13.91-9.69,20.01-15.55"/>
    <path class="cls-3" d="M702.82,700.42c6.59-3.77,12.63-8.49,17.88-13.97"/>
    <path class="cls-3" d="M707.54,702.35c5.83-3.8,11.12-8.44,15.64-13.73"/>
    <path class="cls-3" d="M713.98,704.24c5.16-3.44,9.84-7.62,13.83-12.37"/>
    <path class="cls-3" d="M718.92,705.08c4.66-3.45,8.96-7.37,12.86-11.66"/>
    <path class="cls-3" d="M724.15,705.32c4.05-3.4,7.82-7.12,11.26-11.13"/>
    <path class="cls-3" d="M740.12,694.61c-2.51,3.51-5.34,6.79-8.46,9.78"/>
    <path class="cls-3" d="M744.53,694.57c-1.85,2.54-3.83,5-5.93,7.36"/>
    <path class="cls-3" d="M333.78,579.98c5.47-9.64,12.46-18.42,20.63-25.9"/>
    <path class="cls-3" d="M345.09,569.77l6.12-6.13"/>
    <path class="cls-3" d="M411.43,392.73c4.29,7.88,12.46,13.06,21.04,15.67s17.66,2.97,26.63,3.31c22.46,.84,44.92,1.68,67.38,2.53"/>
    <path class="cls-3" d="M284.92,912.49c35.1,13.98,75.78,13.33,110.41-1.78"/>
    <path class="cls-3" d="M295.12,907.93c25.05,7.48,52.41,6.98,77.17-1.41"/>
    <path class="cls-3" d="M299.73,901.25c20.71,6.18,43.25,6.12,63.93-.18"/>
    <path class="cls-3" d="M302.26,893.65c19.44,4.13,39.68,4.49,59.26,1.05"/>
    <path class="cls-3" d="M307.36,885.53c19.14,4.3,39.36,3.72,58.22-1.69"/>
    <path class="cls-3" d="M306.84,878.44c17.42,3.7,35.89,2.35,52.59-3.84"/>
    <path class="cls-3" d="M305.78,872.49c16.22,1.42,32.65,.41,48.57-2.99"/>
    <path class="cls-3" d="M304.15,864.78c18.12,3.86,37.35,2.35,54.64-4.29"/>
    <path class="cls-3" d="M301.77,856.3c18.04,3.48,36.83,3,54.66-1.41"/>
    <path class="cls-3" d="M301.73,846.32c15.99,2.93,32.47,3.17,48.54,.71"/>
    <path class="cls-3" d="M300.73,836.98c13.63,3.54,27.99,4.2,41.88,1.93"/>
    <path class="cls-3" d="M307.38,829.77c10.02,2.33,20.49,2.68,30.64,1.02"/>
    <path class="cls-3" d="M320.66,823.54l12.77,.39"/>
    <path class="cls-3" d="M544.21,846.61c-1.8,22.09-11.33,43.48-26.55,59.6"/>
    <path class="cls-3" d="M548.37,851.72c-1.13,19.71-7.95,39.05-19.43,55.11"/>
    <path class="cls-3" d="M549.53,873.19c-2.5,12.5-7.47,24.51-14.55,35.12"/>
    <path class="cls-3" d="M549.91,885.42c-2.65,9.85-7.35,19.14-13.72,27.1"/>
    <path class="cls-3" d="M506.01,907.88c13.98-13.25,24.81-29.8,31.36-47.91"/>
    <path class="cls-3" d="M530,857.33c-7.46,19.44-19.01,37.31-33.68,52.1"/>
    <path class="cls-3" d="M514.3,871.69c-6.02,14.01-15.2,26.66-26.66,36.72"/>
    <path class="cls-3" d="M494.24,886.94c-3.19,8.33-8.16,15.97-14.48,22.26"/>
    <path class="cls-3" d="M398.41,699.73c11.54,24.31,29.7,45.44,51.99,60.52"/>
    <path class="cls-3" d="M414.67,715.86c6.4,8.95,14.11,16.95,22.8,23.69"/>
    <path class="cls-3" d="M421.27,715.38l11.41,11.06"/>
    <path class="cls-3" d="M420.64,708.85l5.57,5.67"/>
    <path class="cls-3" d="M273.74,707.01c4.59-10.14,11.04-19.42,18.95-27.26"/>
    <path class="cls-3" d="M277.45,690.64l11.37-15.22"/>
    <path class="cls-3" d="M294.28,470.28c-.13,12.08,1.41,24.18,4.56,35.84"/>
    <path class="cls-3" d="M299.25,476.98c1.12,7.67,2.24,15.34,3.36,23.01"/>
    <path class="cls-3" d="M305.17,481.02l1.04,10.21"/>
    <path class="cls-3" d="M312.49,479.47v1.53"/>
    <path class="cls-3" d="M590.63,641.44c4.75,1.42,11.56-.27,17.51-2.82"/>
    <path class="cls-3" d="M584.36,636.28c5.96,1.53,12.61-.52,18.51-2.29"/>
    <path class="cls-3" d="M578.06,630.92c5.72,1.71,13.85,.83,19.19-1.84"/>
    <path class="cls-3" d="M571.83,625.61c5.38,1.58,16.74,.29,21.51-2.66"/>
    <path class="cls-3" d="M565.72,620.41c6.3,1.73,20.52,.54,26.27-2.56"/>
    <path class="cls-3" d="M561.05,616.43c8.2,1.69,22.24-.84,29.59-4.85"/>
    <path class="cls-3" d="M556.24,611.47c9.97,1.93,26.22-1.25,34.39-7.27"/>
    <path class="cls-3" d="M547.78,605.14c11.43,2.31,29.16-.32,39.43-5.85"/>
    <path class="cls-3" d="M542.21,600.07c11.43,3.11,32.55-1.06,43.15-8.64"/>
    <path class="cls-3" d="M536.51,595.31c12.99,1.55,32.01-2.7,43.1-9.63"/>
    <path class="cls-3" d="M535.95,588.8c10.41,1.42,21.31-1.03,30.12-6.76"/>
    <path class="cls-3" d="M538.2,585.11c6.97-.31,13.85-2.49,19.72-6.25"/>
    <path class="cls-3" d="M542.62,578.9c2.86-.29,5.66-1.17,8.16-2.59"/>
    <path class="cls-3" d="M614.55,882.67c3.63,11.79,3.08,24.83-1.54,36.28,.21-.63,.43-1.27,.64-1.9"/>
    <path class="cls-3" d="M621.3,880.3c3.71,12.71,3.56,26.52-.44,39.15"/>
    <path class="cls-3" d="M628.72,874.54c3.23,15.44,2.17,31.75-3.04,46.63"/>
    <path class="cls-3" d="M634.4,870.47c2.81,15.84,1.73,32.35-3.12,47.68"/>
    <path class="cls-3" d="M640.7,864.99c3.33,16.34,1.98,33.6-3.83,49.22"/>
    <path class="cls-3" d="M647.2,862.27c2.14,16.67,.32,33.83-5.29,49.67"/>
    <path class="cls-3" d="M652.37,860.61c2.57,15.8,.59,32.31-5.65,47.06"/>
    <path class="cls-3" d="M659.16,852.1c3.01,17.44,.95,35.73-5.88,52.06"/>
    <path class="cls-3" d="M667.57,845.93c2.67,18.57,.36,37.82-6.61,55.24"/>
    <path class="cls-3" d="M675.53,842.55c1.64,15.87-.41,32.11-5.95,47.08"/>
    <path class="cls-3" d="M681.59,836.06c1.42,17.67,.78,32.42-3.23,49.69"/>
    <path class="cls-3" d="M689.06,831.93c2.06,16.42,.46,33.28-4.65,49.02"/>
    <path class="cls-3" d="M698.69,825.49c1.68,15.15-.68,30.73-6.77,44.7"/>
    <path class="cls-3" d="M709.13,819.72c.17,15.46-2.77,30.94-8.6,45.26"/>
    <path class="cls-3" d="M714.06,812.88c2.77,17.89-.22,36.63-8.41,52.78"/>
    <path class="cls-3" d="M720.26,809.18c2.23,15.08,.07,30.78-6.14,44.7"/>
    <path class="cls-3" d="M729.04,802.36c-.04,15.38-3.1,30.75-8.95,44.98"/>
    <path class="cls-3" d="M735.1,798.22c1.89,16.57-1.96,33.73-10.75,47.9,.13-.41,.25-.81,.38-1.22"/>
    <path class="cls-3" d="M742.62,797.24c1.58,14.92-2.35,30.36-10.86,42.71"/>
    <path class="cls-3" d="M749.52,791.48c1.96,15.04-2.02,30.77-10.9,43.07"/>
    <path class="cls-3" d="M757.93,784.94c1.07,14.86-3.2,30.06-11.87,42.18"/>
    <path class="cls-3" d="M764.86,778.82c2.48,13.78-.94,28.53-9.24,39.8"/>
    <path class="cls-3" d="M773.4,768.27c2.43,14.93-1.06,30.74-9.53,43.27"/>
    <path class="cls-3" d="M779.75,764.95c3.36,13,.51,27.46-7.53,38.21"/>
    <path class="cls-3" d="M787.28,759.41c3.1,12.71,.19,26.75-7.72,37.17"/>
    <path class="cls-3" d="M792.59,773.75c.51,4.38-.94,8.95-3.89,12.22"/>
    <path class="cls-3" d="M721.28,849.7l-.65,7.83"/>
    <path class="cls-3" d="M727.19,844.63l-1.47,9.86"/>
    <path class="cls-3" d="M733.04,839.16c-1.26,4.34-2.51,8.69-3.77,13.03"/>
    <path class="cls-3" d="M737.75,834.69c.69,5.5-.82,11.24-4.1,15.7"/>
    <path class="cls-3" d="M743.91,828.88c1.58,5.44,.36,11.61-3.16,16.04"/>
    <path class="cls-3" d="M750.08,822.06c2.04,6.91,.3,14.82-4.44,20.24"/>
    <path class="cls-3" d="M754.59,817.72c2.56,6.65,1.33,14.62-3.1,20.19"/>
    <path class="cls-3" d="M760.04,813.5c3,6.99,1.79,15.6-3.02,21.49"/>
    <path class="cls-3" d="M765.7,808.35c2.34,7.26,1.09,15.59-3.28,21.85"/>
    <path class="cls-3" d="M771.27,803.07c2.17,7.87,.88,16.64-3.48,23.55"/>
    <path class="cls-3" d="M774.92,800.59c1.83,3.54,2.26,7.79,1.18,11.63"/>
    <path class="cls-3" d="M779.38,796.9c.33,3.06,.67,6.13,1,9.19"/>
    <path class="cls-3" d="M783.67,791.79c1.36,2.99,1.34,6.57-.05,9.54"/>
    <path class="cls-3" d="M787.7,788.42c1.22,1.9,1.38,4.43,.41,6.47"/>
    <path class="cls-3" d="M810.62,727.89c-2.79,4.03-3.57,9.38-2.03,14.04"/>
    <path class="cls-3" d="M812.24,730.93l-.94,5.38"/>
    <path class="cls-3" d="M566.45,813.65c22.81-17.49,47.23-32.88,72.86-45.9"/>
    <path class="cls-3" d="M578.53,809.7c14.82-9.35,29.64-18.69,44.45-28.04"/>
    <path class="cls-3" d="M615.59,923.07c26.58-15.79,51.9-33.69,75.67-53.46"/>
    <path class="cls-3" d="M603.31,922.75c24.8-10.65,47.75-25.56,67.57-43.88"/>
    <path class="cls-3" d="M598.48,916.17c25.58-8.12,49.42-21.68,69.48-39.52"/>
    <path class="cls-3" d="M597.54,910.27c19.74-6.61,38.39-16.44,55-28.98"/>
    <path class="cls-3" d="M601.19,902.17c13.7-4.9,26.84-11.33,39.13-19.13"/>
    <path class="cls-3" d="M698.17,869.2c-.81,1.11-.38,2.67,.17,3.94,2.42,5.56,6.54,10.36,11.65,13.62"/>
    <path class="cls-3" d="M702.08,872.94c2.19,5.45,6.83,9.87,12.38,11.78,.12,.04,.23,.08,.35,.11"/>
    <path class="cls-3" d="M704.31,869.03c2.27,6.81,8.43,12.11,15.43,13.55"/>
    <path class="cls-3" d="M709.57,864.91c-1.13,2.44-1.06,5.4,.19,7.78s3.65,4.12,6.3,4.57"/>
    <path class="cls-3" d="M714.72,862.99c-1.74,1.16-2.99,3.04-3.39,5.09s.06,4.26,1.24,5.99"/>
    <path class="cls-3" d="M698.02,879.18c5.42-6.48,12.94-11.17,21.14-13.18"/>
    <path class="cls-3" d="M703.11,876.89c4.81-4.31,10.64-7.48,16.87-9.16"/>
    <path class="cls-3" d="M737.84,877.13c-6.97-.99-14.35,1.52-19.27,6.54-13.69,3.63-25.95,12.76-32.75,25.19-4.09,7.49-6.23,16.15-2.83,23.97"/>
    <path class="cls-3" d="M686.36,913.91c-2.65,6.1-2.38,13.39,.7,19.29"/>
    <path class="cls-3" d="M691.57,912.5c-4.2,5.56-4.9,13.54-1.74,19.75"/>
    <path class="cls-3" d="M692.86,919.96c-1.61,4.19-1.52,9,.25,13.12"/>
    <path class="cls-3" d="M694.64,921.69c-.85,4.11-.37,8.49,1.34,12.32"/>
    <path class="cls-3" d="M696.96,924.57c-.3,3.16,.01,6.37,.92,9.41"/>
    <path class="cls-3" d="M699.82,926.31c-.88,2.81-.64,5.97,.67,8.61"/>
    <path class="cls-3" d="M711.66,913.69c-1.05,3.06-.38,6.66,1.72,9.13"/>
    <path class="cls-3" d="M715.84,917.4c-1.08,2.61-1.59,5.34-.29,7.85-2.45-2.92-3.35-7.08-2.31-10.76"/>
    <path class="cls-3" d="M717.96,919.55c-1.15,2.02-1.43,4.51-.75,6.74"/>
    <path class="cls-3" d="M719.49,921.18c-.81,1.81-.9,3.92-.25,5.79"/>
    <path class="cls-3" d="M720.83,922.53c-.77,1.94-.54,4.25,.61,6"/>
    <path class="cls-3" d="M722.83,923.54c-.78,1.69-.47,3.84,.76,5.24"/>
    <path class="cls-3" d="M724.67,925.43l.53,3.91"/>
    <path class="cls-3" d="M726.55,927.15l.87,2.89"/>
    <path class="cls-3" d="M724.25,902.79c-.54,2.88,.14,5.97,1.84,8.35"/>
    <path class="cls-3" d="M726.75,902.27c-.45,3.68,.49,7.51,2.59,10.56"/>
    <path class="cls-3" d="M729.9,903.28c-.63,3.65,.22,7.53,2.31,10.59"/>
    <path class="cls-3" d="M732.96,906.17c-.68,3.37,.34,7.04,2.66,9.57"/>
    <path class="cls-3" d="M736.21,908.22c-.52,3.09,.68,6.42,3.05,8.47"/>
    <path class="cls-3" d="M739.66,909.93c-.24,3.06,.78,6.2,2.77,8.53"/>
    <path class="cls-3" d="M744.55,910.8c-.68,3.53,.25,7.35,2.49,10.17"/>
    <path class="cls-3" d="M747.73,913.34c-1.04,2.64-.5,5.85,1.35,8"/>
    <path class="cls-3" d="M751.44,915.03c-1.07,2.22-.8,5.04,.69,7.01"/>
    <path class="cls-3" d="M754.34,916.74c-.6,1.89-.19,4.07,1.06,5.61"/>
    <path class="cls-3" d="M757.2,918.61c-.26,1.72,.35,3.55,1.58,4.78"/>
    <path class="cls-3" d="M760.82,919.17l.88,3.57"/>
    <path class="cls-3" d="M764.23,919.3l.34,1.87"/>
    <path class="cls-3" d="M730.71,924.92c-.65,2.76,.21,5.82,2.2,7.83"/>
    <path class="cls-3" d="M733.47,925.6c-.21,2.34,.41,4.75,1.73,6.7"/>
    <path class="cls-3" d="M736.87,927.65c-.75,2.02,.22,4.52,2.12,5.52"/>
    <path class="cls-3" d="M740.34,927.53c-1.02,1.93-.21,4.61,1.7,5.66"/>
    <path class="cls-3" d="M743.49,928.32c-.54,1.72,0,3.73,1.31,4.97"/>
    <path class="cls-3" d="M746.71,930.02c-.17,.79,.09,1.66,.67,2.22"/>
    <path class="cls-3" d="M737,889.51c-.42,2.65,0,5.43,1.2,7.83"/>
    <path class="cls-3" d="M739.44,890.01c-.32,2.79,.2,5.68,1.49,8.17"/>
    <path class="cls-3" d="M742.93,891.37c-1.02,3.05-.49,6.58,1.39,9.2"/>
    <path class="cls-3" d="M745.73,894.8c-.69,2.26-.23,4.83,1.21,6.7"/>
    <path class="cls-3" d="M749.43,895.81c-.95,2.37-.5,5.24,1.13,7.2"/>
    <path class="cls-3" d="M752.21,896.69c-1.12,2.29-.75,5.23,.9,7.17"/>
    <path class="cls-3" d="M755.28,897.72c-1.37,2.03-1.21,4.96,.37,6.83"/>
    <path class="cls-3" d="M758.13,897.52c-1.06,2.69-.84,5.85,.56,8.38"/>
    <path class="cls-3" d="M761.02,898.88c-1.15,2.29-.96,5.2,.47,7.33"/>
    <path class="cls-3" d="M764.1,899.23c-1.1,2.14-1.2,4.77-.25,6.98"/>
    <path class="cls-3" d="M766.99,900.59c-.89,1.97-.95,4.31-.15,6.32"/>
    <path class="cls-3" d="M770.01,902.44c-.96,1.96-.99,4.36-.06,6.34"/>
    <path class="cls-3" d="M772.41,904.15c-.95,1.9-.88,4.28,.16,6.12"/>
    <path class="cls-3" d="M774.72,905.68l-.03,4.26"/>
    <path class="cls-3" d="M778.04,905.86l-.67,2.73"/>
    <path class="cls-3" d="M780.35,904.7l-.68,2.21"/>
    <path class="cls-3" d="M745.8,874.87c-.17,2.82,.42,5.68,1.7,8.2"/>
    <path class="cls-3" d="M747.88,875.55c-.53,2.98,.3,6.17,2.21,8.52"/>
    <path class="cls-3" d="M750.65,877.6c-.24,2.63,.61,5.34,2.32,7.35"/>
    <path class="cls-3" d="M753.31,877.77c.11,3.23,1.05,6.44,2.72,9.21"/>
    <path class="cls-3" d="M757.1,878.11c-.44,3.18,.49,6.54,2.52,9.03"/>
    <path class="cls-3" d="M760.03,877.78c-.86,3.46,.16,7.33,2.6,9.92"/>
    <path class="cls-3" d="M762.83,877.12c-1.08,3.76-.14,8.05,2.42,11.01"/>
    <path class="cls-3" d="M766,878.97c-.97,3.44-.2,7.33,2.02,10.13"/>
    <path class="cls-3" d="M769.38,882.03c-.69,2.58-.22,5.46,1.26,7.69"/>
    <path class="cls-3" d="M773.04,882.69c-.66,2.99-.15,6.22,1.39,8.87"/>
    <path class="cls-3" d="M776.59,884.05c-.5,3,.01,6.17,1.44,8.86"/>
    <path class="cls-3" d="M780.27,885.26c-.77,2.99-.39,6.26,1.06,8.99"/>
    <path class="cls-3" d="M784.07,886.94c-.73,2.83-.39,5.92,.94,8.52"/>
    <path class="cls-3" d="M787.97,889.36c-.65,2.27-.47,4.76,.51,6.91"/>
    <path class="cls-3" d="M790.79,890.88l-.02,4.5c0,.24,.01,.52,.2,.67s.57-.04,.46-.25"/>
    <path class="cls-3" d="M794.52,890.2l-.39,5.1"/>
    <path class="cls-3" d="M796.88,888.5c.52,1.37,.41,2.96-.29,4.25"/>
    <path class="cls-3" d="M767.04,878.14c3.98,8.55,12.95,14.55,22.37,14.95"/>
    <path class="cls-3" d="M770.48,880.71c3.04,3.21,6.73,5.81,10.79,7.58"/>
    <path class="cls-3" d="M760.54,896.56c2.69,4.64,7.22,8.17,12.38,9.63"/>
    <path class="cls-3" d="M765.41,899.22c1.16,1.76,2.94,3.1,4.95,3.73"/>
    <path class="cls-3" d="M746.47,914.24c3.31,4.3,8.99,6.64,14.36,5.91"/>
    <path class="cls-3" d="M749.89,914.07c1.57,1.61,3.64,2.72,5.84,3.14"/>
    <path class="cls-3" d="M732.29,927.93c2.73,3.25,7.58,4.52,11.55,3.03"/>
    <path class="cls-3" d="M735.35,927.31c2.26,1.42,4.93,2.18,7.6,2.14"/>
    <path class="cls-3" d="M715.78,908.15c4.45-2.08,9.13-3.69,13.92-4.78"/>
    <path class="cls-3" d="M717.19,905.85l8.52-3.05"/>
    <path class="cls-3" d="M719.64,903.47l2.38-.85"/>
    <path class="cls-3" d="M729.87,896c3.13-2.19,6.77-3.66,10.54-4.27"/>
    <path class="cls-3" d="M731.53,893.19l5.45-2.37"/>
    <path class="cls-3" d="M732.08,890.91l2.38-.86"/>
    <path class="cls-3" d="M738.21,883.25c4-2.27,8.29-4.01,12.74-5.15"/>
    <path class="cls-3" d="M740.21,880.26c3.35-1.25,6.69-2.5,10.04-3.75"/>
    <path class="cls-3" d="M742.45,877.27l4.93-1.54"/>
    <path class="cls-3" d="M702.01,921.7c3.36-2.25,7.29-3.66,11.32-4.04"/>
    <path class="cls-3" d="M703.78,918.72l6.13-2.21"/>
    <path class="cls-3" d="M705,915.89l3.58-1.19"/>
    <path class="cls-3" d="M714.51,873.35c.07,1.32,1.66,1.91,2.96,2.14,6.58,1.14,13.4,.84,19.85-.87"/>
    <path class="cls-3" d="M713.02,876.68c6.12,1.47,12.56,1.6,18.74,.4"/>
    <path class="cls-3" d="M714.7,879.31c3.95,.95,8.08,1.12,12.09,.49"/>
    <path class="cls-3" d="M677.92,929.02c-1.64-12.74,3.81-26.16,13.87-34.16"/>
    <path class="cls-3" d="M687.56,893.72c-10.42,8.24-16.08,22.13-14.39,35.31"/>
    <path class="cls-3" d="M682.67,895.13c-10.03,7.91-15.54,21.2-14.04,33.88"/>
    <path class="cls-3" d="M678.36,895.71c-9.06,7.87-14.1,20.14-13.2,32.1"/>
    <path class="cls-3" d="M677.72,891.24c-3.23,1.51-5.74,4.23-7.8,7.14-5.99,8.42-8.91,18.97-8.09,29.27"/>
    <path class="cls-3" d="M668.79,895.25c-6.93,9.34-10.98,20.77-11.48,32.39"/>
    <path class="cls-3" d="M662.03,900.19c-5.11,7.92-7.86,17.34-7.83,26.77"/>
    <path class="cls-3" d="M657.1,904.28c-3,4.86-5.03,10.31-5.95,15.95-.32,1.99-.51,4.06,.06,5.99"/>
    <path class="cls-3" d="M651.98,908.7c-2.98,5.35-4.58,11.46-4.6,17.58"/>
    <path class="cls-3" d="M648.56,910.65c-2.19,4.39-3.59,9.18-4.1,14.06"/>
    <path class="cls-3" d="M644.79,912.27c-1.44,3.74-2.88,7.47-4.32,11.21"/>
    <path class="cls-3" d="M641.21,916.02l-3.06,8.51"/>
    <path class="cls-3" d="M644.74,912.5c7.46,7.87,16.76,13.98,26.95,17.7"/>
    <path class="cls-3" d="M642.71,914.18c4.12,5.22,9.62,9.35,15.78,11.85"/>
    <path class="cls-3" d="M639.47,915.73c3.63,3.99,7.89,7.4,12.58,10.08"/>
    <path class="cls-3" d="M637.16,917.34c3.11,3.36,6.71,6.26,10.64,8.61"/>
    <path class="cls-3" d="M633.9,918.74l7.99,7.5"/>
    <path class="cls-3" d="M647.63,910.08c8.2,10.06,19.86,17.24,32.53,20.06"/>
    <path class="cls-3" d="M651.01,908.93c10.67,11.35,24.83,19.38,40.05,22.72"/>
    <path class="cls-3" d="M654,905.27c10.55,10.6,23.85,18.44,38.22,22.57"/>
    <path class="cls-3" d="M659.31,903.02c6,7.98,14.84,13.78,24.55,16.11"/>
    <path class="cls-3" d="M661.88,900.27c3.63,5.25,8.99,9.29,15.05,11.33"/>
    <path class="cls-3" d="M665.36,898.85c4.15,3.78,8.93,6.87,14.08,9.1"/>
    <path class="cls-3" d="M699.05,893.07c-5.14-3.89-10.28-7.77-15.42-11.66"/>
    <path class="cls-3" d="M687.18,879.93c4.11,4.12,8.79,7.66,13.87,10.51"/>
    <path class="cls-3" d="M688.9,878.08c5.48,3.89,10.96,7.78,16.44,11.67"/>
    <path class="cls-3" d="M691.27,876.56c5.79,4.14,11.57,8.28,17.36,12.43"/>
    <path class="cls-3" d="M693.03,874.98c5.13,4.04,10.25,8.09,15.38,12.13"/>
    <path class="cls-3" d="M766.6,873.32c1.37-3,4.28-5.24,7.53-5.79"/>
    <path class="cls-3" d="M768.12,876.85c.64-3.7,3.92-6.77,7.65-7.17"/>
    <path class="cls-3" d="M767.46,891.35c-3.57,.36-6.82,3-7.88,6.43"/>
    <path class="cls-3" d="M765.95,894.01c-1.68,.81-2.94,2.45-3.29,4.29"/>
    <path class="cls-3" d="M753.03,906.17c-2.61,.63-4.72,3-5.03,5.67"/>
    <path class="cls-3" d="M753.64,907.46c-1.86,1.38-3.29,3.35-4.04,5.54"/>
    <path class="cls-3" d="M737.43,917.14c-1.89,.81-3.76,1.9-4.87,3.64s-1.2,4.25,.26,5.7"/>
    <path class="cls-3" d="M736.84,919.78c-1.41,.58-2.56,1.76-3.11,3.18s-.46,3.07,.21,4.44"/>
    <path class="cls-3" d="M327.26,768.46c-1.37,48.55,7.6,97.37,26.14,142.26"/>
    <path class="cls-3" d="M338.63,811.4c1.46,30.69,7.86,61.14,18.88,89.82"/>
    <path class="cls-3" d="M351.32,835.38c1.7,18.89,5.44,37.59,11.15,55.68"/>
    <path class="cls-3" d="M364.59,869.59l3.58,11.23"/>
    <path class="cls-3" d="M358.26,575.74c-10.21,30.12-12.71,62.82-7.21,94.15"/>
    <path class="cls-3" d="M350.18,580.04c-7,24.31-9.74,49.85-8.04,75.09"/>
    <path class="cls-3" d="M342.09,591.65c-3.75,12.94-5.25,26.53-4.42,39.97"/>
    <path class="cls-3" d="M624.1,369.42l10.85-11.25c-.14,0-.27-.01-.41-.02"/>
    <path class="cls-3" d="M623.86,367.86l10.41-10.95"/>
    <path class="cls-3" d="M623.1,366.85l9.94-10.78"/>
    <path class="cls-3" d="M621.93,366.1c3.79-3.72,7.46-7.56,11.02-11.49"/>
    <path class="cls-3" d="M621.04,365.72c3.26-3.88,6.78-7.55,10.53-10.95"/>
    <path class="cls-3" d="M619.71,365.55c3.54-4.24,7.35-8.27,11.38-12.06-.07,.03-.15,.07-.22,.1"/>
    <path class="cls-3" d="M624.38,365.32c.84,.84,1.42,1.94,1.66,3.1,.07,.36,.09,.8-.2,1.04"/>
    <path class="cls-3" d="M624.2,363.03c1.06,.49,1.96,1.33,2.52,2.36s.63,1.66,.46,2.81"/>
    <path class="cls-3" d="M625.29,361.4c1.48,.9,2.61,2.36,3.11,4.02,.23,.77,.16,1.14-.29,1.8"/>
    <path class="cls-3" d="M626.23,359.86c2.12,1.07,3.5,3.45,3.38,5.82"/>
    <path class="cls-3" d="M626.53,358.04c2.68,.88,4.43,3.1,4.66,5.91"/>
    <path class="cls-3" d="M627.59,356.35c2.46,.75,4.47,2.81,5.17,5.28"/>
    <path class="cls-3" d="M628.97,354.72c1.45,.46,2.74,1.39,3.63,2.62s1.34,1.92,1.34,3.44"/>
    <path class="cls-3" d="M631.32,354.11c1.93,1.48,3.24,3.75,3.56,6.16"/>
    <path class="cls-3" d="M620.96,367.26c.38,1.31,.54,2.68,.47,4.04"/>
    <path class="cls-3" d="M621.94,368.06c.28,.98,.38,2.01,.3,3.02"/>
    <path class="cls-3" d="M623.03,369.17l-.08,1.23"/>
    <path class="cls-3" d="M620.33,369.43l.04,1.02"/>
    <path class="cls-3" d="M724.48,432.74c-.25,7.94-3.9,15.71-9.85,20.97"/>
    <path class="cls-3" d="M726.04,439.14c-1.68,6.27-4.91,12.13-9.3,16.91"/>
    <path class="cls-3" d="M727.01,443.21c-1.87,4.58-4.47,8.86-7.69,12.62"/>
    <path class="cls-3" d="M725.87,449.35c-1.1,2.37-2.63,4.54-4.49,6.37"/>
  </g>
</svg>