<?xml version="1.0" encoding="UTF-8"?>
<svg xmlns="http://www.w3.org/2000/svg" xmlns:xlink="http://www.w3.org/1999/xlink" viewBox="0 0 1024 1024">
  <defs>
    <style>
      .cls-1, .cls-2, .cls-3, .cls-4, .cls-5 {
        fill: #fff;
      }

      .cls-2 {
        stroke-width: 1.5px;
      }

      .cls-2, .cls-3, .cls-6, .cls-7, .cls-8, .cls-9, .cls-4, .cls-5, .cls-10, .cls-11 {
        stroke-linecap: round;
        stroke-linejoin: round;
      }

      .cls-2, .cls-3, .cls-8, .cls-9, .cls-4, .cls-5, .cls-10, .cls-11 {
        stroke: #151922;
      }

      .cls-3, .cls-10 {
        stroke-width: 2px;
      }

      .cls-12 {
        fill: #ee4b2b;
      }

      .cls-6 {
        stroke: #fff;
      }

      .cls-6, .cls-7, .cls-8, .cls-9, .cls-13, .cls-10, .cls-11 {
        fill: none;
      }

      .cls-7 {
        stroke: #000;
        stroke-width: .5px;
      }

      .cls-8, .cls-4 {
        stroke-width: 3px;
      }

      .cls-14 {
        clip-path: url(#clippath);
      }

      .cls-11 {
        stroke-width: 4px;
      }

      .cls-15 {
        fill: #151922;
      }
    </style>
    <clipPath id="clippath">
      <rect class="cls-13" x="109.26" y="98.02" width="818.04" height="818.04"/>
    </clipPath>
  </defs>
  <g id="base">
    <g class="cls-14">
      <path class="cls-12" d="M930.83,646.81v173.83c-5.84-.08-11.61-.81-17.14-2.3-12.63-3.4-12.29-6.09-18.26-15.41-9.94-15.51-30.97-16.64-41.68-34.82-2.71-4.6-3.23-4.9-4.86-9.3-1.2-3.22,2.4-7.37-2.37-10.08-13.34-7.56-12.28,21.95-16.08,27.53-8.24,12.11-21.89,4.63-26.67-6.45-4.28-9.93-1.64-19.13,1.03-28.66,4.45-15.89,15.94-54.39-16.31-49.69,1.65,8.6,4.41,13-.31,21.59-5.57,10.16-16.06,16.27-27.07,13.96-8.58-1.8-16.11-8.36-24.51-10.93-8.33-2.55-15.12-.13-18.67-8.9-3.03-7.48,2.13-12.23-5.75-17.97-3.97-2.89-12.94-3.57-17.78-6-6.54-3.27-14.03-11.86-21.49-11.2-14.08,1.25-7.67,12.58-3.05,19.55,4.09,6.15,12.63,12.39,14.1,19.97,2.35,12.05-9.52,19.04-20.34,15.68-7.16-2.21-12.83-9.22-18.47-13.33-6.68-4.87-7.24-4.91-17.74-3.96,.21,6.64-1.22,15.25-5.91,20.79-14.52,17.15-17.18-9.52-34.3-8.6-17.61,.94-12.3,27.31-9.15,40.51,3.88,16.27,20.83,29.37,10.2,47.25-5.08,8.57-14.99,13.9-22.05,4.22-5.09-6.98-1.77-17.32-4.5-24.94-7.9-22.1-41.7-12.92-47.43-34.5-3.14-11.83-.29-25.96-16.98-29.06-20.37-3.79-7.6,11.83-12.06,21.73-6.17,13.69-21.15,11.43-31.19,6.45-7.5-3.72-17.69-3.73-23.08-9.21-5.96-6.06-4.62-9.18-11.87-13.32-3.61-2.06-8.41-3.53-12.37-4.11-13.42-1.98-24.22,2.58-20.7,15.29,2.46,8.86,7.21,15.96,1.07,24.84-4.73,6.83-17.47,11.8-25.16,13.11-13.84,2.34-27.12-4.35-40.88-4.22-10.35,.1-21.25,3-31.03,3.06-10.66,.07-16.88-3.63-25.59,6.11-7.66,8.56-4.38,18.43-7.86,28.39-4.14,11.87-15.9,23.39-26.3,30.46-3.81,2.59-7.73,4.46-11.71,6.56-4.56,2.41-5.56,4.7-9.25,7.64-6.96,5.57-18.89,7.24-26.9,15.81-12.49,13.36-9.19,30.2-17.22,45.2-.52,.98-1.17,1.99-1.91,3.02H93.17v-300.71c6.28,2.22,13.2,15.35,17.79,19.94,4.78,4.79,11.34,4.42,15.93,7.78,3.95,2.88,3.64,8.14,9.18,9.03,5.41,.88,10.5-5.01,12.82-9.19,3.52-6.32-.76-11.13,.93-16.1,3.13-9.23,20.63-7.44,27.61-5.34,10.5,3.16,30.03,9.34,38.18-1.74-.98-2.24-1.43-4.74-1.3-7.34,6.93,.86,12.04,.79,19.2,3.91,9.11,3.96,16.31,9.44,26.62,9.76,13.45,.43,29.37-7.11,41.8-12.19,5.09-2.09,9.41-4.29,7.41-10.95-2.29-7.61-9.58-6.35-16.21-5.79-14.21,1.2-25.91,2.08-38.92-4.6-10.23-5.24-21.26-5.02-30.98-9.33-4.69-2.08-7.02-6.17-12.12-7.73-4.33-1.32-9.26-.41-13.75-1.65-7.73-2.13-29.67-16.02-31.29-25.1-1.09-6.14,11.08-10.9,16.58-10.61,5.3,13.47,21.29,2.72,29.59,.6,7.5-1.92,21,4.72,24.9-4.94,1.8-4.43-3.13-21.57,9.98-12.49,5.09,3.53,1.77,8.03,9.9,9,6.74,.81,18.51-2.48,21.18-9.57,4.05-10.76-12.9-35.19-21.23-40.94-11.01-7.6-27.63-8.18-36.84-16.69-10.58-9.77,1.58-20.67-5.12-32.95-4.44-8.13-15.28-8.9-17.58-18.64-2.99-12.63,7.99-20.87,15.23-28.61,7.31-7.82,15.39-14.33,22.22-22.56,2.44-2.95,9.03-8.81,9.5-12.89,.39-3.37-2.77-6.78-3.42-10.13-2.3-11.83-5.7-34.13,11.66-31.22,6.92,1.17,17.25,9.03,24.22,6.6,9.92-3.44,3.62-17.16-.69-22.88-3.59-4.75-11.77-11.62-10.53-18.32,1.26-6.85,19-17.73,25.16-20.76,11.6-5.71,21.32-.8,33.22,1.95,9.04,2.08,17.64,2,26.77,2.8,7.99,.7,15.84,3.48,23.62-.24,24.68-11.79-21.85-24.56-1.2-35.57,4.62-2.46,10.95-3.71,16.4-1.92,5.7,1.88,15.8,13.68,22.44,4.01,6.93-10.1-11.73-13.88-15.83-18.82-3.68-4.45-5.31-15.31-2.73-20.32,4.96-9.61,17.81-7.44,26.02-4.71,3.19,1.07,10.5,3.27,12.97,5.06,2.14,1.56,2.39,5.06,4.65,6.85,5.08,4.04,11.95,3.04,17.98,2.01,9.9-1.7,18.61-4.92,18.97-16.21,.37-11.3-7.76-14.99-11.5-23.69-5.74-13.36,15.31-24.46,26.84-23.05,6.08,.75,10.44,4.76,17.01,5.03,10.87,.43,19.47-7.34,29.93-8.05,6.38-.43,11.04,2.25,17.98,.07,12.71-4,22.42-12.06,29.29-23.06,4.02-6.43,9.65-16.38,16.52-20.47,12.49-7.45,24.99,9.34,38.74-.19,1.52-1.06,2.54-2.4,3.35-3.8h211.19c-2.51,5.51-1.83,10.78,4.79,15.34,12.28,8.47,25.28,9.9,35.42,21.46,5.8,6.61,17.71,15.21,20.2,23.31-3.38,3.56-17.48,5.11-18.34,10.14-.85,4.94,3.15,3.85,6.29,7.58,3.7,4.42,10.1,10.45,8.38,17.48-1.1,4.53-8.9,12.01-14.63,9.78-7.16-2.8-3.89-11.2-14.18-13.98-8.41-2.28-18.75,2.6-26.39-2.15,7.13,11.11-1,16.65-12.14,16.49-11.1-.16-20.75-.65-11.56,14.27,6.68,10.84,27.34,13.02,23.42,30.43-4.21,18.72-25.41,13.33-35.85,6.09-11.54-8-27.03-8.63-40.76-10.5-13.22-1.8-33.58,7.65-30.49,24.03,1.8,9.52,14.05,19.49,19.43,27.36,4.3,6.29,7.77,13.17,12.16,19.39,5.48,7.74,14.64,16.06,4.13,22.71-5.29,3.35-12.14-.62-15.61,6.85-2.5,5.37,1.32,14.2,4.56,18.67,8.69,11.97,10.78,5.34,20.2,.54,16.91-8.61,20.71,4.51,30.82,13.82,8.71,8.02,26.52,7.85,30.32,20.13,.2,.64-1.3,7.2-1.11,8.97,.32,2.98,3.1,5.51,3.36,8.37,.65,7.06-2.43,13.07-9.5,15.08-9.05,2.58-34.72-6.19-38.87,6.67-3.49,10.78,26.18,20.73,9.54,32.4-8.53,5.98-24.38-8.56-31.94,1.97-2.97,4.15-.69,17.67,2.55,21.31,3.99,4.49,10.65,3.82,15.84,5.26,14.63,4.06,30.94,9.61,32.73,25.59,.68,6.07,1.8,15.13-2.02,20.42-4.78,6.61-8.62,3.35-15.12,4.31-11.39,1.69-23.85,13.99-24.56,26.58-.95,16.89,27.27,20.8,39.71,24.29,16.42,4.6,28.63,4.4,44.31,1.27,6.22-1.24,21.91-3.71,28.34-.07,7.36,4.16,10.81,20.95,12.34,28.28,2.37,11.31,1.46,24.92,11.65,32.13Z"/>
      <line class="cls-9" x1="757.99" y1="878.34" x2="752.66" y2="1064.15"/>
      <line class="cls-9" x1="693.54" y1="879.64" x2="722.95" y2="1048.36"/>
      <path class="cls-5" d="M704.29,868.54c.35,1.05,1.44,1.91,2.53,1.71,.6-.11,1.12-.51,1.47-1s.57-1.08,.74-1.66c.45-1.6,.4-5.3-2.25-4.55-1.99,.56-3.09,3.71-2.49,5.5Z"/>
      <path class="cls-5" d="M744.52,869.48c.35,1.05,1.44,1.91,2.53,1.71,.6-.11,1.12-.51,1.47-1s.57-1.08,.74-1.66c.45-1.6,.4-5.3-2.25-4.55-1.99,.56-3.09,3.71-2.49,5.5Z"/>
      <path class="cls-5" d="M755.6,880.12c.35,1.05,1.44,1.91,2.53,1.71,.6-.11,1.12-.51,1.47-1s.57-1.08,.74-1.66c.45-1.6,.4-5.3-2.25-4.55-1.99,.56-3.09,3.71-2.49,5.5Z"/>
      <path class="cls-5" d="M690.63,881.57c.35,1.05,1.44,1.91,2.53,1.71,.6-.11,1.12-.51,1.47-1s.57-1.08,.74-1.66c.45-1.6,.4-5.3-2.25-4.55-1.99,.56-3.09,3.71-2.49,5.5Z"/>
      <path class="cls-15" d="M696.27,394.51l62.38,483.75c.05,.36-.21,.7-.58,.75-.36,.05-.7-.21-.75-.57l-64.03-483.53c-.11-.82,.47-1.58,1.29-1.68,.82-.11,1.58,.47,1.68,1.3h0Z"/>
      <line class="cls-9" x1="734.95" y1="812.99" x2="739.38" y2="1057"/>
      <path class="cls-5" d="M732.55,814.92c.35,1.05,1.44,1.91,2.53,1.71,.6-.11,1.12-.51,1.47-1s.57-1.08,.74-1.66c.45-1.6,.4-5.3-2.25-4.55-1.99,.56-3.09,3.71-2.49,5.5Z"/>
      <path class="cls-15" d="M638.91,157.29l96.56,655.62c.04,.29-.16,.56-.45,.6-.29,.04-.56-.16-.6-.44l-98.49-655.33c-.12-.82,.44-1.58,1.26-1.71,.82-.12,1.59,.44,1.71,1.26h0Z"/>
      <path class="cls-15" d="M370.42,390.68l322.87,488.15c.15,.23,.09,.54-.14,.69-.23,.15-.54,.09-.69-.14L367.92,392.34c-.46-.69-.27-1.62,.42-2.08,.69-.46,1.63-.27,2.08,.42h0Z"/>
      <ellipse class="cls-2" cx="694.46" cy="395.38" rx="3.39" ry="4.25" transform="translate(182.23 1008.75) rotate(-79.79)"/>
      <ellipse class="cls-2" cx="692.77" cy="408.21" rx="10.81" ry="13.56" transform="translate(168.21 1017.65) rotate(-79.79)"/>
      <ellipse class="cls-3" cx="688.72" cy="427.22" rx="15.13" ry="18.97" transform="translate(146.17 1029.3) rotate(-79.79)"/>
      <ellipse class="cls-2" cx="645.76" cy="356.43" rx="10.43" ry="13.08" transform="translate(151.52 903.94) rotate(-76.82)"/>
      <ellipse class="cls-3" cx="640.91" cy="374.54" rx="14.59" ry="18.3" transform="translate(130.14 913.21) rotate(-76.82)"/>
      <ellipse class="cls-2" cx="368.66" cy="391.7" rx="3.49" ry="3.12" transform="translate(-163.85 467.68) rotate(-54.86)"/>
      <ellipse class="cls-2" cx="362.01" cy="400.96" rx="9.25" ry="11.59" transform="translate(-165.71 516.42) rotate(-60.26)"/>
      <ellipse class="cls-2" cx="445.15" cy="355.03" rx="9.25" ry="11.59" transform="translate(-62.41 613.08) rotate(-65.52)"/>
      <ellipse class="cls-2" cx="566.85" cy="212.52" rx="10.47" ry="11.89" transform="translate(150.86 652.33) rotate(-67.15)"/>
      <ellipse class="cls-3" cx="561.34" cy="225.6" rx="13.19" ry="14.98" transform="translate(135.44 655.25) rotate(-67.15)"/>
      <path class="cls-3" d="M555.38,229.43s-8.68,20.26,4.77,24.85l4.6-2.72s-12.26-5.62-3.91-19.91c0,0,1.97-2.21-1.02-3.91s-4.43,1.7-4.43,1.7Z"/>
      <ellipse class="cls-2" cx="636.77" cy="157.71" rx="5.24" ry="5.93" transform="translate(287.15 712.79) rotate(-71.71)"/>
      <ellipse class="cls-2" cx="630.9" cy="172.94" rx="12.91" ry="14.6" transform="translate(268.67 717.67) rotate(-71.71)"/>
      <ellipse class="cls-3" cx="623.81" cy="190.52" rx="16.26" ry="18.4" transform="translate(247.11 722.99) rotate(-71.71)"/>
      <polygon class="cls-3" points="637 406.96 632.15 427.89 407.21 423.04 417.17 403.89 637 406.96"/>
      <polygon class="cls-4" points="57.52 818.02 388.41 605.6 403.22 632.66 61.6 861.94 57.52 818.02"/>
      <polygon class="cls-4" points="410.86 648.49 88.67 866.02 61.6 861.94 403.22 632.66 410.86 648.49"/>
      <polygon class="cls-3" points="343.27 629.6 362.88 662.28 376.84 675.72 388.92 668.57 379.56 652.23 359.48 619.72 343.27 629.6"/>
      <line class="cls-3" x1="362.88" y1="662.28" x2="379.56" y2="652.23"/>
      <path class="cls-4" d="M587.85,249.94l-96.25,266.57c-.74-.22-1.6-.21-2.58,.11-4.28,1.4-8.24,4.09-11.3,7.36-.66,.71-1.29,1.46-1.79,2.3-1.44,2.42-1.67,5.41-1.2,8.19,.48,2.78,1.59,5.4,2.7,7.99,.48,1.13,1.17,2.42,2.39,2.56,.61,.07,1.17-.18,1.68-.55l-71.27,197.38c-.13-.41-.31-.8-.6-1.12-.55-.62-1.39-.89-2.2-1.03-2.04-.34-6.77,.07-7.82,2.27-1.04,2.15,1.4,8.34,1.87,10.66,.15,.76,.31,1.54,.63,2.25,.51,1.14,1.39,2.03,2.44,2.71l-80.83,223.84h-89.53l78.4-183.05h0c1.81-1.47,3.49-3.13,5.02-4.91,4.07-4.72,7.12-10.24,9.71-15.91,.54-1.16,1.06-2.36,1.23-3.63,.21-1.6-.15-3.21-.51-4.78-.34-1.49-.68-2.98-1.02-4.47L547.13,250.83l40.72-.89Z"/>
      <path class="cls-4" d="M602.66,279.81l-227.87,701.62h-51.07l80.83-223.84c.95,.64,2.04,1.12,3.11,1.49,2.26,.78,4.67,1.28,6.62,2.67,.9-1.57,.9-3.53,.47-5.28-.44-1.76-1.26-3.39-1.96-5.07-1.07-2.58-1.83-5.3-2.26-8.06-.08-.5-.15-1.01-.3-1.49l71.27-197.38c.37-.27,.71-.6,1.03-.92,3.23-3.34,6.46-6.67,9.69-10,1.74-1.8,3.56-3.74,4.03-6.2,.24-1.29,.08-2.63-.21-3.91-.68-2.99-1.96-6.22-4.44-6.93l96.25-266.57,14.81,29.87Z"/>
      <path class="cls-3" d="M643.23,491.39c-1.09,0-2.2-.02-3.33-.06-8.06-.28-14.15-3.16-18.09-8.57-8.98-12.31-3.2-33.22-2.95-34.1l17.34-68.36c.34-1.34,1.7-2.15,3.04-1.81,1.34,.34,2.15,1.7,1.81,3.04l-17.36,68.43c-.07,.26-5.38,19.53,2.17,29.87,3.03,4.15,7.68,6.28,14.22,6.51,26.41,.91,37.79-8.76,42.04-35.68l2.71-20.37c.18-1.37,1.45-2.33,2.81-2.15,1.37,.18,2.33,1.44,2.15,2.81l-2.72,20.43c-4.46,28.23-17.24,40.01-43.83,40.01Z"/>
      <polygon class="cls-3" points="515.98 317.85 565.34 317.85 582.36 348.49 579.55 357.68 561.43 328.49 511.32 328.06 515.98 317.85"/>
      <path class="cls-3" d="M553.63,378.87c7.78-21.85,56.2-156.42,65.1-181.16,1.12-3.1,5.78-1.99,5.33,1.28-.07,.51-.18,1.07-.34,1.67l-64.65,182.56c-.74,2.1-2.85,1.45-3.82,.81-1.65-1.08-2.3-3.24-1.62-5.17Z"/>
      <line class="cls-10" x1="565.34" y1="317.85" x2="561.43" y2="328.49"/>
      <path class="cls-5" d="M414.28,761.75c-1.95-1.39-4.36-1.89-6.62-2.67-1.07-.37-2.16-.85-3.11-1.49-1.05-.68-1.93-1.57-2.44-2.71-.32-.71-.48-1.49-.63-2.25-.47-2.32-2.91-8.51-1.87-10.66,1.05-2.2,5.78-2.61,7.82-2.27,.81,.14,1.65,.41,2.2,1.03,.29,.32,.47,.71,.6,1.12,.15,.48,.22,.99,.3,1.49,.43,2.76,1.19,5.48,2.26,8.06,.7,1.68,1.52,3.31,1.96,5.07,.43,1.75,.43,3.71-.47,5.28Z"/>
      <path class="cls-5" d="M496.25,527.35c-.47,2.46-2.29,4.4-4.03,6.2-3.23,3.33-6.46,6.66-9.69,10-.32,.32-.66,.65-1.03,.92-.51,.37-1.07,.62-1.68,.55-1.22-.14-1.91-1.43-2.39-2.56-1.11-2.59-2.22-5.21-2.7-7.99-.47-2.78-.24-5.77,1.2-8.19,.5-.84,1.13-1.59,1.79-2.3,3.06-3.27,7.02-5.96,11.3-7.36,.98-.32,1.84-.33,2.58-.11,2.48,.71,3.76,3.94,4.44,6.93,.29,1.28,.45,2.62,.21,3.91Z"/>
      <polygon class="cls-3" points="382.7 626.53 370.96 652.83 442.47 662.28 471.06 697.53 477.7 675.83 452.49 634.37 382.7 626.53"/>
      <line class="cls-10" x1="442.47" y1="662.28" x2="452.49" y2="634.37"/>
      <path class="cls-3" d="M557.35,419.3l-16.07-27.98c-1.08-2.03-3.18-3.31-5.48-3.34l-47.74-.51c-6.64-1.96-3.42-8.77,1.62-7.91l49.72-.35c2.19,0,4.19,1.23,5.18,3.18l16.85,30.37c2.98,4.6-2.37,9.28-4.07,6.56Z"/>
      <ellipse class="cls-3" cx="437.8" cy="369.93" rx="12.93" ry="16.22" transform="translate(-80.28 615.11) rotate(-65.52)"/>
      <ellipse class="cls-3" cx="353.32" cy="415.12" rx="12.93" ry="16.22" transform="translate(-182.39 516.01) rotate(-60.26)"/>
      <line class="cls-11" x1="38.79" y1="-32.7" x2="367.38" y2="390.23"/>
      <line class="cls-11" x1="478.45" y1="-79.17" x2="693.81" y2="394.06"/>
      <line class="cls-11" x1="555.04" y1="-69.98" x2="634.45" y2="154.83"/>
      <path class="cls-9" d="M706.28,869.09l-.98,14.94s-.64,7.79-6.77,6.77-5.49-9.57-5.49-9.57"/>
      <rect class="cls-5" x="724.35" y="853.31" width="3" height="44.43" transform="translate(-164.1 1583.63) rotate(-88.85)"/>
      <polygon class="cls-5" points="727.38 928.7 716.25 928.71 725.85 827.98 733.74 827.98 727.38 928.7"/>
      <path class="cls-9" d="M746.91,870.02v13.87s-.26,7.97,6.26,6.99,5.68-5.09,5.45-7.24c-.1-.91-.5-3.64-.5-3.64"/>
      <path class="cls-5" d="M723.46,824.16c.35,1.05,1.44,1.91,2.53,1.71,.6-.11,1.12-.51,1.47-1s.57-1.08,.74-1.66c.45-1.6,.4-5.3-2.25-4.55-1.99,.56-3.09,3.71-2.49,5.5Z"/>
      <line class="cls-9" x1="734.81" y1="815.29" x2="733.8" y2="831.65"/>
      <path class="cls-3" d="M366.72,470.88c-3.13,0-6.5-.32-10.12-1.05-10.01-2-16.49-6.37-19.25-12.97-4.83-11.53,3.74-25.42,4.65-26.84l5.06-9.44c.65-1.22,2.17-1.67,3.38-1.02s1.67,2.17,1.02,3.38l-5.22,9.72c-.08,.12-8.25,12.83-4.28,22.28,2.09,4.97,7.34,8.33,15.62,9.99,29.82,5.97,39.67-17.87,40.08-18.89l.08-.17,35.19-72.62c.6-1.24,2.1-1.76,3.34-1.16,1.24,.6,1.76,2.1,1.16,3.34l-35.16,72.56c-.76,1.8-10.29,22.89-35.54,22.89Z"/>
    </g>
    <line class="cls-8" x1="323.72" y1="981.94" x2="347.32" y2="916.06"/>
    <line class="cls-8" x1="254.91" y1="933.04" x2="262.19" y2="916.06"/>
    <line class="cls-8" x1="393.06" y1="925.17" x2="396.02" y2="916.06"/>
    <line class="cls-8" x1="73.53" y1="852.7" x2="110.53" y2="829.1"/>
    <line class="cls-8" x1="102.4" y1="856.75" x2="110.53" y2="851.26"/>
    <line class="cls-8" x1="102.94" y1="788.86" x2="110.53" y2="783.99"/>
    <path class="cls-6" d="M642.22,84.74c1.79-3.09,2.55-6.47,5.5-7.65"/>
    <path class="cls-6" d="M930.83,646.81c1,.71,2.11,1.35,3.34,1.93,13.85,6.49,18.91-3.3,28.87-10.46"/>
    <polyline class="cls-11" points="109.26 784.81 109.26 98.02 927.3 98.02 927.3 916.06 396.02 916.06"/>
    <polyline class="cls-11" points="262.19 916.06 109.26 916.06 109.26 851.26"/>
  </g>
  <g id="details">
    <path class="cls-7" d="M475.77,525.68c1.28,1.56,1.49,4.33,3.19,5.49"/>
    <path class="cls-7" d="M477.3,523.89c.14,.93,.83,1.77,1.29,2.58,.72,1.26,1.28,2.91,2.28,3.93"/>
    <path class="cls-7" d="M478.83,523c.13,.75,1.08,1.96,1.54,2.8,.84,1.56,1.55,3.48,2.8,4.73"/>
    <path class="cls-7" d="M480.49,521.72c.88,1.35,1.6,2.94,2.38,4.37,.3,.55,2.29,4.51,2.6,4.05"/>
    <path class="cls-7" d="M482.28,520.96c1.86,3.06,3.82,7.12,5.62,9.7"/>
    <path class="cls-7" d="M484.06,519.3c.53,1.52,1.68,3.06,2.46,4.5,1.11,2.07,2,5.09,3.91,6.57,.03-.23-.04-.39-.12-.61"/>
    <path class="cls-7" d="M485.98,518.66c-.1-.04-.29-.25-.15-.01,1.26,1.12,1.99,3.08,2.77,4.54,1.18,2.21,2.45,4.4,3.68,6.58-.03-.2-.18-.42-.3-.64"/>
    <path class="cls-7" d="M487.51,517.89c2.87,3.22,4.66,7.6,6.75,11.33-.14-.48-.36-.93-.62-1.37"/>
    <path class="cls-7" d="M489.55,516.62c1.07,1.4,1.96,3.4,2.81,5.03s2.86,4.6,3.07,6.2"/>
    <path class="cls-7" d="M491.47,516.36c.97,.99,1.66,2.52,2.3,3.77,.98,1.94,2.38,4.39,2.68,6.57"/>
    <path class="cls-7" d="M400.96,740.79c.45,1.59,.15,3.56,.89,5.11"/>
    <path class="cls-7" d="M402.74,740.28c-.58,.62-.13,2.3-.07,3.08,.11,1.4,.11,4,.71,4.96"/>
    <path class="cls-7" d="M404.15,740.28c0,3.41,.09,6.71,.51,10.09"/>
    <path class="cls-7" d="M405.68,740.4c.6,.86,.35,2.76,.41,3.85,.12,2.33,.1,4.69,.48,7"/>
    <path class="cls-7" d="M407.21,740.91c.51,3.61,.31,7.54,1.15,11.11"/>
    <path class="cls-7" d="M409,741.04c1.16,3.93-.18,8.58,1.13,12.53,.02,.16-.08-.09-.11-.15"/>
    <path class="cls-7" d="M410.53,741.94c.61,2.01,.54,4.54,.65,6.63,.1,1.95,.45,4.6,.37,6.27"/>
    <path class="cls-7" d="M412.45,748.83c0,2.43-.2,5.59,.64,7.88,0-.16-.01-.32,0-.47"/>
    <path class="cls-7" d="M413.6,753.43c.51,1.55,.68,3.99,.64,5.36"/>
    <path class="cls-7" d="M433.92,371.91c-2.01-.71-3.64-2.32-4.53-4.26s-1.08-4.15-.69-6.25"/>
    <path class="cls-7" d="M426.61,367.89c.06,1.07,.76,1.98,1.44,2.81,.59,.72,1.19,1.45,1.93,2.01s1.66,.94,2.59,.88"/>
    <path class="cls-7" d="M427.78,374.11c.55,1.01,1.51,1.79,2.61,2.12,.27,.08,.68,.06,.71-.22"/>
    <path class="cls-7" d="M433.04,364.76c-2.77,2.02-4.51,5.39-4.54,8.82-.01,1.54,.35,3.18,1.44,4.27"/>
    <path class="cls-7" d="M431.11,363.94c-.68,.37-1.24,.92-1.76,1.49-1.03,1.14-1.92,2.44-2.4,3.9s-.51,3.11,.12,4.51"/>
    <path class="cls-7" d="M434.61,380.17c-.15-.07-.34-.02-.44,.11,2.76,1.17,5.91,1.36,8.79,.55"/>
    <path class="cls-7" d="M435.44,378.27c1.86,.67,3.94,.69,5.8,.06"/>
    <path class="cls-7" d="M437.48,376.48c.89,.36,1.97,.23,2.75-.34"/>
    <path class="cls-7" d="M437.17,354.43c.35-.22,.8-.16,1.21-.1,2.39,.38,4.9,.81,6.82,2.3"/>
    <path class="cls-7" d="M439.22,352.14c1.1-.1,2.22,.07,3.24,.49"/>
    <path class="cls-7" d="M439.89,350.26c.79-.14,1.62,.02,2.3,.44"/>
    <path class="cls-7" d="M442.11,357.1c-1.18-.77-1.77-2.24-1.82-3.65s.38-2.79,.85-4.12"/>
    <path class="cls-7" d="M438.56,350.51c-.75,2.05-.77,4.36-.05,6.41"/>
    <path class="cls-7" d="M346.18,422.43c-2.21-1.36-3.96-3.46-4.9-5.88s-1.05-5.15-.32-7.65"/>
    <path class="cls-7" d="M347.42,420.33c-1.7-.96-3.06-2.5-3.79-4.3s-.85-3.85-.32-5.73"/>
    <path class="cls-7" d="M349.42,419.23c-2.01-1.74-3.26-4.34-3.36-7"/>
    <path class="cls-7" d="M341.71,419.78c2.06-2.6,5.26-4.26,8.57-4.43"/>
    <path class="cls-7" d="M342.36,416.23l-.35,.03c3.04-2.36,7.1-3.37,10.9-2.71"/>
    <path class="cls-7" d="M350.12,425.17c2.22,1.78,5.44,2.2,8.05,1.06"/>
    <path class="cls-7" d="M351.55,423.33c1.8,1.34,4.2,1.83,6.38,1.32"/>
    <path class="cls-7" d="M353.81,419.48c1.3,.54,2.2,1.93,2.15,3.33s-1.04,2.73-2.37,3.18"/>
    <path class="cls-7" d="M355.54,394.85c-1.11,.82-1.83,2.14-1.93,3.52s.43,2.79,1.41,3.76"/>
    <path class="cls-7" d="M356.77,397.61c-.73,1.56-.18,3.62,1.23,4.6"/>
    <path class="cls-7" d="M352.21,399.23c2.92-1.07,6.42-.35,8.69,1.79"/>
    <path class="cls-7" d="M637.65,375.7c-1-.13-2.03-.14-2.99,.17s-1.84,.98-2.22,1.91-.17,2.13,.63,2.74"/>
    <path class="cls-7" d="M635.34,371.9c-2.26,.12-4.42,1.44-5.55,3.4s-1.2,4.49-.18,6.51"/>
    <path class="cls-7" d="M633.55,368.48c-2.2-.06-4.41,.96-5.8,2.68s-1.93,4.08-1.41,6.23"/>
    <path class="cls-7" d="M627.89,367.7c.32,3.65,2.6,7.07,5.85,8.77"/>
    <path class="cls-7" d="M627.86,374.37c.63,1.85,2.22,3.34,4.11,3.84"/>
    <path class="cls-7" d="M636.85,353.6c-.05,2.49,1.27,4.97,3.38,6.31"/>
    <path class="cls-7" d="M640.3,355.32c.49,1.85,1.65,3.51,3.22,4.61"/>
    <path class="cls-7" d="M635.79,357.03c3.34-1.76,7.67-1.42,10.69,.84"/>
    <path class="cls-7" d="M684.91,402.42c-2.08,2.78-2.01,6.97,.18,9.67"/>
    <path class="cls-7" d="M686.25,406.06c-.29,1.98,.4,4.08,1.81,5.5"/>
    <path class="cls-7" d="M681.33,409.95c4.3-2.63,10.24-2.24,14.17,.92"/>
    <path class="cls-7" d="M684.85,425.05c-1.28,.42-2.59,.86-3.63,1.73s-1.74,2.26-1.4,3.57c.25,.95,1.01,1.7,1.87,2.17s1.84,.68,2.8,.9"/>
    <path class="cls-7" d="M677.54,425.78c-1.08,1.47-1.36,3.49-.72,5.2s2.18,3.05,3.96,3.45"/>
    <path class="cls-7" d="M674.12,427.33c-.65,1.8-.27,3.93,.96,5.39"/>
    <path class="cls-7" d="M672.73,426.76c3.06,2.44,7.44,3.12,11.1,1.72"/>
    <path class="cls-7" d="M672.85,429.19c1.94,2.07,5.08,2.92,7.8,2.12"/>
    <path class="cls-7" d="M609.18,185.83c-.42,2.89,.16,5.92,1.63,8.44s3.82,4.53,6.54,5.58"/>
    <path class="cls-7" d="M613.84,190.97c.72,2.75,2.95,5.04,5.67,5.84"/>
    <path class="cls-7" d="M613.8,198.07c.44-2.99,2.72-5.64,5.61-6.51"/>
    <path class="cls-7" d="M613.1,193.6c.55-2.03,2.23-3.71,4.25-4.28"/>
    <path class="cls-7" d="M623.47,201.79c4.37,.89,9.15-.6,12.24-3.82"/>
    <path class="cls-7" d="M623.74,198.81c2.22,.8,4.9,.15,6.5-1.6"/>
    <path class="cls-7" d="M622.51,165.62c-2.12,2.01-2.77,5.42-1.53,8.07"/>
    <path class="cls-7" d="M624.2,168.07c-1.38,1.45-1.3,4.03,.17,5.39"/>
    <path class="cls-7" d="M619.46,171.44c3.56-1.68,8.02-1.24,11.18,1.11"/>
    <path class="cls-7" d="M555.56,230.07c-1.29-.38-2.04-1.88-1.84-3.22s1.18-2.45,2.34-3.13,2.5-.99,3.83-1.24"/>
    <path class="cls-7" d="M553.87,231.87c-1.92-.92-3.37-2.75-3.84-4.82s.06-4.35,1.4-6"/>
    <path class="cls-7" d="M548.61,221.82c1.27,3.49,5.05,5.88,8.75,5.54"/>
    <path class="cls-7" d="M549.53,228.45l2.3,.51"/>
    <path class="cls-7" d="M560.75,205.6c-1.92,1.53-2.43,4.56-1.12,6.63"/>
    <path class="cls-7" d="M562.77,206.62c-1.17,1.83-.81,4.48,.8,5.94"/>
    <path class="cls-7" d="M557.09,210c3.35-1.92,7.77-1.78,10.99,.34"/>
    <path class="cls-7" d="M560.78,232.52c1.21,.1,2.46-.3,3.38-1.1s1.49-1.97,1.56-3.19"/>
    <path class="cls-7" d="M559.68,235.03c1.93,.86,4.35,.46,5.89-.99"/>
    <path class="cls-7" d="M427.75,655.11c4.11-2.73,8.22-5.46,12.32-8.2"/>
    <path class="cls-7" d="M433.99,654.7l4.22-2.8"/>
    <path class="cls-7" d="M384.29,630.77l-3.08,7.53"/>
    <path class="cls-7" d="M385.76,631.51l-1.8,4.46"/>
    <path class="cls-7" d="M449.58,658.07l1.02,6"/>
    <path class="cls-7" d="M450.93,659.73l.89,5.87"/>
    <path class="cls-7" d="M469.21,689.79l4.83-6.37"/>
    <path class="cls-7" d="M471.51,673.76l.43,3.82"/>
    <path class="cls-7" d="M367.5,808.54l8.85,24.85"/>
    <path class="cls-7" d="M377.8,811.23l3.46,9.17c2.25,5.95,3.03,13.47,4.18,19.73"/>
    <path class="cls-7" d="M377.34,833.99l3.48,21.43"/>
    <path class="cls-7" d="M287.14,859.95l33.77-18.94"/>
    <path class="cls-7" d="M291.32,851.3c4.43-3.18,8.85-6.35,13.28-9.53"/>
    <path class="cls-7" d="M453.86,575.42l19.2-4.02"/>
    <path class="cls-7" d="M458.24,582.31c3.18-.68,6.36-1.36,9.53-2.04"/>
    <path class="cls-7" d="M471.81,571.96l2.53,13.87"/>
    <path class="cls-7" d="M468.4,581.09l2.04,7.49"/>
    <path class="cls-7" d="M483.04,398.59l13.27-2.42"/>
    <path class="cls-7" d="M481.02,403.17l7.48-1.1"/>
    <path class="cls-7" d="M557.03,334.76l-15.67,12.24"/>
    <path class="cls-7" d="M522.87,425.85c-8.85,6.81-17.7,13.62-26.55,20.43"/>
    <path class="cls-7" d="M274.07,718.6l15.64-27.39"/>
    <path class="cls-7" d="M255.69,731.89l8.44-15.17"/>
    <path class="cls-7" d="M354.72,633.68l1.9,11.09"/>
    <path class="cls-7" d="M357.77,638.28l.51,2.89"/>
    <path class="cls-7" d="M433.8,416.37c2.22-.89,4.44-1.78,6.66-2.66"/>
    <path class="cls-7" d="M456.49,410.36l6.47,2.72"/>
    <path class="cls-7" d="M458.02,413.6l1.53,.68"/>
    <path class="cls-7" d="M573.41,419.35l4.6-2.04"/>
    <path class="cls-7" d="M607.4,412.14l6.26,5.5"/>
    <path class="cls-7" d="M613.27,413.07l2.55,2.22"/>
  </g>
  <g id="birds">
    <path class="cls-1" d="M98.43,271.86c-.39,0-.79-.02-1.2-.08-2.96-.36-5.26-2.18-6.21-4.66-.04,0-.09,0-.13,0-1.32,0-2.62-.38-3.75-1.11-.74-.48-1.33-1.1-1.74-1.81l-.34,.22c-2.46,1.62-5.84,3.84-9.8,3.91h-.14c-2.69,0-5.23-1.1-6.97-3.01-1.27-1.4-2.01-3.13-2.14-4.98-.63,.29-1.28,.57-1.93,.84-3.41,1.39-6.91,2.22-10.38,2.45-.42,.03-.84,.05-1.26,.05-1.84,0-3.43-.35-4.87-1.07-2.96-1.48-4.57-4.48-4.01-7.47,.58-3.11,3.02-4.62,4.34-5.43,.17-.1,.33-.2,.47-.3,1.45-.97,2.75-1.87,3.99-2.78,2.59-1.87,5.16-3.89,7.67-6.04,3.29-2.8,6.48-5.84,9.53-9.05-.39-.51-.72-1.06-.99-1.65-1.62-3.63-.27-7.74,3.45-10.46,1.66-1.21,3.45-2.06,5.04-2.81,.55-.26,1.1-.52,1.63-.79,2.15-1.08,4.26-2.17,6.37-3.25l.2-.1c4.83-2.49,9.03-4.74,12.84-6.89,.16-.09,.32-.18,.47-.27-.91,.13-1.84,.19-2.8,.19h-.4c-2.18-.04-4.09-1.46-4.74-3.53-.2-.64-.28-1.3-.23-1.94-1.74-.88-2.54-2.33-2.86-3.1-.72-1.7-.57-3.28-.16-4.56-.17,.02-.95,.12-.95,.12-1.37,.17-2.79,.34-4.3,.37h-.24c-2.17,0-4.07-.56-5.64-1.66-2.5,.79-4.94,1.79-7.27,2.98-.75,.4-1.59,.61-2.44,.61-1.78,0-3.42-.9-4.39-2.41-.63-.94-1.98-3.57-.54-6.79-1.01,.03-2.01,.04-3.02,.04-1.46,0-2.94-.03-4.39-.09-2-.06-3.72-1.25-4.49-3.02-1.63,.07-3.24,.1-4.83,.1-.5,0-1,0-1.5,0-.11,.04-.22,.07-.33,.1-.37,.11-.83,.17-1.3,.17s-.87-.07-1.07-.11h-.08s-.17-.05-.17-.05c-1.36-.3-2.54-1.19-3.22-2.42-.65-1.18-.8-2.57-.4-3.84,.09-.32,.35-1.24,1.16-2.13l.14-.16,.16-.14c.46-.42,.91-.67,1.15-.81,1.34-1.28,2.65-2.45,3.98-3.58,12.12-10.22,28.51-17.24,46.15-19.77,4.92-.71,9.9-1.06,14.8-1.06,12.46,0,24.28,2.24,35.16,6.66,3.48,1.41,6.82,3.09,10.06,4.71,2.16,1.08,4.22,2.11,6.3,3.07,.51-.23,1.03-.46,1.56-.68,.59-.72,1.26-1.38,2.01-1.97,1.54-1.23,3.28-2.22,4.81-3.02,.53-.4,1.08-.78,1.63-1.15,2.16-1.48,4.58-2.91,7.62-4.51,2.9-1.52,5.71-2.27,8.61-2.27,.75,0,1.51,.05,2.25,.15,3.23,.43,6.3,1.56,9.01,2.56l.65,.24c2.92,1.08,5.84,2.31,8.7,3.65,1.99,.93,3.15,2.99,2.94,5.16,3.75-.86,7.57-1.62,11.46-2.07,2.31-.27,4.66-.41,6.97-.41,7.55,0,15.04,1.43,22.25,4.25,19.48,7.6,33.79,22.94,46.43,36.48,1.42,1.19,2.42,2.74,2.92,4.51,.61,2.12-.24,4.39-2.11,5.63l-.14,.09c-.3,.18-.61,.33-.94,.45-.74,.46-1.59,.74-2.51,.79-.38,.02-.76,.03-1.13,.03-4.51,0-8.6-1.45-11.28-2.55-1.34-.55-2.67-1.12-3.99-1.71-.37,2.53-2.51,4.44-5.09,4.44h-.19c-3.99,0-7.31-1.73-9.47-3.04-.7-.42-1.41-.87-2.12-1.33-.18,.83-.57,1.63-1.14,2.31-.99,1.18-2.44,1.85-3.98,1.85-.47,0-.94-.06-1.4-.19l-1-.28c-.92-.26-1.84-.53-2.76-.8-1.46-.44-2.84-.88-4.17-1.31,.09,.48,.16,.98,.18,1.51,.11,2.41-.86,4.56-2.67,5.85-1.04,.73-2.24,1.11-3.49,1.11-1.79,0-3.21-.77-4.12-1.36-1.16-.74-2.32-1.57-3.46-2.47-.19,.83-.59,1.61-1.18,2.25-.97,1.06-2.36,1.67-3.8,1.67-.36,0-.72-.04-1.07-.11-1.96-.41-3.86-1.28-5.6-2.56-.01,.02-.03,.03-.04,.04-1.37,1.45-3.29,2.25-5.56,2.34-.15,0-.31,0-.47,0-2.19,0-4.4-.6-6.61-1.8-.14,.42-.29,.83-.48,1.24-1.22,2.77-3.77,4.49-6.65,4.49-.9,0-1.79-.17-2.66-.49-1.52-.58-2.65-1.53-3.52-2.54-1.48,.91-3.26,1.41-5.18,1.41-.58,0-1.17-.04-1.74-.13-2.72-.41-4.92-1.68-6.7-3.31-.12,.09-.25,.18-.37,.26-1.05,.7-2.25,1.06-3.48,1.06-1.72,0-3.39-.72-4.71-2.01-.95,1.13-2.37,1.79-3.86,1.79s-2.79-.6-3.72-1.66c-.88-1-1.32-2.32-1.2-3.66-1.47,1.01-2.98,1.91-4.55,2.69-.57,.28-1.16,.56-1.78,.83-2.27,5.16-4.04,9.84-5.4,14.28-.74,2.43-1.4,5.01-1.97,7.65l-.12,.53c-.46,2.13-.94,4.34-1.74,6.57-1.09,3.02-2.49,5.38-4.29,7.22l-.11,.11c-.92,.92-2.84,2.85-5.63,2.85-2.59-.03-4.88-1.56-6.06-4-.01-.02-.02-.05-.03-.07-3.4,4.32-7.51,7.1-12.28,8.31-.43,.11-.86,.16-1.29,.16-.52,0-1.03-.08-1.52-.22l-3.12,4.77c-1.3,1.99-2.77,4.24-4.99,6.06-2.05,1.69-4.39,2.58-6.77,2.58Z"/>
    <path class="cls-15" d="M291.3,205.42c-.28-1.01-.9-1.86-1.74-2.47-.01-.01-.02-.02-.03-.02-.02-.03-.02-.07-.06-.1-13.02-13.96-26.64-28.31-44.8-35.4-8.64-3.38-17.8-4.64-27.03-3.56-9.13,1.08-17.93,3.86-26.87,5.93-4.58,1.07-9.27,1.93-13.95,2.21,0-.45,0-.91-.02-1.36,.16,0,.32-.02,.47-.04,1.26-.13,2.52-.47,3.7-.98,1.65-.22,3.28-.61,4.79-1.34,.26-.07,.51-.14,.77-.23,3.05-1.13,5.5-3.37,7.69-5.71,.03-.03,.04-.06,.06-.09,2.03-.31,4.08-.49,6.14-.53,.68-.01,1.05-1.03,.37-1.35-2.72-1.28-5.5-2.45-8.33-3.49-2.81-1.03-5.73-2.17-8.71-2.56-2.89-.4-5.57,.28-8.13,1.63-2.46,1.29-4.89,2.68-7.19,4.25-.59,.4-1.17,.81-1.74,1.24-1.55,.81-3.1,1.67-4.45,2.74-.73,.57-1.41,1.3-1.88,2.11-1.5,.58-2.97,1.23-4.4,1.96-6.14-2.63-11.97-6.07-18.15-8.58-15.02-6.1-31.64-7.6-47.61-5.31-15.77,2.26-31.62,8.42-43.87,18.75-1.43,1.2-2.8,2.45-4.14,3.74-.14,.08-.28,.16-.42,.25-.14,.08-.31,.16-.43,.27-.11,.12-.14,.27-.18,.42-.07,.19,.07,.44,.27,.49,.16,.02,.29,.08,.45,.03,.17-.05,.32-.16,.45-.24l.07-.03c6.34,.15,12.68-.28,18.98-1.09-2.38,.96-4.76,1.92-7.15,2.88-.6,.24-.56,1.13,.15,1.16,7.13,.28,14.29-.16,21.35-1.27-2.31,1.42-4.59,2.88-6.83,4.42-1.7,1.18-4.47,3.44-2.93,5.76,.2,.32,.58,.42,.91,.24,3.05-1.57,6.24-2.81,9.54-3.74,1.47-.41,2.95-.79,4.41-1.2-.68,.43-1.35,.86-2.02,1.3-.26,.17-.4,.62-.11,.85,.99,.76,2.13,.98,3.37,.95,1.42-.02,2.85-.22,4.25-.39,2.85-.35,5.67-.82,8.47-1.44,1.51-.33,3.01-.71,4.48-1.12-1.81,1.27-3.53,2.68-4.99,4.38-.67,.77-1.28,1.59-1.81,2.46-.52,.86-1.17,1.95-.74,2.97,.5,1.19,1.93,1.11,3.01,1.01,1.25-.12,2.47-.39,3.65-.79,4.9-1.69,8.86-5.22,13.34-7.71,.11-.07,.23-.12,.34-.18-.98,.71-1.94,1.43-2.92,2.14-4.66,3.4-9.31,6.84-13.96,10.27-.43,.32-.31,1.03,.28,1.04,5.52,.11,10.39-2.82,15.25-5.06,4.58-2.12,9.35-3.88,14.19-5.31-1.52,1.74-2.85,3.63-3.79,5.75-.08,.19-.16,.4-.24,.6-6.68,4.45-13.57,8.63-20.54,12.58-4.28,2.42-8.63,4.73-13,6.98-2.19,1.12-4.38,2.25-6.58,3.36-2,1.02-4.22,1.89-6.05,3.22-1.57,1.15-2.87,2.96-1.99,4.95,.66,1.47,2.2,2.23,3.71,2.71-4.16,4.74-8.65,9.2-13.45,13.29-2.56,2.19-5.21,4.28-7.94,6.25-1.35,.99-2.72,1.94-4.12,2.87-1.07,.73-2.64,1.42-2.9,2.82-.22,1.15,.6,2.09,1.58,2.57,1.2,.6,2.47,.65,3.8,.56,3.09-.2,6.13-.96,8.98-2.13,5.93-2.39,11.08-6.26,15.93-10.37,2.84-2.39,5.6-4.88,8.48-7.23-1.84,1.79-3.65,3.62-5.42,5.49-2.19,2.34-4.31,4.73-6.36,7.18-1.74,2.09-4.2,4.45-4.46,7.3-.26,2.68,2.14,4.48,4.64,4.45,2.85-.05,5.58-1.99,7.87-3.48,4.76-3.11,9.01-6.98,12.86-11.15,1.23-1.32,2.4-2.68,3.56-4.05-3.38,5.37-6.76,10.74-10.15,16.11-.2,.34-.06,.77,.26,.98,1.55,1,3.24-.09,4.32-1.28,.68-.77,1.24-1.66,1.84-2.51,.68-.95,1.35-1.92,2.03-2.88,2.13-3.02,4.25-6.03,6.37-9.05-.7,1.33-1.41,2.65-2.12,3.99-1.22,2.31-2.46,4.63-3.7,6.94-.61,1.17-1.22,2.33-1.85,3.48-.54,1.03-1.28,2.12-1.4,3.32-.17,1.7,1.12,2.87,2.71,3.06,1.7,.22,3.24-.47,4.53-1.52,1.68-1.37,2.89-3.23,4.06-5.02,1.46-2.25,2.94-4.49,4.4-6.74,1.86-2.85,3.71-5.69,5.57-8.54-.9,2.54-1.64,5.13-2.23,7.76-.11,.53,.34,1.02,.88,.88,8.33-2.1,12.85-10.08,15.52-17.59,.39-1.09,.66-2.27,1.18-3.3,.23-.45,.54-.93,1.05-1.07,.34-.09,.66-.03,.87,.2-.59,2.85-1.03,5.72-1.32,8.61-.15,1.47-.25,2.95-.32,4.42-.03,1,.07,2,.51,2.9,.37,.77,1.05,1.43,1.96,1.44,.95,.01,1.88-.96,2.52-1.6,1.53-1.57,2.53-3.54,3.27-5.58,.76-2.11,1.21-4.32,1.69-6.51,.58-2.7,1.26-5.38,2.06-8.03,1.68-5.49,3.8-10.82,6.15-16.05,.07-.14,.14-.27,.19-.41,1.07-.42,2.12-.87,3.14-1.38,4.62-2.32,8.57-5.67,11.85-9.6-.18,.46-.37,.91-.56,1.37-.47,1.17-.95,2.43-.85,3.72,.07,.84,.46,2.14,1.47,2-.34,1.39-.62,2.8-.81,4.24-.06,.47,.59,.52,.81,.22,1.9-2.73,3.67-5.57,5.29-8.48-.02,.16-.04,.32-.06,.49-.1,1.39-.12,2.81,.02,4.2,.12,1.11,.37,2.25,1.07,3.15,.69,.88,1.78,1.43,2.82,.75,.91-.61,1.43-1.73,1.67-2.77,.19-.83,.24-1.69,.25-2.54,1.8,3.31,4.39,7.05,8.36,7.66,1.69,.26,3.68-.08,4.81-1.49,1.5-1.87,.56-4.5,.11-6.58-.02-.11-.06-.23-.08-.34,.94,2.04,1.97,4.04,3.11,5.98,.84,1.44,1.74,3.3,3.4,3.94,1.53,.58,2.92-.14,3.55-1.58,1.1-2.51,1-5.43,.68-8.24,1.49,1.38,2.98,2.77,4.65,3.92,1.81,1.26,3.95,2.23,6.2,2.14,.87-.03,1.81-.26,2.44-.92,.74-.78,.5-1.74,.1-2.62-1.16-2.48-2.3-4.98-3.27-7.55-.77-2.04-1.5-4.4-1-6.6,.19-.87,.61-1.6,1.16-2.19,.36,2.01,.87,3.99,1.5,5.91,1.28,3.94,3.04,8.04,5.94,11.06,1.5,1.55,3.33,2.75,5.46,3.19,.32,.07,.73-.15,.69-.52-.4-4.72-2.78-8.85-5.01-12.92-1.44-2.6-2.88-5.42-3.61-8.36,.4,.05,.79,.11,1.18,.2,3.03,6.31,7.2,12.08,12.4,16.75,1.68,1.51,3.47,2.9,5.37,4.12,.76,.49,1.69,.95,2.53,.36,.62-.44,.79-1.28,.76-2-.03-1.01-.43-2.01-.78-2.94-.41-1.08-.88-2.12-1.41-3.14-.67-1.32-1.41-2.57-2.18-3.83,4.58,2.12,9.37,3.77,14.19,5.22,1.21,.36,2.43,.7,3.65,1.05,.58,.16,.98-.37,.88-.9-.44-2.77-2.3-4.96-4.07-7.03-1.54-1.79-3.28-3.74-3.7-6.14,.42,.02,.83,.06,1.24,.09,1.11,1.02,2.26,2.03,3.41,3.01,3.79,3.19,7.77,6.26,12.02,8.82,2.21,1.34,4.68,2.44,7.32,2.38,.33,0,.61-.27,.61-.6-.03-2.17-1.77-3.63-3.22-5-1.61-1.52-3.15-3.11-4.65-4.73,6.1,2.4,12.01,5.47,18.06,7.94,3.31,1.35,6.83,2.38,10.45,2.19,.41-.02,.65-.32,.7-.64,.18,.12,.42,.18,.62,.06,.2-.14,.32-.39,.25-.62Z"/>
    <path class="cls-1" d="M718.71,119.26c-1.01-.01-2.03-.02-3.04-.07-2.67-.09-4.05-1.45-4.73-2.58-.85-1.33-1.01-3.11-.39-4.79,.29-.8,.69-1.44,1.05-1.96-2.33-.69-4.03-2.71-4.28-5.29-.45-4.47,3.37-6.78,4.62-7.54,.41-.26,.87-.44,1.36-.55,4.14-3.24,8.25-6.32,12.23-9.15,1.38-.99,2.85-2.03,4.4-3.12-.08-.12-.14-.25-.21-.38-.24-.49-.39-1-.46-1.53-1.55-.2-3.41-.71-4.74-2.2-.57-.64-.98-1.4-1.2-2.22-2.98-.66-5.49-1.66-7.71-3.03l-.11-.07c-.92-.56-2.45-1.49-3.27-3.34-.17-.37-.3-.76-.37-1.15-4.46-1.8-7.68-4.43-9.77-7.97-.82-1.41-.82-3.14-.01-4.54,.14-.24,.29-.46,.46-.66-.66-.66-1.3-1.39-1.88-2.26-1.4-2.14-1.77-4.49-1.03-6.6,.42-1.2,1.16-2.15,2.11-2.76-.82-1.71-1.59-3.52-2.06-5.41-1.09-4.46,.7-7.08,1.85-8.25,.8-.84,1.94-1.33,3.17-1.33,1.41,0,2.77,.68,3.64,1.83,3.33,4.38,6.79,8.39,10.29,11.91,1.63,1.66,3.18,3.05,4.73,4.26,1.3,1.01,3.03,2.25,4.84,2.88,1.41,.49,2.99,.74,4.66,1.02,.57,.09,1.15,.19,1.72,.29,2.28,.4,4.61,.88,7.12,1.46,6.71,1.56,13.3,3.6,19.62,6.1,.49-.76,1.03-1.51,1.6-2.22,1.81-2.24,4.08-3.8,6.57-4.52,1.16-.33,2.35-.5,3.55-.5,4.91,0,8.97,2.7,11.51,4.96,.62,.55,1.07,1.27,1.3,2.07,3.51-.66,7-.82,10.39-.98,1.03-.05,2.06-.1,3.08-.16,4.77-.29,9.11-1.03,13.26-2.27,4.59-1.38,8.9-3.46,12.51-5.31,3.52-1.81,7.03-3.64,10.53-5.47l2.64-1.38c.69-.35,1.42-.53,2.14-.53,1.74,0,3.34,1.02,4.09,2.59,.77,1.61,.54,3.48-.59,4.87-1.65,1.98-3.36,3.8-5.12,5.47,.57,4.33-2.78,7.11-4.58,8.61l-.2,.17c-2.02,1.69-4.24,3.16-6.62,4.41-.16,.22-.34,.42-.54,.61-2.75,2.7-6.24,4.72-10.38,5.97-.46,.76-1.13,1.38-1.96,1.79-4.71,2.26-9.6,3.62-14.61,4.07-.26,.3-.55,.57-.89,.81-2.15,1.49-4.68,2.29-7.18,2.29h-.2c-.53,0-1.06-.05-1.57-.12-.01,.02-.02,.04-.04,.05-1.01,1.58-2.64,2.73-4.48,3.14-.49,.11-.97,.16-1.46,.16-.52,0-1.03-.06-1.53-.17-1.15,1.24-2.41,2.36-3.78,3.34-.79,.56-1.71,.85-2.66,.85-1.8,0-3.45-1.05-4.24-2.62-.55,.22-1.13,.33-1.73,.33-1.01,0-2.01-.33-2.84-.94-3.68,3.96-8.76,6.27-14.09,6.28-.15,0-.3,0-.45,0-.05,.22-.09,.45-.14,.67-.67,3.18-1.56,6.3-2.65,9.29-.03,.08-.07,.2-.11,.33-.41,1.26-1.67,5.1-5.79,5.16h-.09c-.04,.06-.08,.13-.11,.2-.6,1.03-1.41,2.43-2.9,3.54-1.62,1.21-3.42,1.67-4.96,1.96l-.23,.04c-.79,.15-1.78,.35-2.87,.35-.84,0-1.63-.12-2.36-.35-.99-.32-1.85-.86-2.55-1.55-.45,.54-.93,1.09-1.46,1.62-2.18,2.14-4.83,2.14-5.82,2.14-.19,0-1.5-.02-1.97-.03Z"/>
    <path class="cls-15" d="M840.79,48.88c-1.6,1.92-3.31,3.74-5.14,5.44-3.23,2.99-6.8,5.53-10.61,7.63,3.03-1.49,5.96-3.25,8.81-5.01,.32-.2,.89-.03,.95,.38,.34,2.29-1.8,3.95-3.37,5.26-2.18,1.82-4.6,3.35-7.19,4.57,.07,.2,.04,.43-.15,.61-3.21,3.16-7.23,4.87-11.5,5.72,.54,.2,.78,1.04,.16,1.34-5.13,2.46-10.68,3.8-16.34,3.84,.03,.01,.06,.03,.1,.04,.58,.25,.72,.95,.17,1.34-1.46,1.01-3.23,1.58-5,1.55-.89-.01-1.78-.16-2.61-.47-.43-.16-.89-.49-1.34-.55-.44-.06-.49,.18-.55,.58-.13,.78-.09,1.51-.54,2.21-.44,.69-1.17,1.22-1.98,1.4-1.2,.26-2.42-.31-3.11-1.27-1.39,2.03-3.11,3.81-5.12,5.25-.38,.27-.92-.02-1.04-.42-.51-1.76-.66-3.58-.48-5.39-1.54,1-2.98,2.14-4.3,3.42-.31,.3-.71,.25-1.02,0-1.21-.98-1.94-2.36-2.2-3.84-.48,.85-.97,1.68-1.52,2.48-2.85,4.17-7.59,6.9-12.69,6.91-.63,0-1.26-.06-1.88-.12-.47-.05-1.06-.14-1.5,.07-.57,.29-.59,1.16-.69,1.71-.13,.73-.28,1.47-.43,2.2-.62,2.96-1.45,5.88-2.49,8.72-.39,1.09-.74,2.84-2.2,2.86-.7,.01-1.25-.28-1.92,.1-.5,.29-.88,.78-1.19,1.26-.72,1.13-1.23,2.35-2.33,3.17-.96,.72-2.14,1.02-3.31,1.24-1.1,.21-2.41,.51-3.51,.16-1.1-.36-1.68-1.33-1.71-2.44-.03-1.29,.49-2.57,.85-3.78,.22-.73,.43-1.46,.65-2.19-1.66,2.01-3.32,4.02-4.98,6.03-.92,1.13-1.8,2.38-2.84,3.4-1,.98-2.17,1.02-3.5,.99-1.44-.03-2.89-.02-4.33-.09-.57-.02-1.18-.12-1.5-.65-.26-.41-.22-.92-.06-1.36,.23-.63,.68-1.17,1.06-1.71,.41-.58,.83-1.15,1.24-1.72,.84-1.15,1.7-2.28,2.58-3.4,1.37-1.77,2.81-3.48,4.27-5.18-1.31,.47-2.59,1.01-3.83,1.65-.87,.45-1.73,.95-2.56,1.48-.81,.52-1.56,1.16-2.44,1.55-1.48,.67-3.16,.08-3.33-1.67-.18-1.79,1.34-2.9,2.71-3.73,.24-.15,.48-.09,.64,.05,4.32-3.41,8.72-6.73,13.2-9.92,4.42-3.16,8.88-6.28,13.45-9.23,.27-.18,.55-.35,.82-.53-2.61,.65-5.26,1.2-7.92,1.64-.81,.14-1.26-.68-.77-1.32,.93-1.19,2.08-2.11,3.36-2.8-1.79,.12-3.58,.17-5.38,.1-1.4-.06-4.44-.09-4.29-2.21,.02-.26,.19-.41,.44-.44,1.62-.17,3.21-.48,4.79-.89-1.31-.05-2.62-.13-3.92-.26-3.73-.38-7.49-1.19-10.71-3.19-.67-.41-1.5-.87-1.83-1.62-.28-.61-.08-1.32,.48-1.69,.26-.18,.55-.27,.86-.32-4.68-1.16-9.16-3.22-11.7-7.53-.22-.38,.15-.89,.58-.76,1.98,.63,3.95,1.25,5.93,1.87,.87,.28,1.74,.61,2.63,.81,.47,.11,.99,.17,1.43,.03-2.31-1.25-4.52-2.68-6.59-4.3-1.03-.8-2.02-1.64-2.97-2.53-.91-.84-1.85-1.7-2.54-2.75-.59-.9-.97-2.03-.6-3.09,.43-1.23,1.56-.96,2.32-.22,1.87,1.81,3.85,3.43,6.11,4.73,1.59,.92,4.1,2.46,6.01,1.66-1.34-1.32-2.89-2.39-4.46-3.43-1.51-1.01-3.03-2.02-4.36-3.25-1.41-1.3-2.49-2.87-3.34-4.59-.83-1.69-1.67-3.51-2.12-5.34-.38-1.56-.39-3.27,.81-4.48,.24-.25,.59-.15,.78,.1,3.28,4.32,6.82,8.47,10.64,12.31,1.61,1.63,3.3,3.18,5.1,4.59,1.83,1.42,3.8,2.75,6.01,3.51,2.26,.78,4.63,1.04,6.97,1.46,2.32,.41,4.63,.89,6.93,1.42,7.63,1.77,15.14,4.2,22.35,7.27,.7-1.68,1.73-3.35,2.88-4.77,1.19-1.47,2.73-2.66,4.57-3.19,4.16-1.18,8.24,.89,11.29,3.61,.17,.15,.19,.52,0,.67-1.3,1.03-2.67,1.54-4.26,1.92-.43,.11-.9,.25-1.08,.69-.14,.34-.08,.74-.05,1.09,.05,.47,.1,.93,.02,1.38,.1,.08,.2,.16,.29,.25,.17,.16,.26,.45,.21,.69,2.53-1.7,5.47-2.79,8.46-3.45,4.62-1.02,9.38-1.02,14.09-1.31,4.81-.29,9.54-1.05,14.16-2.43,4.6-1.38,8.93-3.4,13.19-5.59,4.41-2.27,8.8-4.57,13.19-6.86,.59-.3,1.07,.39,.68,.87Z"/>
    <path class="cls-1" d="M702.72,949.79c-1.33,0-2.58-.45-3.63-1.31-.28-.23-.61-.54-.93-.96-.09,.07-.19,.14-.28,.21-1.61,1.17-3.53,1.82-5.39,1.82-1.33,0-2.59-.32-3.74-.95-1.81-.99-3.05-2.55-3.59-4.51-.34-1.23-.36-2.48-.17-3.7-2.38,1.33-4.85,2.52-7.38,3.55-3.36,1.36-7.01,2.61-10.97,2.61-1.02,0-2.03-.09-3-.25-1.94-.37-3.42-1.73-3.94-3.57-.53-1.86,.01-3.82,1.41-5.11l6.19-5.81s3.48-3.26,3.78-3.53c-2.98,.95-5.97,1.81-8.93,2.56-1.51,.39-3.59,.93-5.8,.93-1.81,0-3.48-.37-4.95-1.09-1.8-.87-3.28-2.37-4.39-4.46-.13-.24-.24-.47-.35-.7-.12-.25-.28-.57-.39-.74-1.61-1.15-2.4-3.04-2.1-4.93,.32-1.97,1.76-3.56,3.69-4.05l9.49-2.44c4.04-1.04,8.1-2.08,12.15-3.12l2.78-.71,1.58-.7c3.29-1.47,6.68-2.99,10.07-4.42,6.65-2.82,15.12-6.33,24.1-9.61-1.71,.16-3.39,.24-5,.24-.93,0-1.85-.03-2.75-.08-1.92-.11-3.57-1.3-4.29-3.09-.32-.78-.47-1.58-.45-2.38-4.18-.3-8.27-1.12-12.22-2.43-1.92-.62-3.31-2.44-3.42-4.51-.08-1.51,.52-2.93,1.6-3.89-2.73-1.35-5.3-3.23-7.46-5.86l-.1-.13c-1.15-1.5-1.36-3.57-.52-5.26,.79-1.6,2.34-2.62,4.1-2.73-.03-.02-.05-.04-.07-.06-1.96-1.6-4.36-3.89-5.34-7.25-.43-1.48-.13-3.08,.79-4.31,.27-.36,.58-.67,.93-.94-2.71-3.15-4.88-6.35-6.57-9-.95-1.51-1.01-3.41-.15-4.97,.56-1.02,1.45-1.79,2.49-2.21-4.88-7.2-8.48-15.83-6.57-25.59,.52-2.39,2.53-3.98,4.89-3.98,1.35,0,2.66,.56,3.59,1.53,5.62,5.78,10.33,12.15,15.06,18.72,.98,1.37,1.96,2.74,2.94,4.12,6.85,9.62,13.93,19.57,22.94,27.05,2.46,2.05,5.24,4.36,8.09,5.07,.86,.21,1.79,.37,2.78,.53,.94,.16,1.88,.32,2.81,.52,1.98,.44,3.93,1,5.8,1.68,5.27,1.89,10.26,4.73,14.57,8.29,1.28-.59,2.6-1.18,3.96-1.75,.09-.12,.19-.25,.28-.37,2.12-2.71,4.07-4.66,6.13-6.14,1.68-1.2,3.44-1.94,5.24-2.19,.53-.08,1.15-.13,1.78-.13,1.33,0,2.59,.21,3.51,.36,2.93,.49,5.95,1.16,9.01,1.99l.78,.21c1.12,.3,2.39,.64,3.64,1.12,2.71,1.03,4.39,3.15,4.56,5.81v.14c.03,.6-.06,1.19-.24,1.74,7.07-.57,13.92-1.94,20.4-4.07,7.64-2.51,15.09-6.25,22.17-11.1,1.9-1.31,3.82-2.71,5.68-4.06,1.86-1.36,3.78-2.76,5.73-4.1,3.39-2.33,7.1-4.57,11.68-7.03,1.41-.76,2.83-1.51,4.26-2.25,6.21-3.26,12.08-6.35,17.25-10.48,.91-.73,2.06-1.14,3.23-1.14,2.08,0,3.95,1.23,4.76,3.14,.8,1.87,.39,4.04-1.04,5.53l-1,1.04c-3.72,3.87-7.56,7.88-11.47,11.73-2.06,2.04-4.06,3.95-6.01,5.75,.05,.07,.09,.15,.13,.23,.88,1.66,.75,3.67-.32,5.25-2.62,3.79-4.92,6.86-7.26,9.67-6.43,7.76-13.3,13.58-20.54,17.41,.05,.14,.1,.28,.14,.43,.66,2.25-.24,4.69-2.18,5.93-5.02,3.17-10.97,4.67-18.72,4.71,.17,1.41-.24,2.88-1.15,4-2.31,2.8-5.72,4.19-10.16,4.19-.71,0-1.43-.03-2.22-.1-2.48-.22-4.94-.54-7.35-.89-.66,2.24-2.67,3.81-4.98,3.81h-.14c-4.3-.17-8.55-.67-12.69-1.5-.38,.92-.92,1.84-1.71,2.7-1.47,1.6-3.5,2.52-5.59,2.52-.92,0-1.82-.17-2.69-.51-2.11-.84-3.63-2.37-4.75-3.48l-.18-.18c-.46-.45-.91-.93-1.32-1.4-.07-.03-.14-.05-.21-.08-.21-.08-.42-.16-.63-.25-.05,.07-.09,.14-.14,.22-.57,.89-1.79,2.77-4.14,3.72-1.37,.54-2.68,.72-3.74,.86l-.53,.07c-1.22,.2-2.54,.38-3.86,.53-1.53,.18-3.06,.33-4.56,.43-.71,.9-1.33,1.81-1.86,2.73-1.11,1.96-1.95,4.14-2.48,6.44-.08,.36-.16,.71-.24,1.07-.47,2.15-1.01,4.59-2.32,6.92-1.57,2.74-4.67,5.66-8.72,5.66-.93,0-1.86-.16-2.74-.48-.56-.2-1.16-.49-1.76-.9-1.32,1.33-2.62,2.59-3.91,3.79-2.82,2.6-5.69,5.02-8.53,7.17-.51,.38-2.01,1.51-4.08,1.51Z"/>
    <path class="cls-15" d="M876.06,835.94c-4.09,4.26-8.18,8.54-12.38,12.69-7.23,7.14-14.87,13.95-23.34,19.63-4.43,2.96-9.09,5.59-13.95,7.77,10.76-3.46,20.83-9.02,29.45-16.34,.55-.47,1.54,.16,1.08,.83-2.22,3.21-4.52,6.34-7.01,9.34-8.04,9.71-18.39,18.06-30.94,20.54,2.88,1.03,5.97,1.38,9.04,1,.74-.09,.89,.98,.36,1.32-7.38,4.66-16.42,4.27-24.8,3.61,.34,2.14,1.73,3.98,3.69,4.94,.46,.22,.43,.81,.16,1.15-2.05,2.47-5.51,2.68-8.48,2.42-3.88-.34-7.76-.97-11.62-1.5-.13,1.23-.27,2.45-.4,3.69-.05,.37-.3,.73-.72,.72-5.6-.21-11.17-1.05-16.58-2.51,.17,1.88,.02,3.77-1.26,5.17-.85,.93-2.1,1.33-3.31,.85-1.3-.52-2.41-1.68-3.39-2.65-.66-.65-1.28-1.36-1.89-2.07-.43-.15-.84-.29-1.27-.45-1.3-.49-2.59-1.14-3.67-2.01-.11,.18-.24,.37-.35,.55-.69,1.07-1.37,2.13-2.07,3.19-.54,.83-1.1,1.62-2.07,2.01-1,.39-2.16,.49-3.23,.65-1.23,.2-2.45,.37-3.69,.51-2.07,.25-4.16,.43-6.25,.52-1.35,1.5-2.56,3.12-3.58,4.88-1.36,2.41-2.34,4.98-2.96,7.67-.53,2.29-.92,4.71-2.09,6.78-1.14,1.99-3.57,4.05-6.01,3.16-1.66-.61-2.34-2.25-2.64-3.91-2.43,2.68-4.95,5.26-7.61,7.72-2.62,2.42-5.35,4.74-8.2,6.89-.63,.47-1.42,.89-2.13,.3-.54-.44-.55-1.15-.47-1.78,.21-1.72,.88-3.35,1.63-4.9,1.62-3.33,3.48-6.56,5.4-9.71,.04-.07,.09-.13,.12-.2-2.77,4.13-5.85,8.03-9.25,11.65-1.28,1.37-2.59,2.89-4.13,3.99-1.24,.9-2.94,1.36-4.35,.58-3.23-1.77-.56-6.71,.72-8.87,2.05-3.42,4.79-6.41,7.32-9.47,.72-.87,1.44-1.73,2.15-2.6,.6-.71,1.29-1.41,1.72-2.23,.3-.6,.47-1.83-.54-1.91-.51-.03-1.18,1.21-1.46,1.57-4.36,5.5-9.71,10.21-15.67,13.92-2.94,1.82-6.03,3.4-9.23,4.7-3.64,1.47-7.54,2.78-11.51,2.09-.42-.08-.54-.67-.25-.94,2.07-1.95,4.15-3.89,6.22-5.84,3.49-3.27,7.01-6.51,10.44-9.84,2.77-2.7,5.41-5.53,7.72-8.63-2.77,1.28-5.56,2.51-8.39,3.63-6.22,2.47-12.61,4.58-19.11,6.23-2.44,.63-5.28,1.33-7.66,.16-1.09-.53-1.83-1.47-2.4-2.53-.57-1.09-1.02-2.33-2.13-3-.37-.24-.31-.83,.12-.94,3.16-.81,6.33-1.63,9.49-2.44,5.1-1.32,10.2-2.62,15.3-3.93,3.96-1.77,7.92-3.55,11.91-5.24,9.48-4.02,19.03-7.88,28.76-11.26,.34-.12,.66-.24,1-.35,.7-.79,1.6-1.44,2.46-2.09,1.54-1.17,3.14-2.27,4.76-3.33-1.88,.43-3.76,.83-5.65,1.17-.84,.15-2.26,.62-2.95-.17-.6-.67-.07-1.37,.55-1.92-.28-.18-.42-.62-.12-.84,.22-.18,.42-.37,.62-.56-.19,.05-.38,.08-.57,.11-1.16,.56-2.38,.94-3.69,.96-.47,.01-.96-.04-1.44-.13-2.94,.36-5.9,.51-8.87,.34-.19-.01-.3-.11-.37-.28-.37-.89,.22-1.68,.91-2.19,.98-.75,2.25-1.2,3.35-1.74,1.28-.62,2.55-1.25,3.82-1.87,.07-.03,.13-.07,.2-.1,0-.01,0-.03,.01-.06-7.9,1.54-16.07,1.1-23.72-1.44-.35-.11-.52-.69-.11-.87,2.98-1.3,6.19-.92,9.35-1.19,2.34-.19,4.93-.91,6.35-2.87-8.13-.4-17.28-1.2-22.82-7.93-.26-.34-.02-.87,.44-.74,6.24,1.65,12.83,1.62,19.06-.02-3.91-.82-7.68-2.24-11.17-4.21-1.95-1.1-3.8-2.37-5.52-3.8-1.66-1.36-3.27-2.92-3.89-5.05-.1-.35,.3-.65,.62-.47,4.26,2.46,9.08,3.82,13.97,3.99-1.3-.53-2.58-1.15-3.79-1.86-6.86-4.02-11.97-10.46-16.17-17.07-.21-.34,.21-.78,.55-.55,5.62,3.61,11.25,7.23,16.87,10.84-1.91-1.97-3.81-3.97-5.67-6.01-8.29-9.14-17.97-20.46-15.36-33.78,.08-.36,.57-.46,.81-.21,5.44,5.6,10.11,11.92,14.67,18.24,8.1,11.26,15.89,23.06,26.66,32,2.95,2.45,6.11,5.04,9.89,5.97,1.88,.46,3.81,.66,5.7,1.08,1.78,.39,3.53,.9,5.24,1.52,5.7,2.05,10.94,5.24,15.34,9.38,2.51-1.19,5.02-2.36,7.59-3.4,.3-.43,.62-.85,.94-1.27,1.51-1.92,3.23-3.84,5.22-5.26,.98-.7,2.07-1.23,3.25-1.39,1.32-.2,2.63,0,3.94,.21,2.88,.48,5.74,1.12,8.56,1.89,1.32,.36,2.69,.69,3.96,1.18,.89,.34,1.64,.91,1.71,1.92,.01,.3-.22,.54-.49,.64-2.68,.98-5.35,1.97-8.03,2.95-.99,.37-2.08,.67-2.82,1.48-.64,.71-.99,1.64-1.39,2.51-.04,.08-.1,.16-.15,.25,.19,.24,.34,.49,.42,.79,1.89-.81,3.86-1.42,5.88-1.75,2.29-.39,4.62-.47,6.94-.55,8.75-.33,17.38-1.79,25.71-4.53,8.31-2.73,16.1-6.71,23.3-11.66,3.86-2.65,7.57-5.51,11.42-8.17,3.61-2.49,7.39-4.69,11.26-6.77,7.57-4.07,15.43-7.78,22.19-13.18,.62-.49,1.47,.3,.9,.9Z"/>
  </g>
</svg>