<?xml version="1.0" encoding="UTF-8"?>
<svg xmlns="http://www.w3.org/2000/svg" viewBox="0 0 1024 1024">
  <defs>
    <style>
      .cls-1, .cls-2, .cls-3, .cls-4, .cls-5, .cls-6, .cls-7, .cls-8, .cls-9, .cls-10, .cls-11 {
        stroke-linecap: round;
        stroke-linejoin: round;
      }

      .cls-1, .cls-2, .cls-5, .cls-6, .cls-11 {
        stroke-width: 1.18px;
      }

      .cls-1, .cls-2, .cls-7, .cls-12, .cls-10 {
        fill: #151922;
      }

      .cls-1, .cls-3, .cls-5, .cls-8, .cls-9, .cls-10, .cls-11 {
        stroke: #151922;
      }

      .cls-2, .cls-4, .cls-6, .cls-7 {
        stroke: #fff;
      }

      .cls-13 {
        fill: #ee4b2b;
      }

      .cls-3, .cls-4, .cls-7, .cls-9, .cls-10 {
        stroke-width: 1.76px;
      }

      .cls-3, .cls-8, .cls-11 {
        fill: #fff;
      }

      .cls-4, .cls-5, .cls-6, .cls-9 {
        fill: none;
      }

      .cls-8 {
        stroke-width: 1.26px;
      }

      .cls-14 {
        fill: #231f20;
      }
    </style>
  </defs>
  <g id="background">
    <path class="cls-13" d="M324.56,30.32V499.75h374.88V30.32H324.56Zm227.4,214.57c0,1.3-1.06,2.35-2.35,2.35h-75.22c-1.29,0-2.35-1.05-2.35-2.35v-88.02c0-22.04,17.92-39.96,39.96-39.96s39.96,17.92,39.96,39.96v88.02Z"/>
    <path class="cls-13" d="M998.9,974.79H25.1l82.46-121.21c98.2,44.97,244.9,73.51,408.81,73.51s304-27.27,402.11-70.5l80.42,118.2Z"/>
    <path class="cls-13" d="M512,121.6c-19.44,0-35.26,15.82-35.26,35.26v85.67h70.52v-85.67c0-19.44-15.82-35.26-35.26-35.26Zm18.1,79.47h-.13c.08-.65,.13-1.33,.13-2.03,0-6.63-3.74-10.98-13.53-11.97v-5.4c3.75-1.66,5.23-5.67,5.23-11.33,0-7.57-2.64-12.18-9.8-12.18s-9.8,4.61-9.8,12.18c0,6.11,1.73,10.3,6.17,11.68v4.96c-10.48,.8-14.47,5.22-14.47,12.05,0,.71,.05,1.39,.13,2.03h-.13v-37.31c0-10,8.1-18.1,18.1-18.1,5.01,0,9.52,2.02,12.8,5.3,3.28,3.27,5.3,7.8,5.3,12.8v37.31Z"/>
  </g>
  <g id="base">
    <g>
      <path class="cls-2" d="M663.72,541.88s-4.21,5.15-4.4,10.11c0,0,9.37,21.02,20.65,19.87,0,0,4.72-3.23,0-14.15-4.72-10.92-6.88-18.07-6.88-18.07l-9.37,2.23Z"/>
      <path class="cls-2" d="M641.92,537.1c-.38,.93,2.68,7.02,2.68,7.02,0,0,11.08,8.07,12.04,15.23l-4.6,2.38s-14.1,2.49-20.4-10.13c0,0-2.9-2.44-3.1-3.23s4.78-16.66,4.78-16.66l8.6,5.38Z"/>
      <path class="cls-2" d="M671.37,374.86s5.6-3.22,12.26,11.28l8.38,32.25-4.88,25.65-8.69-29.39-7.08-39.78Z"/>
      <path class="cls-2" d="M651.42,452.12c-.39,2.55-.79,4.98-1.15,7.22-.54,3.21-1.03,6.09-1.46,8.5-.92,5.13-1.54,8.21-1.54,8.21-6.04,.94-11.7,.45-16.44-.55-8.07-1.7-13.45-4.86-13.45-4.86v-1.44c7.2-26.81,3.54-98,33.38-104.68-.74,.21-1.35,.7-1.77,1.45-3.44,6.04,7.46,22.58,7.46,22.58,.99,18.99-2.16,44.89-5.03,63.56Z"/>
      <path class="cls-2" d="M692.59,454.28c-2.07,8.88-6.62,13.89-10.51,16.66-3.66,2.61-6.77,3.23-6.77,3.23l-2.21-23.8-.84-9.13-4.9-52.69c0-13.79-9.77-24-15.31-24.18,11.37-.88,18.06,5.82,22.89,15.55,3.47,7.01,5.45,14.65,6.19,22.43,1.85,19.67,11.47,51.94,11.47,51.94Z"/>
      <path class="cls-11" d="M673.09,450.38c-6.76,2.13-13.3,2.43-18.6,2.04-1.08-.07-2.1-.18-3.07-.3,2.88-18.68,6.02-44.57,5.03-63.56,0,0-10.9-16.53-7.46-22.58,.43-.75,1.03-1.24,1.77-1.45,.12-.03,.26-.07,.38-.09,.3-.03,.6-.06,.89-.07,5.54,.18,15.31,10.39,15.31,24.18l4.9,52.69,.84,9.13Z"/>
      <path class="cls-2" d="M646.32,366.11s-9.75,5.36-14.69,7.78c-9.6,4.69-16.48,44.43-16.48,44.43l10.04,34.84s6.88-8.21,14.63-14.72l-7.31-18.02,5.32-24.99"/>
      <path class="cls-1" d="M670.44,343.35c-.33,.22-.67,.42-1.03,.58-1.56,.75-3.31,1-5.05,1.07-1.82,.07-3.67-.07-5.39-.65-1.57-.53-3.31-1.4-4.76-.6-1.4,.78-3.08,2.94-3.04,4.56,.03,2.1-1.16,4-.86,6.08,0,0-2.66-.44-6.19-2.18-.2-1.86-.24-3.74-.09-5.61,.39-5.19,1.75-12.46,7.23-14.33,3.91-1.34,8.4-1.61,12.06,.33,3.63,1.91,5.94,5.74,6.91,9.73,.08,.34,.16,.69,.22,1.02Z"/>
      <path class="cls-11" d="M670.6,354.55c-.17,1.92-.37,3.88-1.07,5.67-.95,2.44-1.15,7.53-2.9,9.47-.79,.86-1.58,1.75-2.63,2.3-1.17,.63-2.55,.78-3.88,.79-2.63,.03-6.96-3.53-9.05-5.11-1.27-.97-2.24-2.28-3.06-3.65-2.16-3.58-3.47-7.65-3.93-11.81,3.53,1.74,6.19,2.18,6.19,2.18-.29-2.08,.9-3.98,.86-6.08-.03-1.62,1.64-3.79,3.04-4.56,1.45-.81,3.19,.07,4.76,.6,1.72,.58,3.57,.72,5.39,.65,1.74-.07,3.49-.31,5.05-1.07,.36-.17,.71-.36,1.03-.58,.71,3.66,.48,7.47,.17,11.2Z"/>
      <path class="cls-11" d="M647.11,353.35c-.39-.62-.8-1.25-1.36-1.72s-1.31-.78-2.03-.66c-.9,.15-1.61,.93-1.87,1.81s-.14,1.83,.1,2.71c.29,1.06,.78,2.09,1.59,2.83,.47,.43,1.03,.74,1.6,1.02,1.05,.5,2.38,.86,3.3,.14,.07-.06,0-.22-.02-.13"/>
      <path class="cls-5" d="M654.34,355.32c1.84-.62,3.85-.68,5.73-.18"/>
      <path class="cls-5" d="M668.88,354.48c.12,0,.23,.01,.35,.02-1.35-.15-2.74,.07-3.97,.63-.04,2.62,0,5.17,.3,7.77-1.01,.3-2.05,.48-3.1,.53"/>
      <path class="cls-2" d="M687.04,501.6l-9.75,43.89c-9.94,7.45-16.58-1.82-16.58-1.82l5.3-39.16-8.2-37.03c-1.6,.2-3.13,.33-4.56,.38l-2.35,26.87-7.3,45.58c-11.09,4.94-13.19-3.31-13.19-3.31l1.56-39.92-1.15-21.57c4.74,1,10.4,1.49,16.44,.55,0,0,.62-3.08,1.54-8.21,.43-2.41,.92-5.29,1.46-8.5,.36-2.25,.75-4.67,1.15-7.22,.97,.12,1.99,.24,3.07,.3,5.3,.38,11.84,.09,18.6-2.04l2.21,23.8s3.11-.63,6.77-3.23l4.96,30.65Z"/>
      <path class="cls-6" d="M670.22,463.65c-4.1,2.18-8.45,3.29-12.41,3.82"/>
      <path class="cls-6" d="M674.81,506.92s5.65,2.15,8.94-.77"/>
      <path class="cls-11" d="M651.25,379.13s6.6,5.84,14.77,.74"/>
    </g>
    <g>
      <path class="cls-2" d="M536.63,527.76c-.75-.1-8.5,11.6-8.5,11.6l10.3,6.6,26.27,3.15-3.31-6.26-14.97-9.09-9.79-6Z"/>
      <path class="cls-2" d="M585.14,447.73c0,.8-10.07,51.62-10.67,52.02s-27.29,34.89-27.29,34.89l-14.16-6.12,23.12-38.06,1.24-45.53,27.76,2.8Z"/>
      <path class="cls-2" d="M599.71,538.39c.63,.57,13.04-4.63,13.04-4.63l-8.29-52.77-22.27-45.26-24.65,6.66,26.97,48.32,15.2,47.68Z"/>
      <path class="cls-2" d="M593.72,412.47c-.4,.6-.87,1.15-1.41,1.63-.53,.47-1.09,.88-1.69,1.25l.32,2.79,1.01,31.19h-38.62c-13.62-37.02-2.54-83.23,13.05-94.02l1.76,1.15,9.93,6.52,.95,2.21,3.55,8.27,4.55,10.6,.76,6.78c-2.89,0-5.71,.94-8.42,2.16,1.08,3.3,2.26,6.58,3.5,9.84,1.79-1.33,3.8-2.37,5.91-3.07,.45-.15,.89-.28,1.34-.4,.41-.11,.85-.21,1.28-.15,.49,.07,.93,.32,1.3,.66,.22,.2,.42,.42,.61,.66,2.66,3.34,2.67,8.42,.31,11.92Z"/>
      <path class="cls-2" d="M559.47,383.59c2.66,11.72,6.81,23.1,12.32,33.77,.51,.98,1.05,1.96,1.88,2.68,1.54,1.29,3.81,1.35,5.74,.78s3.64-1.7,5.44-2.61c1.9-.98,3.97-1.73,5.77-2.86"/>
      <path class="cls-2" d="M579.47,393.01c-1.96-5.91-1.46-17.34-6.27-19.55"/>
      <path class="cls-2" d="M602.59,400.33c-.07,.68-.15,1.36-.26,2.05-.99-1.39-2.29-2.4-3.69-3.16-.43-.25-.88-.47-1.36-.58-1.53-.38-3.07,.42-4.47,1.26-.38-.34-.81-.59-1.3-.66-.43-.06-.87,.05-1.28,.15-.45,.12-.89,.25-1.34,.4-2.12,.69-4.13,1.74-5.91,3.07-1.25-3.26-2.42-6.54-3.5-9.84,2.7-1.22,5.52-2.16,8.42-2.16l-.76-6.78-4.55-10.6c4.28,3.69,13.99,16.87,18.05,20.8,.59,.58,1.2,1.16,1.57,1.9,.63,1.26,.53,2.75,.39,4.15Z"/>
      <path class="cls-2" d="M587.88,390.85c.45,0,.91,.02,1.35,.07,3.82,.38,7.23,2.47,10.48,4.5"/>
      <path class="cls-11" d="M600.71,410.39c-1.23,.42-2.47,.85-3.7,1.27-1.18,.41-2.25,.72-3.28,.81,2.36-3.5,2.35-8.58-.31-11.92-.19-.24-.39-.46-.61-.66,1.4-.83,2.94-1.63,4.47-1.26,.48,.11,.93,.33,1.36,.58,1.4,.76,2.7,1.77,3.69,3.16,.02,.02,.04,.06,.06,.08,.98,1.42-1.03,7.7-1.68,7.93Z"/>
      <path class="cls-5" d="M592.81,399.89c-.06,.04-.11,.07-.16,.11"/>
      <path class="cls-1" d="M596.28,334.95c-2.41,.16-4.88,.47-6.92,1.74-.72,.45-1.35,1-1.96,1.57-.43,.42-.87,.87-1.09,1.43-.22,.56-.22,1.2-.2,1.8,.07,1.62,.28,3.22,.48,4.83-1.23,.46-2.46,.95-3.67,1.48-.08-.31-.16-.61-.27-.92-.05-.16-.11-.32-.16-.48-.01-.04-.02-.06-.04-.09,0-.01-.01-.02-.01-.04-.45-1.16-1.73-1.68-2.8-1.36-.41-.18-.85-.28-1.29-.33-.28-.02-.58-.01-.82,.14-.15,.11-.26,.26-.35,.42-.78,1.22-1.05,2.77-.72,4.18,.04,.13,.07,.27,.12,.39-.98,.75-2.17,1.21-3.4,1.4-.65,.11-1.29,.13-1.94,.11,.04-.12,.05-.24,.05-.36,.01-.54-.21-1.05-.42-1.54-1.07-2.41-2.33-4.8-2.62-7.41-1.26-11.22,7.35-15.63,19.22-13.12,3.63,.78,7.24,2.93,8.83,6.15Z"/>
      <path class="cls-11" d="M584.11,359.12c-1.53,2.16-3.23,4.2-5.09,6.08l-.95-2.21-9.93-6.52c.8-1.25,1.6-2.5,2.39-3.75,.29-.46,.6-.94,.71-1.48,.65,.02,1.29,0,1.94-.11,1.22-.19,2.42-.65,3.4-1.4,.06,.16,.14,.33,.26,.46,.2,.22,.47,.36,.74,.47,.8,.32,1.74,.55,2.59,.39l-.43,4.37c1.26,1.46,2.74,2.72,4.4,3.7Z"/>
      <path class="cls-11" d="M596.58,358.06c.02,.72,.04,1.46-.27,2.1-.69,1.41-2.59,1.68-4.16,1.56-2.83-.21-5.61-1.13-8.04-2.61-1.66-.99-3.14-2.24-4.4-3.7l.43-4.37c-.85,.16-1.79-.07-2.59-.39-.27-.11-.54-.25-.74-.47-.12-.13-.2-.29-.26-.46-.05-.12-.08-.26-.12-.39-.33-1.41-.06-2.96,.72-4.18,.09-.16,.2-.32,.35-.42,.25-.15,.54-.16,.82-.14,.45,.05,.88,.15,1.29,.33,1.07-.32,2.35,.2,2.8,1.36,0,.01,.01,.02,.01,.04,.01,.04,.02,.06,.04,.09,.06,.16,.12,.32,.16,.48,.11,.31,.19,.61,.27,.92,1.21-.53,2.43-1.02,3.67-1.48-.2-1.61-.41-3.21-.48-4.83-.02-.6-.02-1.23,.2-1.8,.22-.56,.66-1.01,1.09-1.43,.61-.58,1.25-1.13,1.96-1.57,2.05-1.27,4.51-1.58,6.92-1.74,.35,.69,.61,1.43,.75,2.22,.4,2.21-.11,4.48-.09,6.72,.02,2.26,.79,4.77,2.81,5.76-1.23,.78-2.47,1.54-3.69,2.32,.27,2.02,.45,4.06,.53,6.09Z"/>
      <path class="cls-5" d="M580.74,345.65c-.33-.31-.71-.54-1.1-.73"/>
    </g>
    <g>
      <polygon class="cls-2" points="515.56 549.45 548.59 550.36 547.19 547.37 527.04 535.33 517.38 535.99 515.56 549.45"/>
      <path class="cls-2" d="M515.78,538.39c.6,.57,12.36-4.63,12.36-4.63l-12.36-52.02-16.61-46.02-18.21,16.41,20.41,38.57,14.4,47.68Z"/>
      <path class="cls-1" d="M498.15,337.26c-.21,.52-.5,.99-.9,1.39-.73,.72-1.71,1.17-2.42,1.93-1.26,1.35-1.42,3.41-1.13,5.24,.3,1.83,.94,3.61,1.02,5.46,.01,.32,.01,.66-.17,.93-.31,.46-.97,.49-1.52,.59-1.35,.24-2.51,1.24-3.05,2.5-1.3-.26-2.46-.32-3.53,.59-1.71,1.45-1.87,4.39-.31,6.03,.53,.55,1.2,.91,1.93,1.09-.18,.21-.37,.4-.58,.55-.14,.1-.28,.19-.44,.28-2.18,1.21-5.73,.39-7.43-1.2-1.4-1.34-2-3.31-2.45-5.2-.77-3.32-1.27-6.86-.21-10.09,1.82-5.51,7.66-8.65,13.3-10.03,2.59-.64,5.41-1,7.88-.06Z"/>
      <path class="cls-5" d="M490.9,355.5c-.32-.06-.63-.14-.93-.19"/>
      <path class="cls-11" d="M487.58,363.13c-.18,.23-.36,.48-.53,.72-2.23,2.97-4.21,6.12-5.95,9.4-.46,.86-.93,1.79-.93,2.77-.05,3.76,8.07,6.98,11.1,5.88,1.97-.72,2.85-4.02,3.79-5.68,1.42-2.54,2.99-4.98,4.69-7.34,.22-.31,.45-.62,.63-.97"/>
      <path class="cls-2" d="M502.57,447.73c0,.8-13.47,59.82-14.08,60.22s-24.94,28.04-24.94,28.04l-9.2-19.6,17.61-21.66,2.85-49.8,27.76,2.8Z"/>
      <path class="cls-2" d="M478.44,369.2s-17.88,44.74-7.68,83.64h38.61l-1-18.31-6.6-44.21-8.02-13.97-15.32-7.14Z"/>
      <path class="cls-2" d="M486.37,389.46c.08,4.21-1.23,8.3-2.84,12.08-3.4,7.98-8.17,15.05-12.91,22.04-.62,.92-1.27,1.86-2.16,2.39-1.29,.77-2.89,.52-4.17-.25s-2.31-2.01-3.27-3.27c-.8-1.05-1.58-2.17-1.93-3.51-.43-1.66-.14-3.44,.19-5.13,1.7-8.67,4.5-17.04,8.25-24.79,1.94-4,4.84-9.69,8.82-10.95"/>
      <path class="cls-11" d="M511.25,365.46c-.25,.54-.75,.91-1.25,1.21-2.88,1.73-6.39,2.06-9.63,1.25-3.41-.83-6.5-2.94-8.19-6.01-1.03,1.08-2.67,1.45-4.11,1.1-.73-.19-1.4-.54-1.93-1.09-1.56-1.65-1.41-4.57,.31-6.03,1.07-.92,2.23-.85,3.53-.59,.54-1.27,1.7-2.26,3.06-2.5,.55-.11,1.21-.13,1.52-.59,.19-.27,.19-.61,.16-.93-.07-1.86-.72-3.63-1.01-5.47-.28-1.82-.13-3.88,1.13-5.23,.72-.76,1.69-1.21,2.42-1.94,.4-.4,.69-.87,.91-1.39,.2,.06,.41,.15,.6,.25,2.61,1.22,4.25,3.81,5.61,6.36,.25,.47,.49,.94,.72,1.41-.22,1.61-.51,3.51-.51,3.51,0,0,1.6,2.96,3.89,4.34,.62,.38,.79,.77,.79,.77l-.26,.74-1.47,.85,1.85,2c.63,2.15,1.5,3.79,1.92,5.99,.12,.66,.24,1.36-.05,1.97Z"/>
    </g>
    <g>
      <path class="cls-2" d="M777.44,478.97c-2.24,3.67-6.47,5.56-10.52,6.98-16.48,5.79-34.1,7.35-51.52,8.72-1.97,.16-4.01,.3-5.88-.32-4.52-1.48-6.5-6.64-7.9-11.18-2.03-6.56-4.06-13.11-5.82-19.74-1.68-6.32-3.13-12.83-2.64-19.35,.26-3.58,1.1-7.08,1.9-10.57,2.4-10.5,3.73-21.23,6.11-31.7,.83-3.65,5.25-6.07,8.4-7.92,3.91-2.29,8.16-3.97,12.54-5.13,3.28-.87,6.65-1.45,10.04-1.77l14.09,19.99-.52-19.66c.41,.08,.82,.17,1.23,.27,3.35,.82,6.5,2.32,9.54,3.95,3.03,1.63,6.04,3.46,8.21,6.13,2.11,2.6,3.28,5.82,4.33,8.99,6.58,19.84,10.09,40.68,10.38,61.58,.05,3.69-.05,7.58-1.97,10.73Z"/>
      <polyline class="cls-6" points="716.84 415.77 712.24 450.03 722.43 494.1"/>
      <line class="cls-6" x1="720.21" y1="419.52" x2="716.04" y2="421.75"/>
      <path class="cls-6" d="M746.24,406.98l-14.09-19.99c1.69-.16,3.4-.25,5.1-.28,2.84-.04,5.69,.07,8.47,.61l.52,19.66Z"/>
      <polyline class="cls-6" points="746.24 406.98 749.65 412.38 753.09 429.28"/>
      <line class="cls-6" x1="732.15" y1="386.99" x2="730.96" y2="385.3"/>
      <line class="cls-6" x1="745.72" y1="387.32" x2="745.63" y2="384.08"/>
      <path class="cls-11" d="M754.46,373.1c.22,6.21-.64,10.03-3.46,15.56-1.55,3.02-3.63,6.1-6.85,7.21-4.56,1.56-9.44-1.46-12.69-5.01-2.53-2.77-5.05-7.03-6.89-11.78,.98,.15,1.99-.08,2.61-.83,.58-.71,.71-1.66,.82-2.55,.21-1.85,.43-3.68,.65-5.52,.15-1.23,.31-2.52,.88-3.62s1.67-2.03,2.93-2.05c1.47-.01,2.63,1.18,3.75,2.13,1.93,1.66,4.31,2.86,6.84,3.06,2.53,.2,5.21-.69,6.85-2.63,.95-1.14,1.53-2.55,1.92-4,.31-1.15,.51-2.34,.59-3.53,1.89,3.41,1.94,9.66,2.06,13.56Z"/>
      <path class="cls-1" d="M752.39,359.54c-.08,1.19-.28,2.37-.59,3.53-.39,1.45-.96,2.86-1.92,4-1.65,1.94-4.33,2.83-6.85,2.63-2.53-.2-4.91-1.4-6.84-3.06-1.12-.95-2.28-2.14-3.75-2.13-1.26,.01-2.35,.94-2.93,2.05s-.73,2.39-.88,3.62c-.21,1.85-.43,3.68-.65,5.52-.12,.89-.25,1.85-.82,2.55-.62,.75-1.63,.99-2.61,.83-4.13-10.75-4.69-24.05,6.26-28.42,5.77-2.3,12.71-.62,17.34,3.51,1.72,1.53,3.13,3.36,4.23,5.36Z"/>
      <path class="cls-11" d="M726.41,379.11c-.36-1.34-1.24-2.52-2.42-3.25-.81-.5-1.88-.77-2.68-.27-.51,.31-.82,.87-.97,1.44-.37,1.41,.12,2.95,.99,4.12s2.09,2.04,3.33,2.81c.38,.24,.79,.48,1.24,.44,.55-.05,.98-.53,1.15-1.05s.12-1.09,.08-1.64c-.07-.85-.21-1.82-.94-2.26"/>
      <path class="cls-5" d="M737.35,380.53c1.48-.16,2.94-.42,4.39-.77"/>
      <path class="cls-5" d="M749.04,379.04l2.62-.49"/>
      <path class="cls-5" d="M743.55,387.61c.99-.3,1.98-.58,2.98-.83,0-.66-.66-5.59-.52-6.23"/>
    </g>
    <g>
      <path class="cls-2" d="M405.34,500.49l9.9-40.76-18.51-20.21s-3.6,8.2-3.6,17.61l-5,40.06-20.21,43.21,16.01,1.48,21.41-41.39Z"/>
      <path class="cls-11" d="M436.92,448.81c.04,1.19,.09,2.44,.68,3.48,.41,.71,1.06,1.27,1.78,1.66,1.54,.82,3.47,.87,5.05,.11s2.75-2.28,3.08-4c.32-1.68-.15-3.43-.88-4.98s-1.72-2.96-2.53-4.48c-.43-.81-.84-1.68-1.61-2.17-1.29-.82-3.09-.18-4.09,.98-2.38,2.75-1.58,6.09-1.48,9.4Z"/>
      <path class="cls-2" d="M425.55,440.35c.4,.97,16.1,52.79,16.1,52.79l2.68,22.16-16.66-5.92-2.12-12.19-18.68-33.28s-12.94-6.18-10.13-24.39l28.81,.83Z"/>
      <path class="cls-2" d="M435.9,446.24c3.25-.81,5.73-3.35,8.04-5.77,.31-.32,.63-.68,.7-1.12,.06-.39-.1-.78-.26-1.14-3.36-7.67-14.29-17.89-16.79-25.89-2.04,2.9,.19,9.84-1.71,12.83-1.28,2.01-2.31,4.22-1.09,6.47,1.32,2.44,3.67,4.57,5.37,6.76,.58,.75,5.31,7.97,5.74,7.86Z"/>
      <path class="cls-2" d="M426.15,389.76c2.03,3.85,4.5,14.57,4.51,18.92,0,2.64-.18,5.28-.03,7.91,.18,3.12,.82,6.2,1.23,9.3,.91,6.85,.69,19.65-.64,26.43-12.93,.17-25.86,.33-38.79,.5-.08,.4-1.62-16.72-1.55-21.02,.16-9.96,2.41-19.76,4.66-29.47,1.15-4.98,2.3-9.96,3.86-14.83,1.33-4.17,3.08-8.42,6.42-11.25,.73-.62,1.54-1.17,2.45-1.44,1.94-.57,4,.17,5.86,.98,5.23,2.27,9.07,8.32,12.03,13.94Z"/>
      <line class="cls-5" x1="418.25" y1="417.37" x2="416.46" y2="420.34"/>
      <polygon class="cls-2" points="367.93 551.36 399.19 551.36 383.93 541.88 369.33 540.53 367.93 551.36"/>
      <path class="cls-11" d="M419.74,382.51s1.66-12.78,1.66-12.78l-12.24-5.3-1.61,10.68c4.32,1.25,9.39,4.74,12.18,7.4Z"/>
      <path class="cls-11" d="M430.59,359.53c-.38,3.16-1.04,6.34-2.57,9.14-.88,1.62-2.13,3.11-3.82,3.85-1.31,.55-2.78,.6-4.2,.43-4.1-.49-7.93-2.8-10.28-6.18-1.67-2.4-2.55-5.17-2.99-8.02,.45,.54,.96,1.01,1.56,1.38,.33,.2,.72,.38,1.09,.25,.58-.2,.67-.97,.66-1.59-.12-3.13-.62-6.37,.46-9.31,.33-.89,.88-1.81,1.79-2.13,.39-.13,.84-.13,1.26-.08,1.88,.25,3.41,1.62,5.23,2.14,1.62,.46,3.34,.22,4.99-.03,.88-.13,1.77-.28,2.6-.62,1.21-.49,2.22-1.38,2.92-2.47,1.76,4.01,1.85,8.8,1.33,13.24Z"/>
      <path class="cls-5" d="M414.75,358.33c1.61-.92,3.62-.52,5.43-.1,.12,.03,.27,.1,.25,.22s-.25-.04-.12-.05"/>
      <path class="cls-5" d="M424.15,357.34c-.13,2.12-.1,4.25,.09,6.37-.95,.24-1.9,.48-2.84,.72"/>
      <path class="cls-5" d="M426.15,357.4c.91-.45,1.89-.78,2.89-.97-.15,.1-.3,.19-.45,.29"/>
      <path class="cls-1" d="M429.27,346.29c-.7,1.09-1.71,1.98-2.92,2.47-.83,.34-1.72,.49-2.6,.62-1.65,.25-3.37,.49-4.99,.03-1.81-.53-3.35-1.89-5.23-2.14-.42-.05-.87-.05-1.26,.08-.91,.32-1.46,1.23-1.79,2.13-1.08,2.94-.58,6.18-.46,9.31,.01,.62-.08,1.39-.66,1.59-.37,.13-.76-.05-1.09-.25-.6-.37-1.12-.84-1.56-1.38-.38-2.46-.45-4.99-.43-7.43,.03-5.12,1.44-8.98,6.67-11.42,5.12-2.4,10.52-1.34,14.18,2.97,.89,1.05,1.59,2.21,2.13,3.44Z"/>
      <path class="cls-11" d="M404.64,361.04c-.54-.78-.83-1.73-.8-2.67,.01-.51,.12-1.05,.46-1.43,.5-.57,1.37-.68,2.12-.53,1.18,.23,2.25,.99,2.85,2.02,.53,.78,.83,2.06,.86,3.01,0,.33-.02,.68-.2,.95-.27,.4-.79,.55-1.27,.58-1.25,.09-2.52-.37-3.42-1.24-.22-.21-.42-.44-.59-.69Z"/>
      <path class="cls-2" d="M413.04,398.36c-2.06,3.68-4.12,7.37-6.18,11.05,3.55,3.33,7.15,6.73,9.6,10.93-3.56,3.23-6.54,7.1-8.77,11.36-6.53-5.06-12.48-10.86-17.7-17.26-1.15-1.41-2.3-2.92-2.61-4.71-.3-1.75,.24-3.52,.85-5.19,1.9-5.2,9.11-16.02,12.4-20.47"/>
    </g>
    <g>
      <path class="cls-2" d="M322.96,445.98c-.6,.3-12,44.41-12,44.41,0,0,3.9,20.96,4.35,20.36s14.7-8.48,14.7-8.48l19.06-49.55-26.11-6.75Z"/>
      <path class="cls-2" d="M415.24,549.06c-.9,.6-29.41,9.54-29.41,9.54l-2.7-13.65,9.05-4.55,23.06,8.66Z"/>
      <path class="cls-2" d="M383.73,546.87s6.3,3.29,11.7-3.56l-9.9-50.07-15.31-46.52-32.31,6,31.11,47.02,14.7,47.12Z"/>
      <path class="cls-2" d="M378.03,451.23c-24.31,13.8-55.82,3.9-57.91,3.2l-1.73-65.49c-.21-8.11,5.08-15.48,12.92-17.54,2.33-.61,4.54-.91,6.64-.93,8.47-.14,15.07,3.84,19.22,7.35,3.22,2.73,4.96,5.16,4.96,5.16l15.9,68.25Z"/>
      <path class="cls-11" d="M369.31,360.57c-.12,.42-.24,.79-.34,1.06-1.14,2.83-5.76,13.34-11.8,16.19-4.15-3.5-10.74-7.49-19.22-7.35l2.53-4.61c.34,.2,.69,.38,1.06,.53,2.37,1.03,5.01,1.23,7.58,1.43,1.3,.09,2.66,.19,3.89-.25,1.74-.6,3.01-2.16,3.73-3.87,.42-1,.76-2.16,1.69-2.73,.69-.41,1.56-.4,2.37-.36,1.76,.07,3.51,.15,5.27,.22,1.09,.05,2.22,.08,3.24-.27Z"/>
      <path class="cls-11" d="M353.27,469.94c.16,1.2,.39,2.41,.92,3.5,.96,2,2.96,3.51,5.18,3.72s4.53-.98,5.52-2.97c.57-1.14,.69-2.44,.72-3.71,.06-2.89-.33-5.79-1.17-8.55-.24-.78-.52-1.58-1.09-2.17-.55-.57-1.32-.89-2.09-1.07-2.74-.65-5.6,.53-7.21,2.8s-1.13,5.77-.77,8.46Z"/>
      <path class="cls-1" d="M369.31,360.57c-1.02,.35-2.15,.32-3.24,.27-1.75-.07-3.5-.15-5.27-.22-.81-.04-1.68-.05-2.37,.36-.93,.56-1.27,1.73-1.69,2.73-.72,1.7-1.99,3.27-3.73,3.87-1.23,.43-2.59,.34-3.89,.25-2.57-.2-5.21-.4-7.58-1.43-.36-.15-.72-.33-1.06-.53l.26-.47s-2.83-21.96,14.74-21.64c16.04,.28,15.08,12.34,13.83,16.82Z"/>
      <path class="cls-11" d="M358.95,366.64c-.31-.17-.58-.39-.85-.62-.32-.28-.63-.58-.86-.94-.62-.94-.67-2.22-.18-3.24s1.49-1.76,2.59-2.02c.57-.13,1.18-.13,1.71,.1s.97,.73,1.02,1.31c.02,.24-.02,.48-.06,.71-.07,.38-.14,.76-.2,1.14,0,.04-.03,.1-.07,.1s-.03-.09,0-.06"/>
      <path class="cls-2" d="M349.52,390.01s-2,33.61-1.45,34.81,2.95,38.11,2.95,38.11c0,0,8.4,3.6,13.5-3v-35.11s4.2-29.97-2.4-41.84"/>
    </g>
    <g>
      <path class="cls-2" d="M323.71,553.36s-26.7,13.9-27.16,12.8c-.31-.75-10.05-22.64-16.36-36.77-4.88,.33-9.44,0-13.49-.67-4.87,18.74-11.94,45.79-12.61,47.25l-14.9-15.4-1.29-51.19,9.97,.48c.12-10.45,.4-23.8,1.13-24.53,1.21-1.2,42.02-.31,42.91,0,.33,.11,1,5.44,1.73,12.2,3.93-4.14,6.97-7.29,7.28-7.37,.99,0,22.81,63.19,22.81,63.19Z"/>
      <path class="cls-11" d="M296.54,372.52c-.04,.62-.11,1.23-.19,1.85-.92,6.96-2.5,13.82-4.74,20.48-.92,2.73-2.12,5.64-4.63,7.03-1.61,.89-3.53,1.01-5.36,.98-2.54-.05-5.08-.36-7.55-.94-1.33-.32-2.68-.72-3.77-1.53-.74-.55-1.34-1.26-1.93-1.97-1.15-1.36-2.29-2.74-3.44-4.1-.16-.2-.33-.4-.56-.52-1.3-.65-2.83,.75-2.81-1.53,.01-1,.08-1.97,.13-2.96,1.65,.28,3.37,.27,5.05,.29,5.35,.07,10.68,.63,15.93,1.69,.19-2.01,.42-4.02,.72-6.02,.05-.34,.11-.68,.29-.95,.19-.27,.48-.43,.75-.59,3.8-2.07,8-3.89,10.41-7.48,.78-1.14,1.3-2.4,1.69-3.73Z"/>
      <path class="cls-1" d="M296.54,372.52c-.39,1.33-.92,2.59-1.69,3.73-2.41,3.58-6.62,5.41-10.41,7.48-.27,.15-.56,.32-.75,.59-.19,.27-.25,.61-.29,.95-.29,2-.53,4.01-.72,6.02-5.24-1.06-10.58-1.62-15.93-1.69-1.68-.02-3.41-.01-5.05-.29,.04-.88,.05-1.76-.06-2.67-.13-1.13-.36-2.26-.86-3.28-.33-.68-.78-1.3-1.1-1.97-.68-1.4-.87-2.99-1-4.54-.2-2.47-.28-4.98,.39-7.37,1.16-4.15,4.54-7.43,8.44-9.27,3.9-1.83,8.3-2.39,12.61-2.48,1.39-.04,2.79-.01,4.16,.24,5.15,.92,9.3,5.1,11.34,9.93,.42,.98,.76,2,.88,3.07,.07,.53,.07,1.05,.05,1.58Z"/>
      <path class="cls-2" d="M256.29,406.98c0-.86,3.4-13.47,3.4-13.47,0,0,18.01-6.38,27.81,5.02l6.13,15.79-37.34-7.34Z"/>
      <path class="cls-11" d="M263.46,369.27c-.27-.42-.75-.78-.71-1.28,.02-.25,.17-.47,.32-.67,.92-1.28,1.89-2.6,3.28-3.35,2.21-1.2,4.91-.71,7.37-.18,1.73,.37,3.47,.74,5.2,1.11,.97,.21,1.94,.42,2.83,.85,1.01,.49,1.87,1.24,2.7,2,3.12,2.82,6.13,5.77,9.01,8.85,.23,.24,.47,.53,.43,.86-.02,.21-.16,.39-.29,.56-.99,1.24-2.04,2.45-3.13,3.6-1.1,1.16-2.33,2.32-3.87,2.75-.19,.05-.38,.09-.57,.07-.2-.02-.39-.12-.57-.21-3.37-1.68-7.19-2.42-10.94-2.13-.36,.03-.73,.06-1.08-.03-.3-.08-.56-.26-.81-.44-1.13-.81-2.18-1.75-3.11-2.79,.36-.52,1.08-.6,1.71-.63,.77-.04,1.54-.08,2.31-.11,1.16-.06,2.96-.61,1.7-1.92-1.03-1.07-2.48-1.93-3.71-2.74s-2.61-1.62-3.98-2.33c-.68-.35-1.38-.68-2.08-1-.37-.17-1.77-.51-1.98-.83Z"/>
      <path class="cls-2" d="M337.91,410.06s-15.33,9.05-25.15,14.82l14.15,73.86c-37.21,11.21-87.73,5.72-87.73,5.72l-12.05-68.93,8.05-25.47c8.3-13.87,37.11-9.94,37.11-9.94,.6,0,15.06,.08,19.44,4.94,5.3-1.38,15.59-2.83,15.59-2.83l-22.73-17.11,9.05-10.2,44.28,20.01v15.15Z"/>
      <path class="cls-6" d="M291.73,405.05c-1.63,.43-2.8,.86-3.03,1.22"/>
      <line class="cls-6" x1="318.11" y1="402.22" x2="307.32" y2="402.22"/>
      <path class="cls-5" d="M312.76,424.88c-4.5,2.63-7.86,4.58-8.05,4.64"/>
    </g>
    <line class="cls-11" x1="258.53" y1="525.77" x2="266.7" y2="528.72"/>
    <g>
      <polygon class="cls-2" points="770.33 510.74 782.41 568.37 810.26 561.98 798.06 503.05 770.33 510.74"/>
      <path class="cls-2" d="M806.79,526.15c-25.73,5.01-45.6-3.58-45.6-3.58v-18.8c-13.49-13.5-15.39-37.19-15.39-37.19,0,0,8.11-49.06,12.9-54.24,3.78-4.07,17.74-12.44,23.55-15.83,.24,1.52,.61,3.05,1.48,4.32,1.28,1.85,3.51,2.87,5.74,3.08,.58,.05,1.16,.06,1.74,.03,6.32,7,13.05,15.96,15.51,24.42,0,0,1.15-18.77-1.73-31.08,.71-.84,1.31-1.78,1.77-2.78l24.06,9.46c3.99,2.65,2.31,8.75,2.77,8.38,.45-.38-26.8,113.81-26.8,113.81Z"/>
      <path class="cls-6" d="M769.56,468.37c4.06,3.11,13.9,23.27,13.9,23.27l-13.21,18.52c-3.49-1.6-6.49-3.81-9.06-6.39"/>
      <path class="cls-6" d="M757.81,464.75c4.68-.23,8.44,1.28,11.76,3.62,5.46-15.47,3.1-44.03,3.1-44.03"/>
      <path class="cls-6" d="M806.72,428.36c-2.46-8.46-9.19-17.42-15.51-24.42,1.65-.09,3.29-.5,4.87-1.04,2.6-.88,5.11-2.08,7.19-3.87,.62-.53,1.21-1.11,1.72-1.75,2.88,12.31,1.73,31.08,1.73,31.08Z"/>
      <path class="cls-6" d="M804.99,397.28c-.77-3.33-1.84-6.18-3.31-8.07"/>
      <path class="cls-6" d="M778.19,391.18s6.27,5.26,13.02,12.76"/>
      <path class="cls-1" d="M814.24,381.68c-3.33,1.76-6.7,4.03-10.07,4.36,.93-4.06,.86-11.93-.33-15.91-3.75,1.18-7.66,1.85-11.59,1.96-2.86,.09-5.88-.15-8.24-1.77-.83-.58-1.54-1.38-2.05-2.28,.34-.66,.73-1.29,1.14-1.9,3.09-4.5,8.07-7.76,13.52-8.31,5.43-.54,11.17,1.83,14.26,6.32,1.93,2.8,2.77,6.21,3.27,9.56,.4,2.64,.59,5.36,.09,7.98Z"/>
      <path class="cls-11" d="M814.24,381.68c-.01,.18-.06,.36-.09,.54-.62,2.8-2.12,5.48-4.5,7.04-.61,.4-1.29,.75-1.67,1.36-.28,.47-.35,1.02-.46,1.55-.16,.8-.42,1.57-.75,2.32-.8,1.75-2.03,3.29-3.49,4.54-2.08,1.79-4.6,2.99-7.19,3.87-2.13,.72-4.37,1.22-6.61,1.01-2.23-.21-4.47-1.23-5.75-3.08-.87-1.27-1.23-2.8-1.48-4.33-.06-.36-.12-.73-.16-1.08-.4-2.74-.8-5.48-1.19-8.23-.15-1.01-.4-1.97-.12-2.96,.29-1.05,1.07-1.7,1.07-2.89,.01-1.01-.29-2-.56-2.97-.54-1.99-.92-4.07-.68-6.11,.18-1.48,.68-2.89,1.36-4.22,.51,.91,1.21,1.7,2.05,2.28,2.36,1.62,5.38,1.87,8.24,1.77,3.93-.12,7.84-.79,11.59-1.96,1.19,3.98,1.26,11.86,.33,15.91,3.37-.33,6.75-2.6,10.07-4.36Z"/>
      <path class="cls-5" d="M781.41,380.55c1.45,1.03,3.01,1.92,4.64,2.64-1.2,2.43-2.4,4.85-3.6,7.28,1.21,.26,2.4,.62,3.55,1.08"/>
      <path class="cls-5" d="M790.38,384.48c2.53,1.12,5.54,1.1,8.06-.04"/>
      <path class="cls-11" d="M806.57,386.05c.15-2.44,2.09-3.14,3.17-3.26,.26-.03,.53-.04,.79,.01,.83,.18,1.36,1,1.61,1.81,.57,1.81,.16,3.9-1.05,5.36s-3.18,2.26-5.06,2.04"/>
      <line class="cls-6" x1="807.97" y1="439.92" x2="806.72" y2="428.36"/>
      <line class="cls-6" x1="787.52" y1="484.52" x2="783.47" y2="491.64"/>
      <path class="cls-5" d="M792.62,409.34c7.81,3.49,13.12,2.94,15.96-1.62"/>
    </g>
    <g>
      <path class="cls-11" d="M852.16,442.83c-1.74,3.66-3.94,7.05-6.41,10.27-5.29-10.31-10.33-20.75-14.29-31.62-.62-1.73-1.13-3.9,.18-5.18,3.66-3.55,8.67-4.13,13.76-3.87,1.79,.08,3.61,.31,5.18,1.15,1,.53,1.83,1.28,2.5,2.17h.01c1.36,1.8,2.13,4.13,2.52,6.38,1.18,7.01-.4,14.28-3.46,20.69Z"/>
      <path class="cls-11" d="M835.49,431.62s11.91,11.55,20.15,0"/>
      <path class="cls-2" d="M850.71,504.61c-17.25,2.21-34.7,4.54-35.23,4.92-.31-1.26-18.22-39.02-18.22-39.02l7.6-37.77c.4-.22,26.76-16.44,26.76-16.44-1.3,1.28-.8,3.46-.18,5.18,3.96,10.87,9,21.31,14.29,31.62l4.96,51.51Z"/>
      <path class="cls-2" d="M884.76,500.33s-16.91,2.09-34.04,4.28h-.01l-4.96-51.51c2.47-3.22,4.67-6.62,6.41-10.27,3.06-6.41,4.63-13.68,3.46-20.69-.39-2.26-1.15-4.58-2.52-6.37l29.28,21.16,2.39,63.4Z"/>
      <path class="cls-11" d="M865.25,402.44c-.25,.95-.61,1.89-.99,2.82-.89,2.21-1.82,4.41-2.82,6.57-3.04,6.66-7.15,13.58-13.98,16.2-1.89,.73-4.04,1.07-5.9,.27-1.73-.74-2.92-2.34-3.94-3.93-2.27-3.55-4.13-7.51-4.67-11.72-.22-1.73,.01-2.94-1.12-4.27-1.33-1.56-3-1.97-3.48-4.29-.43-2.13,.6-4.55,2.56-5.5,1.95-.95,4.64-.15,5.58,1.81-.19-2.16-.35-4.5,.78-6.36,1.23-2.05,3.81-3,6.21-2.86,2.39,.13,4.62,1.19,6.69,2.39,2.19,1.26,4.49,2.76,7.01,2.53,1.72-.15,3.39-1.13,5.08-.79,1.9,.38,3.15,2.37,3.29,4.31,.07,.95-.07,1.89-.31,2.81Z"/>
      <path class="cls-1" d="M865.25,402.44c.24-.92,.38-1.86,.31-2.81-.14-1.94-1.39-3.94-3.29-4.31-1.69-.34-3.36,.63-5.08,.79-2.52,.24-4.82-1.27-7.01-2.53-2.07-1.2-4.3-2.26-6.69-2.39-2.4-.14-4.97,.81-6.21,2.86-1.13,1.86-.96,4.2-.78,6.36-.94-1.96-3.63-2.76-5.58-1.81,.45-5.78,1.01-15.55,5.11-19.66,4.41-4.41,11.35-4.92,17.57-4.42,2.43,.2,4.95,.54,7.04,1.79,1.45,.87,2.62,2.13,3.58,3.51,4.13,5.96,5.25,16.75,1.01,22.63Z"/>
      <path class="cls-5" d="M840.48,408.72s2.87-.09,6.44,1.25"/>
      <path class="cls-5" d="M853.09,411.44s3.45-1.28,6.15,0"/>
      <polyline class="cls-5" points="846.92 420.75 850.71 419.39 850.58 413.58"/>
    </g>
    <g>
      <path class="cls-11" d="M242.08,400.54c-1.23,8.3-3.71,16.73-9.41,23.13-.36,.41-.78,.83-1.33,.94-.56,.11-1.13-.13-1.63-.36-3.71-1.69-7.42-3.39-11.12-5.08-3.22-1.46-6.51-2.97-9.02-5.37-2.26-2.15-3.73-4.89-4.53-7.83,6.55,1.02,13.21,1.27,19.82,.74,.47-.04,.96-.08,1.35-.36,.41-.31,.61-.8,.8-1.28,.67-1.77,1.34-3.55,2.02-5.32,1.26,2.4,5.22,2.64,6.76,.41-.81-3.26-1.45-7.17,.92-9.54,1.3-1.32,3.3-1.88,4.98-2.69,1.34,4.02,1.01,8.42,.39,12.62Z"/>
      <path class="cls-1" d="M236.71,390.6c-2.36,2.37-1.73,6.29-.92,9.54-1.54,2.23-5.5,1.99-6.76-.41-.68,1.77-1.35,3.55-2.02,5.32-.19,.48-.39,.98-.8,1.28-.39,.28-.88,.33-1.35,.36-6.61,.53-13.27,.28-19.82-.74-.71-2.54-.91-5.24-.69-7.86,.75-9.39,3.75-20.76,15.09-22.13,8.73-1.06,18.49,2.97,21.79,10.7,.18,.41,.33,.82,.46,1.25-1.68,.81-3.68,1.38-4.98,2.69Z"/>
      <path class="cls-11" d="M226.72,399.19c0-.34-.47-.52-.78-.37s-.48,.48-.62,.8c-.9,2.02-1.4,4.22-1.48,6.42-.05,1.59,.4,3.55,1.94,3.95,1.41,.37,2.73-.88,3.43-2.16,1.04-1.91,1.45-4.15,1.14-6.3-.17-1.17-.67-2.46-1.78-2.88-1.48-.57-3.09,.85-3.46,2.39"/>
      <path class="cls-2" d="M196.84,424.42l3.06-9.1s15.24-7.71,28.99,1.9l6.3,13.2-38.35-6Z"/>
      <path class="cls-2" d="M176.37,423.52c-1.58,.37-7.29,10.5-7.29,10.5l-3.3,35.71,63.4,73.59,22.51-13.09,2.4-38.29-3.6-59.12-7.86-6s-20.64-14.1-66.26-3.3Z"/>
      <path class="cls-6" d="M235.18,527.76l-2.36-33.41s-1.83-41.42-.33-42.91l3.86-4.68"/>
      <path class="cls-6" d="M236.68,492.84s7.33,3.05,12.3,0"/>
      <polyline class="cls-6" points="173.06 441.53 174.56 445.73 173.06 466.74"/>
    </g>
    <g>
      <path class="cls-2" d="M137.16,707.4c.66-.22,1.36-.42,2.05-.31,.84,.13,1.54,.69,2.16,1.27,3.75,3.6,5.43,8.79,6.97,13.76,.09,.28,.17,.57,.12,.86-.05,.27-.22,.5-.39,.72-2.73,3.53-6.32,6.4-10.37,8.28-.82,.38-1.67,.73-2.56,.9-.62,.12-1.26,.16-1.86,.33-2.1,.61-3.37,2.68-4.48,4.56-1.9,3.2-3.97,6.39-6.86,8.74-2.89,2.35-6.73,3.78-10.37,2.99-1.46-3.18-.17-6.89,1.15-10.13,3.86-9.42,8.14-20.91,16.32-27.51,2.42-1.95,5.18-3.48,8.13-4.46Z"/>
      <path class="cls-2" d="M117.25,567.26s-20.32,72.7-19.86,74.62,24.46,70.4,24.46,70.4c.28,3.92,23.19-1.02,23.21-3.72l-18.36-69.86,24.76-41.72,29.61-2.8,1.68-40.81-65.5,13.89Z"/>
      <path class="cls-11" d="M86.8,562.07c-.86,2.3-.64,4.85-.4,7.3,.11,1.13,.22,2.28,.66,3.32,.66,1.57,1.98,2.75,3.27,3.86,2.77,2.39,6.09,4.92,9.67,4.25,3.24-.61,5.53-3.84,5.94-7.15s-.7-6.62-2.16-9.6c-1.18-2.41-2.68-4.78-4.96-6.17-3.92-2.4-10.39-.22-12.03,4.17Z"/>
      <path class="cls-2" d="M193.96,572.28s-67.11,15.36-82.41,0l4.08-54.62-4.38,16.6-7.5,27.61c-11.11,11.1-18.61,1.8-18.61,1.8l5.1-33.44,10.68-49.77c1.39-6.47,6.06-11.74,12.33-13.86,5.46-1.84,12.57-3.85,19.96-4.86,9.44-1.32,20.36-2.28,31.09-1.97,12.31,.33,16.66,3.56,25.98,8.54l3.69,103.98Z"/>
      <polyline class="cls-6" points="115.62 517.63 115.62 517.66 115.62 517.63 117.25 511.51 115.14 490.17"/>
      <path class="cls-6" d="M92.64,533.36s.6,4.9,14.1,3.8"/>
      <path class="cls-1" d="M165.97,445.35c-.02,.8-.09,1.69-.19,2.66-1.53,2-3.42,3.68-5.68,4.8-2.55,1.27-5.42,1.75-8.25,1.99-6.56,.53-13.42-.28-19.06-3.66-1.4-.83-2.7-1.85-3.88-2.99-1.14-5.55-1.6-11.22-1.35-16.89,.08-1.92,.26-3.87,.99-5.63,.87-2.08,2.47-3.77,4.23-5.18,6.09-4.87,14.75-6.58,22.03-3.77,1.89,.73,3.68,1.74,5.16,3.11,2.4,2.22,3.89,5.3,4.77,8.45,1.55,5.52,1.4,11.37,1.23,17.11Z"/>
      <path class="cls-11" d="M165.78,448.01c-.35,3.61-1.12,8.1-1.49,11.75-10.73-.31-21.65,.66-31.09,1.97-1.89-4.37-3.33-8.93-4.29-13.59,1.18,1.14,2.48,2.15,3.88,2.99,5.64,3.37,12.51,4.18,19.06,3.66,2.83-.24,5.7-.72,8.25-1.99,2.26-1.12,4.15-2.8,5.68-4.8Z"/>
      <path class="cls-5" d="M133.27,461.9c-.02-.06-.05-.11-.07-.16"/>
      <path class="cls-11" d="M126.89,444.48c-.59,2.59-.41,5.35,.52,7.83,.27,.73,.62,1.45,1.21,1.96s1.45,.76,2.16,.44c.62-.29,.99-.94,1.24-1.58,1.31-3.46-.2-7.76-3.39-9.64-.18-.1-.38-.2-.58-.15-.2,.06-.31,.26-.41,.44-.31,.57-.61,1.15-.92,1.72"/>
    </g>
    <g>
      <path class="cls-2" d="M831.86,782.41c-1.12,1.26-2.28,2.85-1.82,4.46,3.62,2.25,8.21,2.06,12.46,1.62,3.92-.41,7.83-.96,11.71-1.66,3.41-.61,7.19-1.61,8.91-4.62,.94-1.64,1.15-3.75,2.57-5,2.2-1.94,6.69-1.29,7.35-4.16,.2-.87-.1-1.77-.39-2.61-.54-1.55-1.08-3.09-1.62-4.64-.68-1.95-1.45-4.02-3.12-5.24-1.14-.84-2.57-1.17-3.98-1.31-7.05-.71-12.18,2.99-16.49,8.04-4.64,5.44-10.75,9.69-15.56,15.11Z"/>
      <path class="cls-2" d="M933.66,744.06c-.66,7.38,3.2,15.01,8.98,17.73,.68,.32,1.39,.58,2.12,.52,.66-.05,1.3-.36,1.88-.74,3.1-2.02,4.96-5.9,6.56-9.65,1.58-3.7,3.09-7.68,2.79-11.82-.46-6.27-4.94-11.14-6.15-17.27-.43-2.18-.47-4.6-1.62-6.37-4.47-6.95-10.18,2.59-10.83,7.63-.33,2.58-.22,5.16-.74,7.72-.83,4.16-2.61,7.96-3,12.26Z"/>
      <path class="cls-2" d="M953.92,558.37l-4.21,50.92s-2.17,3.26-6.58,4.94c-3.28,1.25-7.78,1.63-13.54-.83-.15-.06-.32-.13-.48-.2l-.02-5.41c-15.7,7.66-33.95,7.64-49.46,5.22-1.4-12.2,.27-101.55,.27-101.55,0,0,.96-1.16,2.47-3.09,5.28-6.74,17.17-22.87,17.55-31.68h0c.06-1.39-.16-2.57-.73-3.53,0,0,33.33,13.7,38.13,19.15l16.61,66.07Z"/>
      <polyline class="cls-6" points="919.71 522.57 928.91 561.96 929.09 607.78"/>
      <path class="cls-2" d="M879.9,511.45s-1.67,89.35-.27,101.55c-11.4-1.79-21.32-4.87-27.66-7.13-4.6-1.65-7.29-2.88-7.29-2.88l-11.1-29.42,13.71-79.53,27.79-17.27h0c-.04,.65-1.33,25.95,7.29,31.58-1.5,1.93-2.47,3.09-2.47,3.09Z"/>
      <path class="cls-5" d="M882.38,508.37s-.01,0-.01-.01"/>
      <line class="cls-5" x1="933.32" y1="689.21" x2="931.31" y2="697.02"/>
      <path class="cls-5" d="M924.43,619.25c-.56-2.81-.72-4.82-.72-4.82"/>
      <line class="cls-5" x1="901.3" y1="642.6" x2="895.14" y2="641.57"/>
      <line class="cls-5" x1="887.58" y1="640.3" x2="877.3" y2="638.59"/>
      <path class="cls-2" d="M934.72,730.42l-29.21-25.61s-10.31-62.32-10.37-63.24h0s-7.56-1.27-7.56-1.27l-14.09,124.43c-11.88,1.19-21.72,.33-28.5-3.6l6.98-155.27c6.34,2.27,16.26,5.35,27.66,7.13,15.52,2.42,33.76,2.44,49.46-5.22l.02,5.41c.16,.07,.33,.14,.48,.2l-5.16,5.87c1.15,5.84,4.02,15.14,10.79,17.23,.41,.13,.85,.24,1.29,.31l-3.2,52.42,3.2,.6,15.41,23.4s4.6,18.61-17.21,17.21Z"/>
      <path class="cls-11" d="M943.13,614.22c-1.56,6.09-4.5,16.36-7.91,22.26-6.77-2.09-9.64-11.39-10.79-17.23l5.16-5.87c5.76,2.47,10.26,2.08,13.54,.83Z"/>
      <line class="cls-11" x1="872.6" y1="470.51" x2="873.4" y2="472.33"/>
      <path class="cls-11" d="M900.76,460.11l-.26,3.23c-.21,.86-.4,1.67-.55,2.44-.62,3.01-.86,5.43-.76,7.37,.06,1.43,.31,2.6,.73,3.51h0c-.38,8.82-12.27,24.95-17.55,31.69-8.62-5.63-7.32-30.94-7.29-31.57h0c-.27-.91-1.48-3.76-1.68-4.45-1.77,.09-4.84-2.75-4.61-4.04,.01-.05,.02-.11,.04-.15,.02-.05,.05-.09,.07-.14,.04-.04,.07-.08,.11-.12,.01-.01,.01-.02,.02-.02,.53-.52,1.86-.82,3.57-1.52,0,0,8.31-1.45,16.16,2.4,.53,.25,1.06,.53,1.58,.83,2.24,1.32,5.12,.27,5.89-2.21l3.08-9.02c.68,.38,.73,1.48,1.46,1.76Z"/>
      <path class="cls-5" d="M875.08,476.78c1.83,6.14,4.82,16.14,4.82,16.14"/>
      <path class="cls-11" d="M905.12,452.47c-.05,.73-.2,1.45-.4,2.14-.47,1.61-1.29,3.1-2.23,4.5-.4,.6-1.06,1.26-1.73,1-.73-.28-.78-1.39-1.46-1.76l-3.08,9.02c-.76,2.48-3.64,3.53-5.89,2.21-.52-.31-1.05-.59-1.58-.83-7.85-3.84-16.16-2.4-16.16-2.4-1.72,.69-3.04,1-3.57,1.52-.01,0-.01,.01-.02,.02-.04,.04-.07,.08-.11,.12-.02,.05-.05,.09-.07,.14-.01,.05-.02,.11-.04,.15-3.9-14.36-.18-22.96-.18-22.96l-1.81-4.81s.31-7.59,5.79-12.45c0,0,.45,1.63,17.25-1.86,0,0,9.16-1.49,9.3,9.45,.15,10.63-1.54,16.74-1.63,17.1,.08-.04,1.12-.48,2.56-.73,.61-1.15,1.35-2.22,2.41-2.97,.59-.42,1.46-.71,1.99-.21,.22,.2,.32,.49,.4,.79,.26,.92,.33,1.87,.25,2.82Z"/>
      <path class="cls-5" d="M888.8,439.12s3.8,.4,5.1,1.6"/>
      <path class="cls-5" d="M869.19,440.73s2.2-1.21,5.2-1.6"/>
      <circle class="cls-14" cx="888.2" cy="444.83" r="1.6"/>
      <circle class="cls-14" cx="873.39" cy="444.83" r="1.6"/>
      <path class="cls-5" d="M875.8,450.03c.4,.1,4.5,2.75,4.5,2.75h-4.1l-.4-2.75Z"/>
      <path class="cls-5" d="M873.39,457.93c1-.85,5.7-1.8,9.3,0"/>
      <path class="cls-1" d="M907.71,451.13s-.05,1.28-.35,3.02c-.34,1.85-.99,4.2-2.2,6.06l-.2,.31-3.55,5.27h-1.46l.55-2.44,.26-3.23c.67,.26,1.33-.4,1.73-1,.94-1.4,1.76-2.89,2.23-4.5,.2-.69,.35-1.41,.4-2.14,.08-.95,.01-1.9-.25-2.82-.08-.29-.18-.59-.4-.79-.53-.49-1.4-.21-1.99,.21-1.06,.75-1.8,1.82-2.41,2.97-1.45,.25-2.48,.69-2.56,.73,.09-.36,1.79-6.48,1.63-17.1-.14-10.94-9.3-9.45-9.3-9.45-16.81,3.49-17.25,1.86-17.25,1.86,2.77-2.47,6.86-4.22,12.91-3.95,18.01,.8,22.2,12.6,22.2,27Z"/>
    </g>
    <g>
      <path class="cls-2" d="M841.46,490.09c-.11-.62-.35-1.12-.78-1.42-2.49-1.81-5.44,1.79-6.73,3.67-2.39,.73-4.44,1.35-4.57,1.43-.29,.2,1.1-10.5,1.1-10.5l6.59-13.41c.16-.02-17.08,5.67-26.7,3.1-2.95-.79-4.34-2.32-4.83-4.03,2.13-3.94,9-12.64,27.23-9.27,.06,0,18.38,4.9,8.69,30.43Z"/>
      <path class="cls-2" d="M847.1,838.48l.24,3.59s17.74,7.44,31.33-14.31l9.22-6.74c3.9-2.85,5.17-8.1,3-12.42l-3.76-7.47s-15.93-.06-20.11,8.8-19.92,28.54-19.92,28.54Z"/>
      <path class="cls-2" d="M791.68,824.29c0,.6,1.38,3.81,1.38,3.81,0,0,12.77,6.46,21.06-11.7,8.29-18.17,16.69-17.73,14.93-24.94-1.77-7.21-7.73-14.48-17.17-7.3s-20.2,40.13-20.2,40.13Z"/>
      <path class="cls-2" d="M890.03,802.96c-10.26,9.94-24.84,5.48-24.84,5.48l-13.6-65.03h0c-2.19-.89-3.49-1.87-3.49-1.87-.62-.01-14.22-42.04-20.24-60.74l-21.94,54.98s7.88,9.69,8.26,10.7c.4,1,10.32,35.36,10.32,35.36-1.68,18.21-22.05,9.5-22.05,9.5l-32.75-55.37,25.66-91.7,.02-5.35c37.73,18.62,64.69-.72,73.12-8.23,3.77,19.16,.85,26.94,1.61,27.34,.8,.4,7.24,75.12,7.24,75.12l4.92,15.16,7.75,54.67Z"/>
      <path class="cls-2" d="M794.42,610.19c0-.12-6.64-9.65-12.72-18.35-6.24-8.93-8.25-20.16-5.5-30.7l9.6-36.71c.99-3.77,3.33-7.11,6.69-9.1,1.67-.99,6.62-1.7,8.67-1.52-2.46,2.1-6.75,96.37-6.75,96.37Z"/>
      <path class="cls-2" d="M798.16,513.84c.2-.09,.33-.27,.49-.4,11.14-8.49,41.88-26.31,73.64,5.12l-1,109.42s-.95,1.07-2.79,2.69c-8.43,7.51-35.39,26.85-73.12,8.23-1.09-.54-2.2-1.1-3.31-1.72v-93.43"/>
      <path class="cls-11" d="M841.52,505.05c-4.54,14.73-11.3,22.4-16.04,26.32-1.43-1.87-2.6-5.81-2.6-9.98l-4.9-2.82c5.44-4.11,13.93-10.6,14.4-11.41,.71-1.21,.91-5.21,.91-5.21,1.28,1.47,3.04,.58,4.62-1.26l3.62,4.36Z"/>
      <path class="cls-11" d="M837.9,500.69c-1.58,1.83-3.34,2.73-4.62,1.26,0,0-.2,4-.91,5.21-.47,.81-8.96,7.3-14.4,11.41-2.6,1.96-4.5,3.39-4.5,3.39,0,0-3.61,3.61-7.9,0-4.3-3.6-5.51-25.92-5.51-25.92l2.88-5.69-1.77-4.1c-.09-6.01,3.55-14.3,3.55-14.3,0,0,.22-.73,.82-1.83,.49,1.72,1.88,3.24,4.83,4.03,9.63,2.56,26.87-3.13,26.7-3.1l-6.59,13.41s-1.4,10.7-1.1,10.5c.13-.08,2.19-.71,4.57-1.43,1.29-1.88,4.24-5.48,6.73-3.67,.42,.31,.67,.8,.78,1.42,.43,2.44-1.38,6.85-3.56,9.43Z"/>
      <path class="cls-5" d="M833.95,493.51c-.42,.61-.67,1.03-.67,1.03"/>
      <path class="cls-1" d="M841.46,491.26c-.11-.62-.35-1.12-.78-1.42-2.49-1.81-5.44,1.79-6.73,3.67-2.39,.73-4.44,1.35-4.57,1.43-.29,.2,1.1-10.5,1.1-10.5l6.59-13.41c.16-.02-17.08,5.67-26.7,3.1-2.95-.79-4.34-2.32-4.83-4.03,2.13-3.94,9-12.64,27.23-9.27,.06,0,18.38,4.9,8.69,30.43Z"/>
      <path class="cls-5" d="M801.17,486.24s4.3,1.3,6.1,4"/>
      <path class="cls-5" d="M814.87,491.94s6.38-1.2,10.04,.9"/>
      <path class="cls-5" d="M807.87,491.6c-.4,.52-5.5,11.45-5.5,11.45l4.9,2"/>
      <circle class="cls-14" cx="817.97" cy="496.35" r="1.92"/>
      <circle class="cls-14" cx="803.62" cy="490.92" r="1.92"/>
      <path class="cls-5" d="M805.54,509.45s4.73,.7,6.43,3.3"/>
      <line class="cls-11" x1="824.91" y1="522.56" x2="822.88" y2="521.39"/>
      <path class="cls-2" d="M863.09,520.57s6.8-8.99,13.8,0l20.21,63.61s-25.73,35.02-25.72,34.42l.35-38.01-8.64-33.21"/>
      <path class="cls-6" d="M880.09,582.57c-.6-.8-3.93,1.01-8.37-2"/>
      <path class="cls-6" d="M816.79,646.84c.28-1.05,2.73-111.07,3.1-111.67,.15-.25,2.68-2.38,5.58-5.46"/>
      <line class="cls-6" x1="837.9" y1="500.69" x2="837.9" y2="500.68"/>
      <line class="cls-6" x1="817.67" y1="667.78" x2="825.03" y2="672"/>
      <path class="cls-6" d="M851.59,743.41c2.57,1.03,6.37,1.95,10.71,1"/>
      <path class="cls-6" d="M827.86,680.79c-1.72-5.35-2.82-8.79-2.82-8.79"/>
    </g>
    <g>
      <path class="cls-7" d="M761.8,502.69l-6.04,6.88c1.89-24.91-5.9-23.2-5.9-23.2-14.3,7.4-23.01,0-23.01,0-10.2,.09-5.2,23.2-5.2,23.2l-5.49-7.17c-.71-8.62-1.86-30.37,22.04-30.4,21.36-.02,24.81,10.14,23.6,30.69Z"/>
      <path class="cls-11" d="M752.21,667.33c-8.26,.27-16.4-.34-23.46-1.25v-118.33c0,8.55,22.51,8.55,22.51,0l.95,119.57Z"/>
      <path class="cls-12" d="M800.17,824.45c-.3,1.2-6.3,36.01-6.3,36.01,0,0,.9,5.7,10.5,1.5,9.6-4.2,27.91-36.91,23.11-44.71l-12.6-11.1-14.7,18.31Z"/>
      <path class="cls-12" d="M663.02,866.47v4.8s15,7.2,31.21-2.4c0,0,21.91-2.7,24.91-10.8l-5.1-23.24-21.66,6.94-5.35,5.8-24.01,18.91Z"/>
      <path class="cls-7" d="M796.87,819.95l-56.72-41.12v-65.42c-1.89-.66-3.63-1.35-5.22-2.03l-12.19,58.45-5.39,70.82c-16.51,10.21-26.72-.29-26.72-.29v-74.43l10.92-71.44,5-32.7s9.31,2.63,22.2,4.29c7.06,.91,15.2,1.52,23.46,1.25,9.7-.31,19.59-1.83,28.15-5.54l3.14,15.91-1.59,16.49-6.95,72.33s41.41,36.01,42.01,37.52c7.92,19.78-20.1,15.9-20.1,15.9Z"/>
      <path class="cls-7" d="M813.72,615.21c-.35,4.16-2.96,7.79-5.83,10.83-2.37,2.5-4.98,4.76-7.8,6.75-1.05,.74-2.15,1.45-3.4,1.77l1.99,48.25c-4.36,5.38-10.44,8.98-16.76,11.39-14.13,5.38-29.44,4.81-29.44,4.81-4.55-31.22-7.06-98.37-1.21-151.25v-14.4c11.45,4.33,22.37,10.04,32.45,16.95,3.27,2.23,6.49,4.64,8.96,7.73,2.59,3.23,4.24,7.08,5.82,10.9,5.12,12.38,9.71,24.98,13.75,37.75,.87,2.77,1.73,5.63,1.48,8.52Z"/>
      <path class="cls-5" d="M787.13,597.32c6.51,.71,12.53,3.69,18.38,6.62"/>
      <path class="cls-4" d="M774.62,626.07c-.3,.99,1.09,2.55,1.72,2.79,4.55,1.73,9.13,3.36,13.76,4.88,2.13,.71,4.41,1.39,6.58,.82"/>
      <path class="cls-5" d="M751.25,533.36c-.09-.04-.18-.07-.27-.11"/>
      <path class="cls-6" d="M774.3,626.07c-.14-8,1.15-16.02,3.77-23.58,.41-1.19,.88-2.39,1.73-3.31,1.76-1.93,4.73-2.15,7.32-1.86l11.54,10.16c6.18,13.65-16.6,23.51-24.37,18.59Z"/>
      <line class="cls-5" x1="785.66" y1="591.53" x2="785.66" y2="586.97"/>
      <path class="cls-11" d="M805.64,595.77c-2.71,2.72-4.3,2.28-4.21,4.87l-2.55,4.72c-.42,1.13-4.1,6.03-4.1,6.03l1.92,.53s.16-1.03,0,.38c-.69,5.95-6.35,7.19-6.35,7.19-6.93-.62-12.62-3.74-14.26-4.73-.32-.19-.48-.29-.48-.29-2.82-5.5-5.27-15.93-5.27-15.93-.69-2.03,3.49-8.13,3.49-8.13,2.6-3.06,6.64-2.82,6.64-2.82l1.62-17.01h3.27l.31,16.41v4.55l1.82-4.31,4.13-.53,3.08,3.77,1.31,6.45,2.1-1.22c1.93-1.12,4.39-2.27,6.45-1.42l1.09,1.49Z"/>
      <line class="cls-5" x1="779.76" y1="593.23" x2="780.46" y2="587.57"/>
      <line class="cls-5" x1="773.85" y1="595.03" x2="776.25" y2="588.52"/>
      <polyline class="cls-5" points="792.97 594.28 793.45 599.21 796 596.91"/>
      <path class="cls-7" d="M728.75,534.16v163.68s-15.05-.87-27.2-3.35c-5.55-1.13-10.48-2.61-13.12-4.49,0,0,0-14.19,.32-32.88l-12.94-40.94s5.22-49.23,12.62-59.63c0,0,24.81-15.6,40.32-22.4Z"/>
      <path class="cls-4" d="M688.75,657.13c.43-25.42,4.3-58.79,6.72-76.55"/>
      <path class="cls-10" d="M761.8,503.87l-6.04,6.88c1.89-24.91-5.9-23.2-5.9-23.2-14.3,7.4-23.01,0-23.01,0-10.2,.09-5.2,23.2-5.2,23.2l-5.49-7.17c-.71-8.62-1.86-30.37,22.04-30.4,21.36-.02,24.81,10.14,23.6,30.69Z"/>
      <path class="cls-3" d="M751.25,529.15v18.61c0,8.55-22.51,8.55-22.51,0v-18.61h22.51Z"/>
      <path class="cls-3" d="M765.42,513.53c-1.73,1.89-4.1,3.06-6.54,3.86-2.97,8.52-8.87,18.74-19.93,17.96-10.95-.76-16.75-10.28-19.65-18.07h0c-2.33-.8-4.57-1.94-6.23-3.75-1.73-1.89-2.7-4.62-2.02-7.09,.41-1.5,1.56-2.93,3.1-3.17,.68-.11,1.38,.02,2.01,.31l5.49,7.17s-5.01-23.11,5.2-23.2c0,0,8.71,7.4,23.01,0,0,0,7.79-1.7,5.9,23.2l6.04-6.88c.76-.48,1.65-.74,2.53-.6,1.55,.25,2.7,1.67,3.11,3.17,.68,2.47-.29,5.2-2.02,7.09Z"/>
      <path class="cls-5" d="M725.74,501.1s5.7-.6,7.05,1.95"/>
      <path class="cls-5" d="M752.46,501.1s-5.7-.6-7.05,1.95"/>
      <polyline class="cls-5" points="741.05 515.8 738.2 515.8 738.2 505.52"/>
      <line class="cls-5" x1="734.45" y1="523.3" x2="745.18" y2="523.3"/>
      <circle class="cls-14" cx="729.27" cy="506.95" r="1.84"/>
      <circle class="cls-14" cx="748.93" cy="506.95" r="1.84"/>
      <path class="cls-11" d="M790.57,613.51s2.13-.37,4.19-2.13"/>
      <path class="cls-7" d="M687.47,616.19c.34-.72,32,3.29,32,3.29,6.81,1.09,7.83,27.28-4.26,28.5l-28.63,1.36s-18.01-3.83-10.78-33.15"/>
      <path class="cls-8" d="M743.6,628.23h-2.75c0-.1,0-.19-.02-.28l2.77,.28Z"/>
      <path class="cls-8" d="M743.6,628.23h-2.75c0-.1,0-.19-.02-.28l2.77,.28Z"/>
      <path class="cls-8" d="M741.42,634.23c-.02,.32-.05,.66-.08,.99l16.03,1.63v3.59s-10.29-.25-16.75-.38c-.08,.4-.17,.82-.27,1.23-.03,.13-.06,.26-.1,.38l13.52,.61v3.59s-10.46,.22-16.4,.09c-1.61,1.28-18.63-1.85-22.67-3.65-5.05-2.21-2.51-18.29,3.46-18.75l14.41-1.64c.89-.1,2.56-.06,2.56-.06,0,0,15.51,3.02,22.18,3.96l.28,3.7h-13.31l-2.77-.28c.01,.09,.02,.18,.02,.28h2.75l14.85,1.52v3.59s-11.38-.28-17.71-.4Z"/>
      <path class="cls-4" d="M716.2,647.81c-8.97-1.27-9.69-28.13,3.1-27.24"/>
    </g>
    <g>
      <path class="cls-7" d="M614.49,511.19c-2.37,5.94-2.29,11.77-2.3,11.78-4.51,1.42-5.58-8.76-5.58-8.76l-6.85-.13-.45-8.73c3.95-7.49,0-10.13,0-10.13-6.58-4.05-12.65,.51-12.65,.51-11.16,5.15-15.96,2.48-18.01-.83,1.84-7.6,5.72-16.59,27.05-16.59,13.5,0,21.07,13.26,20.95,22.66-.05,3.51-.86,6.95-2.17,10.21Z"/>
      <path class="cls-3" d="M595.78,563.25c-1.21-.14-2.17-.52-2.93-1.06-4.73-3.42-1.41-13.48-1.41-13.48l-3.76-5.23-.11-.14c-3.96,1.45-6.69,1.9-8.2,1.6-1.05-.2-4.9,.33-6.49-2.34-2.7-4.56-6.51-14.65-6.78-22.39-.08-2.42,1.22-6.68,1.22-6.68-1-3.11-1.12-4.14-1.13-4.14l1.63-7.22s-.02-2.6,.83-6.09c2.05,3.3,6.84,5.98,18.01,.82,0,0,6.06-4.55,12.65-.51,0,0,3.95,2.64,0,10.13l.45,8.72s9.67-.32,9.69-.32c-.35,6.81,2.8,14.49,5.37,18.82,.38,.62,.74,1.18,1.08,1.65,.14,.21,.29,.41,.42,.59,4.68,15.46-11.79,28.26-20.55,27.26Z"/>
      <path class="cls-11" d="M597.89,566.29c-2.89-.33-4.37-2-5.04-4.1,.75,.54,1.72,.92,2.93,1.06,8.76,1,25.22-11.8,20.55-27.26,.06,.07,.12,.14,.18,.21,.66,.81,1.36,1.54,2.13,2.23,5,15.77-11.81,28.88-20.73,27.86Z"/>
      <path class="cls-10" d="M614.49,512.36c-2.37,5.94-2.29,11.77-2.3,11.78-4.51,1.42-5.58-8.76-5.58-8.76l-6.85-.13-.45-8.73c3.95-7.49,0-10.13,0-10.13-6.58-4.05-12.65,.51-12.65,.51-11.16,5.15-15.96,2.48-18.01-.83,1.84-7.6,5.72-16.59,27.05-16.59,13.5,0,21.07,13.26,20.95,22.66-.05,3.51-.86,6.95-2.17,10.21Z"/>
      <path class="cls-5" d="M566.2,509.38c1.42,.05,6.52,1.6,6.48,2.11l-3.14,12.51,6.28,1.77"/>
      <path class="cls-5" d="M578.55,510.99s6.58-1.32,11.34,0"/>
      <path class="cls-9" d="M587.58,543.34h0c10.39-3.78,14.37-11.28,14.37-11.28l.91-5.47"/>
      <circle class="cls-14" cx="583.57" cy="516.39" r="1.88"/>
      <circle class="cls-14" cx="569.37" cy="514.51" r="1.56"/>
      <path class="cls-5" d="M572.07,531.65c3.5,.78,7.15,.94,10.89,.71"/>
      <path class="cls-5" d="M574.82,535.33s2.51,.39,5.05,.38"/>
      <path class="cls-2" d="M684.31,749.2c-9.46,8.46-21.71,7.51-30.71,5-6.11-1.7-10.73-4.14-11.97-4.82,.14-3.82,2.67-23.39,2.67-23.39l4-26.4,3.81,1.4c6.71-18.87,10.48-53.68,11.73-66.93,.06-.54,30.6,31.92,25.2,60.78h0c3.68,11.46,6.56,23.33,8.49,35.73,0,0,3.8,3.42-13.21,18.63Z"/>
      <polyline class="cls-9" points="591.44 548.71 596.15 555.83 595.25 559.28"/>
      <path class="cls-5" d="M587.68,695.38c-.11-.01-.21-.04-.32-.06"/>
      <path class="cls-2" d="M630.29,692.99l1.72,.63c-1.01,8.19-2.28,13.52-3.48,16.97-2.21,6.32-4.23,6.41-4.23,6.41l.6,13.4s-11.6,.4-12.4,0c-.53-.26-7.75-4.73-13.06-8.57-2.8-2.01-5.07-3.87-5.55-4.83-1.41-2.81-2.21-16.01-2.21-16.01l-3-3c-.52-.87-.95-1.76-1.32-2.67-7.64-19.03,17.53-44.56,17.53-44.56l7.8-17.6,26.5-13.93,3.3,13.93-12.21,59.82Z"/>
      <path class="cls-6" d="M595.68,702.79c.8,1,14.1,11.2,14.1,11.2l11.5,2.6"/>
      <path class="cls-6" d="M619.49,689.78c0-.6-5.8-26.21-1.2-33.21s21.5-10.14,21.5-10.14"/>
      <line class="cls-6" x1="641.64" y1="629.58" x2="604.88" y2="650.77"/>
      <path class="cls-3" d="M664.3,628.76s-.15,1.96-.47,5.3c-1.25,13.25-5.02,48.06-11.73,66.93l-3.81-1.4-16.29-5.97-1.72-.63,12.21-59.82-3.3-13.93-26.5,13.93-7.8,17.6s-25.17,25.53-17.53,44.56c-10.16-1.69-13.49-8.74-13.49-8.74h-13.6l7.05-58.71-5.55-41.42c-6.91-10.5,0-24.91,0-24.91l25.91-18.07,3.76,5.23s-3.31,10.06,1.41,13.48c.75,.54,1.72,.92,2.93,1.06,8.76,1,25.22-11.8,20.55-27.26-.01-.08-.05-.18-.07-.26-.12-.11-.24-.22-.35-.33-.34-.47-.71-1.02-1.08-1.65,8.42,2.9,25.26,9.71,33.67,19.89,11.51,13.9,15.81,75.12,15.81,75.12Z"/>
      <path class="cls-11" d="M648.29,699.59l-4,26.4-15.77-15.4c1.2-3.46,2.47-8.78,3.48-16.97l16.29,5.97Z"/>
      <line class="cls-5" x1="628.52" y1="710.59" x2="628.51" y2="710.59"/>
      <path class="cls-5" d="M641.64,750c-.02-.07-.04-.28-.01-.62"/>
      <path class="cls-6" d="M689.03,694.84c-2.75-8.58-5.96-16.91-9.52-25.06"/>
      <path class="cls-5" d="M641.63,749.38c-.21-.11-.33-.18-.33-.18"/>
      <path class="cls-6" d="M661.92,651.55c1.18,.02,20.18,45.64,20.18,45.64l4.48,40.86"/>
      <path class="cls-7" d="M693.71,850.24c-.14,1.41-.56,2.66-1.2,3.77-4.03,7.1-16.75,8.74-21.32,9.72-.85,.19-1.42,.34-1.6,.51-1.33,1.2-43.9-60.81-43.9-60.81l-21.96-68.23-4.3-13.36c5.31,3.84,12.53,8.31,13.06,8.57,.8,.4,12.4,0,12.4,0l-.6-13.4s2.02-.08,4.23-6.41l15.77,15.4s-2.53,19.57-2.67,23.39c1.23,.68,5.85,3.11,11.97,4.82l8.33,36.81,31.78,59.23Z"/>
      <path class="cls-12" d="M590.78,892.35s-9.65,4.03-21.13,4.01c-2.87,0-5.71,.52-8.35,1.63-6.43,2.72-19.78,7.31-33.44,5.65l-.81-5.48,37.82-23.13s.06,0,.12-.01c1.45-.09,12.34-1.67,18.5-2.57,.76-.11,1.47-.21,2.07-.29,6.19,7.41,5.22,20.19,5.22,20.19Z"/>
      <path class="cls-12" d="M689.69,881.45c-2.53,1.1-4.55,3.06-5.95,5.44-8.64,14.67-30.6,18.27-30.6,18.27l-2.1-3.46,20.15-37.97c4.57-.98,17.29-2.62,21.32-9.72l10.31,14.83c1.79,5.17-7.48,10.12-13.13,12.6Z"/>
      <path class="cls-7" d="M585.91,805.82l1.76,66.02s-.81,.12-2.12,.32c-.6,.08-1.3,.19-2.07,.29l-18.5,2.57c-.06,.01-.09,.01-.12,.01-1.21,0-20.42-90.02-20.42-90.02l17.61-72.15v-7.89l1.14-1.77,10.66-16.63s3.34,7.05,13.49,8.74c.36,.91,.8,1.8,1.32,2.67l3,3s.8,13.2,2.21,16.01c.48,.96,2.75,2.82,5.55,4.83l4.3,13.36-22.46,52.62,4.64,18.01Z"/>
      <path class="cls-11" d="M573.87,686.58l-10.66,16.63c-.07,0-.68-16.63-.68-16.63h11.34Z"/>
      <path class="cls-6" d="M648.3,744s36.01,11.4,45.42-18.01"/>
      <line class="cls-6" x1="683.06" y1="750.25" x2="680.1" y2="742.68"/>
      <path class="cls-11" d="M601.67,515.45c.26-1.62,1.44-3.1,3.01-3.55s3.46,.3,4.15,1.79c.3,.64,.37,1.36,.37,2.07,.01,2.04-.53,4.11-1.68,5.79s-2.94,2.96-4.94,3.34"/>
      <path class="cls-5" d="M634.89,576.35c-3.4,5.4-2.8,13-2.8,13l7.1,29.89"/>
      <line class="cls-5" x1="651.3" y1="634.97" x2="642.5" y2="633.17"/>
      <path class="cls-5" d="M568.47,577.95s.95,11.64,6.41,19.61l-1.01,89.02"/>
      <line class="cls-5" x1="590.31" y1="598.15" x2="601.68" y2="629.58"/>
      <line class="cls-5" x1="604.88" y1="598.15" x2="613.29" y2="613.87"/>
    </g>
    <g>
      <path class="cls-7" d="M470.09,536.38l-11.81,5.76s.27-7.8-2.33-13.46c1.08-3.7,.86-7.57-2.32-8.58-3.97-1.25-5.82,.63-6.63,2.2-.59-.11-1.08-.16-1.54-.19,0,0-3.3,2.55-3.48,2.89,.27-.73-3.77-9.09-3.77-9.09-.2-5.78,6.68-11.34-3.62-14.5-5.28-1.62-8.03,5.52-13.55,4.56h-.01s.01-.05,.02-.07v-.02c.29-1,.93-2.5,1.95-4.25,2.83-4.78,8.67-11.31,18.92-13.92,26.67-6.78,30.04,14.96,31.02,21.07,1.94,12.15-3.67,18.43-2.86,27.59Z"/>
      <path class="cls-3" d="M404.7,711.98c-.08,.14-.12,.21-.12,.21-2.24,3.75-6.86,5.3-10.8,3.27-4.84-2.49-5.89-7.41-8.72-8.8-4-1.95-2.71-5.96-1.42-7.01l11.64-15.45s.8-1.45,1.83-3.3l10.33,12.39h0c.17,3.42,.02,6.49-.33,9.22,0,0,1.49-1.01,2.26-.36,.7,.6-3.87,8.46-4.68,9.83Z"/>
      <path class="cls-12" d="M383.62,893.07c-.56,.76-1.49,5.34-1.49,5.34,0,0,9.47,5.96,28.97,6.76,19.5,.8,28.41,5.2,30.46-6.05l-4.26-14.98-.94-11.18-23.59,1.79,.09,10.63-29.24,7.69Z"/>
      <path class="cls-12" d="M493.44,889.34l.88,3.27s10.75,1.35,30.41-8.44c19.65-9.79,23.15-7.35,22.7-14.51-.45-7.17-13.19-23.7-13.19-23.7l-18.52,8.22,2.81,10.39-11.88,11.52-13.21,13.25Z"/>
      <path class="cls-7" d="M540.55,848.13c.74,9.54-23.76,14.48-23.76,14.48l-28.09-57.35-9.24-9.51-17.45-52.47-26.76,56.51,5.91,31.01v51.7s-13.33,7.43-31.16,2.11l-10.78-88.8,25.36-83.41c26.16,10.08,60.91,.77,76.06-4.26,.37,8.6-4.1,21.27-4.1,21.27l13.01,47.53,8.17,9.8,22.84,61.39Z"/>
      <path class="cls-11" d="M415.05,678.79l-7.59,14.5-10.33-12.39c1.73-3.11,4.16-7.36,4.66-7.9l13.27,5.79Z"/>
      <path class="cls-2" d="M481.4,566.16s33.05,30.42,40.54,48.31c0,0,6.46,9.96,1.03,20.19-5.42,10.23-27.63,40.94-27.63,40.94l-13.94-109.45Z"/>
      <path class="cls-3" d="M455.95,529.86c-1.05,3.66-3.35,7.13-5.29,7.53h-2.42c2.97,7.15,0,11.72,0,11.72l-2.99,1.92-13.38,9.54-4.43-3.5,1.67-4.37h-2.33l-1.02-2,2.05-2.68h-3.71l-.36-6.66-5.2-2.17,4.08-11.8-1.67-2.81s-1.13-9.69,.09-17.42c0-.02,0-.05,.01-.07v-.02c.29-1,.93-2.5,1.95-4.25,11.04-6.79,12.19-6.56,17.51-6.65,8.86-.18,2.03,28.5,1.47,30.03,.18-.34,3.48-2.89,3.48-2.89,.46,.02,.95,.08,1.54,.19,.81-1.56,2.66-3.44,6.63-2.2,3.17,1.01,3.4,4.88,2.32,8.58Z"/>
      <path class="cls-10" d="M470.09,537.56l-11.81,5.76s.27-7.8-2.33-13.46c1.08-3.7,.86-7.57-2.32-8.58-3.97-1.25-5.82,.63-6.63,2.2-.59-.11-1.08-.16-1.54-.19,0,0-3.3,2.55-3.48,2.89,.27-.73-3.77-9.09-3.77-9.09-.2-5.78,6.68-11.34-3.62-14.5-5.28-1.62-8.03,5.52-13.55,4.56h-.01s.01-.05,.02-.07v-.02c.29-1,.93-2.5,1.95-4.25,2.83-4.78,8.67-11.31,18.92-13.92,26.67-6.78,30.04,14.96,31.02,21.07,1.94,12.15-3.67,18.43-2.86,27.59Z"/>
      <line class="cls-9" x1="430.51" y1="548.02" x2="427.81" y2="548.02"/>
      <path class="cls-3" d="M471.81,549.16l-24.96,15.73-2.91-7.29-7.23-.46,11.54-8.01s2.97-4.58,0-11.73h2.41c1.94-.4,4.24-3.88,5.29-7.53,2.6,5.65,2.32,13.47,2.32,13.47l10.4-4.94c.27,3.11,1.16,6.58,3.13,10.77Z"/>
      <line class="cls-5" x1="427.82" y1="548.01" x2="427.81" y2="548.02"/>
      <path class="cls-5" d="M446.39,525.24s.13-.82,.61-1.75"/>
      <path class="cls-5" d="M424.66,524.75s2.04-2.87,8.91-2.07"/>
      <path class="cls-5" d="M427.08,529.24s1.86,.41,5.76-1.48"/>
      <path class="cls-7" d="M508.24,705.39s-2.83,1.17-7.6,2.76c-15.16,5.03-49.9,14.34-76.06,4.26-3.22-1.24-6.3-2.77-9.2-4.64l12.08-55.07s2.32-45.14,2.5-45.75c.19-.6,9.52-32.15,9.52-32.15l.6-10.38s35.47-25.84,36.58-26.03l.74,9.62s8.41,9.15,15.82,23.24c4.34,8.25,6.82,17.44,7.48,26.85,1.59,22.35,5.03,70.44,5.88,78.47,1.11,10.54,1.65,28.81,1.65,28.81Z"/>
      <path class="cls-4" d="M462,743.29l4.31-8.33s11.24-2.18,17.17-14.72"/>
      <path class="cls-7" d="M472.74,602.15c-1.35,9.57-24.33,48.73-25.08,49.59-5.5,6.28-18,21.29-27.06,32.22-5.97,7.18-10.43,12.6-10.43,12.6l-2.72-3.26h0s-10.33-12.4-10.33-12.4l-3.19-3.82,28.21-37.18,23.41-54.77"/>
      <path class="cls-6" d="M474.25,679.32s16.83-16.83,19.19-37.44"/>
      <path class="cls-6" d="M495.94,671.96s3.62-9.34,3.96-14.71"/>
      <line class="cls-6" x1="462.66" y1="556.87" x2="439.47" y2="574.8"/>
      <line class="cls-11" x1="403.12" y1="708.55" x2="407.13" y2="702.51"/>
    </g>
    <g>
      <path class="cls-7" d="M326.78,512.24c-.45,2.97-1.47,5.91-2.13,8.83-.55,.24-.89,.4-.92,.45-.12,.27-.41,.41-.67,.52-4.3,1.87-8.91,3.15-13.58,3.09-4.67-.06-9.4-1.55-12.93-4.69-.09-.08-.31-.14-.58-.17-.21-2.07-.69-4.1-1.41-6.03-.26-.68-.55-1.37-1.06-1.88-3.54-3.61-3,3.71-2.59,6.8-5.02-3.77-5.97-15.79-5.97-15.79,0,0-.24-1-3.37-4.75,1.74-7.24,6.31-13.82,13.02-16.45,1.83-.72,3.76-1.14,5.7-1.43,6.43-.98,13.62-.43,18.41,4.08,2.96,2.78,4.61,6.72,5.89,10.62,1.77,5.4,3.02,11.15,2.17,16.79Z"/>
      <path class="cls-12" d="M292.01,846.78c3.01,1.88,6.1,3.79,9.55,4.54,1.6,.35,3.25,.43,4.81,.93,3.49,1.11,6.07,4.07,9.2,5.99,2.12,1.3,4.58,2.14,7.05,1.98s4.93-1.43,6.24-3.59c1.38-2.27,1.33-5.13,1.22-7.8-.07-1.77-.16-3.55-.51-5.29-.29-1.42-.77-2.83-1.64-3.98-1.52-2-4.06-2.95-6.52-3.07s-4.9,.46-7.31,1.03c-5.49,1.29-11,2.48-16.53,3.57-1.32,.26-2.65,.51-3.97,.76-1.01,.19-3.42,.14-4.21,.79-1.73,1.41,1.5,3.46,2.61,4.15Z"/>
      <path class="cls-12" d="M309.01,868.95c-2.04,.02-4.08,0-6.11-.19-2.09-.21-4.23-.61-6.28-.13s-4.03,2.16-4.07,4.33c-.03,2.12,1.7,3.77,3.36,5.03,7.31,5.52,15.98,9.15,24.97,10.44,1.23,.18,2.48,.31,3.72,.22,1.57-.12,3.11-.61,4.69-.67,4.23-.17,8.09,2.71,12.32,2.91,2.54,.12,5.12-.77,7.06-2.45,2.23-1.93,3.57-4.79,4.05-7.74s.15-5.99-.56-8.89c-.5-2.05-1.22-4.13-2.64-5.66-3.61-3.91-10.33-3.23-14.56-.85-1.77,1-3.13,1.95-5.19,2.3-3.19,.54-6.48,.71-9.7,.93-3.69,.26-7.39,.4-11.08,.44Z"/>
      <path class="cls-7" d="M355.66,691.93l-22.99,47.77,2.91,36.36,8.77,29.38,9.07,64.16c-7.8,8.94-24.51,2.44-24.51,2.44l-6.72-23.68-16.89-59.57-10.65-43.25-14.36-58.32c18.64-2.59,59.02-7.77,77.49-12.43,.47,6.9,.25,14.07-2.13,17.15Z"/>
      <line class="cls-4" x1="332.67" y1="739.7" x2="328.92" y2="692.85"/>
      <path class="cls-7" d="M322.2,848.35c-13.6-.08-15.59-7.76-15.59-7.76l-12.31-82.35s-2.26-3.56,.35-12.71l10.65,43.25,16.89,59.57Z"/>
      <path class="cls-10" d="M326.78,513.42c-.45,2.97-1.47,5.91-2.13,8.83-.55,.24-.89,.4-.92,.45-.12,.27-.41,.41-.67,.52-4.3,1.87-8.91,3.15-13.58,3.09-4.67-.06-9.4-1.55-12.93-4.69-.09-.08-.31-.14-.58-.17-.21-2.07-.69-4.1-1.41-6.03-.26-.68-.55-1.37-1.06-1.88-3.54-3.61-3,3.71-2.59,6.8-5.02-3.77-5.97-15.79-5.97-15.79,0,0-.24-1-3.37-4.75,1.74-7.24,6.31-13.82,13.02-16.45,1.83-.72,3.76-1.14,5.7-1.43,6.43-.98,13.62-.43,18.41,4.08,2.96,2.78,4.61,6.72,5.89,10.62,1.77,5.4,3.02,11.15,2.17,16.79Z"/>
      <path class="cls-3" d="M326.22,539.96c-.36,.57-1.03,.82-1.66,1.04-5.45,1.86-11,3.43-16.61,4.72-.53,.13-1.1,.24-1.62,.07-.68-.24-1.12-.92-1.46-1.57-.96-1.81-1.7-3.74-2.22-5.74-1.28,1.3-2.62,2.62-4.25,3.42-1.62,.81-3.62,1.04-5.22,.17-4.36-2.37-6.34-11.44-8.03-15.78-1.61-4.11,.09-6.2-.67-10.56-.53-3.03-2.89-1.82-2.89-4.94,0-2.07-.36-9.5,0-10.99,3.14,3.74,3.37,4.75,3.37,4.75,0,0,.95,12.02,5.97,15.79,.08,.59,.15,1.03,.2,1.2,.22,.99,.49,2.01,1.03,2.86,.54,.86,1.41,1.55,2.41,1.63,.42,.04,.88-.06,1.18-.37,.34-.36,.38-.92,.38-1.43,.01-.93-.04-1.86-.14-2.78,.27,.02,.48,.08,.58,.17,3.53,3.14,8.26,4.63,12.93,4.69,4.67,.06,9.27-1.22,13.58-3.09,.26-.11,.55-.25,.67-.52,.02-.05,.36-.21,.92-.45-.49,2.22-.79,4.45-.46,6.69,.46,3.21,2.14,6.17,2.3,9.41,.04,.56,.01,1.15-.28,1.61Z"/>
      <path class="cls-7" d="M355.31,573.18c1.96,7.88,1.46,18.17,1.18,31.73-.34,16.86-1.58,32.41-1.58,32.41l8.8,42.45c-1.55,.58-93.13,15.58-93.22,15.78,0,0-.57-14.32-1.12-25.96-1.45-30.13-2.86-87.55,5.51-111.27,0,0,10.11-24.08,41.1-24.08,26.12,0,37.34,14.85,37.37,14.87"/>
      <path class="cls-5" d="M296.13,524.23c0,.51-.04,1.06-.38,1.43-.29,.31-.75,.41-1.18,.37-1-.08-1.87-.77-2.41-1.63-.54-.86-.81-1.87-1.03-2.86-.05-.17-.12-.6-.2-1.2-.41-3.09-.95-10.41,2.59-6.8,.51,.52,.8,1.21,1.06,1.88,.72,1.93,1.2,3.96,1.41,6.03,.11,.92,.15,1.85,.14,2.78Z"/>
      <path class="cls-11" d="M296.13,524.23c0,.51-.04,1.06-.38,1.43-.29,.31-.75,.41-1.18,.37-1-.08-1.87-.77-2.41-1.63-.54-.86-.81-1.87-1.03-2.86-.05-.17-.12-.6-.2-1.2-.41-3.09-.95-10.41,2.59-6.8,.51,.52,.8,1.21,1.06,1.88,.72,1.93,1.2,3.96,1.41,6.03,.11,.92,.15,1.85,.14,2.78Z"/>
      <path class="cls-6" d="M316.01,638.78c.9,0,29.91-2.06,29.91-2.06"/>
      <line class="cls-6" x1="328.92" y1="561.87" x2="305.31" y2="608.08"/>
      <path class="cls-6" d="M333.52,581.61c-1.01,0-7.81,28.38-7.81,28.38"/>
      <path class="cls-5" d="M357.79,674.78c-.56-8.31-2.13-16.24-2.13-16.24"/>
      <path class="cls-1" d="M367.51,677.35c-5.62,8.13-22.6-4.26-16.98-12.39,8.1-5.04,17.76,5.53,16.98,12.39Z"/>
      <path class="cls-11" d="M368.73,649.06l-1.82,21.64-5.54,10.35c-.72,3.29-1.67,6.16-2.8,8.69l-10.85-8.69c-.92-1.74-3-3.18-4.84-2.6-1.83,.58-3.44,1.79-5.29,2.32-2.9,.83-6.24-.22-8.18-2.59l10.64-6.61s4.7-2.72,9.03-2.89c.78-.04,1.53,.01,2.26,.18l4.8-14.88,12.6-4.93Z"/>
      <path class="cls-11" d="M344.35,704.47c-6.04,2.71-12.17,2.87-15.95,2.6-1.25-.09-1.98-1.49-1.36-2.62l3.59-6.51c2.56,2.13,5.27,3.93,7.95,4.98,1.99,.77,3.93,1.28,5.78,1.55Z"/>
      <path class="cls-11" d="M329.34,696.86l-4.26,4.4c-.8,.83-2.21,.2-2.11-.97,.32-3.89,2.59-7.07,2.59-7.07,1.2,1.24,2.47,2.48,3.78,3.64Z"/>
      <path class="cls-11" d="M345.12,686.28c-.16,.88,5.61,5.62,10,9.46,2.93,2.57,5.24,4.75,4.81,5.13-1.83,1.64-4.97,3.1-8.85,3.65l-3.03-2.05-10.52-7.15c.4,.36,5.83,5.5,8.5,8.03,.07,.07,.12,.14,.16,.22,.18,.45-.16,1-.69,.92-.27-.04-.56-.08-.86-.14h-.01c-2.14-.37-4.84-.94-6.05-1.41-2.68-1.05-5.38-2.85-7.95-4.98-.43-.35-.86-.71-1.28-1.09-1.32-1.16-2.59-2.39-3.78-3.64-5.74-5.96-9.9-12.18-9.9-12.18,0,0-7.1-5.93-7.7-6.19l9.16-14.24,11.66,8.78c.39-.31,5.33-2.69,11.34-2.25,5.99,.43,8.96-1.11,8.96-1.11v2.65c-4.33,.17-9.03,2.89-9.03,2.89l-10.64,6.61c1.94,2.37,5.28,3.42,8.18,2.59,1.85-.53,3.46-1.74,5.29-2.32,1.85-.58,3.93,.86,4.84,2.6l10.85,8.69,3.89,3.12-1.74,2.78c-1.08-.43-2.49-1.27-4.04-2.26-5.02-3.23-11.35-8.19-11.57-7.09Z"/>
      <line class="cls-5" x1="340.82" y1="689.98" x2="355.79" y2="703.3"/>
      <path class="cls-7" d="M291.1,580.58l-2.2,44,37.84,40.2c-2.32,5.51-6.11,13.11-15.21,17.27l-51.44-45.96,6-77.8,25.01-17.15"/>
      <line class="cls-2" x1="284.9" y1="576.26" x2="291.1" y2="580.58"/>
      <path class="cls-6" d="M279.99,628.78s1.31-2.35,8.92-4.2"/>
      <path class="cls-7" d="M353.38,549.11s5.3,5.57,9.6,13.02l24.15,51.09c2.67,5.87,2.73,12.66,.15,18.58l-19.78,45.56c.78-6.86-8.89-17.43-16.98-12.39l5.88-21.62,7.93-18.75-7.84-19.68c.28-13.55-.01-27.97-1.97-35.84"/>
      <path class="cls-6" d="M377.33,623.76c-4.6-1.69-9.02-2.02-13,.82"/>
      <line class="cls-11" x1="346.02" y1="703.35" x2="348.04" y2="702.47"/>
      <path class="cls-11" d="M351.33,668.87s3.99,2.39,5.99,4.55"/>
      <path class="cls-11" d="M321.71,677.35s6.1-1.36,8.1,5.94c2,7.3,5.4,9.93,5.4,9.93"/>
    </g>
    <g>
      <path class="cls-2" d="M224.84,516.91c-6.45,5.93-23.42-1.14-23.42-1.14l-1.53-3.15-5.94-7.63c-12.12-3.43-6.79-22.98-6.79-22.98,0,0,19.62-15.79,35.41-3.15,14.25,11.4,12.3,28.81,2.26,38.05Z"/>
      <path class="cls-2" d="M245.63,618.29c-1.9,.42-4.04,.59-6.44,.39,.12,17.42,1.14,37.75,1.38,38.69-.14-.05-.98,.16-2.43,.55-8.83,2.29-40.2,10.33-72.77-2.49-1.53-.6-3.07-1.26-4.61-1.95l1.02-19.46-15.43,24.27s-.45,.19-1.21,.45c-3.73,1.25-14.97,4.23-18.44-4.04-.67-1.55-1.05-3.51-1.05-5.97,0-1.83,23.4-40.93,23.4-40.93l11.71-59.33c9.58-6.26,19.29-10.61,28.89-12.85,12.47-2.89,24.77-2.2,36.37,2.55,7.71,3.16,15.12,8.11,22.07,14.99l9.05,47.13c1.56,8.11-3.44,16.22-11.51,18.01Z"/>
      <path class="cls-11" d="M220.05,530.99c-.06-.91-.12-1.82-.18-2.73-.12-1.84-.22-3.78,.59-5.44,.73-1.49,2.1-2.55,3.32-3.68,6.31-5.87,9.19-15.26,7-23.59s-9.48-15.16-17.98-16.54c-5.76-.94-11.65,.47-17.1,2.55-1.9,.73-3.79,1.54-5.44,2.75-.54,.4-1.05,.83-1.53,1.29-2.9,2.8-4.62,6.6-5.1,10.6-.2,1.64-.4,3.63-.56,5.85-.1,1.4,1.59,3.04,1.53,4.6-.05,1.21-1.86,2.31-1.87,3.6-.05,7.29,.6,15.61,2.92,23,0,0,3.3,1.41,13.35-1.14l21.03-1.11Z"/>
      <path class="cls-5" d="M240.59,657.4s-.01,.01-.02-.02c.02,0,.02,.01,.02,.02Z"/>
      <path class="cls-6" d="M242.39,557.88s1.2,29.97-1.8,36.53c-1.18,2.55-1.48,12.78-1.4,24.27"/>
      <polyline class="cls-6" points="161.78 634.02 173.07 616.28 176.37 563.38"/>
      <path class="cls-2" d="M262.19,825.3s-.92,.49-2.42,1.15c-4.31,1.89-13.53,5.21-20.32,2.52-.75-.29-1.48-.66-2.16-1.12l-9.91-68.43-4.5-5.99-15.23-57.11c-3.6,.59-3.8,.51-7.44,.76l-17.94,48.74,9,64.82s-.82,.88-2.27,2.01c-4.88,3.89-16.77,10.73-27.22-3.71l-.15-.85-13.78-75.74,17.51-76.92c32.57,12.82,63.94,4.78,72.77,2.49,2.4,8,4.64,18.98,2.46,27.49l11.1,66.28s5.78,9.53,5.48,19.43c-.29,9.91,5.03,54.17,5.03,54.17Z"/>
      <path class="cls-6" d="M193.16,697.24c2.2,.08,4.58,.01,7.04-.16"/>
      <path class="cls-6" d="M228.88,692.01s-11.71,2.75-21.24,4.3"/>
      <path class="cls-2" d="M263.09,844.25l-28.81,8.4s-20.4-3.2-12.8-15.8c0,0,5.11-3.48,14.69-.94,1.05-2.27,2.46-5.22,3.28-6.95,6.79,2.69,16.01-.62,20.32-2.52,1.76,4.61,3.78,11.47,3.31,17.8Z"/>
      <path class="cls-6" d="M236.17,835.92c-.68,1.46-1.21,2.62-1.33,2.99"/>
      <path class="cls-2" d="M193.16,825.85c-1.62,6.34-6.22,10.3-14.1,8.72-11.01-2.19-34-11.93-34-19.53,0,0-.33-8.55,16.57-6.95l.15,.85c10.45,14.45,22.34,7.6,27.22,3.71l4.16,13.2Z"/>
      <path class="cls-2" d="M226.02,538.17c-11.6-4.75-23.9-5.44-36.37-2.55,1.6-1.97,7.1-7.26,20.17-7.44,9.61-.13,13.21,5.07,13.21,5.07,1.18,1.59,2.16,3.23,2.99,4.92Z"/>
      <path class="cls-5" d="M185.97,532.76c1.64-.16,3.04-1.29,4.13-2.53,1.98-2.25,3.33-5.04,3.86-7.98-.13,.08-.2,.24-.17,.39"/>
      <path class="cls-11" d="M144.4,666.37c.12,.86,.21,1.7,.26,2.42,.31,4.55-1.82,8.86-3.89,12.92-.27,.54-.55,1.09-1.01,1.48-.38,.33-.85,.53-1.32,.69-1.88,.68-3.86,1.02-5.83,1.34-2.32,.36-4.7,.68-6.99,.19-2.29-.49-4.51-1.99-5.24-4.22-.29-.93-.33-1.92-.29-2.9,.22-7.38,4.22-16.23,6.62-23.59,3.47,8.27,14.72,5.29,18.44,4.04,0,0,1.21,3.86,2.72,5.05,0,0,.39,3.24-3.46,2.57Z"/>
      <path class="cls-5" d="M129.36,677.32c-.02,.24,5.82-1.96,5.99-2.27,.14-.25,.15-.54,.15-.83,.04-3.55-.72-3.2,.24-6.62,.09-.32,5.63-6.41,7.31-6.01,.21,.06,.43,.12,.58,.28,.15,.18,.19,.42,.22,.65,.14,1.1,.36,2.5,.54,3.84"/>
      <path class="cls-1" d="M224.84,518.09c-6.45,5.93-23.42-1.14-23.42-1.14l-1.53-3.15-5.94-7.63c-12.12-3.43-6.79-22.98-6.79-22.98,0,0,19.62-15.79,35.41-3.15,14.25,11.4,12.3,28.81,2.26,38.05Z"/>
      <path class="cls-11" d="M193.78,508.25c.22-1.07,.84-2.06,1.72-2.72,.7-.52,1.71-.82,2.42-.31,.27,.19,.45,.48,.61,.76,1.5,2.62,1.79,5.91,.77,8.75-.32,.88-.76,1.74-1.45,2.39s-1.63,1.06-2.56,.95c-.21-.02-.47-.25-.31-.38"/>
    </g>
  </g>
</svg>