<?xml version="1.0" encoding="utf-8"?>
<!-- Generator: Adobe Illustrator 27.0.1, SVG Export Plug-In . SVG Version: 6.00 Build 0)  -->
<svg version="1.1" xmlns="http://www.w3.org/2000/svg" xmlns:xlink="http://www.w3.org/1999/xlink" x="0px" y="0px"
	 viewBox="0 0 1024 1024" style="enable-background:new 0 0 1024 1024;" xml:space="preserve">
<style type="text/css">
	.st0{fill:#ff4b00;}
	.st1{fill:#050f14;stroke:#f5f7fa;stroke-width:4;stroke-linecap:round;stroke-linejoin:round;}
	.st2{fill:none;stroke:#f5f7fa;stroke-width:0.75;stroke-linecap:round;stroke-linejoin:round;}
	.st3{fill:#f5f7fa;stroke:#050f14;stroke-width:3;stroke-linecap:round;stroke-linejoin:round;}
	.st4{fill:none;stroke:#050f14;stroke-linecap:round;stroke-linejoin:round;}
	.st5{fill:#050f14;stroke:#f5f7fa;stroke-width:2;stroke-linecap:round;stroke-linejoin:round;}
	.st6{fill:none;stroke:#f5f7fa;stroke-linecap:round;stroke-linejoin:round;}
	.st7{fill:#f5f7fa;stroke:#050f14;stroke-width:4;stroke-linecap:round;stroke-linejoin:round;}
	.st8{fill:#050f14;}
	.st9{fill:none;stroke:#050f14;stroke-width:2;stroke-linecap:round;stroke-linejoin:round;}
	.st10{fill:none;stroke:#050f14;stroke-width:0.5;stroke-linecap:round;stroke-linejoin:round;}
	.st11{fill:#050f14;stroke:#050f14;stroke-linecap:round;stroke-linejoin:round;}
	.st12{fill:none;stroke:#050f14;stroke-width:4;stroke-linecap:round;stroke-linejoin:round;}
	.st13{fill:#f5f7fa;stroke:#050f14;stroke-linecap:round;stroke-linejoin:round;}
	.st14{fill:#050f14;stroke:#f5f7fa;stroke-linecap:round;stroke-linejoin:round;}
</style>
<g id="Layer_1">
	<g id="Layer_3">
		<polygon class="st0" points="757.8,843.6 217.4,837 240.6,124.2 784,132.9 		"/>
	</g>
	<path class="st1" d="M901.6,875.8c0.8,2.4-500.2,46.9-697.9,64.8l25.8-59.9l-73,4.9c26.9-50.7,61.5-114.1,64.2-115.9
		C357.9,678.5,417,619.8,523.2,621.5c252.4,4,378.3,170.5,378.3,170.5S900.6,872.8,901.6,875.8z"/>
	<path class="st1" d="M410.5,661.7c-41,36.8-67.3,27.4-91.4,21.2c-104.6-26.9-83.1-111.7-57-147.5c6.3-8.6,11.6-18,15.8-27.9
		c6.8,17.4,16.3,24.8,23.1,27.9c0.2,0.1,0.4,0.2,0.6,0.2c17.3,8.1,44.2,12.5,59.2,13.4l14.3,32.4l14.3,32.3L410.5,661.7z"/>
	<path class="st2" d="M276.5,665c-18.6-53.5-11.8-98,16.1-135"/>
	<path class="st2" d="M307,679.4c-11-31-17.7-74.2-14.9-97.8c2.1-17.8,9.4-32.3,19.6-41.9"/>
	<path class="st2" d="M334.5,545.6c-9.6,11.5-15.1,28.3-13.7,47.8c1.7,24.3,16.9,66.9,34,95.4"/>
	<path class="st2" d="M358.4,548.9c-5,10.2-7.4,22.6-6.5,36.4c1.7,24,16.6,66,33.5,94.5"/>
	<path class="st3" d="M472.9,205.4l3.1,7l-31,4.4c0,0-0.8-2.1-2-5.8l-29.4-0.5l1,3.9h-30.3c-0.2-1.1-0.3-2.2-0.5-3.3l-31.8,3.3
		c0,0-0.1-1.2-0.3-3.3l-35.5-2.4c0,0-0.1-4.1,0.4-10.9l-25.4-1.1c0,0,0-1.3,0.3-3.5l-12.3,1.3c2.2-5.6,4.6-11.4,7.2-17l6.5,6.6
		c0,0,117.8-59.4,210.8,21.4L472.9,205.4z"/>
	<line class="st4" x1="413.6" y1="668.8" x2="410.5" y2="661.7"/>
	<path class="st5" d="M593.6,629.2c0,0-4.4,15.8-12.3,35.7c-13,32.5-35.6,76.1-64.7,80.3c-46.8,6.9-147.2-39.9-147.2-39.9
		s-20.5-45.8-28.3-66.3s9.4-32.2,9.4-32.2l24.3-25.2l14.3,32.3c21,9.2,62.9,26.1,100.1,32.9l0,0C517.9,614.3,534,547.6,540,518
		c1.9-9.2,2.8-14.8,2.8-14.8s17.6-4.5,20.5,0S593.6,629.2,593.6,629.2z"/>
	<path class="st6" d="M389.3,613.8c-8.4-3.7-13.5-6.1-13.5-6.1"/>
	<line class="st4" x1="459" y1="82.1" x2="459" y2="82.1"/>
	<path class="st4" d="M459,82.1h-0.1"/>
	<path class="st1" d="M711.4,648.8c-35.2,23-85.9,54.6-130,16c-10.2-8.9-20.1-21.6-29.3-38.9c0,0,47.8,22.9,28.3-38
		c-10.6-33.1-28.8-49.3-40.1-70c-9.4-17.3-13.9-37.7-4.8-73.8c21.9-86.5-6.8-92.6-6.8-92.6c8.3-78.4-24.9-146.2-24.9-146.2h-30.9
		l3.1,7l-31,4.4c0,0-0.8-2.1-2-5.8l-29.4-0.5l1,3.9h-30.3c-0.2-1.1-0.3-2.2-0.5-3.3l-31.8,3.3c0,0-0.1-1.2-0.3-3.3l-35.5-2.4
		c0,0-0.1-4.1,0.4-10.9l-25.4-1.1c0,0,0-1.3,0.3-3.5l-12.3,1.3l-8.6,0.9l7-26.8c0,0,11.1-44.8,78-69.8h0.1
		c13.1-6.6,65.3-18.3,98.1-18.3c123.6,0,160.1,60.9,160.1,60.9s69.7,89,27.3,240.4c0,0-16.1,63.8,66.8,110.8
		S754.7,620.5,711.4,648.8z"/>
	<line class="st4" x1="316.6" y1="197.6" x2="316.6" y2="197.6"/>
	<path class="st6" d="M459,82.1c0,0,81,88.4,96,256"/>
	<path class="st6" d="M552,625.9c0,0,46.4,39.1,65.5-11.5c17.9-47.4-55.5-74.5-55.7-176.5"/>
	<path class="st6" d="M588.3,668.8c0,0,76.7,4.9,80.8-51.6s-67.5-92-80.8-203.7"/>
	<path class="st6" d="M476,82.4c0,0,94.3,44.9,102.8,255.4"/>
	<path class="st6" d="M503.8,84.6c0,0,106.8,35.8,104.6,266.9c-0.3,97.4,42.6,159.3,72,205.1c34.8,54.1,21.5,105.1-46.5,126.3"/>
	<path class="st6" d="M711.4,648.8c50.7-59.4,8.2-103.2,8.2-103.2c-95-85.7-79.5-155.9-79.5-155.9s33.7-253-133.1-303.8"/>
	<line class="st6" x1="247.7" y1="837.4" x2="229.5" y2="880.7"/>
	<path class="st7" d="M540.2,517.9c-6,29.6-22.1,96.2-50.8,128.8l0,0c-37.2-6.8-79.1-23.7-100.1-32.9L375,581.5l-14.4-32.4
		c-15-0.9-41.8-5.3-59.2-13.4c-0.2-0.1-0.4-0.2-0.6-0.2c-6.8-3.1-16.3-10.5-23.1-27.9c-3.1-7.9-5.6-17.8-7-30.3
		c-3.9-34.3-15.1-70-21-95.8c-4-17.8-2.3-36.4,4.9-53.2c7.1-16.8,15.6-44.4,2-75.6c0,0-2.2-7.3,7.6-22.7c4.9-7.8,12-25.9,17.5-40.2
		L503,201.1c0,0,33.9,72,25.6,150.5c0,0,28.8,6.1,6.8,92.6C526.3,480.2,530.8,500.6,540.2,517.9z"/>
	<path class="st4" d="M325.6,265.1c0,0,5.5,4.9,4.5,16.9l-2.3,11.1"/>
	<path class="st4" d="M371.4,350.3c9.4,21.1-2.9,31.2-2.9,31.2c-5.9-9.5-14.3-17.1-24.4-22c-2.5-1.2-5.4-1.3-7.9-0.3l-14.4,5.7
		c-3.6,1.4-7.6,1.2-11-0.7l-4.9-2.7c-2.7-1.4-4.2-4.4-3.7-7.4c1.9-10.8,17.6-22.3,17.6-22.3l5-24.2l2.5-11.8"/>
	<path class="st4" d="M368.5,381.5c-4.8,7.2-13.7,0.5-13.7,0.5s-10-8.6-21.7-7.7c-8.7,0.7-4.4,4.4,1.5,6.4c1.6,0.5,0.1,3.2-1.5,2.9
		c-5.3-1-12.6-2.1-17.2-6.7c-7.5-7.3-13.6-5.8-14-5.6c-3.3,1.8,4.3,3.7,13.6,5.2"/>
	<path class="st4" d="M304.8,347.5c0,0-15.2,15.3-8.8,26.3c5.9,10.1,23.9,6,23.9,6"/>
	<g>
		<path class="st8" d="M287.6,437c0.3,1.2,1.3,1.5,2.4,1.7l3.8,1.1l-2.8,1.1c6.7-15.2,21.8-14.6,34.3-6.9l-2.3,0.2
			c3.9-2.8,8.6-4.2,13.3-5c19.9-2.7,38.6,8.2,53.9,19.9l-2-0.3l11-3.2c0.3-0.1,0.5,0.1,0.6,0.3c0.1,0.2,0,0.4-0.2,0.6l-9.8,5.9
			c-0.7,0.4-1.5,0.2-2-0.3l-7-5.2c-14.7-10-34.1-18.9-51.8-11.7c-1.2,0.5-2.5,1.2-3.5,1.9c-0.7,0.5-1.5,0.5-2.2,0.1
			c-2.6-1.5-5.2-2.8-8-3.7c-6.8-2.4-14.2-1.1-18.5,5c-0.8,1-1.5,2.4-2,3.5c-0.4,1.1-1.5,1.6-2.6,1.2c-0.1,0-0.1-0.1-0.2-0.1
			l-3.2-2.4c-0.5-0.4-1.4-1-1.7-1.6c-0.5-0.6-1-2.8,0-2.8C287.4,436.6,287.6,436.8,287.6,437L287.6,437z"/>
	</g>
	<path class="st4" d="M399.3,446.1c0,0,2-4.5-6.5-5.5c0,0-30.9-35.8-54.4-35.4c0,0-8.3,8.1-14.5,7.5s-11.4-7.5-11.4-7.5
		s-25.7,6.2-22.7,28.9l0,0c-1.6,0-2.8,1.3-2.8,2.9"/>
	<path class="st9" d="M294.7,450.6c0,0,7.8,27.6,62,13"/>
	<path class="st10" d="M298.6,487.7c0,0,20.5-9.4,47.8,2.9"/>
	<path class="st8" d="M356.8,250.2c-1.6-0.2,3.7,15.8,26.6,15s43.4-33.5,112.1,11.4v-5.9l-69.4-41.9v4.9
		C426.1,233.7,379.9,252.6,356.8,250.2z"/>
	<path class="st8" d="M282,228.9l-0.8,4.8c7.2,4.1,30.2,16.1,44.6,15.1c0,0-0.3,24.4-35.4,7.3c0,0-24.4-20.5-33.6-3.4v-7.2
		L282,228.9z"/>
	<path class="st11" d="M495.5,289.7c-9.5,5.7-23.7,5.5-36.8,3.6c-11.1-1.8-22.1-4.6-32.7-8.4c-1.1,0.2-2.2,0.3-3.2,0.5
		c-14.2,2.6-27.2,9.8-36.9,20.4c0,0,5.5-19.3,40.1-25.3C426,280.5,465.4,297.3,495.5,289.7z"/>
	<path class="st11" d="M327.8,293.2l-0.5,2.6c-5-5.3-12.1-8.3-19.4-8c-5.4,2.6-11.1,4.6-16.9,5.9c-23,5.2-33.7-5.4-34.2-5.9
		c0.6,0.4,15.6,11.4,45.8-2.9C309.7,283.4,317.2,284.3,327.8,293.2z"/>
	<path class="st8" d="M459,296.3c0,10.9-8.8,19.7-19.7,19.7c-10.9,0-19.7-8.8-19.7-19.7c0-3.9,1.1-7.7,3.3-10.9
		c1-0.2,2.1-0.4,3.2-0.5c10.6,3.8,21.6,6.7,32.7,8.5C458.9,294.3,459,295.3,459,296.3z"/>
	<path class="st8" d="M327.3,295.8l-2.5,11.8c-5.6,8.6-17.2,11-25.8,5.4c-5.3-3.4-8.4-9.3-8.4-15.6c0-1.2,0.1-2.5,0.4-3.7
		c5.8-1.4,11.5-3.4,16.9-6C315.2,287.5,322.3,290.4,327.3,295.8z"/>
	<path class="st10" d="M335.2,391c-0.3,0.6,2.8,8.9,1,11.1s-6.7,4-6.7,4L335.2,391z"/>
	<path class="st12" d="M301.5,535.7c2.2,1,4.6,1.7,7,2c0.7,0.1,1.3,0.2,2,0.3c82.3,12.9,156.9-27.7,186.6-46.8
		c8.6-5.6,15.3-13.6,19.2-23.1l3.6-8.7"/>
	<path class="st4" d="M360.7,549.1c16.5,1.2,67.2-0.4,106-16.1"/>
	<path class="st4" d="M392.7,299.3c0,0,6.4-20.3,33.3-24.6c0,0,27.7-1.2,50,19.7"/>
	<path class="st4" d="M403.7,309.6c0,0,41.4,19.8,62.7-7.1"/>
	<path class="st4" d="M288.6,307.2c0,0,8.8,10.5,27.9,9.4"/>
	<path class="st4" d="M279.6,295c0,0,21.4-32.5,50.1-10.8"/>
	<path class="st10" d="M361.5,295.1c0.9,2.3,2.2,4.4,3.8,6.3c5.4,7.1,10.9,14.4,18.4,19.2c0.3,0.2,0.6,0.4,1,0.4
		c1.1,0.1,1.6-1.3,1.8-2.4c1.6-10.9,1.6-21.9,0-32.7c-0.1-1-0.4-2-1-2.8c-0.6-0.7-1.4-1.2-2.3-1.5c-4.2-1.6-13.2-5.2-17.6-2.6
		C361.1,281.6,360,290.7,361.5,295.1z"/>
	<path class="st10" d="M334.5,231.6c1.3,2.1,2.9,3.9,4.8,5.4c1.1-1,1.9-2.2,2.4-3.6c0.5-1.4,0-3-1.3-3.8c-1.6-0.8-3.5,0.5-4.8,1.8"
		/>
	<path class="st10" d="M347.4,451.1c-3.5,0.6-6.8,2.2-9.4,4.7c-0.6,0.6-1.2,1.5-0.9,2.2s1.2,0.8,2,0.8c6.2,0.1,12.4-0.7,18.3-2.6
		c1.3-0.4,2.9-1.2,2.7-2.6s-2-1.9-3.4-1.9l-11-0.6"/>
	<path class="st10" d="M474.7,386.3c1.1-2,19.4-13.1,15.5-16.5C485,365.2,476,383.9,474.7,386.3z"/>
	<path class="st3" d="M532.2,360.7c0,0,18.2-34.6,46.6-22.9c12.4,5.1,22.4,25.2,18.9,48.9c-4.5,30.7-46.8,72.6-72.4,54.6"/>
	<path class="st13" d="M539.5,433l4.2,25c3.9,2.5,7.7,1.7,11.3-2.3l-5.2-25.8C549.8,429.9,542.8,426.6,539.5,433z"/>
	<path class="st13" d="M527.5,385.9c3.8,1.6,8.2,1.4,11.8-0.6c3.9-2.1,6.5-6.1,8.3-10.1s3.2-8.3,5.5-12.1c2.8-4.7,7-8.5,11.9-10.9
		c3-1.5,6.5-2.4,9.8-1.7c3.4,0.9,6.3,3,8.1,6c1.8,2.9,3.1,6.2,3.8,9.5c2,7.9,2.7,17-2,23.6"/>
	<path class="st13" d="M552.9,413.5c0,0,39.4-29.5,14-62"/>
	<path class="st10" d="M426,326c0,0,12,4.6,23.4-1.4"/>
	<path class="st10" d="M298.2,323.4c0,0,3.8,3.1,12.3,2.8"/>
	<path class="st6" d="M435.6,302.8c-0.1,1,0.2,2,0.8,2.8c0.7,0.5,1.5,0.7,2.3,0.6c1.4-0.2,2.8-0.7,4-1.5c1-0.5,1.7-1.4,2.2-2.4
		c0.4-1.3,0.3-2.6-0.1-3.9c-0.2-1.3-0.6-2.5-1.2-3.6s-1.7-2-3-2.2C435.6,292,435.6,299.5,435.6,302.8z"/>
	<path class="st6" d="M442.7,294.3c-1,0.6-1.6,1.7-1.5,2.9c0.3,0.9,1.1,1.5,2,1.6s1.8-0.1,2.7-0.4c0.9-0.3,1.7-0.6,2.6-0.7
		c0.5-0.1,1.1-0.1,1.3-0.5c0.1-0.2,0.2-0.4,0.1-0.6c0.1-1.2-0.3-2.5-1.1-3.4C447.2,291.4,444.3,293.2,442.7,294.3z"/>
	<path class="st6" d="M308.1,301.5c0,0.7,0.2,1.5,0.6,2.1c0.9,1.2,2.6,1.3,4.1,1.3c1.3,0.4,2.8-0.4,3.1-1.7c0.1-0.4,0.1-0.8,0-1.3
		c0.1-1.5,0-2.9-0.3-4.3s-1.1-2.8-2.2-3.7c-1.5-1.1-3.8-1.2-4.6,0.6C308.2,296.7,307.9,299.1,308.1,301.5z"/>
	<path class="st6" d="M313.4,298.5c0.1,0.8,0.6,1.5,1.4,1.8s1.6,0.3,2.4,0.2c0.7,0,1.4-0.1,2.1-0.2c0.2,0,0.5-0.1,0.7-0.2
		c0.3-0.2,0.4-0.6,0.4-1c-0.1-1.6-1.3-2.9-2.9-3C315.9,296.1,313.3,296.7,313.4,298.5z"/>
	<path class="st14" d="M503.8,205.4h-30.9c-4.7-9-8.9-18.2-12.4-27.7c-10.4-27.4-20.6-69-1.5-95.6l0,0
		C472.9,110,490.8,156.9,503.8,205.4z"/>
	<path class="st14" d="M476,212.3l-31,4.4c0,0-0.8-2.1-2-5.8c-4.5-13.9-7.8-28.2-10-42.7C428.2,136,429.5,97,459,82l0,0
		c-19.1,26.6-8.9,68.2,1.5,95.6c3.6,9.5,7.7,18.7,12.4,27.7L476,212.3z"/>
	<path class="st14" d="M433,168.2c2.2,14.5,5.6,28.7,10.1,42.7l-29.4-0.5c-2.8-15.3-4.6-30.9-5.4-46.4
		c-1.7-46.6,11.4-77.8,50.5-81.8h0.1C429.5,97,428.1,136,433,168.2z"/>
	<path class="st14" d="M459,82.1c-7.8-0.6-15.6-0.3-23.3,0.8l0,0l0,0c-37.8,5.9-53.4,35.4-54.7,80.2c-0.3,16,0.7,32,2.9,47.9
		l-31.9,3.3c0,0-0.1-1.2-0.3-3.3c-0.9-15.1-0.2-30.3,2.1-45.3c5-31.3,19.4-68.3,58.2-80.6l0,0c4.2-1.3,8.5-2.3,12.8-3
		C436.2,80.4,447.7,80.4,459,82.1z"/>
	<path class="st14" d="M424.9,82.1c-4.3,0.7-8.6,1.7-12.8,3l0,0c-38.8,12.3-53.1,49.3-58.2,80.6c-2.3,15-3.1,30.2-2.1,45.3
		l-35.5-2.4c0,0-0.1-4.1,0.4-10.9c0.6-8.1,1.8-16.2,3.5-24.1c6.2-28.6,22.3-66.9,63.5-83.4h0.1c6.4-2.6,13.1-4.5,19.9-5.8h0.1
		C410.8,83.1,417.8,82.3,424.9,82.1z"/>
	<path class="st14" d="M403.7,84.3c-6.8,1.3-13.5,3.2-19.9,5.8h-0.1c-41.2,16.5-57.3,54.8-63.5,83.4c-1.7,7.9-2.9,16-3.5,24.1
		l-25.4-1.1c0,0,0-1.3,0.3-3.5s0.6-5.3,1.4-9.1c4-20.9,17.4-62.6,62.8-85.4h0.1C368.9,91.8,384.7,86.8,403.7,84.3z"/>
	<path class="st14" d="M408.3,163.9c0.7,15.6,2.5,31.1,5.4,46.4l1,3.9h-30.4c-0.2-1.1-0.3-2.2-0.5-3.3c-2.2-15.9-3.2-31.9-2.9-47.9
		c1.3-44.7,16.9-74.3,54.7-80.2l0,0l0,0c1.6-0.1,3.3-0.2,5-0.3c6.3-0.3,12.3-0.5,18.2-0.5C419.7,86.2,406.6,117.3,408.3,163.9z"/>
	<path class="st14" d="M355.7,98.5c-45.3,22.8-58.8,64.5-62.8,85.4c-0.7,3.8-1.1,6.9-1.4,9.1l-20.9,2.2l7-26.8
		C277.7,168.4,288.8,123.5,355.7,98.5z"/>
	<path class="st6" d="M312.5,841.2c27.4,15.9,33.7,26.2,30.7,30.2c-8.3,11.1-38.2-18.3-39.1-18.5
		C304.6,847.8,306.7,843.6,312.5,841.2z"/>
	<path class="st6" d="M312.5,841.2c-9.9-8.5-15.1-3.7-15.1-3.7s-7.4,6.5,6.7,15.4"/>
	<path class="st6" d="M300.7,838.5c5.5,1.5,0,10.9,9.2,4"/>
	<path class="st6" d="M341.9,864c-3.6-3-7.5,1.3-7.5,1.3s-4.6,5.4,0.4,8.1"/>
	<path class="st8" d="M320.4,843c-2.3,1.1-3.8,3.4-3.8,6c0,0,12.2,10.5,12.4,10.2s1.5-7.3,6.6-9.2L320.4,843z"/>
	<path class="st10" d="M322.5,417.3c-0.3,3.2,0.1,6.4,0.7,9.5c0.2,1.2,0.5,2.4,1.3,3.3c-0.1-0.2-0.2-0.4-0.3-0.6"/>
	<path class="st10" d="M319.7,420c-0.1,2.2,0.3,4.4,1.1,6.4"/>
	<path class="st10" d="M302.1,416.1c1.6,5,5.5,9.2,10.4,11.2"/>
	<path class="st10" d="M301.6,420.3c1.3,2,2.8,3.8,4.6,5.3"/>
	<path class="st10" d="M318.7,451.8c0.4-3.5,1.7-6.9,3.7-9.9c0.5-0.8,1.1-1.5,1.9-2"/>
	<path class="st10" d="M317.9,445c0.7-1.6,1.7-3.2,2.9-4.5"/>
	<path class="st10" d="M296.4,446.5c2.5,6.7,7.9,12.2,14.5,14.9"/>
	<path class="st10" d="M343.3,410.9c6.5,0.5,12.9,2.9,18.1,6.8"/>
	<path class="st10" d="M348.5,415c1.1,0.3,2.2,0.5,3.3,0.7"/>
	<g>
		<g>
			<path d="M291.8,440.7c-1.6-1.8-3-3.8-4.2-5.8c0,0,0,0,0,0c0,0,0,0,0,0c0,0.1-0.1,0.1-0.1,0.2c1.2,2.1,2.6,4,4.2,5.8
				c0.1,0.1,0.2,0.2,0.3,0.3c0-0.1,0.1-0.2,0.1-0.2C291.9,440.9,291.9,440.8,291.8,440.7z"/>
			<path d="M288,434.6c-0.1,0.1-0.1,0.1-0.2,0.2c0.9,1,1.6,2.1,2.2,3.1c0.6,0.9,1.3,1.9,2.1,2.9c0-0.1,0.1-0.2,0.1-0.3
				c-0.7-0.9-1.4-1.9-2-2.8C289.5,436.6,288.8,435.6,288,434.6z"/>
		</g>
		<g>
			<path d="M289,433.8c-0.1,0.1-0.1,0.1-0.2,0.2c1.2,1.8,2.6,3.4,4,5c0-0.1,0.1-0.2,0.1-0.2C291.6,437.2,290.2,435.5,289,433.8z"/>
		</g>
		<g>
			<path d="M289.7,432.4c0,0.1,0,0.2-0.1,0.3c1.2,1.7,2.5,3.4,4,4.8c0-0.1,0.1-0.1,0.1-0.2C292.3,435.8,290.9,434.2,289.7,432.4z"/>
		</g>
		<g>
			<path d="M289.8,430.7c1.4,2,3,4,4.6,5.8c0.1-0.1,0.1-0.1,0.2-0.2c-1.7-1.9-3.2-3.9-4.7-6C289.8,430.5,289.8,430.6,289.8,430.7z"
				/>
		</g>
		<g>
			<path d="M289.9,429c1.6,2.2,3.4,4.4,5.3,6.5l0.2-0.2c-2-2.1-3.8-4.4-5.5-6.8C289.9,428.7,289.9,428.9,289.9,429z"/>
		</g>
		<g>
			<path d="M295.6,434.3c0,0,0.1,0.1,0.1,0.2c0,0,0,0,0,0c-1.9-2.7-3.7-5.5-5.5-8.4c0,0.1-0.1,0.2-0.1,0.3c1.8,2.8,3.6,5.6,5.5,8.4
				l0.1,0.1l0.1-0.1c0.1-0.1,0.1-0.2,0.1-0.4c0-0.1-0.1-0.3-0.2-0.4L295.6,434.3z"/>
		</g>
		<g>
			<path d="M290.7,424.1c1.7,3.4,3.7,6.7,6,9.8l0.2-0.2c-2.4-3.1-4.4-6.5-6.1-10C290.8,423.8,290.7,423.9,290.7,424.1z"/>
		</g>
		<g>
			<path d="M298.3,432.6C298.3,432.6,298.3,432.6,298.3,432.6c-0.1,0-0.1,0-0.1,0.1c-0.8-0.8-1.4-1.8-1.9-2.8
				c-1.6-3.1-3-6.3-4.2-9.6c0,0.1-0.1,0.2-0.1,0.4c1.1,3.2,2.5,6.4,4.1,9.4c0.5,1,1.1,2.1,2,2.9c0.1,0.1,0.2,0.1,0.3,0.1
				c0.1,0,0.1,0,0.1,0c0,0,0,0,0,0c0.1,0,0.1-0.1,0.1-0.2C298.4,432.7,298.4,432.6,298.3,432.6z"/>
		</g>
		<g>
			<path d="M293.2,417.9c1.4,5.1,3.9,9.9,7.2,14c0.1,0,0.2-0.1,0.2-0.1c-3.4-4.2-5.9-9.1-7.2-14.2
				C293.3,417.7,293.2,417.8,293.2,417.9z"/>
		</g>
		<g>
			<path d="M295.4,414.8c-0.1,0.1-0.1,0.2-0.2,0.2c0.8,3.9,2,7.7,3.7,11.4c0.8,1.7,1.7,3.5,3.1,5c0.1,0,0.2-0.1,0.3-0.1
				c-1.4-1.4-2.3-3.3-3.1-5C297.4,422.6,296.2,418.7,295.4,414.8z"/>
		</g>
		<g>
			<path d="M297.8,412.4c0.3,6.5,2.2,12.9,5.4,18.5c0.1,0,0.2,0,0.3-0.1c-3.3-5.6-5.2-12.2-5.5-18.7
				C298,412.2,297.9,412.3,297.8,412.4z"/>
		</g>
		<g>
			<path d="M321.2,419.3c-0.7-2.5-1.2-5.2-1-7.8c-0.1,0-0.2-0.1-0.2-0.1c-0.2,2.7,0.3,5.4,1,8c1.1,4,2.4,7.9,4.1,11.7
				c0.4,0.9,0.9,1.9,1.5,2.7c0.1,0,0.1-0.1,0.2-0.1c-0.6-0.8-1.1-1.7-1.5-2.7C323.6,427.2,322.3,423.3,321.2,419.3z"/>
		</g>
		<g>
			<path d="M318.2,410.5c-0.1,0-0.2-0.1-0.2-0.2c-0.1,8.5,2.6,17.1,7.4,24.1c0.1,0,0.1-0.1,0.2-0.1
				C320.8,427.5,318.1,418.9,318.2,410.5z"/>
		</g>
		<g>
			<path d="M314.7,407.8c-0.1-0.1-0.2-0.2-0.2-0.3c-0.2,9.2,2.4,18.3,7.5,26c0.1,0.1,0.3,0.1,0.4,0.2
				C317.3,426.1,314.6,417,314.7,407.8z"/>
		</g>
		<g>
			<path d="M320,432.1c-0.6,0-1.1-0.4-1.6-1.4c-3.9-7.9-6.3-16.8-7-25.6c-0.1,0-0.2,0.1-0.2,0.1c0.6,8.8,3.1,17.7,7,25.6
				c0.5,1,1.1,1.5,1.7,1.5c0,0,0.1,0,0.1,0L320,432.1z"/>
		</g>
		<g>
			<path d="M316.8,431.3c-4.3-7.7-7-16.4-7.9-25.2l0.2,0c0.9,8.7,3.6,17.4,7.9,25.1L316.8,431.3z"/>
		</g>
		<g>
			<path d="M307,407c-0.1,0-0.2,0.1-0.2,0.1c0.1,3.4,0.9,6.6,1.8,9.4c1.3,4.3,3,8.5,4.9,12.5l0.2-0.1c-1.9-4-3.6-8.2-4.9-12.5
				C307.9,413.6,307.1,410.4,307,407z"/>
		</g>
		<g>
			<path d="M305.1,412.2c-0.4-1.3-0.7-2.8-0.3-4.1c-0.1,0.1-0.2,0.1-0.3,0.2c-0.3,1.3,0,2.8,0.4,4c1.6,5.6,3.8,11.1,6.8,16.1
				c0.1,0.1,0.1,0.2,0.1,0.2c0,0,0,0,0,0c0,0,0,0,0,0.1c0,0,0,0-0.1,0l0-0.2c-0.1,0-0.1,0.1-0.1,0.1c0,0.1,0.1,0.2,0.2,0.2
				c0,0,0.1,0,0.1,0c0.1,0,0.1,0,0.1-0.1c0.1-0.1,0.1-0.3,0-0.5C308.9,423.2,306.7,417.8,305.1,412.2z"/>
		</g>
		<g>
			<path d="M304,414.6c-0.7-2-1.3-3.8-1.1-5.6c-0.1,0-0.2,0.1-0.3,0.1c-0.2,1.8,0.4,3.6,1.1,5.6c1.6,4.6,3.4,9.2,5.3,13.8
				c0.3,0.7,0.6,1.3,1,1.8c0.1,0,0.3,0,0.4,0c-0.5-0.5-0.9-1.2-1.2-2C307.4,423.9,305.6,419.3,304,414.6z"/>
		</g>
		<g>
			<path d="M300.6,410.4c1.5,6.9,3.9,13.6,7.1,20c0,0,0.1,0,0.1,0l0.1-0.1c-3.2-6.4-5.6-13.1-7.1-20
				C300.8,410.3,300.7,410.3,300.6,410.4z"/>
		</g>
		<g>
			<path d="M299.2,411.2c0.5,6.8,2.6,13.5,6.1,19.3c0.1,0,0.2,0,0.3,0c-3.5-5.9-5.6-12.6-6.1-19.4
				C299.4,411.1,299.3,411.2,299.2,411.2z"/>
		</g>
		<g>
			<path d="M321.9,412c0.5,7.3,2.3,14.7,5.3,21.4c0.1,0,0.2-0.1,0.2-0.1c-2.9-6.7-4.8-14-5.3-21.2C322.1,412.1,322,412,321.9,412z"
				/>
		</g>
		<g>
			<path d="M328.4,432.8c-1.6-6.6-2.8-13.3-3.7-20.1l-0.2,0c0.8,6.8,2.1,13.5,3.7,20.1C328.3,432.9,328.4,432.8,328.4,432.8z"/>
		</g>
		<g>
			<path d="M329.2,431.5c-0.1,0-0.1,0-0.2-0.1l0.2-0.2c0,0,0.2-0.2,0.2-0.3c-0.2-6.1-0.9-12.2-2.1-18.1l0.2-0.1
				c1.3,6,2,12.1,2.1,18.2C329.6,431.2,329.4,431.4,329.2,431.5C329.2,431.5,329.2,431.5,329.2,431.5z"/>
		</g>
		<g>
			<path d="M330.2,410.8c1.1,7,1.3,14.2,0.5,21.2c0.1,0,0.2-0.1,0.3-0.1c0.7-7.1,0.5-14.2-0.5-21.3
				C330.3,410.7,330.3,410.7,330.2,410.8z"/>
		</g>
		<g>
			<path d="M332.6,409.7c1.5,7.1,1.7,14.5,0.6,21.7c0.1,0,0.2,0,0.3,0c1.1-7.2,0.8-14.6-0.6-21.7
				C332.7,409.7,332.7,409.7,332.6,409.7z"/>
		</g>
		<g>
			<path d="M335.2,408.2c1.4,7.6,1.3,15.4-0.3,23c0.1,0,0.2,0,0.3,0c1.6-7.6,1.8-15.5,0.3-23.1C335.4,408.1,335.3,408.1,335.2,408.2
				z"/>
		</g>
		<g>
			<path d="M339,429l-0.2-0.2c0.8-0.8,1-1.9,1.3-3.1c1.2-6.5,1.7-13.1,1.4-19.7l0.2,0c0.3,6.6-0.2,13.3-1.4,19.8
				C340.1,426.9,339.8,428.1,339,429z"/>
		</g>
		<g>
			<path d="M341.1,430.1l-0.2-0.1c2.8-7.4,3.9-15.5,3.2-23.3l0.2,0C345,414.5,343.9,422.6,341.1,430.1z"/>
		</g>
		<g>
			<path d="M342.9,430.4l-0.2-0.1c3.3-7.2,5.1-15.1,5.1-23l0.2,0C348,415.2,346.2,423.2,342.9,430.4z"/>
		</g>
		<g>
			<path d="M337.7,406c0.8,6.8,0.9,13.8,0.1,20.6c-0.2,1.4-0.4,3-1,4.3c0.1,0,0.2,0,0.3,0c0.6-1.3,0.9-2.9,1-4.3
				c0.8-6.9,0.7-13.9-0.2-20.8C337.9,405.9,337.8,406,337.7,406z"/>
		</g>
		<g>
			<path d="M351.6,408.3c0.4,7.5-1.8,15.1-6.4,21.1l0.2,0.2c4.6-6,6.8-13.6,6.4-21.1C351.8,408.4,351.7,408.3,351.6,408.3z"/>
		</g>
		<g>
			<path d="M354.7,409.9c0.6,2.5-0.1,5.2-0.8,7.6c-1.4,4.2-3.2,9-6.4,12.7l0.2,0.2c3.3-3.7,5.1-8.5,6.5-12.8c0.8-2.3,1.5-5,0.9-7.5
				C354.9,410,354.8,409.9,354.7,409.9z"/>
		</g>
		<g>
			<path d="M358.9,411.8c-0.9,7.1-4,14-8.8,19.3l0.2,0.2c4.8-5.4,7.9-12.2,8.9-19.4C359.1,411.9,359,411.8,358.9,411.8z"/>
		</g>
		<g>
			<path d="M360.2,424.8c-0.8,1.2-4.7,6-5.7,6c0,0,0,0,0,0c0,0-0.1,0-0.1-0.1c-0.3-0.8,0.8-2.1,1.6-3.1c0.3-0.4,0.5-0.7,0.7-0.9
				c1-1.6,1.8-3.2,2.6-4.9c1.3-2.8,2.2-5.8,2.7-8.8c-0.1,0-0.2-0.1-0.2-0.1c-0.6,3-1.5,5.9-2.7,8.8c-0.7,1.7-1.6,3.3-2.6,4.8
				c-0.1,0.2-0.4,0.5-0.7,0.9c-0.9,1.1-2,2.4-1.6,3.3c0.1,0.2,0.2,0.3,0.4,0.3c0,0,0,0,0.1,0c1.4,0,5.5-5.5,6-6.1
				c2-2.9,3.6-6.1,4.6-9.4l-0.2-0.1C363.8,418.8,362.2,421.9,360.2,424.8z"/>
		</g>
		<g>
			<path d="M367.8,417c-1.4,6.1-5,11.7-10.1,15.3c0.1,0,0.2,0.1,0.3,0.1c5-3.7,8.6-9.2,10-15.3C368,417,367.9,417,367.8,417z"/>
		</g>
		<g>
			<path d="M361.5,433.5c4.2-3.9,7.2-9,8.6-14.6l-0.2-0.1c-1.4,5.6-4.5,10.7-8.7,14.6C361.3,433.5,361.4,433.5,361.5,433.5z"/>
		</g>
		<g>
			<path d="M364.5,434.5c3.7-3.6,6.7-8,8.7-12.8l-0.2-0.1c-2,4.8-5,9.2-8.7,12.8C364.4,434.4,364.5,434.4,364.5,434.5z"/>
		</g>
		<g>
			<path d="M376.5,423.6l-0.2-0.1c-2.5,4.4-5.6,8.5-9.1,12.1c0.1,0,0.2,0.1,0.2,0.1C371,432.1,374,428.1,376.5,423.6
				C376.5,423.7,376.5,423.6,376.5,423.6z"/>
		</g>
		<g>
			<path d="M378.3,425.3c-1.9,4.5-4.8,8.6-8.2,11.8c0.1,0,0.2,0.1,0.2,0.1c3.4-3.2,6.3-7.2,8.2-11.7
				C378.4,425.4,378.4,425.3,378.3,425.3z"/>
		</g>
		<g>
			<path d="M380.7,427.6c-2,4-4.7,7.7-7.9,10.9c0.1,0,0.2,0.1,0.2,0.1c3.1-3.2,5.8-6.9,7.8-10.8
				C380.8,427.7,380.7,427.7,380.7,427.6z"/>
		</g>
		<g>
			<path d="M385.1,432.3c-1.5,2.8-3.5,5.3-6,7.3c-0.6,0.5-1.2,1-1.8,1.4c0.1,0,0.2,0.1,0.2,0.1c0.6-0.4,1.2-0.9,1.8-1.3
				c2.5-2,4.6-4.5,6-7.3C385.2,432.4,385.1,432.4,385.1,432.3z"/>
		</g>
		<g>
			<path d="M383,430.2c-2.1,3.6-4.9,6.8-8.2,9.4c0,0,0,0,0.1,0c0.1,0,0.1,0.1,0.2,0.1c3.3-2.5,6.1-5.7,8.2-9.3
				C383.1,430.4,383,430.3,383,430.2z"/>
		</g>
		<g>
			<path d="M386.8,434c-0.1,0.2-0.2,0.5-0.4,0.8c-1.9,2.9-4.4,5.4-7.3,7.4c0.1,0,0.1,0.1,0.2,0.1c2.9-2,5.4-4.5,7.3-7.4
				c0.2-0.3,0.3-0.5,0.4-0.7C387,434.2,386.9,434.1,386.8,434z"/>
		</g>
		<g>
			<path d="M389.1,436.3c-2.5,2.6-5.2,5-8.1,7.1c0.1,0.1,0.1,0.1,0.2,0.1c2.9-2.1,5.6-4.5,8.1-7.1
				C389.2,436.4,389.2,436.4,389.1,436.3z"/>
		</g>
		<g>
			<path d="M391.3,438.5c-2.3,2.7-5.2,4.8-8.2,6.5c0.1,0.1,0.1,0.1,0.2,0.2c3-1.7,5.9-3.8,8.1-6.5
				C391.4,438.6,391.3,438.5,391.3,438.5z"/>
		</g>
		<g>
			<path d="M393.4,440.1c-2.4,2.5-5.2,4.7-8.2,6.5c0.1,0.1,0.1,0.1,0.2,0.2c3-1.8,5.8-4.1,8.2-6.5
				C393.5,440.2,393.4,440.1,393.4,440.1z"/>
		</g>
		<g>
			<path d="M395.4,441.1C395.4,441.1,395.4,441.1,395.4,441.1c-2.4,2.9-5.2,5.3-8.4,7.2c0.1,0.1,0.1,0.1,0.2,0.2
				c3.2-1.9,6.1-4.4,8.5-7.3C395.6,441.1,395.5,441.1,395.4,441.1z"/>
		</g>
		<g>
			<path d="M397.6,441.6c-2.8,3-6,5.6-9.5,7.7c0.1,0.1,0.1,0.1,0.2,0.2c3.5-2.1,6.8-4.7,9.6-7.8
				C397.8,441.7,397.7,441.7,397.6,441.6z"/>
		</g>
		<g>
			<path d="M398.7,442.3c-3,2.9-6.4,5.5-10,7.6c0.1,0.1,0.1,0.1,0.2,0.2c3.7-2.1,7.1-4.7,10.1-7.7
				C398.8,442.4,398.8,442.4,398.7,442.3z"/>
		</g>
	</g>
	<path class="st10" d="M253.5,368.7c1.1,4.4,3.3,8.5,6.4,11.8c0.8,0.9,1.8,1.8,2.3,2.8c0.8,1.5,0.9,3.2,1,4.9c0.1,1-0.1,2.4-1.1,2.7
		c-1.1,0.3-1.9-1-2.2-2c-1.6-4.4-2.8-8.8-3.8-13.4"/>
	<path class="st10" d="M264.7,409.1c7.6,20.4,12.6,41.7,14.7,63.4"/>
	<path class="st10" d="M272.8,421.4c2.7,7.9,4.7,16,6,24.2"/>
	<path class="st10" d="M276.4,421.8c1.3,5.1,2.6,10.2,3.9,15.3"/>
	<path class="st10" d="M308.1,261.1c5.2,7,9.2,14.9,11.7,23.2"/>
	<path class="st10" d="M311.9,260.7c5.3,7.9,9.6,16.5,12.6,25.6c-0.4-0.2-0.7-0.6-0.7-1"/>
	<path class="st10" d="M316,262.4c5,7.4,8.9,15.5,11.7,23.9"/>
	<path class="st10" d="M320.4,264.8c4.3,7.3,7.7,15.1,10,23.2"/>
	<path class="st10" d="M324.4,266.9c2.8,5.3,5.3,10.9,7.2,16.6"/>
	<path class="st10" d="M373.1,272.7c5.7,8,10.7,16.5,14.7,25.5"/>
	<path class="st10" d="M376.3,271.3c5.6,8.3,10.5,17,14.6,26.1"/>
	<path class="st10" d="M379.6,270c4.5,7.7,8.6,15.6,12.3,23.7c0-0.3,0-0.6-0.1-0.9"/>
	<path class="st10" d="M382.4,267.5c4.2,8.3,8.3,16.6,12.5,24.9"/>
	<path class="st10" d="M386.4,266.5c4,7.8,8.1,15.7,12.1,23.5c-0.1-0.4-0.1-0.9-0.2-1.3"/>
	<path class="st10" d="M390.2,264.5c4.5,7.7,8.5,15.7,12,23.9c-0.3-0.6-0.6-1.1-0.8-1.7"/>
	<path class="st10" d="M395.5,263.4c-0.3,0.6,0.1,1.2,0.4,1.7c3.3,5.4,6.6,10.8,10,16.2"/>
	<path class="st10" d="M398.9,260.4c3.6,7.3,7.7,14.4,12.2,21.1"/>
	<path class="st10" d="M404.2,262.4c3.7,5.7,7.2,11.5,10.4,17.5"/>
	<path class="st10" d="M409.1,261.2c3.7,5.3,7,11,9.8,16.9"/>
	<path class="st10" d="M415.6,262.2c2.9,4.5,5.5,9.1,7.9,13.9"/>
	<path class="st10" d="M421.7,264.2c2.1,3.7,4.2,7.4,6.3,11.1"/>
	<path class="st10" d="M428.2,267.6c1.8,2.6,3.3,5.3,4.5,8.1"/>
	<path class="st10" d="M434.3,270.7c1.3,2.1,2.6,4.2,4,6.3"/>
	<path class="st10" d="M440.5,272.7c1.5,1.3,2.5,3.1,2.8,5.1"/>
	<path class="st10" d="M303.6,361.2c3.9,6,8.5,11.6,13.7,16.6"/>
	<path class="st10" d="M298.7,361c3.7,4.8,7.6,9.4,11.7,13.8"/>
	<path class="st10" d="M295.4,364.7c2.9,3.3,6,6.5,9.3,9.4"/>
	<path class="st10" d="M295.1,369c2.6,2.8,5.5,5.4,8.6,7.7"/>
	<path class="st10" d="M334,370.1c4.5,0.2,8.9,1.4,12.9,3.4"/>
	<path class="st10" d="M338.7,367.6c2.8,0.9,5.7,1.8,8.5,2.7"/>
	<path class="st10" d="M344.5,365.7c1.6,0,3.2,0.6,4.4,1.6"/>
	<path class="st10" d="M339,334.4c4,2.1,6.4,6.7,6.1,11.1"/>
	<path class="st10" d="M341.5,330.6c1.9-15.4,3.5-30.9,4.8-46.3"/>
	<path class="st10" d="M345.1,328.5c-0.4-2.4-0.2-4.9,0.4-7.2"/>
	<path class="st10" d="M342.4,540.4c0,0.4-0.7-0.1-0.4-0.4c0.2-0.3,0.7-0.2,1,0c12.8,5.3,26.2,8.8,40,10.5"/>
	<path class="st10" d="M353.7,540.7c12.6,3.9,25.3,7.3,38.2,10"/>
	<path class="st10" d="M364.9,540.5c13.5,4.4,27.3,7.9,41.3,10.2"/>
	<path class="st10" d="M374.1,536.9c12.9,4.3,25.9,8,39.1,11"/>
	<path class="st10" d="M384.9,536.5c13.4,5,27.2,8.8,41.3,11.4"/>
	<path class="st10" d="M394.1,535.1c12.9,4.3,26,8,39.2,11.1"/>
	<path class="st10" d="M404.3,532.7c10.9,4.4,22.1,7.8,33.5,10.4"/>
	<path class="st10" d="M412.2,531.6c6.4,3.1,13.3,5.1,20.1,7c4.6,1.3,9.1,2.6,13.7,3.8"/>
	<path class="st10" d="M417.3,529.9c10.9,4.1,22,7.9,33.1,11.4"/>
	<path class="st10" d="M431.6,524.4c11.5,4.5,23,8.8,34.7,12.8"/>
	<path class="st10" d="M424.7,525.1c2,1.8,4.6,2.9,7.2,3.9c9.3,3.7,18.7,6.8,28.4,9.4"/>
	<path class="st10" d="M441.5,520.3c8.4,3.5,16.7,7.1,25.1,10.6c1.8,0.7,3.6,1.5,5.5,1.7c0.2,0,0.3,0,0.4-0.1
		c0.1-0.1-0.1-0.3-0.2-0.2"/>
	<path class="st10" d="M449,518.3c9.7,3.9,19.5,7.7,29.4,11.4"/>
	<path class="st10" d="M453.3,514c9.5,4.8,19.5,8.5,29.8,11.2"/>
	<path class="st10" d="M461.3,511.3c6.6,1.9,12.8,4.8,18.9,7.8c2.9,1.3,5.7,2.7,8.6,4"/>
	<path class="st10" d="M467.7,507.7c7.9,3,15.8,6.3,23.5,9.7"/>
	<path class="st10" d="M473.5,504.9c6.5,2.8,13.1,5.7,19.6,8.5"/>
	<path class="st10" d="M482.4,502.5c5,2.7,10.2,4.9,15.7,6.6c-0.3-0.2-0.7-0.3-1-0.5"/>
	<path class="st10" d="M487.2,498.2c4.2,1.5,8.3,3.2,12.2,5.2"/>
	<path class="st10" d="M493.6,496.1c2.6,0.9,5.2,1.8,7.9,2.6"/>
	<path class="st10" d="M496.7,492.4c2.1,0.7,4.1,1.3,6.2,2"/>
	<path class="st10" d="M500.4,489.2c1.2,0.7,2.7,0.9,4.1,0.7"/>
	<path class="st10" d="M367.8,547.8c11.8,24,23.7,48,35.5,72"/>
	<path class="st10" d="M375.6,548.4c9.9,21.3,19.8,42.5,29.6,63.8"/>
	<path class="st10" d="M385.4,550.3c7.8,17.5,15.3,35.1,22.4,52.9"/>
	<path class="st10" d="M393.7,548.8c6,15.1,12.2,30.1,18.6,45"/>
	<path class="st10" d="M402.5,547.5c5.2,13.4,10.6,26.8,16.2,40.1"/>
	<path class="st10" d="M409.9,545.1c4.5,12.2,9.5,24.2,15.1,35.9"/>
	<path class="st10" d="M417.6,543c3.1,10.1,6.4,20,10,29.9"/>
	<path class="st10" d="M424.6,544c2.4,8.1,5.1,16.1,8.2,23.9"/>
	<path class="st10" d="M431.6,539.9c-0.5,0.2-0.4,0.9-0.2,1.4c2.3,7,4.6,14,6.9,21.1"/>
	<path class="st10" d="M437.9,536.9c1.7,7.2,3.6,14.3,5.7,21.4c0,0.2,0.3,0.2,0.4,0s-0.1-0.3-0.3-0.2"/>
	<path class="st10" d="M443.3,536.9c1.3,5.9,3,11.8,5.2,17.4c0.1,0.2,0.2,0.4,0.4,0.4c0.2,0,0.1-0.4,0-0.3"/>
	<path class="st10" d="M448.3,536.5c0.4,4.7,1.6,9.3,3.6,13.6"/>
	<path class="st10" d="M451.3,533.8c3.1,5,5.3,10.5,6.5,16.3"/>
	<path class="st10" d="M455.9,532.7c1.6,4,3.2,8,4.7,11.9"/>
	<path class="st10" d="M461.7,532.1c1.1,3.2,2.3,6.3,3.4,9.5"/>
	<path class="st10" d="M386.4,605.6c-0.4-0.2-1-0.4-1.1,0c9.4,4.5,19.7,6.8,30.1,6.8"/>
	<path class="st10" d="M384.6,600.1c8.8,4.5,18.8,6.9,28.7,6.8"/>
	<path class="st10" d="M382.4,594.7c7.8,2.9,15.9,5,24.1,6.1c0.2-0.2,0.2-0.6,0-0.9"/>
	<path class="st10" d="M381.6,590c7.7,3,16,4.4,24.2,4.2"/>
	<path class="st10" d="M380,584.1c6.4,1.4,12.8,2.8,19.3,4.1c0.7,0.1,1.7,0,1.7-0.7"/>
	<path class="st10" d="M377.5,578.9c6.9,2.5,14.2,3.6,21.5,3.4"/>
	<path class="st10" d="M373.4,572c6.8,2.9,14.1,4.7,21.5,5.3c0.2,0,0.4,0,0.6-0.1c0.1-0.2-0.1-0.5-0.2-0.3"/>
	<path class="st10" d="M367.4,564.8c3.4,1,6.9,2,10.3,3c5.2,1.5,10.4,3,15.8,2.8"/>
	<path class="st10" d="M365.6,559.7c-0.1,0.5,0.5,0.8,0.9,0.9c6.9,1.9,14,2.8,21.2,2.7"/>
	<path class="st10" d="M361.9,554.1c6.4,1.9,12.7,3.7,19.2,5.1c1.9,0.4,4,0.8,5.9,0.2c-0.5-0.4-1-0.7-1.6-0.8"/>
	<path class="st10" d="M363.9,551.9c6.1,2.1,12.6,2.9,19.1,2.3"/>
	<path class="st10" d="M285.3,503.5c1,7.6,4.6,14.9,10.2,20.1s13,8.6,20.6,9.2"/>
	<path class="st10" d="M303.2,464.8c2.2,2.6,5.5,4,8.7,5c8.9,2.8,18.5,3.4,27.6,1.5"/>
	<path class="st10" d="M305.3,471.4c6.8,2.8,14.1,4.1,21.5,4"/>
	<path class="st10" d="M305.8,477.6c3.6,1.3,7.5,1.6,11.3,0.8"/>
	<path class="st10" d="M487.4,212.8c4.9,10.2,8.3,21.1,9.9,32.3"/>
	<path class="st10" d="M492.8,211.9c3.9,10.8,6.9,21.9,9.1,33.2"/>
	<path class="st10" d="M496.8,210.9c6.4,13.5,10.4,28,11.8,42.9"/>
	<path class="st10" d="M501.3,210.4c6.3,15.7,11.1,31.9,14.6,48.4"/>
	<path class="st10" d="M352.1,237.9c-3.3,9.6-1.7,20.7,4.1,29.1"/>
	<path class="st10" d="M345.7,246.1c-0.7,6.5,0.6,13.1,3.5,18.9"/>
	<path class="st10" d="M284.1,201.2c-3.6,9.7-7.1,19.4-10.7,29.1"/>
	<path class="st10" d="M285.7,205.7c-1.4,5.1-2.8,10.3-4.2,15.4"/>
	<path class="st10" d="M262.7,253.8c1.5,11.1,9.8,20,18.2,27.5"/>
	<path class="st10" d="M266.4,252.8c3.2,9.9,9.6,18.8,18.1,24.9"/>
	<path class="st10" d="M277.1,261.6c2.8,3.5,5.7,7,8.5,10.4"/>
	<path class="st10" d="M272.2,299.2c-1.4,8-4,15.8-7.7,23"/>
	<path class="st10" d="M275.6,300.2c-1.8,7.9-4.3,15.6-7.6,23"/>
	<path class="st10" d="M279.1,304.3c-0.4,3.2-1.4,6.3-2.9,9.2"/>
	<path class="st10" d="M380.2,368c-4.9-7.6-10.3-14.8-16.3-21.6C369.2,351.7,376,361.8,380.2,368z"/>
	<path class="st10" d="M367.6,342.7c3.8,5,7.7,10.1,11.5,15.1"/>
	<path class="st10" d="M533.4,443.6c-4.8,9.8-10,19.4-15.4,28.8"/>
	<path class="st10" d="M533.1,451.9c-5.3,10-10.3,20-15.2,30.2"/>
	<path class="st10" d="M533,464.5c-0.7,0.6-1.2,1.5-1.6,2.4c-5.6,12.6-10.9,25.4-15.7,38.4"/>
	<path class="st10" d="M533.4,478.4c-4.6,13.3-9.1,26.6-13.5,39.9"/>
	<path class="st10" d="M535.6,490.2c-4.4,11.7-8.2,23.6-11.5,35.7"/>
	<path class="st10" d="M537.6,502.9c-4.3,11.7-7.7,23.7-10.3,35.9"/>
	<path class="st10" d="M556.4,356.4c-0.3,5.1-1.7,10.2-4,14.8"/>
	<path class="st10" d="M562.6,351.8c-1,5.6-2.7,11.1-4.9,16.4"/>
	<path class="st10" d="M568,350.8c-0.9,5.8-2.6,11.4-5,16.7"/>
	<path class="st10" d="M572.9,351.3c-1.4,8.4-4.3,16.6-8.7,24"/>
	<path class="st10" d="M578.1,354.4c-2.3,9.1-6,17.9-10.9,26"/>
	<path class="st10" d="M582.8,357.5c-3.1,12.7-9.6,24.6-18.6,34.2"/>
	<path class="st10" d="M586.1,363.6c-2.8,10.1-8,19.5-15.1,27.2"/>
	<path class="st10" d="M586.6,372.2c-3.5,11.4-9.8,21.8-18.2,30.2"/>
	<path class="st10" d="M409.1,314.5c-6.4-3.2-12.2-7.9-16.6-13.5C396.9,307.5,402.3,310.4,409.1,314.5z"/>
	<path class="st10" d="M391.3,305.8c4.7,6,10.5,11.2,17.1,15.1"/>
	<path class="st10" d="M391.1,312.5c4.2,3.4,8.4,6.9,12.7,10.3"/>
	<path class="st10" d="M325.1,309.3c-4.5,6.4-11.2,11.3-18.7,13.4"/>
	<path class="st10" d="M323.9,316.8c-3.1,2.1-6.2,4.3-9.3,6.4"/>
	<path class="st10" d="M321.2,322.7c-2.1,1.9-4.5,3.5-7.1,4.6"/>
</g>
<g id="Layer_2">
	<path class="st10" d="M485.5,375.7c-6.3,7.9-11.4,16.8-15.2,26.2"/>
	<path class="st10" d="M486.9,382.3c-3.7,5.6-7.1,11.3-10.4,17"/>
	<path class="st10" d="M488.2,388.1c-2.1,1.8-3.9,4.1-5.1,6.7"/>
	<path class="st10" d="M527.5,436.4c-2.6-0.6-3.8-3.7-3.3-6.3c0.5-2.6,2.4-4.6,4.1-6.6c4-4.4,9.1-9,15-8.5"/>
	<path class="st10" d="M535.6,422.7c-3.3,1.6-5.7,5.1-6,8.8"/>
	<path class="st10" d="M536.5,390.3c2.2,3.9,3.2,8.5,2.9,13c-0.1,0.7-0.2,1.5-0.5,2.1c-0.4,0.6-0.9,1-1.4,1.3
		c-4.1,3-7.8,6.5-11,10.3"/>
	<path class="st10" d="M529.6,382.9c6.1-0.8,11.8-4.7,14.7-10.2"/>
	<path class="st10" d="M584.4,395.8c-5.3,12.5-14.5,23.3-26,30.4"/>
	<path class="st10" d="M492.5,632.2c7.2-24.8,14.4-49.7,21.6-74.5"/>
	<path class="st10" d="M513.1,577c-1.9,7.5-3.9,15-5.8,22.5"/>
	<path class="st10" d="M516.8,577c-0.5,2.4-1,4.8-1.5,7.1"/>
</g>
</svg>
