<?xml version="1.0" encoding="UTF-8"?>
<svg xmlns="http://www.w3.org/2000/svg" viewBox="0 0 1024 1024">
  <defs>
    <style>
      .cls-1, .cls-2, .cls-3, .cls-4 {
        fill: #fff;
      }

      .cls-2, .cls-5, .cls-6, .cls-7, .cls-3, .cls-8, .cls-4, .cls-9, .cls-10, .cls-11 {
        stroke-linecap: round;
        stroke-linejoin: round;
      }

      .cls-2, .cls-5, .cls-9 {
        stroke-width: 2px;
      }

      .cls-2, .cls-7, .cls-3, .cls-4, .cls-11 {
        stroke: #151922;
      }

      .cls-5, .cls-6, .cls-8, .cls-9, .cls-10 {
        stroke: #fff;
      }

      .cls-5, .cls-8, .cls-10, .cls-12, .cls-11 {
        fill: #151922;
      }

      .cls-13 {
        fill: #ee4b2b;
      }

      .cls-6, .cls-7, .cls-9, .cls-14 {
        fill: none;
      }

      .cls-3, .cls-8, .cls-11 {
        stroke-width: 3px;
      }
    </style>
  </defs>
  <g id="background">
    <g>
      <polygon class="cls-13" points="179.58 817.89 201.76 815.98 168.71 815.98 179.58 817.89"/>
      <path class="cls-13" d="M317.27,819.15c14.23-1.04,28.76-2.1,43.54-3.18h-63.06l19.52,3.18Z"/>
      <polygon class="cls-13" points="201.76 815.98 214.24 814.9 75.09 793.74 75.09 799.51 168.71 815.98 201.76 815.98"/>
      <path class="cls-13" d="M948.91,799.69v-16.29c-86.8,5.36-321.16,19.82-528.24,32.58l528.24-16.29Z"/>
      <polygon class="cls-13" points="948.91 751.6 948.91 662.79 948.91 633.51 886.28 633.51 854.28 649.51 847.13 649.51 847.13 631.47 836.57 631.47 833.77 631.47 813.09 631.47 810.28 631.47 788.57 631.47 788.57 534.79 772.23 534.79 772.23 512 728.32 534.79 691.89 534.79 691.89 489.43 681 489.43 681 469.43 667.3 469.43 664.49 469.43 644.23 469.43 644.23 490.87 612.57 490.87 612.57 408.83 503.03 408.83 503.03 349.51 380.19 349.51 377.38 349.51 362.36 349.51 362.36 371.79 341.51 371.79 338.7 371.79 325.6 371.79 325.6 409.17 325.6 409.17 325.6 557.94 300.91 557.94 298.11 557.94 285.6 557.94 282.79 557.94 264.4 557.94 261.6 557.94 243.55 557.94 243.55 607.98 228.76 613.86 227.51 593.62 214.58 593.62 213.54 619.91 200.13 625.24 184.85 630.45 117.26 630.45 75.09 662.79 75.09 779.75 264.52 810.57 948.91 751.6"/>
      <path class="cls-13" d="M297.75,815.98h63.06c222.38-16.22,499.12-36.35,588.1-42.83v-14.29l-663.89,55.04,12.72,2.07Z"/>
    </g>
  </g>
  <g id="base">
    <path class="cls-10" d="M469,862.33l-7.75,21.37c-8.54-.11-12.68,1.81-14.66,3.45,0,0,6.15-10.67,15.49-29.66,6.12-12.45,4.52-24.71,2.56-31.7,1.44,.58,3.1,1.16,4.94,1.62,.53,3.09,1.14,6.73,1.72,10.21,1.37,8.3,.57,16.81-2.29,24.71Z"/>
    <path class="cls-10" d="M485.63,827.62l-3.91,25.51-11.29,32.2c-2.82-.94-5.76-1.56-8.71-1.62-.16,0-.32,0-.47,0l7.75-21.37c2.86-7.9,3.66-16.41,2.29-24.71-.58-3.47-1.19-7.11-1.72-10.21,4.51,1.17,10.09,1.71,16.06,.21Z"/>
    <path class="cls-10" d="M493,891.47l-2.14,6.47s-9.25-8.88-20.43-12.62l11.29-32.2,3.91-25.51c3.4-.86,6.93-2.38,10.45-4.84l-8.83,60.91s-1.88,3.64,5.74,7.78Z"/>
    <path class="cls-5" d="M501.32,786.65l4.76,26.31c-3.25,4.28-6.63,7.48-9.99,9.83-3.53,2.46-7.06,3.98-10.45,4.84-5.97,1.5-11.56,.96-16.06-.21-1.85-.46-3.5-1.04-4.94-1.62-3.62-1.47-5.8-2.98-5.8-2.98l-43.88-143.4,10.69-111.45,77-1.08-19.87,107.1c-.61,3.31-.63,6.69-.02,10,8.93,23.84,14.2,61.56,18.58,102.66Z"/>
    <path class="cls-4" d="M490.86,897.94s-5.27,36.76-39.01,22.17c-3.17-1.38-11.09-6.63-11.23-16.66-.05-3.93,1.08-8.6,4.16-14.05,.1-.17,.48-1.15,1.81-2.25,1.99-1.64,6.12-3.56,14.66-3.45,.15,0,.31,0,.47,0,2.95,.06,5.89,.68,8.71,1.62,11.18,3.73,20.43,12.62,20.43,12.62Z"/>
    <path class="cls-4" d="M496.47,893.1l-4.57,18.45c-4.7,17.43-22.32,22.77-37.37,18.22-15.05-4.56-13.76-15.13-13.76-15.13l-.16-11.2c.14,10.04,8.06,15.29,11.23,16.66,33.75,14.59,39.01-22.17,39.01-22.17l2.14-6.47c.99,.54,2.14,1.09,3.47,1.63Z"/>
    <line class="cls-7" x1="440.61" y1="903.45" x2="440.6" y2="902.9"/>
    <path class="cls-6" d="M445.83,697.11c1.26-1.04,22.34-9.25,28.01-23.88"/>
    <path class="cls-6" d="M465.7,693.76s4.32-1.85,8.3-8.8"/>
    <path class="cls-10" d="M547.95,964.97c-1.4-3.2-7.24-13.54-24.64-15.96l-3.88-19.25c-.96-4.74-1.2-9.6-.72-14.42l2.23-22.54,9.01,.67c-1.7,12.45,1.41,39.85,1.41,39.85,7.87,10.03,14.94,27.41,16.59,31.64Z"/>
    <path class="cls-10" d="M523.32,949.01c-2.5-.36-5.24-.54-8.24-.51-1.87,.02-3.6,.12-5.22,.29l1.37-17.43c.39-4.98-.03-9.97-1.25-14.8-1.83-7.26-4.62-18.25-6.39-25.06l17.35,1.31-2.23,22.54c-.48,4.82-.23,9.68,.72,14.42l3.88,19.25Z"/>
    <path class="cls-10" d="M511.23,931.36l-1.37,17.43c-18.15,1.99-21.09,13.53-21.56,17.85,.82-15.48,5.63-21.59,5.63-21.59,3.69-6.52,.31-24.35,.31-24.35,3.14-7.36-2.73-30.11-2.73-30.11l12.07,.9h.01c1.78,6.82,4.56,17.81,6.39,25.06,1.22,4.83,1.64,9.83,1.25,14.8Z"/>
    <path class="cls-8" d="M592.69,608.49l-3.14,16.04-51.67,264.59s-.31,13.8-27.47,8.04c-6.07-1.28-10.6-2.67-13.95-4.06-1.34-.54-2.48-1.09-3.47-1.63-7.61-4.15-5.73-7.78-5.73-7.78l8.83-60.91,5.24-36.15,10.48-72.33,4.63-91.48,1.27-25.26,1.77-35.03,73.22,45.95Z"/>
    <path class="cls-6" d="M520.05,709.35s22.41,32.12,22.42,32.63"/>
    <path class="cls-6" d="M533.1,715.62s19.56,20.77,19.56,20.52"/>
    <path class="cls-8" d="M513.6,202.14c-6.71,.47-13.27-.04-19.51-1.41,.62,6.11,1.39,12.04,2.3,17.79,.17,1.13,.36,2.26,.55,3.39,4.46,26.65,11.66,49.61,20.05,70.87,6.41-26.56,9.9-52.86,11.79-73.5,.01-.17,.02-.34,.04-.5,.68-7.48,1.15-14.19,1.48-19.9-5.3,1.74-10.89,2.85-16.71,3.25Zm86.12,21.88l-42.23-21.64c1.95,5.91,4.42,15.42,4.87,26.83,0,0-6.01-2.54-13.51-5.05,5.43,4.64,13.25,12.2,17.29,20.32,0,0-36.16,75.01-65.09,102.31,.11-3.45,.18-5.31,.18-5.31,3.16-7.42,5.99-15.12,8.53-22.94h0c-13.83-19.04-44.47-72.91-44.47-72.91,3.82-6.67,11.97-14.28,18.21-19.42-9.33,3.37-18.38,7.17-18.38,7.17-.27-7.79,3.4-22.9,5.67-31.42l-49.8,27.69c6.33,145.41,.62,278.01-23.22,391.27,33.19,2.81,65.82,4.96,99.03,17.08,1.25-4.37,2.45-8.77,3.58-13.19,4.87-18.93,8.62-38.26,11.18-58.05,1.77,10.8,3.8,21.15,6.13,30.81,3.53,14.62,7.76,27.68,12.83,38.35,19.91-2.28,39.55-6.27,59.02-11.39,11.17-2.94,22.29-6.25,33.36-9.81-32.52-97.08-23.2-390.68-23.2-390.68Z"/>
    <path class="cls-4" d="M531.19,188.95c-.22,15.04-.58,32.75-1.13,52.46-.27,.4-.54,.8-.81,1.17-.27,.37-.55,.77-.83,1.12-.2,.27-.39,.51-.59,.75-.65,.8-1.32,1.52-2,2.19-.23,.24-.46,.45-.69,.67-1.01,.91-2.05,1.69-3.12,2.31-.27,.19-.56,.35-.84,.49-.31,.19-.64,.35-.97,.49-.3,.14-.61,.27-.91,.38-.62,.25-1.24,.44-1.86,.58-.35,.08-.71,.17-1.05,.23-.72,.12-1.44,.18-2.15,.19-6.28,.09-12.79-3.91-18.48-12.01-1.08-15.18-2.03-30.84-2.82-46.97,6.64,3.76,13.58,5.24,20.66,4.17,6.14-.96,12.03-3.76,17.59-8.21Z"/>
    <path class="cls-4" d="M537.99,231.21c-.02,.17-5.88,76.97-5.88,76.97l-19.12,1.06s-22.77-74.29-23.09-75.45c14.57,4.36,34.99,3.81,48.1-2.57Z"/>
    <path class="cls-10" d="M562.37,229.22s-6.02-2.54-13.51-5.05c-6.58-2.22-14.29-4.42-20.08-4.87,.02-.17,.03-.34,.04-.5,.68-7.48,1.15-14.2,1.48-19.9h0c3.87-1.27,7.58-2.87,11.1-4.76l16.09,8.25c1.95,5.91,4.42,15.43,4.88,26.83Z"/>
    <path class="cls-10" d="M496.94,221.91c-3.75,.93-8.62,2.56-13.42,4.3-9.32,3.37-18.38,7.18-18.38,7.18-.28-7.8,3.39-22.91,5.66-31.42l10.03-5.58c4.22,1.88,8.66,3.35,13.25,4.35,.63,6.11,1.4,12.04,2.3,17.79,.18,1.14,.36,2.27,.56,3.39Z"/>
    <path class="cls-12" d="M530.8,151.1c-.22,15.04,3.09,32.97,2.54,52.68-12.09,8.13-26.72,10.94-40.26,6.77-1.08-15.18,.27-39.27-.53-55.4,6.64,3.76,13.58,5.24,20.66,4.17,6.14-.96,12.03-3.76,17.59-8.21Z"/>
    <path class="cls-9" d="M511.58,566.76c-13.71-83.9-11.3-194.63-10.52-219.96"/>
    <path class="cls-6" d="M496.82,637.99c6.63-23.1,11.6-46.84,14.77-71.23"/>
    <circle class="cls-6" cx="519.54" cy="502.86" r="6.55"/>
    <circle class="cls-6" cx="517.05" cy="426.55" r="6.55"/>
    <circle class="cls-6" cx="517.54" cy="359.63" r="6.55"/>
    <path class="cls-9" d="M552.89,446.14c18.81,12.42,34.42,26.76,46.82,43.01"/>
    <path class="cls-6" d="M424.32,488.19c-.86,1.14-1.72,2.28-2.55,3.45"/>
    <path class="cls-9" d="M467.37,447.34c-3.11,2.18-6.13,4.42-9.06,6.71"/>
    <path class="cls-8" d="M595.92,222.38l30.44,17.95c7.83,12.15,1.54,37.26,1.54,37.26l17.72,98.31,7.42,19.3-14.31,36.2c-16.22,8.66-30.58,4.26-30.58,4.26,0,0-62.17-63.99-63.04-65.51,0,0-9.45-5.83-.39-28.08,9.05-22.26,27.16-17.41,27.16-17.41l26.73,22.1c-3.3-18.34-2.98-61.57-2.98-61.57"/>
    <path class="cls-9" d="M598.6,346.76l17.01,14.06s19.72,9.6,17.91,26.3"/>
    <path class="cls-9" d="M590.44,288.41c5-3.89,12.5-11.45,19.33-17.04"/>
    <path class="cls-8" d="M429.52,289.51l1.25,89.34c2.73,1.47,4.53,2.8,4.53,2.8l23.01,72.4h0c-13.23,10.32-24.55,21.7-33.99,34.15l-45.5-91.45c-9.89-13.65-.1-25.03,.67-25.29,.77-.27,17.36-91.4,17.36-91.4-5.89-19.07-.5-36-.5-36l28.66-16.75"/>
    <path class="cls-9" d="M391.95,386.85l24.92-12.09c4.87-.22,10.21,2.09,13.89,4.09"/>
    <path class="cls-9" d="M416.32,280.79s15.05,8.65,21.13,13.69"/>
    <path class="cls-9" d="M404.51,371.35s17.53-8.49,26.26,7.49"/>
    <path class="cls-10" d="M566.15,244.49s-36.16,75.01-65.09,102.31c.1-3.45,.18-5.31,.18-5.31,3.17-7.41,6-15.12,8.53-22.94h0c2.74-8.5,5.13-17.14,7.21-25.75,6.42-26.56,9.9-52.86,11.79-73.49,5.79,.45,13.5,2.65,20.08,4.87,5.43,4.63,13.25,12.21,17.3,20.32Z"/>
    <path class="cls-7" d="M501.06,346.8c-1.51,1.42-2.99,2.71-4.46,3.86"/>
    <path class="cls-10" d="M516.98,292.79c-2.08,8.61-4.47,17.25-7.21,25.74-13.83-19.02-44.46-72.9-44.46-72.9,3.82-6.67,11.96-14.29,18.21-19.43,4.81-1.74,9.67-3.37,13.42-4.3,4.45,26.65,11.65,49.61,20.04,70.88Z"/>
    <path class="cls-12" d="M757.25,82.37c1.88-4.51,.26-10.03-3.62-12.88-.31-.14-.58,.1-.6,.47-.66,4.33-1.67,8.6-3.06,12.74-3.2,9.47-8.33,18.28-15.01,25.72-.28,.35-.88,.1-.87-.32-.15-6.52-4.57-12.76-10.66-15.08-6.09-2.32-13.54-.6-18,4.16l-.08-.75,10.67,7.34c.23,.16,.29,.47,.13,.7-2.44,2.49-12.47,12.61-14.62,14.79,0,0-1.46,1.47-1.46,1.47-.29,.29-.73,.74-.97,.98-.35,.35-.96,.15-1.08-.31-.09-.28,.06-.47,.12-.68,1.31-3.69-1.39-8.04-5.02-9.27-5.14-2.02-14.96,.07-19.04,3.8-7.17,6.59-1.46,15.15,2.33,21.9,7.99,14.85,8.41,32.34,7.35,48.75-1.49,13.66,.84,32.4-18.35,31.75-5.5-.1-10.97-1.61-16.41-.68-2.61,.47-5.26,1.51-6.85,3.59-3.34,3.95-2.8,11.79,3.62,11.47,6.24-.89,6.17-7.94,5.76-12.86-1.17-10.78-8.82-20.77-19.21-24.13-.27-.08-.42-.38-.32-.65,1.91-5.28,15.01-41.61,16.6-46.01,0,0,.44-1.21,.44-1.21l.22-.61c.29-.69-.47-1.48-1.16-1.2-.33,.17-1.07,.43-1.53,.24-1.18-.28-1.82-1.77-1.15-2.79,.76-1.13,1.5-2.06,2.22-3.18,3.8-5.66,6.81-11.86,8.91-18.34,2.32-7.36,5.9-23.14,1.61-29.7-2.69-4.54-9.7-4.76-10.58,1.16-.34,5.18,3.12,9.76,3.17,14.97,.13,4.18-4.45,6.79-8,4.67-3.15-1.79-5.2-4.84-6.72-8.02,0,0,.83,.12,.83,.12-10.75,12.33-16.7,28.76-16.35,45.12,.01,.34-.34,.59-.65,.49-3.78-1.2-5.27-5.6-4.61-9.2,1.02-8.17,11.57-11.3,16.82-4.91,5.59,6.8,1.79,14.41-5.41,17.88-3.24,1.67-6.89,1.93-9.83,3.6-4.85,2.57-4.71,8.93-2.8,13.4,2.03,4.86,5.78,8.74,7.55,13.83,1.14,3.37,1.5,7.48-.58,10.58-4.01,5.5-10.48,3.92-13.68-1.5-1.97-2.86-3.46-6.1-5.96-8.49-3.75-3.65-9.73-3.36-14.18-1.1-3.05,1.51-5.52,4.05-7.55,6.82-2.04,2.79-3.66,5.89-5.29,8.99l-.07-.56c13.01,15.11,16.14,37.91,7.44,55.88-2.4,4.91-8.79,5.06-11-.27-1.92-3.78-2.6-8.53-6.67-10.6-5.71-3.22-13.06-.92-17.11,3.91-11.18,12.46-7.05,38.92-28.35,40.92-4.41,.49-8.8,.15-13.04,.88-3.16,.59-6.17,1.83-8.84,3.61-4.39,3.03-7.95,7.4-9.86,12.4-1.63,3.97-2.07,8.38-1.42,12.59l-.13-.26c1.43,1.57,5.4-5.67,8.33-2.35,1.35,1.6,1.8,3.65,2.27,5.59,.06,.27-.11,.54-.38,.6-.27,.06-.54-.11-.6-.38-.46-1.76-.83-3.73-2.02-5.11-2.63-2.51-5.51,4.9-8.33,2.36-2.09-10,3.31-20.61,11.57-26.25,2.79-1.86,5.93-3.14,9.23-3.76,4.4-.75,8.82-.41,13.1-.89,9.59-.68,14.65-8.03,17.42-16.51,2.92-8.17,4.28-17.37,10.3-24.08,4.37-5.18,12.2-7.56,18.34-4.11,4.26,2.1,5.19,7.2,7.07,11.02,1.85,4.48,7.05,4.58,9.22,.28,8.53-17.6,5.45-39.99-7.3-54.79-.14-.16-.16-.38-.07-.56,1.62-3.1,3.27-6.24,5.37-9.11,2.09-2.85,4.65-5.5,7.91-7.12,4.73-2.43,11.28-2.69,15.31,1.27,2.6,2.48,4.11,5.76,6.1,8.65,2.84,4.81,8.42,6.42,12.03,1.5,1.89-2.83,1.5-6.59,.46-9.69-2.32-6.52-8.36-11.74-8.81-19.02-.42-3.63,1.15-7.67,4.51-9.41,3.23-1.8,6.86-2.04,9.87-3.62,6.58-3.17,10.28-10.05,5.1-16.33-4.71-5.74-14.17-2.94-15.07,4.41-.57,3.17,.65,7.03,3.93,8.09,0,0-.65,.49-.65,.49-.36-16.62,5.67-33.27,16.59-45.8,.18-.21,.5-.23,.71-.05,1.84,3.44,4.37,7.89,8.63,8.36,1.52,.05,3.05-.87,3.78-2.2,1.11-2.23,.25-4.81-.41-7.13-.98-3.32-2.51-6.59-2.23-10.19,.23-3.91,4.68-6.5,8.26-5.04,5.36,2.09,6.57,8.53,6.27,13.65-.52,15.12-5.83,29.96-14.84,42.08-.43,.62,.24,1.5,.94,1.31,.13-.02,.23-.09,.54-.22,1.14-.43,2.46,.44,2.55,1.64,.08,.46-.19,1.03-.33,1.45,0,0-.44,1.21-.44,1.21-.54,1.48-2.06,5.72-2.62,7.26,0,0-13.98,38.75-13.98,38.75l-.32-.65c2.68,.88,5.2,2.17,7.5,3.8,6.84,4.91,11.49,12.81,12.41,21.18,.21,4.06,.66,9.18-2.68,12.13-2.17,2.07-5.78,2.53-8.22,.64-3.77-2.83-2.88-8.62-.27-11.91,1.79-2.33,4.67-3.46,7.46-3.96,5.56-.96,11.09,.56,16.6,.67,9.89,.39,14.63-4.86,15.86-14.36,.71-5.43,1.08-10.98,1.48-16.45,1.04-16.32,.66-33.52-7.24-48.21-2.55-4.86-6.14-9.71-5.89-15.53,.38-6.03,5.78-10.16,11.32-11.31,4.01-1.1,8.49-1.79,12.52-.26,4.2,1.45,7.26,6.5,5.5,10.82,0,.02,.04-.13,0-.2-.03-.09-.08-.16-.16-.21-.11-.07-.31-.05-.41,.05-.02,.02,.02-.02,.03-.03l.18-.18,.73-.74,1.46-1.47c2.35-2.37,12.11-12.25,14.56-14.72,0,0,.07,.76,.07,.76l-10.67-7.34c-.25-.17-.29-.54-.08-.75,4.76-5.07,12.58-6.87,19.08-4.41,6.49,2.49,11.12,9.04,11.3,15.99l-.87-.32c3.28-3.68,6.22-7.66,8.69-11.93,4.67-7.98,7.78-16.86,9.14-26,.02-.11,.06-.42,.18-.61,.34-.65,1.21-.95,1.87-.58,4.22,2.93,5.83,9.33,3.16,13.75h0Z"/>
    <g>
      <path class="cls-3" d="M569.81,165.57c-6.39,12.07-16.27,22.08-28.4,28.57-3.52,1.89-7.23,3.48-11.1,4.75h0c-5.3,1.74-10.89,2.85-16.71,3.26-6.7,.46-13.26-.04-19.51-1.42-4.59-1-9.04-2.46-13.25-4.35-11.17-4.96-20.83-12.84-27.96-22.72h0c0-8.62,3.9-14.58,3.9-14.58,0,0-12.52-29.33,11.55-40.22,24.07-10.88,40.04,7.72,40.04,7.72,0,0,13.26-20.62,38.61-13.16,25.34,7.46,16.98,38.24,16.98,38.24,0,0,4.69,5.36,5.86,13.9Z"/>
      <path class="cls-11" d="M569.81,165.57c-1.18-8.54-5.86-13.9-5.86-13.9,0,0,8.36-30.78-16.98-38.24-25.35-7.46-38.61,13.16-38.61,13.16,0,0-15.97-18.6-40.04-7.72-24.07,10.89-11.55,40.22-11.55,40.22,0,0-3.9,5.96-3.9,14.57-7.27-10.07-11.9-22.23-12.83-35.52-2.62-38,26.04-70.92,64.03-73.55,37.99-2.63,70.91,26.04,73.54,64.03,.93,13.31-2,25.99-7.8,36.96Z"/>
      <circle class="cls-11" cx="420.81" cy="89.78" r="37.33"/>
      <circle class="cls-11" cx="590.01" cy="78.07" r="37.33"/>
      <rect class="cls-4" x="421.9" y="120.84" width="6.89" height="15.57" rx="2.39" ry="2.39" transform="translate(-7.87 29.68) rotate(-3.96)"/>
      <ellipse class="cls-12" cx="511.46" cy="171.43" rx="12.13" ry="7.66" transform="translate(-10.62 35.73) rotate(-3.96)"/>
      <path class="cls-12" d="M469.42,153.35s12.9,5.25,22.64-5.66l-1.74,4.47s-7.86,8.48-20.9,1.19Z"/>
      <path class="cls-12" d="M550.62,147.73s-12.06,6.98-23.21-2.49l2.34,4.19s8.95,7.31,20.87-1.7Z"/>
      <path class="cls-7" d="M495.84,139.49s4.79,2.61,5.26,7.57"/>
      <path class="cls-7" d="M505.91,192.54s3.49-6.9,14.13-6.61"/>
      <path class="cls-7" d="M512.95,192.95s2.35,.22,4.68-1.22"/>
    </g>
    <path class="cls-4" d="M520.36,318.81c-1.88,.34-3.53,1.77-4.13,3.59s-.13,3.95,1.18,5.34c-.97,.97-1.24,2.48-1.01,3.83s.87,2.6,1.51,3.81c1.51,2.88,3.02,5.77,4.53,8.65,.86,1.64,1.77,3.35,3.3,4.39s3.87,1.15,5.05-.28c2.72,4.82,5.52,9.73,9.68,13.4s9.98,5.9,15.3,4.38c2.9-.83,5.41-2.69,7.58-4.8,9.19-8.95,8.9-22.78,5.14-35.04,.23-.01-10.04-13.86-15.4-20.74-1.45-1.86-3.02-3.81-5.25-4.6-1.73-.61-3.63-.43-5.45-.23-10.99,1.15-21.98,2.31-32.97,3.46-1.21,.13-2.49,.28-3.44,1.05s1.09,5.36,2,6.16c-3.64,.05-7.82,1.49-7.81,3.21,.03,2.49,3.22,4.33,9.5,4.46,3.29,.07,7.41,.02,10.7-.03Z"/>
    <path class="cls-7" d="M541.12,307.91c-11.13,1.1-22.57,2.36-33.15,3.27"/>
    <path class="cls-7" d="M520.36,318.81l15.5-3.74s5.27-1.92,8.65,2.05"/>
    <path class="cls-7" d="M517.41,327.75l15.11-3.88s5-1.43,8.36,1.24"/>
    <path class="cls-7" d="M526.9,334.4s4.2,1.64,8,.14"/>
    <path class="cls-7" d="M530.79,348.15s1.89-7.68-1.16-13.09"/>
    <path class="cls-4" d="M496.96,327.16s-1.51,1.43,.04,3.06,3.39,.59,3.39,.59l18.37-20.65s1.51-2.78-1.06-3.39-3.65,.99-3.65,.99l-17.09,19.39Z"/>
    <path class="cls-7" d="M500.4,330.82s.87-1.44-.39-2.83-3.04-.83-3.04-.83"/>
    <path class="cls-1" d="M583.96,216.49c4.24,11.35,4.62,24.16,.62,35.63-1.05,2.91-2.26,6.02-4.96,7.85-3.22,2.18-6.92,.25-8.4-2.98-1.85-3.43-2.43-7.65-5.66-9.97-4.64-3.33-11.37-2.42-15.58,1.26-9.32,8.04-9.08,21.58-14.59,31.98-2.66,5.61-8.14,10.33-14.51,11.13-5.81,1-12.17,.03-17.59,1.97-7.18,2.43-12.86,8.61-15.29,15.73-1.19,3.59-1.56,7.42-.93,11.1l-.4-.78s-.12-.09-.21-.07c2.04-1.07,4.28-4.42,7.26-3.19,2.6,1.28,3.16,4.54,3.81,6.97,.18,.81-.32,1.61-1.13,1.8-.82,.19-1.63-.33-1.8-1.15-.41-1.61-.78-3.43-1.77-4.64-.28-.27-.29-.22-.45-.23-1.54,.47-2.71,2.18-4.31,3-.41,.2-.88,.45-1.64,.45-1.04-.03-2.14-.64-2.33-1.63-.68-4.23-.2-8.57,1.17-12.55,2.81-7.93,9.12-14.63,17.18-17.28,7.67-2.71,16.24,.11,23.34-3.58,7.01-3.62,9.56-11.91,11.83-19.06,2.35-7.63,4.63-16.09,11.19-21.4,4.82-4.12,12.5-5.05,17.75-1.16,4.4,3.06,4.16,9.19,7.62,12.76,7.76,5.3,11.25-13.33,11.76-18.29,.81-7.87-.2-15.9-2.88-23.34-.09-.25,.04-.53,.29-.62,.25-.09,.53,.04,.62,.29h0Z"/>
    <path class="cls-2" d="M548.32,965.92s-.21,9.19-27.59,10.77c-27.39,1.57-32.51-8.4-32.51-8.4,.01-.47,.04-.93,.06-1.39,0-.08,0-.16,.02-.25,.47-4.33,3.41-15.86,21.56-17.85,1.62-.17,3.35-.28,5.22-.29,3-.02,5.74,.16,8.24,.51,17.4,2.42,23.23,12.76,24.64,15.96,.04,.08,.07,.16,.09,.23,.09,.23,.16,.4,.21,.52,.05,.13,.07,.2,.07,.2Z"/>
    <path class="cls-2" d="M548.32,965.92l.18,13.1s-8.92,7.28-34.09,8.48c-25.18,1.2-26.07-10.26-26.07-10.26l-.13-8.95s5.12,9.97,32.51,8.4c27.38-1.57,27.59-10.77,27.59-10.77Z"/>
    <path class="cls-6" d="M505.47,945.37s8.7-4.81,16.02-5.39"/>
    <line class="cls-6" x1="510.13" y1="945.39" x2="522.6" y2="945.45"/>
    <line class="cls-6" x1="526.66" y1="946.1" x2="519.4" y2="942.37"/>
    <line class="cls-6" x1="510.61" y1="939.29" x2="513.36" y2="939.91"/>
    <path class="cls-6" d="M507.01,938.61s4.98-2.35,13.44-3.79"/>
    <path class="cls-6" d="M508.22,931.52s5.55-2.73,10.8-4.12"/>
    <path class="cls-6" d="M508.25,924.31s4.58-2.82,10.23-4.93"/>
    <line class="cls-6" x1="511.35" y1="932.75" x2="514.2" y2="934.3"/>
    <line class="cls-6" x1="511.35" y1="926.63" x2="513.42" y2="927.37"/>
    <line class="cls-6" x1="525.41" y1="939.66" x2="519.16" y2="936.74"/>
    <line class="cls-6" x1="523.09" y1="931.59" x2="517.29" y2="929.48"/>
    <line class="cls-6" x1="516.94" y1="921.87" x2="522.7" y2="923.8"/>
    <path class="cls-6" d="M507.11,918.18s8.12-4.18,11.87-5.57"/>
    <path class="cls-6" d="M505.63,910.64s8.95-2.88,13.93-3.95"/>
    <path class="cls-6" d="M523.23,902.17s.85,3.21-.45,4.54"/>
    <path class="cls-6" d="M503.54,901.44s-.18,3.59,.96,5.18"/>
    <line class="cls-6" x1="521.6" y1="917.1" x2="517.36" y2="915.42"/>
    <line class="cls-6" x1="508.72" y1="911.55" x2="512.87" y2="912.59"/>
    <line class="cls-6" x1="510.5" y1="918.88" x2="512.84" y2="919.57"/>
    <line class="cls-6" x1="515.28" y1="909.35" x2="519.1" y2="910.71"/>
    <line class="cls-6" x1="507.35" y1="906.15" x2="510.82" y2="907.16"/>
    <line class="cls-6" x1="462.49" y1="880.27" x2="471.77" y2="881.49"/>
    <path class="cls-6" d="M459.89,879.02s9.08-6.15,14.86-6.03"/>
    <path class="cls-6" d="M463.66,869.39s5.69-4.35,13.66-3.71"/>
    <path class="cls-6" d="M466.78,861.92s8.37-4.02,12.7-3.87"/>
    <path class="cls-6" d="M469.04,853.55s6.99-3.41,13.31-4.54"/>
    <path class="cls-6" d="M469.41,846.64s9.28-4.83,14.31-6.58"/>
    <path class="cls-6" d="M469.35,837.02s9.9-4.65,17.95-4.46"/>
    <path class="cls-6" d="M470.47,876.02s2.51,2.19,4.09,4.89"/>
    <line class="cls-6" x1="466.21" y1="870.02" x2="467.9" y2="872.17"/>
    <path class="cls-6" d="M473.38,868.27s3.59,2.98,5.11,4.74"/>
    <line class="cls-6" x1="469" y1="863.07" x2="470.53" y2="864.87"/>
    <path class="cls-6" d="M475.98,860.84s2.52,2.11,4.42,4.8"/>
    <line class="cls-6" x1="470.99" y1="855.19" x2="473.43" y2="858.02"/>
    <path class="cls-6" d="M482.31,858.06s-2.45-5.11-3.72-5.89"/>
    <line class="cls-6" x1="472.25" y1="846.99" x2="475.09" y2="848.97"/>
    <line class="cls-6" x1="485.54" y1="848.04" x2="480.54" y2="843.89"/>
    <line class="cls-6" x1="471.29" y1="837.62" x2="476.08" y2="841.06"/>
    <line class="cls-6" x1="468.86" y1="829.53" x2="474.94" y2="832.49"/>
    <line class="cls-6" x1="479.58" y1="835.71" x2="486.31" y2="839.4"/>
    <path class="cls-10" d="M517.7,597.57l-1.27,25.26-16.04,1.97c4.87-18.93,8.62-38.26,11.18-58.05,1.77,10.8,3.8,21.15,6.13,30.81Z"/>
    <line class="cls-14" x1="519.76" y1="622.42" x2="516.44" y2="622.83"/>
    <line class="cls-14" x1="500.4" y1="624.8" x2="497.07" y2="625.22"/>
  </g>
</svg>