<?xml version="1.0" encoding="UTF-8"?>
<svg xmlns="http://www.w3.org/2000/svg" viewBox="0 0 1024 1024">
  <defs>
    <style>
      .cls-1, .cls-2, .cls-3, .cls-4 {
        fill: #fff;
      }

      .cls-5, .cls-6, .cls-7, .cls-8, .cls-9, .cls-10, .cls-2, .cls-11, .cls-3, .cls-4, .cls-12 {
        stroke-linecap: round;
        stroke-linejoin: round;
      }

      .cls-5, .cls-6, .cls-7, .cls-8, .cls-10, .cls-2, .cls-11, .cls-3, .cls-4, .cls-12 {
        stroke: #151922;
      }

      .cls-13, .cls-7 {
        fill: #ee4b2b;
      }

      .cls-6 {
        stroke-width: .5px;
      }

      .cls-6, .cls-8, .cls-10, .cls-12 {
        fill: none;
      }

      .cls-7, .cls-12 {
        stroke-width: 2px;
      }

      .cls-8, .cls-2 {
        stroke-width: 3px;
      }

      .cls-9 {
        stroke: #000;
      }

      .cls-9, .cls-11, .cls-14 {
        fill: #151922;
      }

      .cls-11, .cls-4 {
        stroke-width: 4px;
      }
    </style>
  </defs>
  <g id="background">
    <path class="cls-13" d="M938.24,604.04c.04,195.9-159.06,355.03-354.95,355.03-13.54,0-26.9-.76-40.05-2.23-8.45-.95-16.8-2.2-25.06-3.73-12.81-44.08-35.81-76.85-63.64-101.18-41.99-36.73-94.95-54.24-140.4-62.39-12.93-2.32-25.25-3.88-36.53-4.91-7.72-13.04-14.63-26.61-20.65-40.66-18.42-42.91-28.62-90.19-28.62-139.85v-1.04c.15-53.09-24.14-103.41-66.53-135.38-49.43-37.27-81.38-96.48-81.38-163.17,0-112.75,91.68-204.35,204.44-204.24,67.13,.06,126.68,32.52,163.87,82.58,31,41.73,79.6,66.74,131.59,66.31,.98-.01,1.97-.01,2.96-.01,196,0,354.91,158.87,354.95,354.87Z"/>
    <path class="cls-13" d="M845.14,202.61c0,27.57-22.35,49.91-49.91,49.91s-114.57-19.57-114.57-47.13,87-52.69,114.57-52.69,49.91,22.35,49.91,49.91Z"/>
  </g>
  <g id="photo">
    <path class="cls-2" d="M599.47,529.98c40.1-127.74,116.92-260.2,213.7-395.23-140.87-19.01-291.01-37.8-373.02-58.21-101.87,60.51-190.72,201.45-245.87,369.19l405.19,84.26Z"/>
    <path class="cls-7" d="M446.79,102.32c-18.86,10.49-36.3,23.95-52.29,39.19-5.17,4.92-10.19,10.03-15.06,15.29-1.5,1.62-2.99,3.25-4.46,4.9-.35,.39-.7,.79-1.06,1.19-.71,.8-1.42,1.61-2.12,2.42-2.51,2.87-4.97,5.77-7.39,8.71-.81,.98-1.61,1.96-2.4,2.94-.8,.99-1.59,1.98-2.38,2.97-.38,.47-.76,.95-1.13,1.43-.61,.76-1.21,1.53-1.81,2.3-2.13,2.73-4.22,5.49-6.27,8.26-.75,1.01-1.49,2.02-2.23,3.03-.74,1-1.47,2.02-2.2,3.03-.73,1.02-1.45,2.03-2.17,3.05-1.38,1.94-2.73,3.88-4.07,5.83-1.46,2.13-2.9,4.26-4.32,6.4-.59,.88-1.18,1.77-1.77,2.66-2.54,3.86-5.01,7.73-7.4,11.58-.53,.85-1.06,1.71-1.59,2.57-.53,.85-1.05,1.71-1.57,2.56-2.09,3.42-4.12,6.82-6.08,10.2-1.93,3.3-3.79,6.58-5.61,9.82-14.64,26.15-25.79,50.3-33.38,68.18-7.97,18.8-12.01,30.68-12.01,30.68l332.94,69.96c2.52-6.12,5.04-12.13,7.55-18.02,13.8-32.41,27.46-61.47,41.02-87.68,38.21-73.92,75.49-125.05,112.28-163.92-25.02,2.04-313.02-49.53-313.02-49.53Z"/>
    <path class="cls-3" d="M514.63,286.44l7.86-50.08c32.04,19.62,53.87,34.73,53.87,34.73l2.68-12.26c-73.93-62.11-159.36-105.23-184.54-117.32-5.17,4.92-10.19,10.03-15.06,15.29-1.5,1.62-2.99,3.25-4.46,4.9-.35,.39-.7,.79-1.06,1.19-.71,.8-1.42,1.61-2.12,2.42-2.51,2.87-4.97,5.77-7.39,8.71-.81,.98-1.61,1.96-2.4,2.94-.8,.99-1.59,1.98-2.38,2.97-.38,.47-.76,.95-1.13,1.43-.61,.76-1.21,1.53-1.81,2.3-2.13,2.73-4.22,5.49-6.27,8.26-.75,1.01-1.49,2.02-2.23,3.03-.74,1-1.47,2.02-2.2,3.03-.73,1.02-1.45,2.03-2.17,3.05-1.38,1.94-2.73,3.88-4.07,5.83-1.46,2.13-2.9,4.26-4.32,6.4-.59,.88-1.18,1.77-1.77,2.66-2.54,3.86-5.01,7.73-7.4,11.58-.53,.85-1.06,1.71-1.59,2.57-.53,.85-1.05,1.71-1.57,2.56-2.09,3.42-4.12,6.82-6.08,10.2-1.93,3.3-3.79,6.58-5.61,9.82-14.64,26.15-25.79,50.3-33.38,68.18-7.97,18.8-12.01,30.68-12.01,30.68l332.94,69.96c2.52-6.12,5.04-12.13,7.55-18.02,13.8-32.41,27.46-61.47,41.02-87.68l-132.9-29.33Zm-40.61-8.96l-120.03-26.49,27.73-86.83c39.28,14.76,82.37,37.7,117.98,58.56l-25.68,54.76Z"/>
    <g>
      <path class="cls-3" d="M389.77,241.72l-9.88,21.3c-4.36,3.54-8.36,11.4-11.79,20.45h0c-7.08,18.66-11.74,42.36-12.03,43.82l4.08-51.18-5.45-6.81-21.79,26.21,18.4-27.4,.67-.99,37.79-25.4Z"/>
      <path class="cls-3" d="M449.68,278.49l-1.95,6.22-14.73,46.89s-4.43-13.96-3.74-29.96l-6.13-8.15,15.66-16.36,4.42-21.75s7.49,6.43,6.47,23.11Z"/>
      <path class="cls-3" d="M494.28,178.4l-20.43,40.91c-4.54,6.08-14.8,13.49-24.62,19.77-11.75,7.5-22.87,13.37-22.87,13.37-13.27,1.02-31.15-8.82-31.15-8.82-1.3-2.68-2.21-6.51-2.84-10.86-.22-1.53-.41-3.11-.57-4.74-.91-9.32-.83-19.82-.66-26.23,.1-3.69,.24-6.03,.24-6.03l2.97-8.47,12.1-34.6c54.64-2.05,87.83,25.7,87.83,25.7Z"/>
      <path class="cls-3" d="M449.23,239.08l-4.73,12.79-1.29,3.51-4.42,21.75-15.66,16.36c-1.44,3.53-5.25,8.17-10.38,13.3h-.01c-17.5,1.98-37.41-8.37-44.64-23.31h0c3.43-9.06,7.43-16.92,11.79-20.46l9.88-21.3,2.6-8.95c.63,4.35,1.54,8.18,2.84,10.86,0,0,17.88,9.84,31.15,8.82,0,0,11.12-5.87,22.87-13.37Z"/>
      <path class="cls-3" d="M522.62,178.4c-5.36,2.81-10.62,0-10.62,0-3.98,31.66-2.91,47.24-2.91,47.24-5.62-2.81-9.2-7.92-9.2-7.92-2.8,6.9,0,10.65,0,10.65-4.59,.18-5.61-5.36-5.61-5.36-12.44,20.87-38.57,27.11-49.78,28.86l4.73-12.79c9.82-6.28,20.08-13.69,24.62-19.77l20.43-40.91s-33.19-27.75-87.83-25.7l-15.07,43.07s-1.01,17.58,.42,32.26c-8.44-9.2-12.75-35.25-10.18-49.63,7.66-42.86,49.59-54.12,49.59-54.12,50.3-7.41,63.32,8.68,72.51,28.42,9.19,19.74,18.9,25.7,18.9,25.7Z"/>
      <path class="cls-10" d="M392.11,228.37c-.11-.11-.21-.22-.31-.34"/>
      <path class="cls-10" d="M488.91,210.43c.26,8.54-5.87,13.93-14.04,18.02-5.04,2.52-8,.86-9.53-.78"/>
      <path class="cls-3" d="M394.35,187.3l-2.97,8.47s-.14,2.34-.24,6.03c-7.4-7.63-2.57-21.86-.73-26.45,.42,3.75,1.55,7.86,3.94,11.95Z"/>
      <path class="cls-10" d="M394.45,187.48c-.04-.06-.07-.12-.1-.18"/>
      <path class="cls-10" d="M390.41,175.35c-.96-8.48,1.7-15.07,1.7-15.07"/>
      <path class="cls-9" d="M432.74,214.15s-1.7,.75-4.04,1.46c-2.17,.65-4.49-.39-5.45-2.44l-1.47-3.13h.01c.35-.13,6.74-2.35,10.96,4.11Z"/>
      <line class="cls-10" x1="432.74" y1="182.23" x2="421.78" y2="210.03"/>
      <path class="cls-10" d="M406.45,219.76s15.32,13.35,34.55,6.13"/>
      <path class="cls-10" d="M409.77,228.45s4.09,5.62,17.49,5.23"/>
      <path class="cls-14" d="M425.09,183.83c-8.94-7.6-15.83-6.19-16.6-5.42,3.48,4.4,8.27,7.15,16.6,5.42Z"/>
      <path class="cls-14" d="M465.43,197.74c-8.94-7.6-15.83-6.19-16.6-5.42,4.51,5.8,10.15,7.22,16.6,5.42Z"/>
      <path class="cls-10" d="M396.74,261.89s-2.3,7.15,5.36,9.19"/>
      <path class="cls-3" d="M412.74,306.8c-19.1,19.09-56.34,44.88-56.34,44.88l-.34-24.32v-.07c.3-1.46,4.96-25.16,12.04-43.81,7.23,14.94,27.14,25.29,44.64,23.32Z"/>
      <path class="cls-10" d="M421.77,304.53c-2.87,1.18-5.91,1.92-9.02,2.26h-.01"/>
      <path class="cls-3" d="M483.38,321.72l-23.63,70.5-109.06-22.92c.27-2.98,5.71-17.62,5.71-17.62,0,0,37.24-25.79,56.34-44.88h.01c5.13-5.14,8.94-9.78,10.38-13.31l6.13,8.15c-.69,16,3.74,29.96,3.74,29.96l14.73-46.89c5.22,9.37,16.99,27.08,35.65,37.01Z"/>
      <path class="cls-3" d="M356.06,327.36l.34,24.32s-5.44,14.64-5.71,17.62l-84.67-17.79s4.04-11.88,12.01-30.68c4.79-11.29,11-25.07,18.61-40.28,12.45-2.56,39.48-8.24,54.67-12.44l-18.4,27.4,21.79-26.21,5.45,6.81-4.08,51.18v.07Z"/>
      <path class="cls-3" d="M401,146.74s-6.81,23.49,5.19,26.81c0,0,2.3,14.81,11.49,15.06,0,0-6.38-18.13-3.32-30.64,0,0,11.23,35.74,46.47,43.91,0,0-8.12-10.66-8.43-20.94,0,0,19.4,32.52,41.87,34,0,0-4.6-14.6-2.55-25.49"/>
      <polygon class="cls-1" points="406.45 151 488.92 190.83 499.49 170.95 413.7 140.41 406.45 151"/>
    </g>
    <g>
      <path class="cls-10" d="M546.18,275.37c-.29-1.3-.65-2.64-1.09-4.03"/>
      <path class="cls-3" d="M659.98,181.21c-.74,1.03-1.8,1.76-3.13,2.24-11.16,4.14-41.25-7.94-55.85,10.53-24.84,35.76,11.45,74.92,32.48,82.65h.01c.59,.22,1.16,.41,1.72,.58,20.68,6.13,19.41,18.9,19.41,18.9-2.6-8.81-23.08-7.74-37.59-8.09-4.01-.1-7.56-.3-10.16-.85-12-2.55-14.04-8.43-14.04-8.43-1.53,21.71-37.79,31.15-37.79,31.15-8.27,5.9-13.05,11.98-15.78,17.41-5.16,10.33-2.86,18.34-2.86,18.34,0,0-10.99-8.95-5.38-26.24,.87-2.69,2.14-5.59,3.92-8.68,1.37-2.37,3.03-4.86,5.04-7.46,0,0,10.24-9.57,6.2-27.89-13.75,12.38-25.35,4.91-25.35,4.91,0,0,19.15-4.85,15.83-18.39-3.32-13.53,1.79-48.25,24.25-74.29,22.47-26.05,68.18-50.81,97.03-21.96,0,0,1,.83,1.81,2.91,.92,2.38,1.59,6.39,.23,12.66Z"/>
      <path class="cls-10" d="M548.01,273.61c-.61,.63-1.23,1.21-1.83,1.76"/>
      <path class="cls-10" d="M614.79,293.66c-.9-1.64-1.36-2.63-1.36-2.63"/>
      <path class="cls-3" d="M663.3,236.36l-6.9,12.81s-6.76,18.95-22.91,27.46h-.01c-21.03-7.73-57.32-46.89-32.48-82.65,14.6-18.47,44.69-6.39,55.85-10.53,.55,2.38,.78,5.68,.06,10.02-1.78,10.72-6.63,34.21,6.39,42.89Z"/>
      <path class="cls-10" d="M654.62,235.72c-1.64-2.82-3.47-4.64-5.34-5.76-2.51-1.51-5.08-1.77-7.31-1.49-3.64,.46-6.38,2.35-6.5,2.53"/>
      <path class="cls-10" d="M608.66,223.01c-.76-3.63-2.17-6.03-3.85-7.58-2.29-2.14-5.07-2.68-7.4-2.66-2.7,.02-4.79,.82-4.79,.82"/>
      <path class="cls-14" d="M608.03,209.68c.28,.53,.59,.84,.99,1.29s1.02,.77,1.61,.62c.62-.15,1.04-.79,1.12-1.43s-.12-1.28-.35-1.88c-1.3-3.43-5.12-5.91-8.24-7.83-1.28-.79-3.85-1.45-5.34-1.28l-1.62,4.37c3.33,.38,10.24,3.12,11.83,6.13Z"/>
      <path class="cls-14" d="M638.29,220.53c.97,.19,1.97,.02,2.95-.08,4.8-.52,9.74,.38,14.05,2.56,.52-.73,1.05-1.47,1.33-2.32s.25-1.85-.28-2.57c-.56-.77-1.56-1.07-2.49-1.29-4.49-1.08-9.15-1.44-13.76-1.07-1.21,.1-3.01,.06-3.74,1.23-.98,1.57,.36,3.24,1.94,3.54Z"/>
      <path class="cls-3" d="M687.1,246.44c-13.09,20.65-26.27,43.61-39.57,69.33-1.27,2.45-2.54,4.93-3.82,7.44-.12,.24-.24,.48-.37,.72-14.8-6.98-25.03-23.77-28.55-30.27,.3-.94,.62-1.82,.94-2.63,.44-1.14,.89-2.15,1.3-3.01,14.51,.35,34.99-.72,37.59,8.09,0,0,1.27-12.77-19.41-18.9-.56-.17-1.13-.36-1.72-.58,16.15-8.51,22.91-27.46,22.91-27.46l6.9-12.81c-13.02-8.68-8.17-32.17-6.39-42.89,.72-4.34,.49-7.64-.06-10.02,1.33-.48,2.39-1.21,3.13-2.24,1.36-6.27,.69-10.28-.23-12.66,6.19-.41,14.98,.72,19.63,9.09,6.71,12.08,14.2,45.98,7.72,68.8Z"/>
      <path class="cls-5" d="M618.86,246.58c-.09,.3-2,5.79-7.1,4.05-5.23-1.78-3.48-8.01-3.48-8.01,0,0-.3,3.7,3.48,4.59,3.7,.88,6.95-.57,7.1-.63Z"/>
      <path class="cls-10" d="M618.87,246.57h-.01"/>
      <path class="cls-10" d="M615.43,214.15s5.23,5.23,2.42,11.62c-2.81,6.38-9.57,16.85-9.57,16.85"/>
      <path class="cls-10" d="M628.83,258.83s1.91,3.06,1.79,4.98"/>
      <path class="cls-10" d="M630.08,261.32c-5.26,1.92-10.21,3.37-14.88,3.4"/>
      <path class="cls-14" d="M649.77,232.05c0,2.61-2.12,4.72-4.73,4.72s-4.72-2.11-4.72-4.72c0-1.43,.64-2.72,1.65-3.58,2.23-.28,4.8-.02,7.31,1.49,.32,.63,.49,1.34,.49,2.09Z"/>
      <path class="cls-14" d="M604.82,215.42v.03c.61,2.54-.95,5.08-3.49,5.69s-5.09-.95-5.7-3.49c-.45-1.9,.31-3.8,1.78-4.89,2.33-.02,5.11,.53,7.4,2.66Z"/>
      <path class="cls-10" d="M658.07,246.08s12.04-5.51,13.57,0-2.55,14.23-8.34,16.94-11.01,6.38-16.31,2.25"/>
      <path class="cls-3" d="M534.94,310.72c-1.78,3.09-3.05,5.99-3.92,8.68-2.83-3.2-4.75-5.97-5.87-7.76,3.38-.26,6.69-.56,9.79-.92Z"/>
      <path class="cls-3" d="M627.32,340.83c-45.35,11.27-72.92-1.15-88.06-13.53,2.73-5.43,7.51-11.51,15.78-17.41,0,0,36.26-9.44,37.79-31.15,0,0,2.04,5.88,14.04,8.43,2.6,.55,6.15,.75,10.16,.85-.41,.86-.86,1.87-1.3,3.01-3.92,10.02-7.94,30.25,11.59,49.8Z"/>
      <path class="cls-3" d="M632.64,345.64c-8.66,18-17.37,37.23-26.13,57.81-2.51,5.89-5.03,11.9-7.55,18.02l-166.72-35.03c8.81-14.05,34.12-54.5,34.12-54.5,0,0,10.55-14.64,24.17-17.37,6.99-1.4,21.34-1.9,34.62-2.93,1.12,1.79,3.04,4.56,5.87,7.76-5.61,17.29,5.38,26.24,5.38,26.24,0,0-2.3-8.01,2.86-18.34,15.14,12.38,42.71,24.8,88.06,13.53,1.61,1.61,3.38,3.22,5.32,4.81Z"/>
    </g>
    <path class="cls-12" d="M446.79,102.32c-18.86,10.49-36.3,23.95-52.29,39.19-5.17,4.92-10.19,10.03-15.06,15.29-1.5,1.62-2.99,3.25-4.46,4.9-.35,.39-.7,.79-1.06,1.19-.71,.8-1.42,1.61-2.12,2.42-2.51,2.87-4.97,5.77-7.39,8.71-.81,.98-1.61,1.96-2.4,2.94-.8,.99-1.59,1.98-2.38,2.97-.38,.47-.76,.95-1.13,1.43-.61,.76-1.21,1.53-1.81,2.3-2.13,2.73-4.22,5.49-6.27,8.26-.75,1.01-1.49,2.02-2.23,3.03-.74,1-1.47,2.02-2.2,3.03-.73,1.02-1.45,2.03-2.17,3.05-1.38,1.94-2.73,3.88-4.07,5.83-1.46,2.13-2.9,4.26-4.32,6.4-.59,.88-1.18,1.77-1.77,2.66-2.54,3.86-5.01,7.73-7.4,11.58-.53,.85-1.06,1.71-1.59,2.57-.53,.85-1.05,1.71-1.57,2.56-2.09,3.42-4.12,6.82-6.08,10.2-1.93,3.3-3.79,6.58-5.61,9.82-14.64,26.15-25.79,50.3-33.38,68.18-7.97,18.8-12.01,30.68-12.01,30.68l332.94,69.96c2.52-6.12,5.04-12.13,7.55-18.02,13.8-32.41,27.46-61.47,41.02-87.68,38.21-73.92,75.49-125.05,112.28-163.92-25.02,2.04-313.02-49.53-313.02-49.53Z"/>
  </g>
  <g id="hand">
    <path class="cls-4" d="M736.83,635.43c4.6,18.38,.84,31.16-3.57,42.38-9.79,24.87-107.75,101.1-164.43,128.68-15.63,7.61-27.62,15.72-36.77,23.48-33.2-58.67-100.45-100.02-163.51-112.6l5.19-6.88c-37.76-97.36,8.88-141.96,1.05-222.89-.33-1.52-.58-3.02-.74-4.5-2.92-25.11,16.2-44.27,27.29-65.97,7-13.69,9.19-32.94,17.72-41.41,3.26-3.24,9.58-5.57,14.07-6.52,7.96-1.67,16.39-2.61,24.08,0,12.89,4.38,20.86,18.1,22.11,31.65s-3.01,26.99-8.03,39.64c-5.02,12.65-9.09,22.52-9.44,36.13-.25,9.68,.63,17.73,2.88,25.34,.49,1.69,1.06,3.34,1.69,5h0c15.96,8.66,36.91,10.01,58.07,7.43,17.2-2.09,34.53-6.78,49.45-12.24,15.85-5.81,31.12-14.74,43.28-22.96h.01c13.13-34.24,28.71-68.8,46.41-103.63,11.39,14.72,31.14,39.6,44.59,53.06,19.92,19.91,9.71,51.06,9.71,51.06,14.63,18.49,22.21,43.38,18.89,78.13,19.4,41.36-.63,75.09,0,77.62Z"/>
    <path class="cls-12" d="M408.37,413.76s21.56-6.85,49.65,4.9c0,0,8.94-25.53,5.87-34.47,0,0-3.79-11-21.69-11.06-8.76-.03-14.87,3.65-18.67,7.07-2.76,2.49-4.81,5.67-6.1,9.16l-9.07,24.41Z"/>
    <path class="cls-8" d="M466.42,506.97c2.39,6.23,5.76,12.34,10.24,19.03"/>
    <path class="cls-8" d="M617.23,479.19c15.65-10.56,26.15-19.93,26.15-19.93,17.88-3.58,24,2.55,24,2.55"/>
    <path class="cls-11" d="M548.91,943.6c-2.32,7.25-4.3,10.73-5.67,13.24-.45,.82-.83,1.53-1.14,2.23l-17.03,24.64c-1.77-10.76-4.09-20.95-6.89-30.6-12.81-44.08-35.81-76.85-63.64-101.18-41.99-36.73-94.95-54.24-140.4-62.39-12.93-2.32-25.25-3.88-36.53-4.91-36.83-3.38-62.65-1.12-62.65-1.12l42-39.54,23.1-21.74c24.96-10.21,56.17-11.32,88.49-4.86,63.06,12.58,130.31,53.93,163.51,112.6,18.73,33.06,26.62,71.62,16.85,113.63Z"/>
    <path class="cls-12" d="M379.89,474.32s15.83,19.19,58.47,4.87"/>
    <line class="cls-12" x1="706.7" y1="511.34" x2="717.94" y2="479.68"/>
    <path class="cls-12" d="M727.13,583.85c.51-.77,6.23-6.47,10.26-24.81"/>
  </g>
  <g id="detail">
    <path class="cls-6" d="M454.33,183.66c-12.34-17.15-4.2-43.3-16.77-60.29"/>
    <path class="cls-6" d="M450.78,122.01c5.9,5.75,9.28,13.62,11.38,21.59s3.05,16.19,4.92,24.21c4.2,17.98,11.29,33.07,23.78,46.67-7.12-8.93-7.19-19.62-9.57-30.79-2.38-11.16-3.5-22.57-6-33.71-2.04-9.13-5.01-18.04-8.85-26.57"/>
    <path class="cls-6" d="M456.78,200.8c-10.59-8.29-15.6-18.48-18.75-31.56-3.15-13.08-1.89-26.33,3.76-38.54"/>
    <path class="cls-6" d="M443.04,195.03c-10.3-8.37-16.84-21.21-17.54-34.47-.71-13.26,3.84-26.12,13.19-35.54"/>
    <path class="cls-6" d="M415.5,160.04c-1-8.58,1.26-17.5,6.22-24.57,3.56-5.08,8.5-9.18,14.12-11.82"/>
    <path class="cls-6" d="M406.7,175.54c-3.82-16.58,1.71-34.88,13.65-46.91"/>
    <path class="cls-6" d="M399.77,143.34c-5.38,11.58-7.7,24-2.72,35.75"/>
    <path class="cls-6" d="M460.34,230.79c-1.57,8.42-6.66,16.13-13.8,20.87"/>
    <path class="cls-6" d="M470.17,229.49c-1.95,6.63-5.15,12.88-9.36,18.36"/>
    <path class="cls-6" d="M481.65,224.01c-1.29,6.57-4.03,12.84-7.92,18.29"/>
    <path class="cls-6" d="M490.85,214.49c-.87,7.55-3.53,14.89-7.64,21.28"/>
    <path class="cls-6" d="M475.61,125.33c17.15,16.36,18.99,51.6,15.88,65.61"/>
    <path class="cls-6" d="M501.74,159.35c1.2,6.19,1.48,12.54,.89,18.82s-3.14,11.98-3.84,18.07c-1.18,10.13-2.98,16.45,1.75,22.34"/>
    <path class="cls-6" d="M512.2,178.5c-3.58-1.65-8.06-4.28-9.3-8.56"/>
    <path class="cls-6" d="M388.99,199.45c-2.17,3.55-3.89,7.37-5.14,11.33"/>
    <path class="cls-6" d="M390.85,207.58c-2.15,5.79-2.13,5.74-4.29,11.53"/>
    <path class="cls-6" d="M387.16,188.88c-2.75,4.18-2.86,5.41-5.61,9.59"/>
    <path class="cls-6" d="M393.41,237.72c-3.87,10.71-7.74,21.42-11.61,32.13"/>
    <path class="cls-6" d="M394.13,242.72l-13.19,36.54"/>
    <path class="cls-6" d="M396.66,245.36l-10.43,29.12"/>
    <path class="cls-6" d="M399.86,247.11l-6.86,16.1"/>
    <path class="cls-6" d="M403.05,248.08c-1.8,4.76-3.6,9.52-5.4,14.28"/>
    <path class="cls-6" d="M407.12,249.6l-5.11,12.51"/>
    <path class="cls-6" d="M411.22,250.37l-4.86,11.23"/>
    <path class="cls-6" d="M414.67,251.96l-4.35,10.46"/>
    <path class="cls-6" d="M418.31,253.01l-4.16,9.93"/>
    <path class="cls-6" d="M421.08,254.01l-3.87,9.18"/>
    <path class="cls-6" d="M425.07,253.21l-4.12,9.94"/>
    <path class="cls-6" d="M428.91,251.42l-3.83,10.21"/>
    <path class="cls-6" d="M432.55,249.4l-4.09,10.72"/>
    <path class="cls-6" d="M436.85,247.09l-4.6,10.47"/>
    <path class="cls-6" d="M441.34,244.35l-4.63,10.86c.21-.24,.42-.48,.62-.72"/>
    <path class="cls-6" d="M445.36,242.02l-5.38,12.25"/>
    <path class="cls-6" d="M396.98,262.4c-.79,3.28-1.07,6.67-.84,10.04,.08,1.13,.24,2.33,.93,3.23s2.08,1.37,3,.7c.43-1.76,.87-3.51,1.3-5.27"/>
    <path class="cls-6" d="M368.95,295.57c4.98,7.51,13.68,12.42,22.69,12.8"/>
    <path class="cls-6" d="M333.55,296.28l26.16-18.21"/>
    <path class="cls-6" d="M360.01,271.63c6.88-6.84,14.18-13.26,21.84-19.22"/>
    <path class="cls-6" d="M362.54,272.37c5.52-5.04,11.04-10.07,16.55-15.11"/>
    <path class="cls-6" d="M353.51,270.59l2.05,9.96"/>
    <path class="cls-6" d="M355.32,271.36l2.18,8.39"/>
    <path class="cls-6" d="M336.44,291.02l.76,1.79"/>
    <path class="cls-6" d="M338.49,288.7l.24,3.58"/>
    <path class="cls-6" d="M341,286.16l.46,4.6"/>
    <path class="cls-6" d="M343.61,282.58l.47,6.64"/>
    <path class="cls-6" d="M346.33,279.75l.86,7.39"/>
    <path class="cls-6" d="M348.67,277.19l.95,8.18"/>
    <path class="cls-6" d="M351,274.66l.77,8.17"/>
    <path class="cls-6" d="M352.2,272.13l1.67,9.72"/>
    <path class="cls-6" d="M357.94,273.89l.51,4.34"/>
    <path class="cls-6" d="M431.41,297.33c5.61-5.73,10.95-11.36,13.07-19.1,1.55-5.64,1.72-11.64,.51-17.36"/>
    <path class="cls-6" d="M432.22,300.69l10.09-13.69"/>
    <path class="cls-6" d="M431.34,303.01c.43,5.79,.87,11.57,1.3,17.36"/>
    <path class="cls-6" d="M425.85,293.55l5.31,5.42"/>
    <path class="cls-6" d="M394.8,196.78c.3,11.36,.61,22.72,.91,34.08,.11,4.02,.57,8.7,3.96,10.87"/>
    <path class="cls-6" d="M398.33,227.43c-.48,3.51-.18,7.11,.86,10.49"/>
    <path class="cls-6" d="M395.47,192.32l7.96-16.06"/>
    <path class="cls-6" d="M428.38,184.89c-3.54,7.86-6.38,16.03-8.48,24.39"/>
    <path class="cls-6" d="M424.88,188.64c-2.45,4.31-4.04,9.1-4.66,14.01"/>
    <path class="cls-6" d="M428.23,248.51c7.74-4.1,15.47-8.2,23.21-12.3"/>
    <path class="cls-6" d="M469.25,227.42c5.8-1.7,11.05-5.23,14.82-9.95"/>
    <path class="cls-6" d="M480.76,210.32l-3.58,7.66"/>
    <path class="cls-6" d="M482.06,212.13l-2.31,4.84"/>
    <path class="cls-6" d="M484.06,212.62l-1.79,3.57"/>
    <path class="cls-6" d="M485.85,213.38l-1.02,2.3"/>
    <path class="cls-6" d="M487.99,213.95l-1.03,1.78"/>
    <path class="cls-6" d="M391.13,179.94l-1.79,5.62"/>
    <path class="cls-6" d="M391.64,183.26l-1.53,5.87"/>
    <path class="cls-6" d="M392.66,185.81l-2.04,6.89"/>
    <path class="cls-6" d="M363.18,364.93l4.11-13.13c-2.18,.5-4.37,1-6.55,1.5"/>
    <path class="cls-6" d="M409.45,319.41c-13.39,10.34-26.79,20.68-40.18,31.02"/>
    <path class="cls-6" d="M358.85,360.99c.07-.78-.56-1.54-1.33-1.64s-1.57,.41-1.83,1.15c-.36,1.03,.39,2.25,1.43,2.57s2.23-.14,2.96-.96c.6-.68,.91-1.68,.53-2.5s-1.63-1.16-2.24-.49"/>
    <path class="cls-6" d="M423.73,296.69c2.48,2.63,4.49,5.7,5.88,9.04"/>
    <path class="cls-6" d="M423.05,299.93l6.12,9.2"/>
    <path class="cls-6" d="M421.19,301.26l7.33,11.37"/>
    <path class="cls-6" d="M418.74,303.99l9.41,12.6"/>
    <path class="cls-6" d="M417.95,307.07l11.99,15.59"/>
    <path class="cls-6" d="M415.78,310.29l13.33,16.3"/>
    <path class="cls-6" d="M413.22,311.77l14.26,18.41"/>
    <path class="cls-6" d="M412.38,318.02l6.88,8.44"/>
    <path class="cls-6" d="M412.1,322.89l2.85,4.05"/>
    <path class="cls-6" d="M557.3,326.04c3.81,2.55,6.55,6.67,7.42,11.17"/>
    <path class="cls-6" d="M581.37,339.81c4.89-4.1,11.52-6.06,17.85-5.26"/>
    <path class="cls-6" d="M540.61,325.66c3.39,2.41,6.78,4.81,10.16,7.22"/>
    <path class="cls-6" d="M542.49,324.01l8.43,5.1"/>
    <path class="cls-6" d="M543.66,320.34l11.01,7.1"/>
    <path class="cls-6" d="M546.06,317.88l12.16,7.06"/>
    <path class="cls-6" d="M549.8,315.23l11.77,6.85"/>
    <path class="cls-6" d="M552.24,312.44c4.6,2.8,9.2,5.61,13.8,8.41"/>
    <path class="cls-6" d="M554.92,310.94l13.68,8.09"/>
    <path class="cls-6" d="M559.16,309.84l10.9,7.02"/>
    <path class="cls-6" d="M564.51,309.86l8.12,4.94c-.24-.36-.49-.71-.73-1.07"/>
    <path class="cls-6" d="M565.48,307.14l10.22,6.36"/>
    <path class="cls-6" d="M569,305.22l10.24,4.95-.45-.78"/>
    <path class="cls-6" d="M573.8,302.11c2.43,2.45,5.51,4.25,8.83,5.19"/>
    <path class="cls-6" d="M577.39,300.37l8.19,5.33"/>
    <path class="cls-6" d="M580.8,297.94l6.96,4.49"/>
    <path class="cls-6" d="M582.97,295.05l6.94,4.92c-.13-.18-.26-.36-.39-.54"/>
    <path class="cls-6" d="M586.1,293.68l6.66,5.07"/>
    <path class="cls-6" d="M588.12,291.41l6.4,4.57"/>
    <path class="cls-6" d="M589.64,287.52c1.78,2.4,4.2,4.31,6.94,5.49-.15-.24-.31-.48-.46-.72"/>
    <path class="cls-6" d="M590.47,284.95l6.92,5.33"/>
    <path class="cls-6" d="M593.51,283.7c2.34,1.88,5.26,3.01,8.26,3.19"/>
    <path class="cls-6" d="M608.71,214.12c2.17,3.65,2.98,8.1,2.24,12.28"/>
    <path class="cls-6" d="M610.97,212.87c2.54,4.72,3.19,10.41,1.77,15.58"/>
    <path class="cls-6" d="M613.54,214.39c1.9,4.5,2.08,9.7,.48,14.31"/>
    <path class="cls-6" d="M615.8,217.47c1.55,2.69,1.65,6.16,.25,8.93"/>
    <path class="cls-6" d="M630.67,232.07c2.54-2.52,5.72-4.38,9.15-5.36"/>
    <path class="cls-6" d="M631.38,229.21c.78-1.88,2.59-3.29,4.6-3.6"/>
    <path class="cls-6" d="M630.9,226.16c.6-1.24,1.91-2.1,3.29-2.14"/>
    <path class="cls-6" d="M650.79,228.19c2.72,2.33,4.84,5.34,6.13,8.68"/>
    <path class="cls-6" d="M652.54,226.92c3.5,3.07,6.02,7.24,7.1,11.76"/>
    <path class="cls-6" d="M597.42,210.05c4.15-.23,8.33,2.19,10.2,5.9"/>
    <path class="cls-6" d="M599.72,208.37c2.84-.09,5.71,.92,7.86,2.78"/>
    <path class="cls-6" d="M610.34,187.15c-6.36,3.67-10.92,10.31-12.07,17.56"/>
    <path class="cls-6" d="M608.63,190.37c-4.34,3.87-7.41,9.16-8.6,14.85"/>
    <path class="cls-6" d="M609.09,193.63c-3.43,2.94-5.93,6.96-7.05,11.33"/>
    <path class="cls-6" d="M611.18,261.46c5.98,2.25,12.91,1.83,18.57-1.14-.22,.01-.44,.03-.66,.04"/>
    <path class="cls-6" d="M658.37,252.12c1.49-.35,2.61-1.54,3.8-2.5s2.81-1.75,4.22-1.14c1.3,.56,1.89,2.15,1.73,3.55s-.9,2.66-1.62,3.88"/>
    <path class="cls-6" d="M663.36,251.17c.06,2.87-1.13,5.74-3.19,7.72s-4.98,3.06-7.84,2.89"/>
    <path class="cls-6" d="M581.64,220.01c-.18,13.35,4.26,26.73,12.4,37.31s19.92,18.32,32.88,21.57c8.65,2.17,18.52,2.79,24.62,9.29"/>
    <path class="cls-6" d="M581.74,189.07c-13.96,12.04-20.46,32.1-16.22,50.04,4.24,17.94,19.04,32.96,36.91,37.47"/>
    <path class="cls-6" d="M553.88,310.51c10.52-10.74,16.12-26.1,14.98-41.09-.5-6.52-2.19-12.89-3.08-19.38-.5-3.69-.72-7.49-.32-11.19"/>
    <path class="cls-6" d="M544.93,231.18c-3,16-2.11,32.71,2.57,48.3"/>
    <path class="cls-6" d="M549.92,255.51c-2.17-25.69,7.69-52.14,26.14-70.13"/>
    <path class="cls-6" d="M590.98,189.58c15.07-14.39,38.08-19.88,58.03-13.83"/>
    <path class="cls-6" d="M621.19,165.45c6.06-2.31,12.89-2.54,19.09-.64s11.72,5.93,15.44,11.24"/>
    <path class="cls-6" d="M650.52,164.91c2.56,.99,4.62,3.2,5.43,5.82"/>
    <path class="cls-6" d="M662.61,183.53c10.84,15.21,11.99,36.73,2.84,53.01"/>
    <path class="cls-6" d="M666.29,179.54c11.6,15.88,13.92,38.07,5.85,56.01"/>
    <path class="cls-6" d="M672.95,177.17c12.18,16.32,14.72,39.32,6.4,57.9"/>
    <path class="cls-6" d="M637,292.53c-1.82,8.7,.86,18.22,6.95,24.7"/>
    <path class="cls-6" d="M643,298.38c-.62,3.52,.19,7.27,2.2,10.22"/>
    <path class="cls-6" d="M568.85,348.1c18.88,5.29,39.3,4.93,57.98-1.03"/>
    <path class="cls-6" d="M471.22,378.67c2.81-5.02,5.68-10.18,8.49-15.2,.22-.07,.44-.14,.67-.21-2-4.03-3.01-8.54-2.92-13.03-2.55,2-4.66,5.78-4.66,9.02,0,1.57,.34,3.12,.51,4.68,.51,4.95-.87,10.07-3.79,14.09,.26-.24,1.54,.96,1.71,.65Z"/>
    <path class="cls-6" d="M475.53,351.79l3.04,12.52"/>
    <path class="cls-6" d="M474.18,354.63l3.37,11.22"/>
    <path class="cls-6" d="M473.15,357.97l4.05,10.12"/>
    <path class="cls-6" d="M472.53,363.42l3.05,6.9"/>
    <path class="cls-6" d="M473.09,370.4l1.02,4.09"/>
    <path class="cls-6" d="M540.37,402.74c1.6,2.48,3.21,4.95,4.81,7.43"/>
    <path class="cls-6" d="M540.55,399.21l9.95,13.54"/>
    <path class="cls-6" d="M542.51,395.78c4.22,6.07,8.43,12.14,12.65,18.21"/>
    <path class="cls-6" d="M546.74,396.37c3.41,5.44,6.83,10.88,10.24,16.32"/>
    <path class="cls-6" d="M553.31,400.75c1.7,2.81,3.4,5.62,5.11,8.43"/>
    <path class="cls-6" d="M556.59,399.5l2.56,4.59"/>
    <path class="cls-6" d="M620.48,289.21c0,8.53,3.29,17.01,9.05,23.3"/>
    <path class="cls-6" d="M626.19,290c.41,7,2,13.93,4.68,20.41,1.67,4.05,4.2,8.29,8.42,9.49"/>
    <path class="cls-6" d="M630.22,291.76c-.18,9.11,2.82,18.26,8.36,25.5"/>
    <path class="cls-6" d="M543.06,258.02c1.25,8.19-.91,16.85-5.87,23.48"/>
    <path class="cls-6" d="M544.26,268.02c-.13,3.75-1.15,7.46-2.95,10.76"/>
    <path class="cls-6" d="M545.57,270.83c.24,2.65-.55,5.37-2.16,7.48"/>
    <path class="cls-6" d="M563.49,304.65c6.38-3.81,11.36-9.89,13.84-16.9,2.48-7,2.43-14.87-.14-21.84"/>
    <path class="cls-6" d="M581.84,273.64c1.47,6.47-.26,13.6-4.53,18.67"/>
    <path class="cls-6" d="M585.15,276.19c.26,3.01-.45,6.1-2,8.69"/>
    <path class="cls-6" d="M574.59,231.87c-2.06-6.95-1.71-14.59,.96-21.34s7.65-12.54,13.92-16.2"/>
    <path class="cls-6" d="M583.76,203.04c-5.36,5.19-8.15,12.92-7.34,20.33"/>
    <path class="cls-6" d="M573.01,194.1c12.73-15.42,31.79-25.44,51.71-27.18"/>
    <path class="cls-6" d="M578.98,183.43c10.64-8.36,23-14.53,36.07-18"/>
    <path class="cls-6" d="M580.43,177.51c15.72-13.09,36.72-19.64,57.09-17.81"/>
    <path class="cls-6" d="M653.53,183.96c1.29,3.98,1.1,8.43-.51,12.29"/>
    <path class="cls-6" d="M655.62,184.54c1.08,4.38,.72,9.11-1,13.28"/>
    <path class="cls-6" d="M657.61,208.01c-1.43,7.86,.66,16.28,5.59,22.57"/>
    <path class="cls-6" d="M659.72,217.21c-.33,2.3,.69,4.75,2.57,6.12"/>
    <path class="cls-6" d="M647.8,266.47l-4.04,5.73"/>
    <path class="cls-6" d="M649.26,267.01l-3.06,4.6"/>
    <path class="cls-6" d="M652.06,266.74l-3.07,4.08"/>
    <path class="cls-6" d="M654.62,266.49l-2.81,3.32"/>
    <path class="cls-6" d="M657.99,265.25l-2.31,3.31"/>
    <path class="cls-6" d="M661.39,264.55l-2.11,2.76"/>
    <path class="cls-6" d="M664.41,262.98l-1.52,2.05"/>
    <path class="cls-10" d="M667.46,260.16l-1.25,1.8"/>
    <path class="cls-10" d="M536.04,772.98c5.76,18.88,4.35,39.85-3.9,57.78"/>
    <path class="cls-10" d="M542.1,768.05c7.17,16.87,7.49,36.54,.89,53.64"/>
    <path class="cls-10" d="M548.73,761.63c7.13,16.87,7.73,36.41,1.63,53.69"/>
    <path class="cls-10" d="M557.71,756.39c8.01,17.36,8.61,38,1.62,55.79"/>
    <path class="cls-10" d="M567.63,751.92c7.08,18.19,7.67,37.37,.51,55.53"/>
    <path class="cls-10" d="M575.59,747.91c6.66,18.31,7.34,36.97,.62,55.26"/>
    <path class="cls-10" d="M584.12,738.58c6.94,18.58,7.01,39.64,.2,58.27"/>
    <path class="cls-10" d="M596.01,733.62c7.5,19.12,7.09,41.21-1.11,60.05"/>
    <path class="cls-10" d="M604.38,728.43c6.39,19.52,6.01,41.19-1.06,60.48"/>
    <path class="cls-10" d="M610.75,722.73c7.6,19.63,9.15,38.33,2.21,58.2"/>
    <path class="cls-10" d="M619.39,715.08c7.87,18.97,8.87,40.71,2.78,60.33"/>
    <path class="cls-10" d="M629.29,711.62c7.11,19.31,6.58,41.32-1.45,60.27"/>
    <path class="cls-10" d="M639.16,709.86c5.61,18.27,4.02,38.65-4.35,55.83"/>
    <path class="cls-10" d="M650.23,702.92c5.28,17.85,3.58,37.67-4.65,54.37"/>
    <path class="cls-10" d="M659.74,697.21c4.18,16.67,2.94,34.66-3.5,50.59"/>
    <path class="cls-10" d="M669.56,690.05c2.22,18.08-.07,36.69-6.6,53.7"/>
    <path class="cls-10" d="M676.83,686.84c3.16,15.46,1.72,36.06-3.56,50.93"/>
    <path class="cls-10" d="M686.17,681.29c3.79,16.56,1.97,34.36-5.08,49.82"/>
    <path class="cls-10" d="M693.92,675.92c5.09,17.14,6.03,30.26-2.01,46.23"/>
    <path class="cls-10" d="M699.28,669.33c5.86,14.12,6.51,30.35,1.78,44.89"/>
    <path class="cls-10" d="M706.76,662.46c5.6,12.95,6.42,30.31,2.07,43.74"/>
    <path class="cls-10" d="M716.57,654.47c6.17,14.57,5.68,31.81-1.3,46"/>
    <path class="cls-10" d="M724.62,648.99c5.68,14.22,5.33,30.74-.95,44.7"/>
    <path class="cls-10" d="M730.31,641.84c4.25,11.95,5.25,25.03,2.85,37.48"/>
    <path class="cls-10" d="M689.87,599.7c3.76-3.66,5.69-9.11,5.08-14.32"/>
    <path class="cls-10" d="M696.56,596.67c4.53-5.6,7.06-12.77,7.04-19.97"/>
    <path class="cls-10" d="M705.29,592.11c6.43-8.34,9.4-19.27,8.07-29.71"/>
    <path class="cls-10" d="M715.1,587.01c4.76-11.93,5.87-25.28,3.15-37.84"/>
    <path class="cls-10" d="M722.37,579.87c3.71-12.39,4.45-25.66,2.14-38.39"/>
    <path class="cls-10" d="M728.78,570.1c4.21-13.34,4.74-27.82,1.51-41.42"/>
    <path class="cls-10" d="M675.35,527.68c.05-3.57,.09-7.15,.14-10.72"/>
    <path class="cls-10" d="M679.77,523.62c.28-6.13,.55-12.26,.83-18.39"/>
    <path class="cls-10" d="M687.62,517.54c2.07-9.07,1.94-18.63-.38-27.63"/>
    <path class="cls-10" d="M692.37,515.64c4.97-11.2,5.65-24.24,1.88-35.89"/>
    <path class="cls-10" d="M699.73,508c4.45-12.97,5.25-27.17,2.31-40.56"/>
    <path class="cls-10" d="M706.18,497.75c4.49-11.33,5.31-24.07,2.3-35.88"/>
    <path class="cls-10" d="M712.9,455.96c3.9,9.77,4.03,20.98,.36,30.84"/>
    <path class="cls-10" d="M405.48,713.6c30.01,3.55,58.37,19.49,77.01,43.28"/>
    <path class="cls-10" d="M421.83,710.23c20.85,5.12,40.09,16.58,54.52,32.48"/>
    <path class="cls-10" d="M432.95,708.61c15.32,4.98,29.47,13.5,41.04,24.72"/>
    <path class="cls-10" d="M443.22,705.36c10.55,3.22,20.29,9.06,28.09,16.86"/>
    <path class="cls-10" d="M452.91,699.26c7.03,2.28,13.53,6.15,18.89,11.23"/>
    <path class="cls-10" d="M460.19,690.91l14.8,10.23"/>
    <path class="cls-10" d="M466.82,686.84l8.17,6.13"/>
    <path class="cls-10" d="M471.77,679.39l7.16,5.61"/>
    <path class="cls-10" d="M474.36,672.19l5.62,4.6"/>
    <path class="cls-10" d="M476.87,665.62l3.58,2.04"/>
    <path class="cls-10" d="M478.96,659.43l3.06,2.04"/>
    <path class="cls-10" d="M367.95,627.29c-2.87,27.48,2.04,55.72,14.01,80.62"/>
    <path class="cls-10" d="M374.37,650.75c-.73,19.36,4.1,38.9,13.77,55.69"/>
    <path class="cls-10" d="M383.78,672.7c-.09,8.28,2.3,16.57,6.77,23.54"/>
    <path class="cls-10" d="M380.73,482.43c7.18,31.01,5.22,64.09-5.57,94.04"/>
    <path class="cls-10" d="M389.24,498.55c2.07,16.25,2.15,32.76,.23,49.03"/>
    <path class="cls-10" d="M395.12,507.76l.58,30.64"/>
    <path class="cls-10" d="M401.74,513.39l-.31,18.9"/>
    <path class="cls-10" d="M407.63,516.45v9.7"/>
    <path class="cls-10" d="M469.74,390.28c2.11,23.22-3.59,47.08-15.97,66.83"/>
    <path class="cls-10" d="M473.58,397.48c.64,12.85-1.55,25.84-6.36,37.78"/>
    <path class="cls-6" d="M445.72,408.61c8.16-4.18,13.13-13.82,11.81-22.89"/>
    <path class="cls-6" d="M449.37,412.33c5.45-2.74,9.39-8.3,10.16-14.36"/>
    <path class="cls-6" d="M442.21,403.22c5.92-.69,12.13,1.82,15.9,6.43"/>
    <path class="cls-6" d="M449.46,399.73l9.16,3.65"/>
    <path class="cls-10" d="M653.9,445.83l-10.7,14.82"/>
    <path class="cls-10" d="M652.11,440.41c-6.92,7.03-12.22,15.63-15.41,24.96"/>
    <path class="cls-10" d="M648.01,435.29c-9.15,9.97-15.88,22.15-19.46,35.2"/>
    <path class="cls-10" d="M645.17,430.38c-10.98,11.98-18.42,27.16-21.16,43.18"/>
    <path class="cls-10" d="M625.99,453.64c-.06,5.56,2,11.12,5.67,15.31"/>
    <path class="cls-10" d="M635.87,465.5c-4.44-5.86-6.85-13.21-6.71-20.54"/>
    <path class="cls-10" d="M633.19,437.38c1.39,8.23,4.24,16.21,8.38,23.45"/>
    <path class="cls-10" d="M637,431.74c.71,9.83,4.78,19.37,11.33,26.74"/>
    <path class="cls-10" d="M705,650.83l-2.04,8.68"/>
    <path class="cls-10" d="M710.65,645.21c-1.13,5.29-2.26,10.58-3.38,15.87"/>
    <path class="cls-10" d="M715.37,639c1.55,7.42,.26,15.4-3.56,21.96"/>
    <path class="cls-10" d="M723.63,627.25c1.12,9.65-.9,19.64-5.69,28.1"/>
    <path class="cls-10" d="M730.18,623.17c.92,9.1-.84,18.45-5.01,26.59"/>
    <path class="cls-10" d="M736.4,612.43c2.16,8.89,.81,18.59-3.68,26.56"/>
    <path class="cls-10" d="M738.48,602.63c3.97,4.15,4.55,11.13,1.31,15.87"/>
    <path class="cls-10" d="M740.48,592.97c2.59,2.66,3.73,6.65,2.94,10.28"/>
    <path class="cls-10" d="M713.04,478.75c-6.49,15.25-17.14,28.69-30.49,38.5"/>
    <path class="cls-10" d="M706.59,496.83l-11.7,15.36"/>
    <path class="cls-10" d="M734,556.42c-5.77,9.29-12.79,17.79-20.83,25.21"/>
    <path class="cls-10" d="M731.63,567.34c-4.63,5.59-9.27,11.17-13.9,16.76"/>
    <path class="cls-10" d="M737.72,623.92c-5.98,9.59-13.8,18.02-22.9,24.71"/>
    <path class="cls-10" d="M528.79,776.41c6.04,15.78,5.74,33.88-.8,49.45"/>
    <path class="cls-10" d="M520.98,781.04c4.48,10.62,4.82,22.91,1.05,33.79"/>
    <path class="cls-10" d="M512.84,785.85c3.28,5.98,3.98,13.24,2.2,19.8"/>
    <path class="cls-10" d="M505.8,794.48c-.23-2.25-.92-4.44-2.07-6.38"/>
  </g>
</svg>