<?xml version="1.0" encoding="UTF-8"?>
<svg xmlns="http://www.w3.org/2000/svg" viewBox="0 0 1024 1024">
  <defs>
    <style>
      .cls-1, .cls-2 {
        fill: #ee4b2b;
      }

      .cls-2 {
        stroke: #fff;
        stroke-width: 3.86px;
      }

      .cls-2, .cls-3 {
        stroke-miterlimit: 10;
      }

      .cls-4 {
        stroke-width: 2.58px;
      }

      .cls-4, .cls-5, .cls-6 {
        stroke: #151922;
        stroke-linecap: round;
        stroke-linejoin: round;
      }

      .cls-4, .cls-5, .cls-3 {
        fill: none;
      }

      .cls-5 {
        stroke-width: 3.87px;
      }

      .cls-6 {
        fill: #fff;
        stroke-width: 5.16px;
      }

      .cls-3 {
        stroke: #000;
        stroke-width: 1.29px;
      }
    </style>
  </defs>
  <g id="back-fire">
    <path class="cls-1" d="M490.42,29s-106.32,112.97,16.61,213.76c0,0-18.83-85.28,62.02-121.83,0,0-66.45,94.14,46.52,157.27,112.97,63.13,124.04,116.29,124.04,116.29,0,0,16.61-48.73-18.83-91.93,0,0,131.8,29.9,161.7,314.54,0,0,8.86-5.54,13.29-35.44,0,0,108.14,351.76-388.75,335.59-374.35-12.18-398.3-229.94-349.98-313.44,29.29-50.61,181.64-136.23,110.75-206,0,0,66.45-22.15,81.96,65.35,0,0,16.61-15.51-1.11-83.07-17.72-67.56-44.3-106.32-33.23-165.02,11.08-58.7,27.69-110.78,174.99-186.07Z"/>
  </g>
  <g id="base">
    <polygon class="cls-6" points="956.72 682.46 669.82 936.54 347.99 932.31 227.3 924.89 87.57 589.31 261.37 652.91 292.94 664.47 700.17 594.38 700.17 594.36 908.02 558.6 956.72 682.46"/>
    <line class="cls-5" x1="908.02" y1="558.6" x2="669.82" y2="936.54"/>
    <path class="cls-6" d="M700.17,594.36h0s-407.23,70.1-407.23,70.1l-31.57-11.55,35.08-38.06,279.15-302.92h11.65s55.44,185.34,112.92,282.44Z"/>
    <line class="cls-5" x1="347.99" y1="932.31" x2="292.94" y2="664.46"/>
    <polygon class="cls-6" points="296.45 614.85 261.37 652.91 87.57 589.31 296.45 614.85"/>
    <polyline class="cls-4" points="575.6 311.93 578.43 316.7 587.25 311.93"/>
    <line class="cls-5" x1="578.42" y1="316.69" x2="449.84" y2="637.46"/>
  </g>
  <g id="details">
    <path class="cls-3" d="M124.35,593.47c.68,4.11,1.36,8.22,2.04,12.33"/>
    <path class="cls-3" d="M134.11,594.4l3.51,14.5"/>
    <path class="cls-3" d="M142.19,595.7l2.43,16.28"/>
    <path class="cls-3" d="M151.23,595.72l3.49,17.14"/>
    <path class="cls-3" d="M159.8,597.96l3.42,20.66"/>
    <path class="cls-3" d="M169.74,598.35c1.3,7.76,2.61,15.53,3.91,23.29"/>
    <path class="cls-3" d="M179.65,598.82l3.9,23.29"/>
    <path class="cls-3" d="M189.16,601.41c1.46,9.39,2.92,18.79,4.38,28.18"/>
    <path class="cls-3" d="M200.26,603.22c1.44,10.09,2.87,20.17,4.31,30.26"/>
    <path class="cls-3" d="M210.05,603.64c1.3,10.69,2.6,21.38,3.9,32.07"/>
    <path class="cls-3" d="M220.11,603.64c1.51,11.71,3.02,23.42,4.53,35.12"/>
    <path class="cls-3" d="M230.84,605.87l4.5,36.01"/>
    <path class="cls-3" d="M241.97,608.49c1.47,13.47,2.93,26.94,4.4,40.41"/>
    <path class="cls-3" d="M252.38,608.89c1.3,14.64,2.59,29.29,3.89,43.93"/>
    <path class="cls-3" d="M262.48,611.94c.88,11.58,1.76,23.16,2.64,34.74"/>
    <path class="cls-3" d="M272.1,613.29c.38,8.93,.77,17.87,1.15,26.8"/>
    <path class="cls-3" d="M281.01,615.05l-.29,16.7"/>
    <path class="cls-3" d="M287.9,615.5l-.44,8.79"/>
    <path class="cls-3" d="M735.08,833.07c3.83,10.73,7.66,21.45,11.5,32.18"/>
    <path class="cls-3" d="M742.64,818.46c4.64,12.95,9.27,25.9,13.91,38.85"/>
    <path class="cls-3" d="M752.61,803.28c5.71,15.16,11.42,30.31,17.13,45.47"/>
    <path class="cls-3" d="M763.67,786.85c5.96,17.56,11.93,35.12,17.89,52.68"/>
    <path class="cls-3" d="M774.92,774.56c6.54,17.73,13.08,35.45,19.63,53.18"/>
    <path class="cls-3" d="M783.49,756.52c7.03,18.89,14.06,37.78,21.1,56.66"/>
    <path class="cls-3" d="M793.58,742.2c7.79,20.61,15.58,41.22,23.37,61.82"/>
    <path class="cls-3" d="M801.81,726.04c8.41,25.68,15.35,46.89,23.76,72.57"/>
    <path class="cls-3" d="M812.31,710.46c8.06,26.82,16.12,49.01,24.17,75.83"/>
    <path class="cls-3" d="M823.12,693.9c7.88,25.49,18.06,58.43,25.94,83.92"/>
    <path class="cls-3" d="M835.39,673.54c9.17,30.48,18.33,60.96,27.5,91.45"/>
    <path class="cls-3" d="M843.66,660.72c10.05,32.23,22.79,58.92,32.84,91.16"/>
    <path class="cls-3" d="M853.22,643.89c11.8,32.53,23.6,65.06,35.4,97.59"/>
    <path class="cls-3" d="M863.5,629.24c11.48,34.47,23.44,70.39,34.92,104.86"/>
    <path class="cls-3" d="M873.39,609.91c12.18,38.19,24.36,76.37,36.54,114.56"/>
    <path class="cls-3" d="M883.86,596.94c11.39,42.62,25.62,74.66,37.01,117.28"/>
    <line class="cls-3" x1="893.11" y1="582.25" x2="931.98" y2="705.84"/>
    <line class="cls-3" x1="900.32" y1="570.82" x2="941.41" y2="691.84"/>
    <path class="cls-3" d="M904.96,563.46c5.66,12.48,45.95,122.54,45.95,122.54"/>
    <path class="cls-3" d="M262.77,650.83c28.86,5.69,46.14,7.1,72.98,6.27"/>
    <path class="cls-3" d="M272.02,644.13c37.63,1.23,75.27,2.47,112.9,3.7"/>
    <path class="cls-3" d="M276.4,634.72c45.89-.1,91.78,2.66,137.33,8.26-.82-.08-1.65-.16-2.47-.25"/>
    <path class="cls-3" d="M289.58,626.02c53.73-1.77,107.61,1.43,160.75,9.53-.72-.24-1.45-.48-2.17-.73"/>
    <path class="cls-3" d="M297.05,615.43c52.9-2.01,105.95,.05,158.54,6.17"/>
    <path class="cls-3" d="M308.92,602.89c50.74-3.21,101.8-1.17,152.12,6.08-.63,.13-1.26,.25-1.89,.38"/>
    <path class="cls-3" d="M316.36,591.96c49.62-2.81,99.44-2.13,148.96,2.04"/>
    <path class="cls-3" d="M328.66,583c47.26-1.98,94.67-.4,141.69,4.72-1.1-.26-2.2-.52-3.29-.78"/>
    <path class="cls-3" d="M332.6,573.37c47.12-3.13,94.52-1.99,141.43,3.42"/>
    <path class="cls-3" d="M345.34,562.42c44.32-3.14,88.9-2.63,133.14,1.52"/>
    <path class="cls-3" d="M352.87,551.65c43.48,.96,86.97,1.91,130.45,2.87"/>
    <path class="cls-3" d="M362.53,542.68c42.12,1.04,84.25,2.08,126.37,3.12"/>
    <path class="cls-3" d="M370.87,532.28c39.68,.71,79.36,1.42,119.04,2.13"/>
    <path class="cls-3" d="M381.87,520.88c37.33,1.33,74.67,2.66,112,4"/>
    <path class="cls-3" d="M393.26,511.07c34.81,1.33,69.62,2.67,104.43,4-.81,.2-1.63,.4-2.44,.61"/>
    <path class="cls-3" d="M398.92,502.44c33.81-2.24,67.77-2.08,101.55,.48"/>
    <path class="cls-3" d="M412.27,486.45c32.51,.69,65.02,1.39,97.53,2.08"/>
    <path class="cls-3" d="M424.89,473.76c28.99,1.23,61.58-1.23,90.57,0"/>
    <path class="cls-3" d="M431.47,465.95c28.26,.07,56.52,.15,84.78,.22"/>
    <path class="cls-3" d="M440.69,458.67c27.97-.47,52.83,.51,80.8,.04"/>
    <path class="cls-3" d="M447.72,447.94c25.62,.13,51.25,.26,76.87,.39"/>
    <path class="cls-3" d="M457.83,439.36c22.7,.15,48.53,.32,71.23,.47"/>
    <path class="cls-3" d="M468.24,428.42c22.98,.23,40.83,.42,63.82,.65"/>
    <path class="cls-3" d="M477.6,418.58c19.47,1.07,38.94,2.15,58.42,3.22"/>
    <path class="cls-3" d="M484.2,410.12c17.87,1.49,35.75,2.98,53.62,4.47"/>
    <path class="cls-3" d="M491.64,402.05c16.82,2.04,33.65,4.08,50.47,6.12"/>
    <path class="cls-3" d="M500.93,395.42c13.71,1.68,27.42,3.35,41.12,5.03-.55,.08-1.09,.16-1.64,.24"/>
    <path class="cls-3" d="M505.26,388.57c14.35,.8,28.69,1.59,43.04,2.39"/>
    <path class="cls-3" d="M508.78,383.27c13.87-.01,27.73-.03,41.6-.04-.51,.29-1.02,.59-1.53,.88"/>
    <path class="cls-3" d="M517.57,374.79c12.74-.18,25.48-.35,38.22-.53"/>
    <path class="cls-3" d="M522.81,365.72c12.49-.47,24.98-.95,37.47-1.42"/>
    <path class="cls-3" d="M533.82,358.48c9.61-.69,19.22-1.38,28.82-2.06-.24-.18-.48-.36-.72-.54"/>
    <path class="cls-3" d="M538.21,349.93c9.52,.05,19.03,.1,28.55,.15"/>
    <path class="cls-3" d="M546.12,342.38c8.2,.11,13.68,.18,21.88,.29"/>
    <path class="cls-3" d="M555.35,334.65l15.81-.06"/>
    <path class="cls-3" d="M561.94,327.62c4.19-.1,11.83,.06,11.46,.24"/>
    <path class="cls-3" d="M92.61,601.41c67.19,30.78,132.46,52.32,202.81,74.97"/>
    <path class="cls-3" d="M96.38,610.47c65.91,28.64,133.73,54.36,201.16,76.36"/>
    <path class="cls-3" d="M101.44,626.33c63.1,28.43,132.36,54.04,198.77,73.5"/>
    <path class="cls-3" d="M107.02,639.44c62.83,26.66,130.43,55.06,195.99,74.04"/>
    <path class="cls-3" d="M112.24,651.48c60.42,29.13,128.47,56.57,193.24,73.99"/>
    <path class="cls-3" d="M121.56,665.09c61.17,27.93,123.72,52.83,187.36,74.57"/>
    <path class="cls-3" d="M123.82,677.11c60.48,27.51,122.43,51.81,185.5,72.75"/>
    <path class="cls-3" d="M127.83,690.81c59.36,27.3,120.61,50.48,183.17,69.32"/>
    <path class="cls-3" d="M135.36,704.09c58.38,28.01,115.4,49.32,177.85,66.45"/>
    <path class="cls-3" d="M141.85,719.66c58.87,26.78,113.6,46.86,175.56,65.4"/>
    <path class="cls-3" d="M146.92,732.33c53.73,30.34,112.27,52.14,172.76,64.31"/>
    <path class="cls-3" d="M150.72,746.45c54.74,30.12,112.87,54.06,172.94,71.22"/>
    <path class="cls-3" d="M157.09,759.53c50.99,32.34,111.76,58.35,170.37,72.89"/>
    <path class="cls-3" d="M167.49,776.88c51.79,28.47,108.26,51.33,163.45,72.46"/>
    <path class="cls-3" d="M170.99,787.54c55.95,33.03,101.75,54.71,162.97,76.46"/>
    <path class="cls-3" d="M178.79,804.43c47.71,33.02,101.66,55.85,156.97,73.39"/>
    <path class="cls-3" d="M188.55,826.34c48.95,28.6,96.43,49.49,150.99,64.89"/>
    <path class="cls-3" d="M199.33,843.71c46.03,26.6,91.77,46.4,142.95,60.82"/>
    <path class="cls-3" d="M197.25,856.2c44.51,27.14,96.37,47.63,147.24,59.05"/>
    <path class="cls-3" d="M206.67,877.82c43.18,24.29,90.85,40.57,139.86,47.77"/>
    <path class="cls-3" d="M215.81,894.37c36.16,18.18,75.15,30.7,115.13,36.98"/>
    <path class="cls-3" d="M218.67,909.21c18.88,7.05,37.76,14.1,56.64,21.15"/>
    <path class="cls-3" d="M349.6,897.02l6.85,36.05"/>
    <path class="cls-3" d="M361.21,909.92c1.84,7.19,3.68,14.38,5.52,21.57"/>
    <path class="cls-3" d="M371.76,913.76c1.3,6.3,2.59,12.6,3.89,18.9"/>
    <path class="cls-3" d="M384.6,916.37l2.98,15.39"/>
    <path class="cls-3" d="M395.91,918.65l1.64,12.7"/>
    <path class="cls-3" d="M404.69,919.91l1.53,11.01"/>
    <path class="cls-3" d="M414.28,921.24l1.78,10.98"/>
    <path class="cls-3" d="M424.07,924.29c.44,2.05,.88,4.1,1.32,6.15"/>
    <path class="cls-3" d="M435.76,926.08l.91,6.15"/>
    <path class="cls-3" d="M446.49,926.93l.92,5.7"/>
    <path class="cls-3" d="M463.1,929.14c.29,1.76,.59,3.51,.88,5.27"/>
    <path class="cls-3" d="M482.96,930.01l.41,3.96"/>
    <path class="cls-3" d="M311.57,673.05c-1.15,4.98-2.3,9.97-3.45,14.95"/>
    <path class="cls-3" d="M319.29,674.77c-2.11,11.26-4.22,22.53-6.33,33.79"/>
    <path class="cls-3" d="M324.94,686.61c-2.81,13.73-5.63,27.46-8.44,41.18"/>
    <path class="cls-3" d="M323.08,723.92l-4.87,19.87"/>
    <path class="cls-3" d="M324.93,740.18c-1.44,4.99-2.88,9.97-4.32,14.96"/>
    <path class="cls-3" d="M834.82,649.31l.41,5.71"/>
    <path class="cls-3" d="M841.98,634.39l.15,8.78"/>
    <path class="cls-3" d="M848.71,613.3l.41,19.77"/>
    <path class="cls-3" d="M857.9,596.16c-.29,8.64-.59,17.29-.88,25.93"/>
    <path class="cls-3" d="M867.7,585.66c-.56,6.58-1.12,13.16-1.68,19.74"/>
    <path class="cls-3" d="M875.79,582.09c-.35,3.36-.71,6.72-1.06,10.08"/>
    <path class="cls-3" d="M886.12,575.52l-.88,2.2"/>
    <path class="cls-3" d="M582.01,324.2l3.29,5.27"/>
    <path class="cls-3" d="M579.41,330.84c3.86,4.47,9.29,11.92,13.15,16.39"/>
    <path class="cls-3" d="M577.31,340.07l5.93,7.25"/>
    <path class="cls-3" d="M575.44,348.57c1.32,2.19,2.65,4.39,3.97,6.58"/>
    <path class="cls-3" d="M574.9,359.05l1.87,3.35"/>
    <path class="cls-3" d="M571.29,368.59l1.35,.59"/>
    <path class="cls-3" d="M727.82,844.99c5.16,10.03,9.23,20.63,12.12,31.54"/>
    <path class="cls-3" d="M719.87,857.03c4,9.72,6.61,16.07,10.6,25.79"/>
    <path class="cls-3" d="M711.9,868.9l8.68,21.62"/>
    <path class="cls-3" d="M704.41,879.84c2.77,6.77,5.54,13.55,8.31,20.32"/>
    <path class="cls-3" d="M698.1,889.91c2.39,5.15,4.79,10.3,7.18,15.46"/>
  </g>
  <g id="front-fire">
    <path class="cls-2" d="M620.67,741.56s-21.11,80.74,5.31,105.54c0,0-.56-23.48,17.91-48.55,0,0-3.61,27.78,25.42,51.57,18.38,15.06,27.02,33.58,27.02,47.64,0,59.1-47.1,70.46-87.69,70.47-40.73,0-67.23-33.53-67.11-76.27,.16-60.26,79.15-150.39,79.15-150.39Z"/>
  </g>
</svg>