<?xml version="1.0" encoding="UTF-8"?>
<svg xmlns="http://www.w3.org/2000/svg" viewBox="0 0 1024 1024">
  <defs>
    <style>
      .cls-1, .cls-2, .cls-3, .cls-4, .cls-5, .cls-6, .cls-7, .cls-8, .cls-9, .cls-10, .cls-11, .cls-12 {
        stroke-linecap: round;
        stroke-linejoin: round;
      }

      .cls-1, .cls-2, .cls-9, .cls-10 {
        stroke-width: 2px;
      }

      .cls-1, .cls-3, .cls-5, .cls-6, .cls-13, .cls-7, .cls-8, .cls-9, .cls-10, .cls-11 {
        stroke: #151922;
      }

      .cls-1, .cls-7, .cls-8 {
        fill: #fff;
      }

      .cls-2, .cls-3, .cls-9, .cls-14, .cls-11 {
        fill: #151922;
      }

      .cls-2, .cls-4, .cls-12 {
        stroke: #fff;
      }

      .cls-15 {
        fill: #ee4b2b;
      }

      .cls-4, .cls-5, .cls-6, .cls-13, .cls-10, .cls-12 {
        fill: none;
      }

      .cls-5, .cls-7, .cls-11, .cls-12 {
        stroke-width: 3px;
      }

      .cls-13 {
        stroke-miterlimit: 10;
        stroke-width: .75px;
      }
    </style>
  </defs>
  <g id="background">
    <polygon class="cls-15" points="45.4 87.78 469.6 979.81 995.04 112.8 45.4 87.78"/>
  </g>
  <g id="base">
    <path class="cls-8" d="M724.94,485.67c-2.79-2.16-7.15-3.09-9.99-5.13,2.73-6.47,3.74-15.05-1.93-20.07l-23.62-22.34c3-1.8,5.83-3.75,8.48-5.83l21.71,20.61c10.13,9.62,10.82,22.42,5.35,32.76Z"/>
    <path class="cls-7" d="M210.06,623c-11.32,.25-22.63,.5-33.94,.75-19.58,.42-38.48-2.59-57.42-7.56-17.49-4.6-38.26-12.21-47.67-29.38-5.47-9.97-7.64-21.38-9-32.67-2.04-11.66-1.75-20.79,14.89-36.86,8.72-8.41,20.42-12.92,31.95-16.62,40.45-12.98,82.72-18.62,125.29-20.14h.02c21.57-.77,43.22-.48,64.73,.45,11.79,.51,23.96,1.3,34.45,6.69,17.36,8.9,26.55,28.56,30.34,47.69,4.15,20.93,2.32,45.14-13.08,59.92-5.9,5.66-13.33,9.45-20.89,12.54-23.41,9.52-48.63,12.62-74.01,13.91"/>
    <path class="cls-11" d="M255.72,621.72c-11.08,39.11-24.96,43.72-28.94,44.22h-.05c-.69,.09-1.06,.05-1.06,.05,0,0-19.16,.8-15.6-42.99,5.59-.12,11.18-.25,16.78-.37,9.59-.21,19.24-.43,28.87-.91Z"/>
    <path class="cls-6" d="M62.03,554.14c-2.04-11.66-1.75-20.79,14.89-36.86,8.72-8.41,20.42-12.92,31.95-16.62,40.45-12.98,82.72-18.62,125.29-20.14h.02"/>
    <line class="cls-6" x1="319.81" y1="661.92" x2="319.8" y2="661.92"/>
    <polyline class="cls-6" points="226.77 665.94 226.73 665.95 225.66 665.99"/>
    <path class="cls-7" d="M113.78,552.37c2.28,.1,79.97-12.9,108.87-95.52,0,0,29.81-144.45,69.9-188.24l-43.15-46.75S57.06,486.6,51,526.66c-9.15,60.55,44.55,81.44,44.55,81.44"/>
    <path class="cls-14" d="M708.72,329.24c-35.74-75.32-151.29-160.4-273.53-169.43-191.73-14.16-191.59,81.58-191.59,81.58-5.27,71.78,65.75,115.25,65.75,115.25,199.99,144.23,347.44,84.69,381.55,62.89,34.12-21.79,27.68-69.5,17.82-90.29Zm-408.5-18.94c-.19,.35-.41,.69-.72,.93-.58,.46-1.39,.5-2.11,.34-.92-.19-1.77-.69-2.4-1.39-.48-.52-.82-1.15-1.14-1.79-1.12-2.24-2.43-5.97-.52-8.22,1.44-1.71,4.83-1.83,6.32-.18,.34,.39,.61,.84,.83,1.3,1.36,2.81,1.26,6.28-.26,9.01Zm1.81-40.18c-.04,1.08-.09,2.19-.57,3.15-.48,.98-1.42,1.72-2.48,1.95-1.06,.22-2.24-.1-3.01-.87-.59-.59-.92-1.38-1.29-2.13-.3-.64-.65-1.27-.78-1.96-.45-2.3,1.56-5.94,3.92-6.59,1.45-.39,2.98,.67,3.63,2.02,.65,1.36,.63,2.93,.58,4.43Zm19.33,.78c-.63-1.82-1.49-5.38,.71-6.46,2.93-1.45,5.14,2.35,5.72,4.61,.28,1.08,.44,2.24,.16,3.32-.29,1.09-1.09,2.09-2.19,2.34-1.04,.23-2.14-.26-2.88-1.02-.75-.77-1.18-1.78-1.52-2.79Zm6.94,24.72c1.2,.03,2.2,.93,2.89,1.91,.72,1.03,1.23,2.21,1.52,3.43,.3,1.25,.37,2.6-.09,3.8-.47,1.19-1.55,2.2-2.83,2.31-1.02,.08-2.01-.4-2.8-1.04-2.71-2.21-4.15-10.54,1.31-10.41Zm11.54,46.93c-.35,.63-.79,1.24-1.42,1.59-.84,.46-1.88,.38-2.82,.14-2.58-.65-4.94-2.56-5.66-5.13-2.09-7.42,8.61-9.22,10.65-2.25,.55,1.87,.19,3.94-.75,5.65Zm320.85,10.9c-.77-.21-1.42-.78-1.87-1.45-1.19-1.78-.98-4.37,.47-5.94,.55-1.34,1.16-2.69,2.25-3.63,1.19-1.02,3.12-1.36,4.29-.31,.44,.4,.73,.95,.89,1.53,.49,1.8-.2,3.69-.89,5.42-.47,1.15-.96,2.32-1.81,3.22-.84,.89-2.13,1.48-3.33,1.16Zm5.8,48.79c-.96,.41-2.14,.66-3.03,.1-1.05-.66-1.23-2.12-1.09-3.35,.21-1.81,.88-3.58,1.92-5.08,.84-1.84,2.14-1.83,3.94-2.76,.73-.38,1.55-.66,2.37-.59,.83,.06,1.66,.55,1.94,1.32,.13,.35,.15,.72,.14,1.09-.05,3.93-2.58,7.72-6.19,9.27Zm17-38.7c-.53,.27-1.14,.47-1.73,.36-.87-.18-1.49-1.02-1.67-1.89-.19-.87-.03-1.77,.13-2.64,.18-.99,.2-1.73,.38-2.72,.41-2.01,1.81-3.8,3.68-4.67,1.92,1.31,3.07,3.68,2.91,6.01-.16,2.32-1.62,4.51-3.7,5.55Z"/>
    <g>
      <path class="cls-12" d="M667.55,293.48s6.8,26.26-1.1,49.12l-19.13-14.57s-3.06,33.35,1.21,48.4c0,0-10.77,2.55-19.56-5.09,0,0-1.13,24.7,8.74,33.52,0,0-21.5,5.3-40.54-2.81"/>
      <path class="cls-12" d="M342.07,226.69c-.06,.08-.12,.14-.18,.2-9.46,10.9-17.04,18.22-17.04,18.22,0,0,19.11-46.32,19.99-65.69"/>
      <path class="cls-12" d="M361.27,267.1c-12.21,15.42-15.05,35.34-15.05,35.34,0,0-4.42-53.42-4.15-75.75"/>
    </g>
    <path class="cls-7" d="M657.54,450.2c-.4,.09-.78,.17-1.17,.25-7.72,1.51-15.52,2.79-23.37,3.83-6.14,.83-12.34,1.49-18.54,2.01-51.65,4.38-105.27-1.17-156.82-15.51-28.45-7.9-56.26-18.48-82.77-31.53-4.58-10.63-8.14-20.78-10.9-30.21,46.91,26.12,100.66,43.48,152.02,52.15,33.35,5.63,65.7,7.59,94.53,5.9,.73-.04,1.46-.09,2.19-.15,2.48-.15,4.94-.34,7.36-.56,3.35,.75,6.67,1.55,9.98,2.41,3.86,1.02,14.6,5.58,27.5,11.4Z"/>
    <path class="cls-7" d="M747.24,718.26c-2.25,55.82-2.53,106.79,.19,150.35-163.61,81.36-309.97,81.47-433.84-24.43l8.18-178.62c-.63-1.25-1.3-2.46-1.98-3.65l-93.02,4.02c3.98-.5,17.86-5.11,28.94-44.22,3.32-11.74,6.38-26.56,8.86-45.31,12.06-91.28-29.29-95.78-30.4-95.89l108.76-9.65c10.86-4.47,37.69-11.58,62.97-17.84,22.74-5.62,44.23-10.56,51.72-12.26,20.05-4.55,39.51-7.76,58.36-9.6,32.64-3.19,63.48-2.28,92.45,2.89,.69,1.15,1.38,2.14,2.08,3.01,1.09,1.37,2.18,2.41,3.21,3.21-.28-1.14-.62-2.27-1.02-3.36-.26-.76-.55-1.5-.87-2.24,2.76,.52,5.51,1.08,8.23,1.69,3.35,.75,6.67,1.55,9.98,2.41,3.86,1.02,14.6,5.58,27.5,11.4,23.44,10.59,54,25.38,63.38,30.61,7.8,4.36,49.46,31.38,61.95,43.97,.86,15.71,2.35,32.25,5.45,50.47h0s-14.23,35.33-14.23,35.33c-9.15,26.77-12.16,52.93-10.48,74.93,1.95,25.71,10.34,45.76,22.82,54.54l-39.19-21.79Z"/>
    <path class="cls-7" d="M613.73,440.3c1.18,4.78,1.42,9.98,.72,15.99-1.26,10.88-5.6,24.41-13,42.87-17.35,43.27-74.88,87.91-117.79,69.2-42.92-18.72-21.88-64.26-21.88-64.26-2.66-7.26-5.79-15.47-8.73-23.09-5.46-14.18-10.26-26.29-10.26-26.29-7.53,1.37-16.39,2.09-25.54,.97-3.05-.37-5.78-.94-8.21-1.63-1.1-.32-2.14-.66-3.13-1.02-14.42-5.3-16.77-15.4-16.77-15.4-5.62-9.72-10.34-19.24-14.28-28.4-4.58-10.63-8.14-20.78-10.9-30.21h0c-10.83-37.02-9.34-62.88-9.34-62.88,.83-18.23,6.85-21.46,7.31-40.39,.07-2.67-.19-5.57-.66-8.65-2.48-16.71-10.74-38.78-4.92-58.2,7.68-10.44,18.82-22.14,22.73-32.92,.28,1.11,28.97,64.57,68.48,74.75,0,0-13.12-21.15-7.44-45.26,0,0,55.37,12.81,64.88,29.62,0,0,6.59-10.74-1.47-25.96,0,0,28.5,26.05,58.96,34.29,0,0,5.52,37.19,.7,51.05,0,0,16.93-3.79,21.4-18.43,0,0,4.07,19.22,14.24,29.96l7.64-8.79s12.05,18.76,24.97,23.97c-4.09,14.67-10.27,23-16.84,27.52-.34-.73-.69-1.45-1.06-2.15-.68-1.28-1.42-2.59-2.61-3.42-1.18-.84-2.92-1.05-4.02-.12-1.12,.94-1.2,2.67-.72,4.06,.47,1.39,1.38,2.57,1.98,3.9,.13,.27,.24,.56,.34,.85-2.73,.99-5.43,1.46-8,1.6-2.86,.16-5.55-.11-7.93-.55-.44,19.67,1.45,35.68,4.58,49.17,1.11,4.8,2.38,9.28,3.76,13.48,.63,1.93,1.28,3.8,1.95,5.62h.01c1.15,3.16,2.37,6.15,3.6,9.02,.63,1.46,1.29,2.75,1.96,3.89,.69,1.15,1.38,2.14,2.08,3.01,1.09,1.37,2.18,2.41,3.21,3.21h.01Z"/>
    <path class="cls-5" d="M572.27,362.28c.37,25.89-36.11,50.75-66.73,67.02h-.01c-22.09,11.75-41.12,19.03-41.12,19.03,0,0-8.9,4.1-21.62,6.39"/>
    <path class="cls-10" d="M437.87,342.03s1.48-3.17-5.96-7.13c-7.43-3.96-13.56,5.09-23.55,3.11-10-1.98-16.01-7.97-11.43-16.32s11.88-9.93,11.88-9.93c0,0,6.89-21.57,14.23-32.28,0,0,4.83-11.77-2.79-23.16"/>
    <path class="cls-3" d="M407.79,344.18c-5.74-1.88-8.17-4.42-9.11-6.8l6.67,3.93c.73,1.15,1.57,2.1,2.44,2.87Z"/>
    <path class="cls-6" d="M417.05,347.74s-5.09,.16-9.26-3.56"/>
    <path class="cls-3" d="M427.88,339.77c-.17-.15-8.47,1.04-8.33,4.12,.14,3.08,8.19-1.12,8.19-1.12,0,0,2.4-.89,.14-2.99Z"/>
    <path class="cls-6" d="M401.1,343.11s-8.99-4.36-5.27-13.28"/>
    <path class="cls-10" d="M436.53,325.46s7.51,16.86-3.53,20.97"/>
    <circle class="cls-3" cx="489.72" cy="284.62" r="20.04"/>
    <ellipse class="cls-3" cx="389.73" cy="278.62" rx="17.14" ry="18.5"/>
    <path class="cls-6" d="M476.56,256.72s29.55-9.35,41.15,17.87"/>
    <path class="cls-6" d="M377.91,253.41s22.96-7.99,32.23,15.4"/>
    <path class="cls-3" d="M363.15,239.16c2.94,1.59,6.5,.14,9.68-.9,6.83-2.22,14.33-2.36,21.23-.39,1.2,.34,2.57,.73,3.63,.06,.53-.33,.88-.89,1.12-1.47,1.21-2.95-.44-6.47-3.03-8.32s-5.88-2.39-9.06-2.66c-6.63-.56-15.41-1.02-21.51,2.11-4.04,2.08-7.26,8.75-2.06,11.57Z"/>
    <path class="cls-3" d="M488.4,231.65c-.89,1.03-1.67,2.22-1.92,3.56-.63,3.42,2.48,6.57,5.84,7.49s6.91,.3,10.39,.17c6.35-.24,12.76,1.19,18.4,4.12,2.46,1.28,4.79,2.84,7.39,3.8,1.74,.65,3.73,1.01,5.42,.23,2.76-1.26,3.47-5.11,2.23-7.88s-3.86-4.63-6.46-6.19c-5.01-3.02-10.39-5.45-16.03-7-7.27-1.99-19.56-4.92-25.26,1.69Z"/>
    <path class="cls-3" d="M442.45,391.55c-4.59,13.11-15.61,16.61-25.71,13.66-12.28-3.57-9.74-17.77-9.74-17.77,0,0-7.57-13.31-.52-16.72,0,0-.68,4.01,.96,4.84,1.63,.85,17.54,2.57,19.78,1.55,8.42,6.29,15.23,14.43,15.23,14.43Z"/>
    <line class="cls-6" x1="450.84" y1="391.36" x2="442.45" y2="391.55"/>
    <path class="cls-6" d="M406.48,370.72c1.05-.52,2.44-.82,4.22-.81,5.29,.02,11.22,3.25,16.52,7.21"/>
    <line class="cls-6" x1="407" y1="387.44" x2="400.96" y2="387.16"/>
    <path class="cls-10" d="M403.45,393.18s-4.63,19.96,9.4,24.6c17.82,5.89,25.33-3.6,25.33-3.6"/>
    <path class="cls-6" d="M404.96,387.35c-15.66-23.12-.03-26.39,4.05-26.08,4.57,.34,25.17,3.16,36.69,30.14"/>
    <path class="cls-5" d="M592.59,352.88c-5.51-1.05-9.27-3.05-9.27-3.05"/>
    <path class="cls-6" d="M592.59,352.88v-.02"/>
    <path class="cls-10" d="M461.78,504.09c2.38,6.43,4.39,12.1,5.6,15.93,5.12,16.23-4.47,19.21-4.47,19.21"/>
    <path class="cls-7" d="M722.58,342.26c-6.76-24.23-22.02-49.91-46.43-74.2-138.72-137.97-271.71-139.23-382.4-104.32-8.75,2.75-18.91,8.3-28.73,16.05C340.2,35.1,492.32,30.07,564.75,56.81c0,0,179.36,55.03,157.83,285.46Z"/>
    <line class="cls-6" x1="265.02" y1="179.81" x2="265.02" y2="179.79"/>
    <path class="cls-2" d="M313.65,108.18h-.01c-2.89,.39-7.22-.43-10.61-4.4-.01-.01-.03-.03-.05-.06-2.49-2.48-4.31-6.16-5.03-11.06-.26-1.73-.28-3.5-.11-5.21,.52-5.72,3.01-10.8,5.07-12.1,.07-.04,.13-.08,.2-.11l1.76-.58c5.48-1.25,13.93,3.71,15.91,16.36,1.99,12.65-2.84,16.55-7.13,17.15Z"/>
    <path class="cls-1" d="M378.82,146.08c-3.78,.35-7.56,.76-11.31,1.24l-25.33-37.35c-7.32-11.08-19.98-16.38-32.71-12.96-2.18,.11-3.49-2.59-3.57-4.59-.1-2.22,.61-4.48,2.52-5.84,14-2.92,28.61,2.51,37.28,14.22l33.12,45.27Z"/>
    <path class="cls-1" d="M260.19,183.83c-2.57,2.25-5.1,4.66-7.54,7.2l-29.3-37.73c-8.75-11.28-7.02-26.61,2.2-35.87,.12,.42,.25,.83,.39,1.24,1.01,2.91,2.78,5.39,4.95,7.33-4.36,6.39-4.58,15.31,.79,22.04l28.51,35.79Z"/>
    <line class="cls-6" x1="252.64" y1="191.05" x2="252.65" y2="191.04"/>
    <path class="cls-2" d="M313.64,108.18l-67.71,21.66c-4.75,1.65-10.7,.01-15.04-3.84-2.17-1.93-3.95-4.42-4.95-7.33-.14-.41-.28-.82-.39-1.24-2.19-7.72-.26-16.61,5.65-18.32l71.91-23.87c-.07,.03-.13,.07-.2,.11-2.06,1.3-4.55,6.38-5.07,12.1-.08,.8-.12,1.63-.1,2.46,0,.91,.07,1.84,.21,2.75,.41,2.79,1.17,5.19,2.22,7.19,.79,1.51,1.74,2.8,2.81,3.86,.02,.02,.04,.05,.05,.06,3.4,3.97,7.72,4.79,10.61,4.4Z"/>
    <path class="cls-3" d="M311.17,146.37c-1.54,.29-3.14,.17-4.59-.49-.56-.25-1.11-.59-1.41-1.13-.37-.67-.25-1.51-.05-2.25,.95-3.51,3.63-6.47,6.99-7.87,3.17-1.32,4.97,.45,6.09,2.76,.25,.52,.26,1.12,.2,1.69-.38,3.69-3.65,6.61-7.23,7.28Z"/>
    <path class="cls-3" d="M410.72,129.22c.97-.2,1.91-.53,2.74-1.08,2.43-1.61,3.38-5.11,2.1-7.73s-4.64-4.01-7.4-3.07c-1.14,.39-9.29,3.99-8.8,7.5,.25,1.82,1.72,3.29,3.41,4s3.58,.77,5.41,.67c.85-.04,1.71-.12,2.55-.3Z"/>
    <path class="cls-3" d="M480.15,133.29c.79-.15,1.54-.43,2.24-.88,3.12-1.97,3.61-6.87,1.26-9.72s-6.56-2.77-10.1-1.72c-2.37,.71-2.85,1.5-4.48,3.36-.87,.99-1.56,2.26-1.42,3.58,.25,2.34,2.82,3.6,5.05,4.35,2.39,.8,5.07,1.49,7.45,1.03Z"/>
    <path class="cls-3" d="M544.51,153.52c1.62-.01,3.22-.48,4.52-1.43,2.64-1.93,3.67-5.79,2.33-8.78s-4.84-4.37-8.12-4.41c-3.45-.04-6.93,2.02-7.43,5.43s1.73,6.89,4.85,8.35c1.19,.56,2.52,.85,3.84,.83Z"/>
    <path class="cls-3" d="M602.14,184.4c-.88-.51-1.69-1.14-2.37-1.91-1.77-2.02-2.37-5.25-.79-7.42,1.2-1.66,3.39-2.37,5.43-2.24s4.2,.64,5.75,1.98c2.99,2.57,4.1,8.99,1.77,10.74-1.41,1.06-3.38,.91-5.11,.55-1.63-.34-3.26-.86-4.69-1.69Z"/>
    <path class="cls-3" d="M660.31,227.36c1.16-.01,2.27-.38,3.17-1.2,.56-.51,.99-1.14,1.33-1.81,2.19-4.38-.74-12.87-5.46-11.55-3.73,1.05-6.62,6.74-5.27,10.37,.93,2.5,3.68,4.21,6.24,4.19Z"/>
    <path class="cls-6" d="M695,265.95c-.39-.37-.75-.77-1.07-1.18-1.55-2-2.74-4.4-2.76-6.94s1.38-5.17,3.74-6.09,5.08-.79,7.13,.7c1.51,1.1,2.78,3.64,3.18,5.47s-.14,3.71-.71,5.5c-.51,1.61-1.14,3.34-2.56,4.26-2.2,1.42-4.99,.18-6.96-1.72Z"/>
    <path class="cls-3" d="M521.29,114.86c1.74-.66,3.23-1.92,3.98-3.62,1.23-2.78,.26-6.27-2.01-8.29s-5.94-3.36-8.57-1.82-5.9,2.58-4.98,8.02c.55,3.26,4.05,5.53,7.3,6.13,1.42,.26,2.93,.1,4.28-.41Z"/>
    <path class="cls-3" d="M449.98,101.49c2.67-.03,5.38-1.09,7.41-2.86,.97-.84,1.84-1.9,2.05-3.16,.29-1.74-.78-3.47-2.21-4.49s-4.16-1.35-5.87-1.78c-2.26-.12-4.63,.25-6.49,1.54s-3.08,3.66-2.58,5.86c.43,1.87,1.98,3.32,3.73,4.1,1.25,.56,2.6,.81,3.95,.79Z"/>
    <path class="cls-3" d="M381.7,103.17c-2.1-.17-4.13-.92-5.73-2.3-.47-.4-.92-.89-1.01-1.51-.07-.53,.15-1.06,.4-1.54,1.83-3.45,5.72-5.7,9.62-5.56,2.66,.36,3.51,1.07,5.44,2.95,.64,.62,1.25,1.4,1.25,2.3,0,.74-.42,1.42-.88,2-2.14,2.66-5.69,3.93-9.08,3.66Z"/>
    <path class="cls-3" d="M426.61,79.09c-1.51-.14-3.01-.67-4.32-1.46-1.59-.95-3.09-2.62-2.74-4.44,.27-1.42,1.57-2.4,2.82-3.14,1.66-.98,3.41-1.8,5.23-2.45,2.5-.83,6.25,2.53,6.49,5.15s-1.73,5.13-4.22,5.97c-1.05,.36-2.15,.46-3.25,.35Z"/>
    <path class="cls-3" d="M495.87,85.4c-2.43-.11-6.98-2.38-7.11-6.58-.19-6.02,4.61-6.68,8.01-6.83,1.58-.07,3.17,.53,4.48,1.4,3.51,2.32,3,8.32-.47,10.7-1.45,.99-3.18,1.4-4.92,1.31Z"/>
    <path class="cls-3" d="M588.57,142.48c.66,.07,1.32,.06,1.98-.03,2.62-.37,5.11-2.33,5.54-4.94,.35-2.13-.63-4.24-1.64-6.15-.68-1.31-1.83-3.67-6.72-3.86-2.38-.09-5.54,1.2-6.98,3.1s-1.65,4.64-.51,6.73c.66,1.22,1.71,2.19,2.85,2.98,1.62,1.14,3.52,1.98,5.48,2.18Z"/>
    <path class="cls-3" d="M641.35,174.38c-1.15-.86-2.1-2-2.75-3.28-.63-1.24-.99-2.67-.75-4.04,.47-2.58,3.18-4.41,5.81-4.28,2.62,.13,3.07,.17,5.16,1.77,2.35,1.8,4.57,4.2,3.67,7.02s-3.99,4.64-6.95,4.43c-1.52-.11-2.97-.71-4.19-1.62Z"/>
    <path class="cls-3" d="M681.93,206.68c-.46-3.38,2.31-7.06,5.79-7.23,3.88-.19,7.5,2.74,7.05,6.59-.22,1.9-.28,3.9-1.38,5.46s-3.07,2.61-4.94,2.2c-1.2-.26-2.21-1.05-3.13-1.87-1.29-1.14-2.52-2.43-3.12-4.04-.14-.37-.23-.74-.28-1.12Z"/>
    <path class="cls-3" d="M570.74,103.64c-.49-.04-.98-.12-1.45-.24-2.14-.55-4.02-1.78-5.85-3.01-.9-.6-1.83-1.24-2.32-2.19-.74-1.44-.29-3.26,.7-4.55s4.46-3.18,6.04-3.54c2.95-.67,6.1,1.44,7.93,3.84s1.97,6.21-.26,8.26c-1.27,1.16-3.04,1.57-4.78,1.44Z"/>
    <path class="cls-3" d="M632.86,138.18c.64-.27,1.2-.69,1.61-1.25,1.1-1.5,.91-3.58,.35-5.36-.73-2.33-2.06-4.54-4.08-5.93s-4.77-1.8-6.95-.68c-2.68,1.38-3.45,4.71-2.72,6.46s2.17,3.1,3.64,4.3c1.42,1.17,2.97,2.29,4.76,2.71,1.11,.26,2.34,.19,3.38-.26Z"/>
    <path class="cls-3" d="M680.33,171.38c.45-.33,.79-.78,.97-1.37,.26-.83,.13-1.72-.06-2.56-.43-1.84-1.26-3.65-2.69-4.89s-4.24-2.57-5.28-.99c-1.53,2.33-.59,6.79,1.2,8.92,1.4,1.66,4.27,2.06,5.86,.89Z"/>
    <path class="cls-3" d="M621.19,100.22s.02-.04,.03-.06c.91-1.79-.47-3.85-1.8-5.35-1.65-1.86-3.41-3.71-5.64-4.83s-5.41-1.81-7.14-.03c-1.9,1.96-.1,5.78,1.73,7.81s4.49,3.1,7.14,3.75c2.04,.51,4.7,.54,5.69-1.29Z"/>
    <path class="cls-3" d="M548.47,67.37c.06-1.15-.32-2.38-1.04-3.27-1.46-1.8-3.82-2.58-6.06-3.2-1.23-.34-5.93-.08-6.04,2.33-.09,2,4.83,6.95,8.47,7.4,1.05,.13,2.18,.11,3.1-.42,1.01-.58,1.51-1.67,1.57-2.83Z"/>
    <path class="cls-3" d="M479.2,59.87c.16-.04,.32-.08,.47-.12,1.21-.34,2.42-.9,3.18-1.9s.92-2.54,.1-3.49c-.41-.47-.99-.76-1.57-.99-6.44-2.6-11.13,.1-11.81,1.27s-.28,2.74,.65,3.72,2.28,1.45,3.61,1.69c1.77,.31,3.61,.25,5.36-.17Z"/>
    <path class="cls-3" d="M613.72,440.3c-1.03-.8-2.12-1.84-3.21-3.21-.7-.87-1.39-1.86-2.08-3.01-.66-1.14-1.33-2.43-1.96-3.89-1.23-2.87-2.45-5.86-3.6-9.01,3.99,4.51,6.97,8.89,8.95,13.53,.79,1.83,1.41,3.68,1.89,5.6Z"/>
    <path class="cls-1" d="M627.63,491.39c-4.52,23.2-58.97,128.64-142.67,98.54-83.72-30.1-31.91-108.93-31.91-108.93,2.94,7.62,6.06,15.84,8.73,23.09,0,0-21.04,45.55,21.88,64.27,42.91,18.71,100.45-25.93,117.79-69.2,7.4-18.46,11.75-31.99,13-42.87,.7-6.01,.46-11.21-.72-15.99h-.01c-.28-1.15-.62-2.27-1.02-3.36-.25-.76-.55-1.5-.87-2.24-1.98-4.65-4.96-9.02-8.95-13.53h-.01c-.67-1.83-1.32-3.71-1.95-5.64,3.38-.66,5.94,3.1,5.94,3.1,7.72,8.95,16.88,12.66,19.64,14.94,.75,.62,1.36,1.3,1.83,1.95,1.29,1.71,1.71,3.27,1.71,3.27,1.74,5.92,2.66,10.87,2.96,15.48,.75,11.35-2.15,20.6-5.37,37.12Z"/>
    <path class="cls-7" d="M920.39,689.95c-2.37,5.55-5.86,10.52-10.58,14.43-6.27,5.19-14.09,8.12-21.95,10.22-16.83,4.5-34.59,5.55-51.84,3.14-4.39-.6-8.75-1.44-13.05-2.5-21.65-5.33-41.56-16.16-59.35-29.74-1.69-22,1.32-48.16,10.48-74.93l14.23-35.32h0c-3.1-18.24-4.59-34.78-5.45-50.48,7.5,3.33,14.64,7.56,21.58,11.95,31.98,20.2,61.43,44.38,87.47,71.82,12.6,13.28,24.71,27.87,29.95,45.42,3.48,11.67,3.23,24.96-1.49,35.99Z"/>
    <path class="cls-7" d="M809.46,653.61c-10.84-29.9-17.25-55.45-21.14-78.35h0c-3.1-18.24-4.59-34.78-5.45-50.48-3.39-61.83,3.1-110.72-39.17-198.45l-24.8-6.82c-19.74-18.04-38.53-80.69-38.53-80.69-33.95-39.35-38.04-68.39-38.04-68.39l4.17-3.47s39.63,53.2,47.45,57.4c7.8,4.19,9.78-6.06,9.78-6.06l-13.82-46.83c-13.37-19.46-20.29-38.15-20.29-38.15,2.68-7.15,11.92-3.85,11.92-3.85l8.29,10.18,42.29,4.8,4.68,7.98,27.66,3.89,4.92,8.87c2.08,21.25,7.97,42.32,7.97,42.32,1.75,44.92,25.76,94.14,25.76,94.14,0,0,133.28,250.69,141.07,305.02,7.79,54.31-14.93,70.41-14.93,70.41-1.49,5.2-4.66,9.46-8.84,12.87-15.47,12.61-44.85,13.61-54.91,7.72"/>
    <path class="cls-10" d="M689.82,139.65s5.93,6.77,22.82,22.93c0,0,7.66,34.87,13.63,45.76l4.94,.23"/>
    <path class="cls-10" d="M758.13,202.64l-6.46-.3c-5.96-11.18-14.89-49.92-14.89-49.92"/>
    <path class="cls-6" d="M309.87,599.61c11.85,5.15,28.88,57.28,27.99,76.62"/>
    <path class="cls-10" d="M332.45,700.01c-2.05-13.05-5.65-24.67-10.67-34.44"/>
    <path class="cls-10" d="M319.8,661.92c-6.02-10.42-13.82-18.44-23.22-23.52"/>
    <path class="cls-6" d="M709.14,667.86s-43.13,25.36-49.72,42.37"/>
    <path class="cls-10" d="M729.29,691.1s-25.31,3.07-41.56,15.46"/>
    <path class="cls-9" d="M836.01,717.74s-5.4,30.2-37.22,27.02c-4.45-.45-8.58-2.07-12.35-4.71-12.48-8.78-20.87-28.83-22.82-54.54,17.79,13.57,37.7,24.4,59.35,29.74,4.3,1.06,8.66,1.89,13.05,2.5Z"/>
    <line class="cls-10" x1="747.24" y1="718.26" x2="708.04" y2="696.46"/>
    <path class="cls-6" d="M436.17,695.05s21.83,109.5,46.86,148.9"/>
    <path class="cls-6" d="M468.61,747.36s16.77,57.87,47.81,90.7"/>
    <path class="cls-4" d="M493.6,280.78c-.39,1-.97,2.06-.61,3.07,.15,.41,.44,.76,.77,1.04,1.27,1.1,3.2,1.36,4.71,.62,.42-.2,.84-.52,.93-.98,.04-.19,.02-.39,0-.58-.25-1.76-1.05-3.36-2.02-4.82-.62-.93-2.14-3.58-3.27-3.6-.32,1.71,.2,3.43-.5,5.23Z"/>
    <path class="cls-4" d="M499.15,280.43c-.28,1.21-.39,2.46-.51,3.7-.12,1.33-.24,2.71,.23,3.97,.61,1.64,2.25,2.85,4,2.94s3.51-.95,4.27-2.53c.86-1.76,.48-3.87-.13-5.73-.27-.82-.59-1.64-1.09-2.34-.62-.87-1.49-1.53-2.3-2.24-1.26-1.1-2.25-2.38-3.36-3.6-.56,.34-.88,4.77-1.12,5.84Z"/>
    <path class="cls-4" d="M394.49,277.94c.02,.61,.06,1.29,.51,1.71,.29,.27,.7,.38,1.09,.43,.77,.1,1.61,.02,2.25-.43,.73-.52,1.09-1.46,1.08-2.35s-.32-1.77-.71-2.58c-.94-1.97-2.56-4.69-4.4-5.91-.43,2.87,.1,6.2,.18,9.12Z"/>
    <path class="cls-4" d="M402.06,275.59c.82,1.32,1.67,2.73,1.64,4.28-.02,1.48-.84,2.83-1.82,3.94-.39,.44-.91,.89-1.49,.81-.43-.06-.77-.41-1.02-.76-1.19-1.66-1.34-3.86-1.04-5.88,.21-1.43,.53-4.74,1.67-5.57,.8,.94,1.4,2.13,2.05,3.19Z"/>
    <path class="cls-6" d="M535.03,356.16c-2.75,2.69-6.14,4.86-9.92,5.57-.82,.15-1.81,.18-2.35-.45-.59-.68-.33-1.73-.01-2.57,1.46-3.88,3.54-7.53,6.14-10.76,4.56-1.46,9.15-1.99,13.5-3.98,.98,.37,.56,1.84-.02,2.71-2.18,3.27-4.38,6.56-7.16,9.33-.06,.06-.11,.11-.17,.17Z"/>
    <path class="cls-8" d="M617.01,363.66c-.49,1.87-1.4,3.68-2.83,4.98-1.45,1.3-3.46,2.02-5.36,1.64-1.32-.26-2.49-1.02-3.5-1.92-3.98-3.48-6.03-9.79-4.8-14.94,2.57-.14,5.27-.61,8-1.6-.1-.3-.21-.58-.34-.85-.6-1.34-1.51-2.52-1.98-3.9-.47-1.39-.39-3.12,.72-4.06,1.11-.93,2.84-.72,4.02,.12,1.18,.83,1.93,2.13,2.61,3.42,.37,.7,.73,1.42,1.06,2.15,2.22,4.73,3.7,9.97,2.4,14.96Z"/>
    <path class="cls-6" d="M608.51,351.84c.66,1.86,.8,3.88,.86,5.88,.03,.85,.04,1.74-.34,2.49s-1.27,1.33-2.07,1.07"/>
    <path class="cls-6" d="M595.96,335.61c6.07-.64,11.86-3.61,15.93-8.17,4.06-4.55,6.36-10.65,6.3-16.75"/>
    <path class="cls-6" d="M592.38,304.96l3.34,7.79c.23,.55,.47,1.12,.44,1.72-.04,.75-.51,1.4-.96,2-1.89,2.5-3.87,4.94-5.93,7.31"/>
    <path class="cls-7" d="M725.22,386.91c-3.39,18.11-12.65,33.81-27.35,45.38-2.64,2.09-5.47,4.04-8.48,5.83-7.98,4.82-17.21,8.59-27.61,11.13-1.39,.34-2.81,.65-4.24,.95-12.91-5.83-23.64-10.39-27.5-11.41,0,0-.42-1.56-1.71-3.27,45.35-5.49,68.77-26.94,73.75-54.35,2.24-12.37,.74-25.93-4.18-39.8-5.7-16.04-15.98-32.48-30.35-47.89-.57-.61-1.13-1.2-1.71-1.8-.44-.47-.89-.92-1.34-1.38-.58-.61-1.17-1.2-1.77-1.79-9.47-9.42-19.2-18.17-29.15-26.3-2.49-2.02-4.99-4.02-7.51-5.98-1.25-.97-2.51-1.95-3.78-2.9-2.53-1.92-5.07-3.79-7.61-5.63-24.24-17.44-49.51-31.43-75.1-42.27-2.35-.99-4.69-1.95-7.04-2.89-1.7-.69-3.39-1.35-5.1-2-.91-.35-1.82-.7-2.73-1.04-11.55-4.33-23.13-8.04-34.7-11.14-2.13-.58-4.26-1.13-6.4-1.66-3.2-.81-6.41-1.56-9.62-2.28-2.25-.51-4.5-.98-6.74-1.44-19.05-3.87-37.9-6.16-56.26-7-1.35-.07-2.69-.12-4.03-.17-1.18-.04-2.37-.07-3.54-.1-.36,0-.7,0-1.06-.02-1.03-.02-2.06-.05-3.07-.05-2.99-.05-5.96-.04-8.92,0-.95,.01-1.89,.02-2.84,.05-.44,0-.86,0-1.3,.03-.95,.02-1.9,.04-2.84,.08-1.44,.04-2.87,.1-4.3,.17-.12,.01-.23,.01-.34,.02-10.61,.51-20.98,1.51-31.04,3-.98,.14-1.93,.28-2.86,.42-10.9,1.71-21.41,3.95-31.48,6.73-28.1,7.73-79.61,39.3-57.03,91.76,1.42,3.29,3.18,6.73,5.24,10.25,2.07,3.52,4.46,7.12,7.14,10.73,24.14,32.41,57.48,59.12,95.24,80.13h0c2.76,9.44,6.32,19.59,10.9,30.22-44.49-21.92-85.3-50.84-119.25-85.83-14.9-15.37-23.89-30.91-28.24-45.53-2.25-7.62-3.26-15.08-3.26-22.3,0-25.43,12.6-47.94,28.53-64.53h.01c2.44-2.55,4.96-4.96,7.54-7.22,1.59-1.4,3.21-2.75,4.83-4.02v-.02c9.82-7.74,19.98-13.29,28.73-16.05,23.62-7.45,48.27-13.25,73.77-16.42,3.74-.48,7.52-.89,11.3-1.24,91.08-8.44,192.57,17.79,297.33,121.98,24.41,24.29,39.67,49.97,46.43,74.2,4.4,15.76,5.22,30.91,2.64,44.65Z"/>
    <path class="cls-14" d="M450,473.11c37.2-.69,100.45-44.82,115.05-89.78-19.53,26.69-67.9,56.97-122.25,71.38l7.21,18.4Z"/>
  </g>
  <g id="details">
    <path class="cls-13" d="M450.16,263.46c.53-1.91,1.84-3.5,3.2-4.95,5.21-5.51,11.74-9.75,18.89-12.27"/>
    <path class="cls-13" d="M452.46,268c5.27-9.84,15.04-17.15,25.97-19.41"/>
    <path class="cls-13" d="M455.23,277.77c2.1-8.92,7.92-16.66,15.58-20.73"/>
    <path class="cls-13" d="M400.41,250.04c8.23,6.03,12.5,15.97,16.11,25.51"/>
    <path class="cls-13" d="M404.16,248.72c6.94,6.42,11.85,15,13.88,24.24"/>
    <path class="cls-13" d="M405.44,243.54c7.26,7.33,12.67,16.47,15.59,26.36"/>
    <path class="cls-13" d="M370.14,285.08c.31,6.41,4.52,12.48,10.42,15.01"/>
    <path class="cls-13" d="M513.17,261.8c5.31,.06,10.62-1.99,14.5-5.62"/>
    <path class="cls-13" d="M516.92,264.23c4.08-.18,8.11-1.48,11.54-3.71"/>
    <path class="cls-13" d="M361.7,244.97c1.08,2.82,2.69,5.44,4.72,7.68,1.69,1.86,3.83,3.53,6.33,3.82"/>
    <path class="cls-13" d="M366.69,247.36c1.77,3.03,4.61,5.42,7.9,6.65"/>
    <path class="cls-13" d="M361.48,208.82c-1.85,5.58-2.7,11.5-2.47,17.37"/>
    <path class="cls-13" d="M407.54,361.74c-.42,1.68-.06,3.5,.78,5,.7,1.25,1.71,2.3,2.87,3.16"/>
    <path class="cls-13" d="M405.08,362.12c-.46,1.57-.29,3.31,.45,4.77s2.06,2.61,3.6,3.16"/>
    <path class="cls-13" d="M403.08,363.25c-.38,.5-.37,1.19-.28,1.81,.29,1.9,1.25,3.68,2.68,4.96,.31,.28,.67,.53,1.06,.69"/>
    <path class="cls-13" d="M401.12,364.57c-.31,1.73-.11,3.59,.81,5.09s2.64,2.54,4.39,2.41"/>
    <path class="cls-13" d="M398.81,365.86c.32,2.83,1.86,5.5,4.15,7.19,.75,.56,1.81,1.01,2.59,.49"/>
    <path class="cls-13" d="M398.38,369.99c.87,2.4,2.74,4.41,5.08,5.43,.58,.26,1.24,.45,1.84,.26"/>
    <path class="cls-13" d="M398.9,373.73l-.44,.11c1.1,2.42,3.67,4.11,6.33,4.14"/>
    <path class="cls-13" d="M399.89,377.34c.1,1.16,1.1,2.03,2.14,2.57,1.17,.6,2.47,.93,3.78,.95"/>
    <path class="cls-13" d="M400.65,380.97c1.05,1.03,2.38,1.78,3.81,2.15,.29,.08,.6,.14,.89,.07s.57-.3,.6-.6"/>
    <path class="cls-13" d="M402.7,384.3c1.11,.87,2.76,1,4,.31"/>
    <path class="cls-13" d="M407.35,388.08c-1.68,.84-2.98,2.38-3.53,4.17"/>
    <path class="cls-13" d="M407.08,390.86l-1.49,1.46c-.54,.53-1.09,1.07-1.47,1.73s-.58,1.45-.38,2.18"/>
    <path class="cls-13" d="M407.07,394.68c-1.92,1.71-3.21,4.11-3.56,6.66"/>
    <path class="cls-13" d="M408.02,397.56c-2.76,2.79-4.28,6.76-4.08,10.68"/>
    <path class="cls-13" d="M409.27,400.59c-2.66,2.9-3.77,7.14-2.89,10.98"/>
    <path class="cls-13" d="M401.42,427.68c4.08-2.29,8.93-3.17,13.55-2.43s8.97,3.07,12.13,6.51"/>
    <path class="cls-13" d="M363.16,330.21c1.26,29.26,9.52,58.2,23.89,83.73"/>
    <path class="cls-13" d="M398.96,327.47c.55,2.78,2.98,5.08,5.78,5.48"/>
    <path class="cls-13" d="M406.7,339.43c-.08,1.2,.89,2.19,1.78,3,1.71,1.55,3.58,3.17,5.88,3.4"/>
    <path class="cls-13" d="M415.13,357.69c1.53-.27,2.83-1.54,3.14-3.06"/>
    <path class="cls-13" d="M415.36,355.98c.43-.21,.74-.63,.82-1.1"/>
    <path class="cls-13" d="M380.29,178.71c-.67,6.84-.83,13.73-.48,20.59"/>
    <path class="cls-13" d="M383.56,183.63c-.7,4.61-1.15,9.26-1.33,13.91-.08,2.08-.11,4.21,.49,6.21"/>
    <path class="cls-13" d="M386.09,190.61c-.52,5.6-.75,11.23-.69,16.86"/>
    <path class="cls-13" d="M388.84,196.05c-.39,4.59-.66,9.2-.83,13.8-.02,.44,0,.95,.38,1.19"/>
    <path class="cls-13" d="M392.93,201.85c-.34,4.47-.37,8.97-.07,13.45"/>
    <path class="cls-13" d="M396.27,208.64c-.51,4.01-.58,8.08-.23,12.1"/>
    <path class="cls-13" d="M399.72,213.08c-.45,4.27-.9,8.59-.24,12.83"/>
    <path class="cls-13" d="M403.58,217.13c-1.14,4.62-1.27,9.49-.38,14.17"/>
    <path class="cls-13" d="M407.21,223.65c-.71,4.21-.74,8.53-.1,12.75"/>
    <path class="cls-13" d="M411.3,226.37c-.61,4.45-.84,8.95-.69,13.44"/>
    <path class="cls-13" d="M415.5,231.29c-.27,4.14-.41,8.29-.44,12.43"/>
    <path class="cls-13" d="M419.01,233.12c.43,4.85-1.09,9.94,.55,14.53"/>
    <path class="cls-13" d="M424.38,238.22c-.1,.32-.14,.66-.16,.99-.34,4.05-.32,8.13,.06,12.17"/>
    <path class="cls-13" d="M428.99,241.69c-.57,4.4-.59,8.88-.07,13.29"/>
    <path class="cls-13" d="M433.72,245.6c-.14,4.37-.2,8.74-.18,13.11"/>
    <path class="cls-13" d="M438.52,247.65c-.5,4.57-.67,9.18-.51,13.78"/>
    <path class="cls-13" d="M443.08,250.02l-.23,13.96"/>
    <path class="cls-13" d="M447.24,251.73c-.22,2.73-.54,5.45-.95,8.16"/>
    <path class="cls-13" d="M443,206.87c-.12,.13-.14-.25,.02-.2s.17,.27,.15,.44c-.42,2.99-.63,6.01-.64,9.03"/>
    <path class="cls-13" d="M446.81,207.43c-.93,3.5-1.27,7.15-1.01,10.76"/>
    <path class="cls-13" d="M450.55,209.34c-.5,4.18-.79,8.38-.88,12.59"/>
    <path class="cls-13" d="M455.15,211.05c-.54,3.83-.76,7.71-.64,11.57"/>
    <path class="cls-13" d="M459.77,212.24l-.52,13.45"/>
    <path class="cls-13" d="M464.67,212.72c-.7,4.68-1.08,9.42-1.13,14.15"/>
    <path class="cls-13" d="M468.74,214.28c-.47,3.96-.8,7.93-.97,11.92"/>
    <path class="cls-13" d="M473.27,215.63c-.5,3.78-.78,7.6-.84,11.41"/>
    <path class="cls-13" d="M477.62,217.17c-.43,3.84-.68,7.71-.73,11.57"/>
    <path class="cls-13" d="M482.36,219.72c.05,3.87-.21,7.75-.78,11.58"/>
    <path class="cls-13" d="M486.47,221.77c-.08,3.71-.4,7.41-.96,11.08"/>
    <path class="cls-13" d="M490.23,223.47l-.78,10.03"/>
    <path class="cls-13" d="M494.46,226.02c.02,3.02-.23,6.04-.73,9.02"/>
    <path class="cls-13" d="M510.55,214.78c.51,5.09,.76,10.21,.76,15.33"/>
    <path class="cls-13" d="M515.23,218.86c-.28,4.54-.09,9.11,.57,13.61"/>
    <path class="cls-13" d="M520.82,224.15c-.42,3.84-.49,7.72-.21,11.58"/>
    <path class="cls-13" d="M525.85,225.68l-.6,11.07"/>
    <path class="cls-13" d="M530.24,229.77c-.3,3.9-.37,7.83-.21,11.74"/>
    <path class="cls-13" d="M534.88,232.15l-.39,11.92"/>
    <path class="cls-13" d="M539.67,235.73l-.71,11.56"/>
    <path class="cls-13" d="M544.06,237.6c-.44,4.47-.7,8.95-.8,13.44"/>
    <path class="cls-13" d="M548.17,239.81c-.23,4.54-.47,9.08-.7,13.62"/>
    <path class="cls-13" d="M552.49,241.68l-.31,14.29"/>
    <path class="cls-13" d="M556.7,242.19c.07,4.88,.08,9.76,.03,14.64"/>
    <path class="cls-13" d="M560.91,242.86c.51,5.09,.59,10.23,.23,15.34"/>
    <path class="cls-13" d="M494.29,564.72c2.96-.7,5.89-1.65,8.46-3.28s4.74-4.01,5.66-6.91"/>
    <path class="cls-13" d="M497.89,559.46c1.95-1.13,3.75-2.54,5.31-4.16"/>
    <path class="cls-13" d="M459.76,477.98c2.56,3.21,6.08,5.66,9.98,6.94"/>
    <path class="cls-13" d="M462.63,485.84c1.03,1.43,2.6,2.47,4.32,2.86"/>
    <path class="cls-13" d="M612.95,361.82c.04,.14,.1,.28,.2,.38,.19,.19,.52,.2,.76,.08s.43-.33,.58-.56c.53-.78,.78-1.75,.69-2.69,0-.1-.02-.2-.06-.3-.27-.76-1.42-.51-1.8,.01-.53,.72-.63,2.24-.38,3.07Z"/>
    <path class="cls-13" d="M612.95,355.58c.11,.18,.32,.35,.52,.27,.14-.05,.21-.2,.27-.34,.06-.15,.13-.3,.19-.45,.2-.46,.02-1.29-.66-1.06-.58,.2-.58,1.14-.32,1.58Z"/>
    <path class="cls-13" d="M612.48,306.36c-2.24,4.25-5.51,7.96-9.46,10.7"/>
    <path class="cls-13" d="M614.26,308.27c-3.1,4.92-7.22,9.19-12.02,12.47"/>
    <path class="cls-13" d="M616.06,309.93c-3.84,6.48-9.81,11.68-16.76,14.59"/>
    <path class="cls-13" d="M617.2,312.04c-2.41,5.2-6.66,9.52-11.82,12.01"/>
    <path class="cls-13" d="M589.83,306.07c.65,1.3,1.28,2.62,1.89,3.94,.64,1.39,1.26,2.9,.97,4.4-.16,.8-.56,1.53-.98,2.22-1.41,2.34-3.04,4.55-4.87,6.59"/>
    <path class="cls-13" d="M584.3,346.93c6.49,3.4,14.27,4.28,21.35,2.4,.14-.04,.32-.06,.39,.07s-.23,.21-.18,.07"/>
    <path class="cls-13" d="M628.28,320.17c-1.28,4.94-3.21,9.72-5.72,14.16-2.48,4.37-5.81,8.64-10.55,10.29"/>
    <path class="cls-13" d="M626.31,320.14c-.72,5.28-3.12,10.32-6.77,14.21"/>
    <path class="cls-13" d="M620.16,323.57c1.99,.61,3.72,2.02,4.72,3.84s1.26,4.04,.71,6.04"/>
    <path class="cls-13" d="M623.37,321.48c2.43,1.08,3.79,3.73,4.35,6.32,.12,.56,.2,1.21-.16,1.66"/>
    <path class="cls-13" d="M626.15,318.61c1.91,1.72,3,4.33,2.88,6.9"/>
    <path class="cls-13" d="M577.2,463.32c-1.41,12.09-3.32,24.12-5.72,36.05"/>
    <path class="cls-13" d="M571.09,472.47c-.56,4.57-1.28,9.13-2.15,13.65"/>
    <path class="cls-13" d="M566.45,476.91c.16,1.86-.2,3.77-1.02,5.45"/>
    <path class="cls-13" d="M597.35,103.9c.94,.25,1.93,.45,2.88,.23,1.81-.43,2.98-2.33,3.12-4.19s-.51-3.68-1.22-5.4c-2.19-5.35-5.02-10.59-9.32-14.44-3.16-2.82-9.79-6.59-14.3-5.66-5.41,1.11-3.15,5.52-1.27,10.05,3.66,8.83,10.6,16.88,20.11,19.42Z"/>
    <path class="cls-13" d="M617.03,128.57c-.12-.44-.26-.87-.41-1.27-.64-1.73-1.3-3.52-2.58-4.85s-3.34-2.09-5.02-1.32c-2.24,1.04-2.67,3.99-2.41,6.44,.67,2.88,.51,2.87,2.47,5.08,1.52,1.71,4.91,2.98,6.85,1.77,1.84-1.14,1.71-3.64,1.1-5.85Z"/>
    <path class="cls-13" d="M442.64,151.43c29.07,4.69,58.24,10.74,85.61,21.97,27.4,11.12,52.54,26.93,76.65,43.81,35.87,25.28,71.22,53.53,95.47,90.71,8.03,12.36,14.67,25.66,19.36,39.64,.14,.43-.09,.9-.52,1.04-.43,.14-.89-.08-1.04-.51-4.83-13.77-11.57-26.83-19.67-38.95-24.56-36.56-59.87-63.98-95.87-88.67-24.14-16.46-49.17-31.81-76.25-42.42-27.04-10.72-55.8-16.34-84.67-20.64-3.81-.61-3.26-6.47,.92-5.99h0Z"/>
    <path class="cls-13" d="M717.41,306.11c.53,1.81,1.64,3.38,2.74,4.91,.85,1.19,1.71,2.39,2.88,3.27,1.09,.82,2.39,1.3,3.68,1.73,4.28,1.43,8.71,2.37,13.2,2.82"/>
    <path class="cls-13" d="M723.36,306.98c2.74,4.8,8.49,7.7,13.98,7.05"/>
    <path class="cls-13" d="M714.47,219.29c-.41,5.77,3.23,11.59,8.59,13.75"/>
    <path class="cls-13" d="M688.21,240.56c2.36,3.58,5.7,6.5,9.55,8.37"/>
    <path class="cls-13" d="M738.22,210.12c.25,3.64,2.16,7.13,5.08,9.31"/>
    <path class="cls-13" d="M741.69,211.64c.12,1.11,.57,2.19,1.27,3.07"/>
    <path class="cls-13" d="M764.99,206.77c.36,2.01,1.3,3.92,2.68,5.42"/>
    <path class="cls-13" d="M767.94,207.06l.83,2.01"/>
    <path class="cls-13" d="M695.24,259.12c4.89,13.43,10.95,26.44,18.08,38.83"/>
    <path class="cls-13" d="M745.55,321.3c2.25,1.05,3.6,3.37,4.71,5.59,2.29,4.56,4.24,9.3,5.83,14.16"/>
    <path class="cls-13" d="M750.09,319.9c2.99,5.01,5.5,10.31,7.48,15.8"/>
    <path class="cls-13" d="M754.66,321.2c.96,1.57,1.68,3.29,2.14,5.07"/>
    <path class="cls-13" d="M755.7,293.43l.41,10.21"/>
    <path class="cls-13" d="M704.35,150.11c-.17,1.48-.11,2.99,.17,4.45"/>
    <path class="cls-13" d="M708.06,150.11c-.35,2.13-.47,4.31-.34,6.47"/>
    <path class="cls-13" d="M712.37,151.76c-1.21,3.15-1.57,6.61-1.04,9.94"/>
    <path class="cls-13" d="M723.38,200.49c2.43-1.52,5.3-2.33,8.17-2.3"/>
    <path class="cls-13" d="M719.97,196.73c3.2-1.05,6.52-1.75,9.87-2.08"/>
    <path class="cls-13" d="M720.32,193.01c2.67-2.08,6.2-3.02,9.55-2.54"/>
    <path class="cls-13" d="M718.92,189.53c3.1-1.77,6.68-2.7,10.25-2.65"/>
    <path class="cls-13" d="M719.66,185.57c2.72-1.02,5.59-1.64,8.48-1.85"/>
    <path class="cls-13" d="M717.9,182.63c3.3-.73,6.61-1.46,9.91-2.2"/>
    <path class="cls-13" d="M717.7,179.9c3.48-2,7.46-3.14,11.47-3.3"/>
    <path class="cls-13" d="M716.83,175.49c3.02-1.71,6.49-2.61,9.96-2.6"/>
    <path class="cls-13" d="M714.15,170.78c2.74-1.19,5.62-2.05,8.56-2.57"/>
    <path class="cls-13" d="M714.88,166.46l9.87-2.4"/>
    <path class="cls-13" d="M713.07,164.27c2.96-2.22,6.62-3.49,10.32-3.58"/>
    <path class="cls-13" d="M750,169.25l-6.63,5.24"/>
    <path class="cls-13" d="M746.86,167.79l-4.8,3.7"/>
    <path class="cls-13" d="M743.47,166.44l-2.09,1.99"/>
    <path class="cls-13" d="M743.74,177.57l7.15-4.09"/>
    <path class="cls-13" d="M744.52,179.85c2.46-.6,4.96-1.07,7.47-1.41"/>
    <path class="cls-13" d="M745.48,183.64l7.19-1.11"/>
    <path class="cls-13" d="M747.25,187.68l5.44-1.39"/>
    <path class="cls-13" d="M747.92,192.07l4.74-1.14"/>
    <path class="cls-13" d="M750.28,196.74h3.06"/>
    <path class="cls-13" d="M724.74,203.57c2.29,.24,4.62,0,6.82-.67"/>
    <path class="cls-13" d="M721.48,149.51c1.48,3.67,4.09,6.87,7.39,9.05"/>
    <path class="cls-13" d="M754.42,161.38c.36,2.56,2.08,4.88,4.41,5.99"/>
    <path class="cls-13" d="M696.44,166.13c1.65,3.23,6.02,4.72,9.3,3.18"/>
    <path class="cls-13" d="M697.93,172.77c1.54,.83,3.46,.95,5.09,.31"/>
    <path class="cls-13" d="M674.87,134.51c3.86,10.34,9.95,19.84,17.72,27.67"/>
    <path class="cls-13" d="M698.33,176.73l1.77,6.29c1.86,6.62,3.73,13.24,5.81,19.79"/>
    <path class="cls-13" d="M664.19,210.33c1.94,2.25,4.82,3.65,7.79,3.79"/>
    <path class="cls-13" d="M670.93,216.85l12.93,17.36"/>
    <path class="cls-13" d="M802.04,585.69c2.48,22.53,9.65,44.54,20.93,64.21,4.69,8.18,11.4,16.77,20.82,17.4"/>
    <path class="cls-13" d="M814.96,598.66c1.74,11.32,5.36,22.36,10.68,32.5"/>
    <path class="cls-13" d="M790.71,597c-15.88,23.26-23.4,52.1-20.88,80.15,.65,7.23,2.91,11.83,7.13,17.73"/>
    <path class="cls-13" d="M795.46,607.85c-11.01,21.11-16,45.32-14.25,69.07,.8,10.82,.39,17.74,6.95,26.38"/>
    <path class="cls-13" d="M800.81,628.51c-9.66,16.79-10.79,37.13-9.63,56.46,.41,6.89,1.3,14.29,5.92,19.43"/>
    <path class="cls-13" d="M806.62,648.93c-3.36,11.13-6.37,22.51-6.67,34.13s2.14,19.06,7.7,29.23"/>
    <path class="cls-13" d="M815.56,666.13c-3.44,13.64-4.24,27.95-2.33,41.89,.23,1.7,.74,3.69,2.35,4.27"/>
    <path class="cls-13" d="M827.77,673.03c-6.22,10.27-7.29,23.49-2.79,34.62"/>
    <path class="cls-13" d="M835.5,680.71c-2.99,6.67-4.15,14.15-3.31,21.41"/>
    <path class="cls-13" d="M843.15,689.11c-.82,3.24-1.12,6.6-.88,9.93"/>
    <path class="cls-13" d="M758.79,670.65c17.03,12,34.76,24.3,55.24,28.1"/>
    <path class="cls-13" d="M763.04,665.03c10.37,7.68,22.29,13.26,34.83,16.3"/>
    <path class="cls-13" d="M764.66,655.04c6.1,3.65,12.65,6.56,19.45,8.62"/>
    <path class="cls-13" d="M144.45,555.26c25.32-6.76,45-26.69,60.27-47.99"/>
    <path class="cls-13" d="M194.2,574.2c.8,11.39-.84,22.94-4.77,33.66-2.12,5.77-5.11,11.56-10.24,14.94"/>
    <path class="cls-13" d="M204.18,573.43c2.15,19.68-.88,34.67-11.46,50.67"/>
    <path class="cls-13" d="M215.47,576.47c.69,17.47-2.27,31.25-10.07,46.9"/>
    <path class="cls-13" d="M226.3,575.72c.2,16.06-3.08,32.15-9.57,46.84"/>
    <path class="cls-13" d="M235.44,575.69c.83,16.42-2.73,33.04-10.22,47.67"/>
    <path class="cls-13" d="M248.2,575.76c-1.9,17.15-6.16,34.04-12.61,50.04"/>
    <path class="cls-13" d="M256.04,577.27c-.53,17.7-4.38,35.29-11.28,51.6"/>
    <path class="cls-13" d="M180.35,584.16c.17,13.08-4.99,28.2-12.06,39.21"/>
    <path class="cls-13" d="M167.72,587.22c-.4,13.97-5.1,25.52-12.33,35.58"/>
    <path class="cls-13" d="M155.39,585.68c.19,12.41-5.26,26.85-13.61,36.04"/>
    <path class="cls-13" d="M143.68,584.92c.59,13.52-4.49,25.89-15.64,33.56"/>
    <path class="cls-13" d="M129.03,587.22c.46,9.2-3.75,18.5-10.95,24.23"/>
    <path class="cls-13" d="M116.14,588.75c1.23,7.68-3.31,15.92-10.46,18.98"/>
    <path class="cls-13" d="M64.72,538.06c-1.8,2.4-1.37,5.77-.5,8.64,3.85,12.63,15.22,22.65,28.23,24.87"/>
    <path class="cls-13" d="M64.52,518.87c31.43-54.27,65.05-107.27,100.75-158.83"/>
    <path class="cls-13" d="M223.92,273.02c-15.73,24.58-31.45,49.15-47.18,73.73"/>
    <path class="cls-13" d="M140.75,531.54c32.41-12.14,59.69-37.4,74.3-68.78"/>
    <path class="cls-13" d="M237.25,301.54l-11.43,25.3"/>
    <path class="cls-13" d="M239.25,309.06c-6.56,13.39-12.09,27.27-16.55,41.5"/>
    <path class="cls-13" d="M242.58,317.62c-8.63,17.35-14.68,35.98-17.89,55.09"/>
    <path class="cls-13" d="M247.44,323.55c-6.08,15.93-11.56,32.08-16.43,48.42"/>
    <path class="cls-13" d="M252.27,327.46c-3.03,7.42-6.06,14.84-9.09,22.25"/>
    <path class="cls-13" d="M228,294.61c5.74,14.98,16.04,28.19,29.18,37.41"/>
    <path class="cls-13" d="M227.74,308.53c5.51,10.31,13.32,19.37,22.7,26.35"/>
    <path class="cls-13" d="M222.7,316.01c5.06,7.73,11.34,14.65,18.54,20.43"/>
    <path class="cls-13" d="M497.77,847.18c-3.35-3.7-5.76-8.23-6.97-13.07,12.63,7.38,25.24,18.02,27.02,32.54-.68-.58-1.36-1.16-2.04-1.74"/>
    <path class="cls-13" d="M372.01,498.76c-.98-5.22-3.16-11.57,.78-15.13,2.57-2.32,6.51-2.03,9.92-1.39,5.38,1.01,10.66,2.52,15.76,4.51,1.82,.71-31.91,43.66-38.31,45.75,7.1-9.96,14.29-20.74,11.86-33.74Z"/>
    <path class="cls-13" d="M677.48,574.63c.68-11.65,1.37-23.3,2.05-34.95,.17-2.95,.38-6.03,1.89-8.58,5.65-9.52,25.59-9.41,26.66-23.43,.8-10.49-8.98-8.06-16.15-4.12-23.14,12.73-25.44,49.99-14.45,71.08Z"/>
    <path class="cls-13" d="M353.09,817.52c1.39,5.61,3.01,11.37,6.65,15.87,3.58,4.43,8.78,7.2,13.82,9.86,11.27,5.93,22.54,11.86,33.8,17.78-2.9-11-9.64-20.53-16.04-29.93-7.27-10.68-14.26-21.57-20.48-32.89-4.64-8.45-8.33-21.37-16.9-27.02-9.32-6.15-9.25-2.67-8.19,7.62,1.33,13,4.21,26.05,7.35,38.71Z"/>
    <path class="cls-13" d="M669.98,726.53c-2.79,6.67-5.57,13.33-8.36,20-1.35,3.23-2.73,6.64-2.36,10.12,.29,2.75,1.65,5.25,2.97,7.67,4.91,8.95,21.93,22.16,26.84,31.11,6.2,11.3,12.4,22.6,18.59,33.9,1.06,1.92,2.41,4.06,4.58,4.39,1.87,.28,3.63-.93,5-2.24,8.06-7.66,10.04-19.54,11.95-30.49,4.41-25.19-1.29-54.3,7.07-78.47,.58-1.67,1.17-3.4,.96-5.15-.21-1.79,.38-3.66-.73-5.08-10.82-5.21-21.75-11.15-28.46-15.82-16.15,3.86-31.84,15.21-38.05,30.07Z"/>
    <path class="cls-13" d="M449.08,488.19c.27-.23,.73,.24,.48,.5s-.75-.17-.53-.45c2.72-.12,5.46,.09,8.13,.61"/>
    <path class="cls-13" d="M447.31,491.83c4.35,.53,8.72,.9,13.1,1.11"/>
    <path class="cls-13" d="M445.05,496.26c.9,.21,1.82,.31,2.73,.37,4.67,.29,9.47-.56,13.99,.67"/>
    <path class="cls-13" d="M442.67,501.01c1.02,.17,2.07,0,3.09-.15,5.24-.78,10.54-1.17,15.83-1.17"/>
    <path class="cls-13" d="M441.21,506.01c.57,.77,1.69,.78,2.65,.72,5.46-.33,10.91-.66,16.37-1"/>
    <path class="cls-13" d="M439.67,510.01c-.16,.18,.17,.38,.4,.39,5.98,.36,11.97,.51,17.96,.46"/>
    <path class="cls-13" d="M438.63,515.37c6.85-.48,13.75-.37,20.58,.35,.17,.02,.37,.02,.48-.11s-.06-.4-.19-.29"/>
    <path class="cls-13" d="M436.55,520.88c1.38,.51,2.9,.45,4.37,.38,5.87-.27,11.73-.54,17.6-.8"/>
    <path class="cls-13" d="M436.75,527.01c6.79-.68,13.6-1.08,20.42-1.19"/>
    <path class="cls-13" d="M437.06,533.8c6.51-1.35,13.13-2.18,19.78-2.48-.28,.08-.57,.1-.85,.05"/>
    <path class="cls-13" d="M437.96,541.26c6.16-1.57,12.31-3.16,18.46-4.78,.12-.03,.27-.1,.27-.23s-.27-.03-.16,.04"/>
    <path class="cls-13" d="M439.39,548.89c6.14-2.36,12.28-4.72,18.41-7.08-.21,.11-.42,.21-.63,.32"/>
    <path class="cls-13" d="M442.45,556.46c5.37-4.03,11.26-7.36,17.48-9.9-.29,.03-.59,.06-.88,.09"/>
    <path class="cls-13" d="M446.41,562.64c5.48-3.63,10.96-7.26,16.43-10.88-.19,.07-.38,.14-.56,.22"/>
    <path class="cls-13" d="M453.39,566.07l12.78-10.82c-.28,.14-.51,.37-.66,.65"/>
    <path class="cls-13" d="M447.88,454.37c-9.95,12.01-18.07,25.54-23.97,39.98"/>
    <path class="cls-13" d="M448.49,458.88c-8.04,10.45-14.35,22.23-18.58,34.71"/>
    <path class="cls-13" d="M450.3,464.04c-1.06,.72-1.73,1.87-2.36,2.98-4.58,8.08-8.68,16.44-12.27,25.02"/>
    <path class="cls-13" d="M451.76,469.5c-5.2,7.58-9.47,15.8-12.71,24.4"/>
    <path class="cls-13" d="M451.62,477.98c-3.2,5.04-6.12,10.26-8.75,15.62"/>
    <path class="cls-13" d="M444,452.85c-7.85,9.2-15.9,18.75-19.41,30.32"/>
    <path class="cls-13" d="M435.79,455.52c-5.11,5.76-9.33,12.32-12.45,19.37"/>
    <path class="cls-13" d="M429.61,455.79c-.15-.16-.4,.03-.53,.21-2.99,4.22-5.93,8.48-8.82,12.77"/>
    <path class="cls-13" d="M424.59,455.91c-2.98,3.01-5.45,6.52-7.27,10.35"/>
    <path class="cls-13" d="M419.81,455.22c-2.65,2.87-4.98,6.04-6.93,9.42"/>
    <path class="cls-13" d="M413.94,454.96c-2.04,2.53-3.97,5.14-5.79,7.83"/>
    <path class="cls-13" d="M409.68,454.28l-4.8,5.93"/>
    <path class="cls-13" d="M522.56,345.13c9.87-1.18,19.53-4.14,28.37-8.7"/>
    <path class="cls-13" d="M430.27,315.55c1.27,3.23,1.78,6.76,1.49,10.22"/>
    <path class="cls-13" d="M433.99,316.59c1.54,2.12,2.08,4.94,1.43,7.48"/>
    <path class="cls-13" d="M333.29,385.42c3.6,.08,7-2.08,9.08-5.02s3-6.56,3.35-10.14c.11-1.17,.02-2.64-1.05-3.14"/>
    <path class="cls-13" d="M336.63,387.97c4.14,.42,8.44-1.33,11.11-4.51s3.65-7.72,2.52-11.73"/>
    <path class="cls-13" d="M342.21,390.62c2.03,.33,4.09-.43,5.84-1.51,5.52-3.39,8.69-10.24,7.7-16.64"/>
    <path class="cls-13" d="M346.98,393.51c4.21-.95,8.07-3.4,10.73-6.8s4.1-7.74,4.01-12.06"/>
    <path class="cls-13" d="M350.14,396.37c2.2,.01,4.33-.91,6.08-2.24s3.17-3.05,4.48-4.81c1.86-2.48,3.63-5.3,3.57-8.41"/>
    <path class="cls-13" d="M355.11,399.26c5.06-2.33,9.38-6.23,12.23-11.02"/>
    <path class="cls-13" d="M359.85,400.83c3.99-1.28,7.4-4.26,9.21-8.03"/>
    <path class="cls-13" d="M362.79,403.01c1.43-.67,2.87-1.35,4.13-2.3s2.35-2.2,2.84-3.7"/>
    <path class="cls-13" d="M366.71,404.88c1.7-1.43,3.21-3.08,4.49-4.89,.15-.22,.31-.49,.19-.73"/>
    <path class="cls-13" d="M370.3,406.03c.81-.49,1.46-1.26,1.81-2.14"/>
    <path class="cls-13" d="M337.85,378.61c2.17-2.91,4.37-7.44,4.94-11.7"/>
    <path class="cls-13" d="M334.99,374.31c2.85-3.13,4.38-7.43,4.14-11.65"/>
    <path class="cls-13" d="M333.29,370.31c2.59-3.75,2.98-4.5,3.18-9.06"/>
  </g>
</svg>