<?xml version="1.0" encoding="UTF-8"?>
<svg xmlns="http://www.w3.org/2000/svg" viewBox="0 0 1024 1024">
  <defs>
    <style>
      .cls-1 {
        stroke-width: .26px;
      }

      .cls-1, .cls-2, .cls-3, .cls-4, .cls-5 {
        fill: #fff;
      }

      .cls-1, .cls-3, .cls-6, .cls-7, .cls-4, .cls-8, .cls-9, .cls-5, .cls-10, .cls-11 {
        stroke: #151922;
      }

      .cls-1, .cls-7, .cls-8 {
        stroke-miterlimit: 10;
      }

      .cls-12 {
        fill: #ee4b2b;
      }

      .cls-3 {
        stroke-width: 2.09px;
      }

      .cls-3, .cls-13, .cls-6, .cls-4, .cls-9, .cls-14, .cls-5, .cls-10, .cls-11 {
        stroke-linecap: round;
        stroke-linejoin: round;
      }

      .cls-13, .cls-6, .cls-7, .cls-14, .cls-10, .cls-11 {
        fill: none;
      }

      .cls-13, .cls-14 {
        stroke: #fff;
      }

      .cls-6, .cls-4 {
        stroke-width: 3px;
      }

      .cls-7, .cls-11 {
        stroke-width: .52px;
      }

      .cls-8, .cls-9, .cls-15 {
        fill: #151922;
      }

      .cls-8, .cls-14 {
        stroke-width: 2px;
      }

      .cls-9, .cls-5, .cls-10 {
        stroke-width: 1.04px;
      }
    </style>
  </defs>
  <g id="backgound">
    <circle class="cls-12" cx="515.04" cy="427.91" r="347.76"/>
  </g>
  <g id="girl-base">
    <path class="cls-8" d="M693.16,591.28v345.51c-118.92,32.93-239.59,34.3-362.22,0l-7.19-345.59c7.27,0,15.12-.38,23.26-1.17,.01,.01,.02,.01,.03,.02,8.77-.86,17.87-2.19,26.93-4.05,88.96,45.3,177.71,44.72,266.25-1.74,8.88,1.79,17.67,3.17,25.96,4.24,9.95,1.29,19.18,2.14,26.98,2.78Z"/>
    <g>
      <path class="cls-4" d="M661.13,458.2h0c-6.92,19.15-19.17,29.48-19.17,29.48v18.11c-2.28,4.07-6.17,7.33-10.83,9.95-15.68,8.82-39.95,10.29-39.95,10.29-.71,9.24-2.66,9.24-2.66,9.24l-77.24-6.4-41.51,6.12-22.07,3.25-23.17,3.42v-14.21c-29.92,2.84-44.29-13.49-44.29-13.49-3.91-11.36,0-28.05,0-28.05-8.85-6.95-15.5-13.99-20.4-20.96-6.09-8.65-9.49-17.18-11.05-25.25-5.86-30.31,14.05-54.24,14.05-54.24,19.81-26.19,22.2-47.17,24.86-72.44h0c2.63-25.04,5.52-54.27,25.86-96.95,2.02-4.26,4.23-8.65,6.62-13.19,14.86-28.17,43.63-33.32,62.23-33.4,9.98-.05,17.03,1.35,17.45,1.43h.02c1.63-1.35,3.26-2.52,4.92-3.49,6.92-4.08,14.22-4.85,23-2.44,11.08,3.03,24.5,11.14,42.43,24.05,8.97,6.47,15.77,11.61,21.07,16.84h.01c15.64,15.45,18.15,31.58,24.93,84.37,9.08,70.67,25.36,56.46,44.18,111.23,8.03,23.37,5.85,42.49,.71,56.73Z"/>
      <path class="cls-10" d="M447,408.49s-23.98,46.87-22.47,118.96"/>
      <path class="cls-10" d="M430.88,370.5c-26.59,33.57-48.46,69.52-50.64,115.41"/>
      <path class="cls-10" d="M568.45,406.36s24.86,42.61,22.73,119.67"/>
      <path class="cls-10" d="M641.96,487.68c1.03-28.71-3.6-50.38-10.86-69.66-7.8-20.74-18.65-38.7-28.74-59.64-12.91-26.78-6.68-85.36-27.16-107.03"/>
      <path class="cls-10" d="M550.78,227.53c-.45-1.05-.9-2.1-1.36-3.12-.21-.48-.43-.95-.65-1.42-20.04-43.62-48.89-52.07-48.89-52.07h-.02"/>
      <path class="cls-10" d="M408.52,515.74c.13,.71,2.26-69.87,29.07-107.24"/>
      <path class="cls-10" d="M394.8,487.68c-.71-1.07,7.81-62.81,39.42-95.15"/>
      <path class="cls-10" d="M444.66,467.97s-8.09,23.26-6.07,55.22"/>
      <path class="cls-10" d="M570.94,448.26s8.49,31.64,4.26,58.59"/>
      <path class="cls-10" d="M586.92,410.98s22.02,47.58,16.69,103.34"/>
      <path class="cls-10" d="M597.38,396.27s26.82,63.71,23.98,104.9"/>
      <path class="cls-10" d="M603.23,391.7s33.4,39.72,27.89,124.03"/>
      <path class="cls-10" d="M429.08,190.18c74.95-20.28,68.03,16.91,119.1,42.65"/>
      <path class="cls-10" d="M482.39,169.47c40.8,11.78,59.41,62.53,70.43,62.53"/>
      <path class="cls-10" d="M546.62,218.52s7.17-29.16,44.68-12.63"/>
      <path class="cls-10" d="M548.78,223s13-15.4,32.07-7.88c16.53,6.51,22.39,16.88,35.39,75.12"/>
      <path class="cls-10" d="M549.42,224.42c53.82-11.53,43.88,81.8,82.31,146.3,22.84,38.36,28.79,68.36,29.4,87.5"/>
      <path class="cls-10" d="M413.56,216.07c12.34-9.76,30.45-20.11,50.47-18.52,36.77,2.93,42.09,25.65,75.93,35.46"/>
      <path class="cls-10" d="M402.88,241.35c7.79-9.46,20.85-20.77,41.18-26.14,37.56-9.93,65.08,9.59,65.08,9.59"/>
      <path class="cls-10" d="M395.16,266.29c16.11-21.78,42.93-44.99,83.19-42.84"/>
      <path class="cls-10" d="M458.7,233.01c-21.83,6.93-39.73,26.88-53.02,47.29-7.51,11.53-13.54,23.19-17.97,32.72"/>
      <path class="cls-10" d="M359.84,464.95c2.98-18.62,14.57-35.99,25.9-51.75,45.51-63.33,16.25-147.11,63.66-163.71"/>
      <path class="cls-10" d="M348.79,439.7c1.96-8.88,6.64-20.75,16.71-35.74,48.99-72.89,20.42-92.42,57.55-146.33"/>
      <path class="cls-10" d="M539.65,206.22c2.87-6.03,10.7-18,28.08-18.97"/>
      <path class="cls-10" d="M531.22,194.68h0c1.79-5.5,6.62-15.51,18.77-19.27"/>
      <path class="cls-10" d="M518.96,182.34c-.16-4.56,.94-12.19,8.84-17.36"/>
      <path class="cls-10" d="M505.27,173.22h0c-.37-1.72-.62-3.73-.47-5.8"/>
    </g>
    <path class="cls-15" d="M461.6,457.24c1.08,24.88,4.82,65.38,2.72,78.74l-27.33,3.72c11.33-10.95,20.32-55.63,5.72-104.02l18.89,21.56Z"/>
    <path class="cls-15" d="M425.14,381.43s-6.31,22.19,1.62,36.59c6.12,11.1,31.85,36.1,32.41,52.97l11.71-30.36-36.66-65.16-9.08,5.96Z"/>
    <path class="cls-15" d="M408.89,375.91s.62,30.12,22.32,25.56l-1.91-19.96-20.41-5.6Z"/>
    <path class="cls-15" d="M575.2,399.44c-.49,.53,8.74,2.04,8.74,2.04,0,0,2.08,7.02,9.28,3.69s8.69-9.59-.51-16.11c-9.2-6.53-.55,0-.55,0,0,0-17.44-3.27-17.98-2.9s0,13.29,0,13.29h1.02Z"/>
    <path class="cls-3" d="M640.22,584.26c-88.54,46.46-177.29,47.04-266.25,1.74,44.23-9.03,87.46-30.38,86.21-68.38-.4-12.1-.69-24.88-.92-37.43-.41-22.61-.57-44.5-.65-60.39-.06-14.92-.04-24.56-.04-24.56h92.71s-.25,5.53-.56,14.72c-.46,14.74-1.01,38.9-.76,64.73,.15,14.24,.53,28.97,1.32,42.93,2.25,40.15,46.64,58.12,88.94,66.64Z"/>
    <path class="cls-15" d="M549.96,457.67c-5.53,5.53-17.9,27.37-25.2,32.53-3.65,2.58-7.99,3.96-12.46,3.96h-19.06c-4.22,0-8.35-1.24-11.88-3.56l-16.23-13.37c-1.82-1.5-3.14-3.5-3.83-5.75-4.19-13.66-14.24-37.4-14.3-51.99l103.72-13.69c-.46,14.74-1.01,26.06-.76,51.89Z"/>
    <path class="cls-3" d="M588.52,350.94l-8.5,61.26c-.32,2.32-1.13,4.53-2.36,6.52-5.95,9.58-27.52,38.93-53.65,57.54-3.68,2.62-8.11,3.99-12.63,3.99h-14.17c-4.98,0-9.48-1.1-13.7-3.76-11-6.92-38.33-40.83-47.88-56.22-2.46-3.97-4.74-10.12-5.24-14.77l-5.85-54.56,4.01-25.17s-16.85-75.91,45.47-100.87c30.23-12.11,50.95,13.85,78.81,7.1,0,0-3.64-5.24-1.35-6.64,12.49,2.95,19.79,12.42,24.55,25.1v.02h.01c7.08,27.65,9.82,72.6,9.82,72.6l2.67,27.86Z"/>
    <path class="cls-9" d="M573.07,333.38l-6.04,1.24c-.34-.3-.69-.59-1.03-.89-23.53-19.63-38.09,3.05-38.72,4.06,14.03-30.31,45.79-4.41,45.79-4.41Z"/>
    <path class="cls-10" d="M566,333.74c-10.57,8.4-23.62,9.35-38.74,4.09,0,0,.01-.01,.02-.03,.3-.47,3.59-5.6,9.38-9-.01,.17-.01,.33-.01,.5,0,5.52,4.46,9.99,9.98,9.99s9.98-4.48,9.98-9.99c0-.53-.04-1.04-.13-1.55,2.97,1.25,6.15,3.19,9.51,6Z"/>
    <path class="cls-10" d="M495.47,319.89s1.82,25.71,1.11,38.49l-3.54,7.18c-1.98,4.02-.05,8.92,4.19,10.38,.06,.02,.13,.04,.2,.07,6.57,2.13,10.48-.36,10.48-.36"/>
    <path class="cls-10" d="M495.47,382.3c-7.96-.54-7.27-3.64-7.27-3.64,0,0,.53-1.78,4.61,0,1.06,.46,2.17,2.54,2.66,3.64Z"/>
    <path class="cls-10" d="M505.5,384.43c-.01-.11,1.2-3.29,2.4-4.04,.89-.57,3.02-1.38,4.8-1.47,1.13-.05,1.84,1.31,1.07,2.14-1.65,1.77-6.31,.61-8.27,3.37Z"/>
    <path class="cls-10" d="M505.5,384.43c.04,.32-.47,3.15-3.92,3.15-2.98,0-4.72-2.19-6.12-5.28"/>
    <path class="cls-10" d="M508.7,386.03c1.65-.1,3.33-.21,4.84-.86,2.27-.97,3.97-3.16,4.35-5.59,.22-1.43,.01-2.89-.28-4.31-.22-1.11-.51-2.23-.92-3.3"/>
    <path class="cls-10" d="M487.43,369.63c-1.55,1.36-2.37,3.4-2.73,5.43-.27,1.53-.31,3.15,.3,4.57,.62,1.44,1.86,2.56,3.28,3.22s3.01,.9,4.58,.9"/>
    <g>
      <path class="cls-9" d="M522.26,423.82c-1.11,.48-2.2,1.13-3.34,1.86-4.05,2.58-8.64,6.04-16.35,5.72-8.22-.35-12.87-3.17-16.64-5.6-1.22-.78-2.36-1.53-3.48-2.15,.75-.39,1.45-.9,2.05-1.58,.26-.28,.52-.55,.79-.79,6.67-6.15,17.27-1.69,17.27-1.69,0,0,9.65-3.88,16.72,1.94,.15,.1,.28,.22,.42,.34,.83,.75,1.69,1.4,2.55,1.95Z"/>
      <path class="cls-5" d="M519.29,422.57c-.04,.74-.11,.76-.18,1.52-.1,1.13-.88,2.09-1.97,2.42-10.09,3.03-20.02,3.04-29.82-.27-.97-.33-1.7-1.18-1.85-2.19-.13-.87-.17-.94-.18-1.73,6.67-6.15,17.27-1.69,17.27-1.69,0,0,9.65-3.88,16.72,1.94Z"/>
    </g>
    <path class="cls-10" d="M470.88,423.68s6.85,2.43,11.57-.03"/>
    <path class="cls-10" d="M471.39,423.83s5.43-1.8,8.46-8.02c3.18-6.52,8.87-14.52,14.03-14.34,3.23,.11,5.82,2.45,7.31,4.19,.76,.88,2.1,.94,2.92,.12,2.27-2.28,6.72-5.69,11.07-2.97,7.99,4.97,12.79,17.99,19.8,20.83,0,0-6.04,2.78-12.73,.18"/>
    <path class="cls-10" d="M479.85,435.39c-.09,.27,7.19,10.65,23.08,10.48,15.89-.18,22.28-9.06,22.02-9.32"/>
    <path class="cls-15" d="M527.44,315.34s.21-.1,.5-.21c3.04-1.21,19-7.1,28.2-10.5,4.15-1.53,8.76-1.12,12.58,1.13l9.1,4.58c.86,.5,1.78-.55,1.17-1.33l-10.93-11.69c-2.54-3.25-6.8-4.64-10.76-3.51l-35.85,10.24s-6.62,2.38-3.3,9.31c2.34,4.89,9.52,1.88,9.52,1.88"/>
    <path class="cls-15" d="M481.57,315.34s-.21-.1-.5-.21c-3.04-1.21-19-7.1-28.2-10.5-4.15-1.53-8.76-1.12-12.58,1.13l-9.1,4.58c-.86,.5-1.78-.55-1.17-1.33l10.93-11.69c2.54-3.25,6.8-4.64,10.76-3.51l35.85,10.24s6.62,2.38,3.3,9.31c-2.34,4.89-9.52,1.88-9.52,1.88"/>
    <path class="cls-10" d="M556.61,329.29c0,5.52-4.46,9.99-9.98,9.99s-9.98-4.48-9.98-9.99c0-.17,0-.33,.01-.5,1.99-1.18,4.29-2.15,6.85-2.65,1.86-.37,3.86-.49,6-.26h.01c2.18,.23,4.51,.81,6.97,1.86,.08,.51,.13,1.02,.13,1.55Z"/>
    <path class="cls-9" d="M437.59,331.59l6.04,1.24c.34-.3,.69-.59,1.03-.89,23.53-19.63,38.09,3.05,38.72,4.06-14.03-30.31-45.79-4.41-45.79-4.41Z"/>
    <path class="cls-10" d="M444.66,331.95c10.57,8.4,23.62,9.35,38.74,4.09,0,0-.01-.01-.02-.03-.3-.47-3.59-5.6-9.38-9,.01,.17,.01,.33,.01,.5,0,5.52-4.46,9.99-9.98,9.99-5.52,0-9.98-4.48-9.98-9.99,0-.53,.04-1.04,.13-1.55-2.97,1.25-6.15,3.19-9.51,6Z"/>
    <path class="cls-5" d="M474.01,327.5c0,5.52-4.46,9.99-9.98,9.99s-9.98-4.48-9.98-9.99c0-.53,.04-1.04,.13-1.55,2.56-1.08,4.97-1.68,7.22-1.88,1.96-.19,3.81-.08,5.53,.24,2.66,.48,5.03,1.48,7.08,2.69,.01,.17,.01,.33,.01,.5Z"/>
    <path class="cls-10" d="M455.92,343.91s6.92,4.39,15.85,1.6"/>
    <path class="cls-10" d="M533.29,345.17s5.49,3.26,13.33,2.33"/>
    <path class="cls-10" d="M532.36,323.97s8.12-11.63,25.97-5.1"/>
    <path class="cls-10" d="M451.53,316.88s17.31-6.31,27.83,7.09"/>
    <path class="cls-11" d="M503.28,401.33c.5-.16,.77-.7,.96-1.19,.86-2.29,1.03-4.84,.48-7.23-.48,1.23-.96,2.46-1.44,3.69-.35,.88-1.54,2.25-1.67,3.08s.68,1.98,1.68,1.65Z"/>
    <path class="cls-5" d="M585.57,349.18c3.94-6.98,9.68-12.94,16.52-17.13,2.31-1.42,5.06-2.67,7.65-1.86,3.52,1.1,4.88,5.3,5.43,8.95,2.37,15.56-.51,31.87-8.05,45.68-1.81,3.32-3.94,6.57-6.92,8.9s-6.93,3.67-10.61,2.79-7.64-4.49-7.39-8.27"/>
    <path class="cls-5" d="M595.91,388.46c-.48-.15-.98-.22-1.47-.23-1.63,1.03-1.43,2.07-.67,2.99,.25,.01,.49,.06,.73,.14,2.39,.74,3.53,3.93,2.52,7.14-1,3.2-3.74,5.18-6.13,4.44-2.32-.72-3.53-2.04-2.71-5.12-.65-.2-1.19-.43-1.66-.67-1.31,4.68,.47,7.6,3.97,8.68,3.59,1.13,7.72-1.86,9.21-6.66,1.49-4.8-.2-9.6-3.8-10.71Z"/>
    <path class="cls-10" d="M592.7,396.79c-1.82-.05-3.28-.3-4.42-.67-.65-.2-1.19-.43-1.66-.67-2.18-1.13-2.68-2.56-2.68-2.56"/>
    <path class="cls-10" d="M589.76,366.08c4.27-1.51,6.67-12.28,7.61-16.72s3.89-8.95,8.37-9.65"/>
    <path class="cls-10" d="M610.04,342.77c.82,6.8,1.37,13.74,0,20.45s-4.88,13.24-10.66,16.9"/>
    <path class="cls-5" d="M429.3,383.76c.03,3.39-2.1,6.7-5.2,8.06s-6.98,.71-9.46-1.6c-2.12-1.97-3.11-4.84-4.03-7.58-2.96-8.82-5.91-17.64-8.87-26.45-2.78-8.3-6.4-14.49-3.34-22.68,1.67-4.46,4.09-6.39,8.83-5.99,4.09,.34,12.77,2.91,20.29,17.65"/>
    <path class="cls-10" d="M401.19,336.94c0-2.88,5.79-3.6,7.33-2.66s9.54,6.8,12.36,27.41"/>
    <path class="cls-10" d="M408.6,351.34c-.75,9.3,3.85,18.84,11.58,24.04"/>
    <path class="cls-14" d="M347.04,590.05h-.03"/>
    <path class="cls-13" d="M666.18,588.5c-106.09,66.44-212.48,66.95-319.17,1.54"/>
    <path class="cls-10" d="M406.56,583.77c13.49,11.63,62.23,20.95,81.32,19.89,2.67,4.65,8.06,8.52,11.62,9.59"/>
    <path class="cls-10" d="M511.36,614.57s16.36-1.78,21.69-12.25c0,0,38.71,.53,73.51-21.48"/>
    <path class="cls-15" d="M550.62,328.65c0,2.2-1.78,4-4,4s-4-1.79-4-4c0-.95,.33-1.83,.88-2.5,1.86-.37,3.86-.49,6-.26h.01c.68,.71,1.11,1.69,1.11,2.76Z"/>
    <circle class="cls-15" cx="546.82" cy="328.29" r="5.33"/>
    <path class="cls-15" d="M468.02,327.07c0,2.2-1.78,4-4,4s-4-1.79-4-4c0-1.2,.52-2.27,1.36-3,1.96-.19,3.81-.08,5.53,.24,.68,.71,1.11,1.69,1.11,2.76Z"/>
    <circle class="cls-15" cx="464.05" cy="326.99" r="5.33"/>
    <path class="cls-10" d="M588.52,376.1s3.68-3.22,1.24-10.02"/>
    <path class="cls-1" d="M465.45,328.47c-.11-.34-.2-.74,0-1.03,.19-.26,.54-.33,.86-.35,.74-.04,1.49,.09,2.18,.37,.57,.23,1.12,.58,1.4,1.13,.39,.75,.16,1.71-.34,2.4-.5,.68-1.62,1.84-2.48,1.21s-1.33-2.77-1.64-3.73Z"/>
    <path class="cls-1" d="M548.35,330.46c-.11-.34-.2-.74,0-1.03,.19-.26,.54-.33,.86-.35,.74-.04,1.49,.09,2.18,.37,.57,.23,1.12,.58,1.4,1.13,.39,.75,.16,1.71-.34,2.4-.5,.68-1.62,1.84-2.48,1.21s-1.33-2.77-1.64-3.73Z"/>
    <path class="cls-5" d="M414.61,395.27c1.49,4.8,5.62,7.78,9.21,6.66,3.51-1.08,5.19-5.69,3.88-10.37-.47,.24-1.01,.47-1.66,.67,.82,3.09-.3,6.09-2.62,6.81-2.39,.74-5.13-1.24-6.13-4.44-1-3.2,.14-6.39,2.52-7.14,.24-.07,.48-.13,.73-.14,.77-.92,.96-1.96-.67-2.99-.49,.01-.99,.08-1.47,.23-3.6,1.12-5.29,5.91-3.8,10.71Z"/>
  </g>
  <g id="girl-details">
    <path class="cls-7" d="M474.57,421.81c.25,1.14,1.05,2.43,2.1,3.13"/>
    <path class="cls-7" d="M476.19,420.74c.48,1.27,1.71,3.56,3.38,3.83"/>
    <path class="cls-7" d="M477.42,419.31c.55,1.34,2.15,3.63,4.66,4.51"/>
    <path class="cls-7" d="M479.57,416.35c.26,2.49,2.15,4.72,4.56,5.39"/>
    <path class="cls-7" d="M480.6,413.41c.43,2.89,2.42,6.14,5.09,7.33"/>
    <path class="cls-7" d="M482.62,410.09c.05,3.82,2.34,7.54,5.75,9.28"/>
    <path class="cls-7" d="M485.55,406.89c.03,4.08,1.43,8.8,4.37,11.62"/>
    <path class="cls-7" d="M488.89,403.48c-.63,4.79,.63,10.55,3.46,14.47"/>
    <path class="cls-7" d="M492.94,401.17c-1.26,6.02-.8,11.37,2.35,16.65"/>
    <path class="cls-7" d="M497.07,402.6c-1.16,5.24-.57,10.84,1.65,15.72"/>
    <path class="cls-7" d="M500.62,405.68c-1.4,4.48-1.2,9.44,.54,13.8"/>
    <path class="cls-7" d="M503.46,406.53c.81,3.31,.76,9.21,.32,12.58"/>
    <path class="cls-7" d="M506.36,403.7c1.46,4.79,2.43,10.97,.05,15.03"/>
    <path class="cls-7" d="M510.55,408.49c.33,3.13-.21,7.24-1.7,10.02"/>
    <path class="cls-7" d="M513.04,409.02c.24,2.96-.28,6.72-1.76,9.3"/>
    <path class="cls-7" d="M516.33,411.02c-.26,2.62-1.5,5.65-3.15,7.71"/>
    <path class="cls-7" d="M518.37,413.42c-.27,2.16-1.42,4.19-3.13,5.53"/>
    <path class="cls-7" d="M520.45,415.13c-.56,2.04-1.7,3.93-3.26,5.37"/>
    <path class="cls-7" d="M522.09,419.01c-.56,1.41-.95,2.19-2.23,3"/>
    <path class="cls-7" d="M490.97,416.03c2.38-1.26,5.27-.67,7.88-.01s5.47,1.33,7.91,.19"/>
    <path class="cls-7" d="M492.8,413.56c2.61-.29,5.27-.08,7.79,.62"/>
    <path class="cls-7" d="M492.62,411.66c2.21-.25,4.47-.05,6.6,.58"/>
    <path class="cls-7" d="M494.34,410c1.46-.09,2.94,.09,4.34,.53"/>
    <path class="cls-7" d="M476.17,423.45c3.25-.1,6.38-2.08,7.87-4.97"/>
    <path class="cls-7" d="M510.8,415.58c3.76,.5,7.31,2.49,9.71,5.43"/>
    <path class="cls-7" d="M481.27,433.21c2.51,3.83,6.57,6.61,11.05,7.57"/>
    <path class="cls-7" d="M484.14,433.8c1.38,1.82,3.37,3.17,5.58,3.76"/>
    <path class="cls-7" d="M486.28,433.4c.56,.71,1.38,1.21,2.27,1.39"/>
    <path class="cls-7" d="M485,438.92c.46-2.57,1.72-4.99,3.55-6.85"/>
    <path class="cls-7" d="M486.22,439.51c.15-1.47,.74-2.9,1.68-4.04"/>
    <path class="cls-7" d="M513.58,440.27c3.45-.58,6.7-2.3,9.12-4.83"/>
    <path class="cls-7" d="M503.11,440.96l1.49,1.11c-.25,.42-.71,.72-1.2,.77-.32,.04-1.59-.11-1.59-.54,0-.14,1.31-1.33,1.3-1.33Z"/>
    <path class="cls-11" d="M469.73,489.34c2.04,33.04,8.38,65.81,18.8,97.23"/>
    <path class="cls-11" d="M471.32,536.14c1.3,14.01,4.52,27.84,9.54,40.99"/>
    <path class="cls-11" d="M467.8,550.42c1.76,6.16,3.51,12.31,5.27,18.47"/>
    <path class="cls-11" d="M538.4,522.08c-2.43,22.68-7.72,45.06-15.7,66.42"/>
    <path class="cls-11" d="M541.3,536.76c-1.47,12.78-4.7,25.35-9.58,37.26"/>
    <path class="cls-11" d="M543.37,548.71c-.36,5.87-1.77,11.68-4.13,17.08"/>
    <path class="cls-11" d="M513.6,610.22c5.65-.8,10.95-3.8,14.54-8.23"/>
    <path class="cls-11" d="M516.39,605.56c1.78-.17,3.55-1.15,5.33-2.92"/>
    <path class="cls-11" d="M516.53,602.67c.74-.16,1.27-.52,1.6-1.06"/>
    <path class="cls-7" d="M432.37,396.96c.31,13.56,2.58,21.77,24.94,48.11"/>
    <path class="cls-7" d="M436.42,407.81c1.54,6.06,4.36,11.79,8.24,16.69"/>
    <path class="cls-7" d="M438.16,274.51c-4.23,16.1-3.82,33.39,1.17,49.27"/>
    <path class="cls-7" d="M439.82,288.11c-1.46,10.84-.66,21.99,2.35,32.5"/>
    <path class="cls-7" d="M442.62,304.9l1.89,13.85"/>
    <path class="cls-7" d="M476.64,314.12l2.22,8.57"/>
    <path class="cls-7" d="M479.74,314.96c.93,4.71,1.86,9.43,2.79,14.14"/>
    <path class="cls-7" d="M482.94,316.34c2.15,7.16,3.24,14.63,3.22,22.1"/>
    <path class="cls-7" d="M485.94,314.9c3.62,10.77,4.74,22.38,3.26,33.65"/>
    <path class="cls-7" d="M488.69,314.26c4.61,12.33,5.73,25.95,3.18,38.86"/>
    <path class="cls-7" d="M492.21,313.43c3.72,11.54,4.6,23.99,2.55,35.95"/>
    <path class="cls-7" d="M517.82,318.46c-2.78,6.32-3.63,13.47-2.4,20.26"/>
    <path class="cls-7" d="M522.07,316.85c-3.72,8.76-4.84,18.61-3.16,27.98"/>
    <path class="cls-7" d="M524.98,317.12c-3.44,10.42-4.16,21.73-2.08,32.51"/>
    <path class="cls-7" d="M528.94,315.24c-2.76,8.01-3.72,16.64-2.81,25.07"/>
    <path class="cls-7" d="M532.32,315.05c-2.29,5.15-3.29,10.86-2.87,16.48"/>
    <path class="cls-7" d="M534.47,313.1c-.95,3.73-1.91,7.47-2.86,11.2"/>
    <path class="cls-7" d="M491.15,375.47c3.31,1.69,5.86,4.81,6.85,8.39"/>
    <path class="cls-7" d="M492.09,374.32l4.87,4.33"/>
    <path class="cls-7" d="M486.12,376.78c.75-1.29,2.51-1.87,3.88-1.28"/>
    <path class="cls-7" d="M486.3,374.68c1.2-.8,2.69-1.16,4.12-.99"/>
    <path class="cls-7" d="M500.62,378.85c-.33,2.15-.19,4.38,.43,6.47"/>
    <path class="cls-7" d="M499.14,379.39c-.1,1.37,.02,2.75,.36,4.08"/>
    <path class="cls-7" d="M445.83,319.59c-1.98,2.54-3.2,5.67-3.47,8.87"/>
    <path class="cls-7" d="M447.12,319.39c-1.82,2.45-3.02,5.37-3.44,8.4"/>
    <path class="cls-7" d="M449.02,318.48c-2.1,2.35-3.44,5.37-3.78,8.51"/>
    <path class="cls-7" d="M451.42,317.29c-2.65,2.36-4.45,5.65-5.01,9.16"/>
    <path class="cls-7" d="M453.07,316.4c-2.24,2.88-3.96,6.17-5.05,9.65"/>
    <path class="cls-7" d="M451.75,340.25c3.88,2.46,8.37,3.97,12.95,4.35"/>
    <path class="cls-7" d="M452.46,339.25c2.69,1.66,5.77,2.68,8.92,2.94"/>
    <path class="cls-7" d="M456.72,339.78l2,.4"/>
    <path class="cls-7" d="M473.87,322.16c4.37,2.54,7.65,6.88,8.89,11.78"/>
    <path class="cls-7" d="M528.07,335.93c1.1-5.81,4.97-11.02,10.2-13.76"/>
    <path class="cls-7" d="M528.58,340.62c1.48,1.75,3.75,2.81,6.04,2.82"/>
    <path class="cls-7" d="M529.8,340.79l3.62,1.41"/>
    <path class="cls-7" d="M408.89,335.22c1.33,.76,1.7,2.48,1.94,3.99,.57,3.63,1.14,7.26,1.71,10.89"/>
    <path class="cls-7" d="M412.3,337.26c1.49,4.82,2.05,9.92,1.64,14.94"/>
    <path class="cls-7" d="M415.03,342.8c.93,4.26,1.04,8.69,.34,12.98"/>
    <path class="cls-7" d="M417.18,347.59c.6,3.66,.35,7.46-.73,11.01"/>
    <path class="cls-7" d="M418.87,352.93l-.91,7.45"/>
    <path class="cls-7" d="M411.6,366.75c.83,5.9,3.22,11.56,6.85,16.28"/>
    <path class="cls-7" d="M414.49,370.67c.46,3.62,2.19,7.06,4.81,9.59"/>
    <path class="cls-7" d="M417.33,373.98l2.19,3.87"/>
    <path class="cls-7" d="M400.79,340.67c.62,5.96,2.46,11.8,5.38,17.04"/>
    <path class="cls-7" d="M402.29,339.26c.38,5.23,1.98,10.36,4.64,14.87"/>
    <path class="cls-7" d="M403.51,337.82c.04,3.9,1.08,7.79,2.98,11.2"/>
    <path class="cls-7" d="M400.58,343.3c1.25-3.35,4.33-5.95,7.84-6.63"/>
    <path class="cls-7" d="M400.51,340.5c1.39-3.07,4.44-5.32,7.78-5.74"/>
    <path class="cls-7" d="M600.52,343.13c-1.66,4.78-2.31,9.9-1.89,14.94"/>
    <path class="cls-7" d="M602.02,341.2c-1.3,4.19-1.97,8.57-1.98,12.96"/>
    <path class="cls-7" d="M603.34,340.92c-1.44,3.93-1.95,8.19-1.49,12.35"/>
    <path class="cls-7" d="M605.4,339.96c-1.55,3.37-2.25,7.12-2.03,10.83"/>
    <path class="cls-7" d="M607.46,338.61c-1.69,3.06-2.6,6.55-2.62,10.05"/>
    <path class="cls-7" d="M609.11,338.18c-1.92,3.11-2.83,6.84-2.55,10.48"/>
    <path class="cls-7" d="M610.31,338.7l-2.49,7.81"/>
    <path class="cls-7" d="M592.06,380.39c4.64-.82,9.05-2.91,12.63-5.97"/>
    <path class="cls-7" d="M593.49,378.52c4.91-1.39,9.4-4.19,12.81-7.99"/>
    <path class="cls-7" d="M595.06,376.1c4.78-1.56,9.01-4.76,11.83-8.92"/>
    <path class="cls-7" d="M597.55,373.13c3.24-1.82,6.16-4.22,8.56-7.06"/>
    <path class="cls-7" d="M600.91,368.36c-.29,4.58-2.39,9.03-5.74,12.17"/>
    <path class="cls-7" d="M602.75,367.66c-.6,4.94-2.67,9.69-5.89,13.49"/>
    <path class="cls-7" d="M489.07,460.58c2.03-2.66,4.86-4.71,8.03-5.81"/>
    <path class="cls-7" d="M491.84,460.12c1.13-1.28,2.58-2.27,4.17-2.88"/>
    <path class="cls-7" d="M496.95,389.72l-1.07,4.93"/>
    <path class="cls-7" d="M498.31,389.99l-.97,6.39"/>
    <path class="cls-7" d="M473.68,224.78c-4.83,3.77-8.56,8.94-10.61,14.71"/>
    <path class="cls-7" d="M466.98,228.32c-4.2,3.52-7.23,8.39-8.53,13.71"/>
    <path class="cls-7" d="M461.04,231.32c-3.9,4.74-7.08,10.08-9.39,15.77"/>
    <path class="cls-7" d="M453.5,236.82c-4.1,5.81-6.55,12.77-7,19.86"/>
    <path class="cls-7" d="M449.12,240.56c-3.86,5.32-6.23,11.71-6.77,18.26"/>
    <path class="cls-7" d="M443.28,247.76c-2.75,4.58-4.53,9.74-5.21,15.04"/>
    <path class="cls-7" d="M437.41,256.68c-1.81,4.06-2.81,8.47-2.91,12.92"/>
    <path class="cls-7" d="M477.08,224.18c-3.02,2.99-5.56,6.46-7.5,10.24"/>
    <path class="cls-7" d="M481.84,222.66c-3.25,2.85-5.89,6.38-7.71,10.29"/>
    <path class="cls-7" d="M486.25,222.07c-3.1,2.03-5.43,5.19-6.47,8.74"/>
    <path class="cls-7" d="M490.16,221.94c-2.48,2.14-4.35,4.98-5.34,8.11"/>
    <path class="cls-7" d="M494.27,222.32l-3.21,3.04"/>
    <path class="cls-7" d="M499.96,223.04l-3.32,1.74"/>
    <path class="cls-7" d="M503.9,223.59l-2.42,1.28"/>
    <path class="cls-7" d="M575.01,299.12c.64,6.8-.83,13.79-4.15,19.76"/>
    <path class="cls-7" d="M576.97,303.02c.12,5.98-1.17,11.99-3.74,17.39"/>
    <path class="cls-7" d="M578.1,311.03l-1.88,6.06"/>
  </g>
  <g id="people">
    <path class="cls-2" d="M420.74,750.62l42.46,211.38h-155.57l-23.98-97.96-24.12,97.96H62V62H190.46c16.47,40.87,36.24,111.31,47.81,228.02,11.35,114.57,75.11,139.48,42.53,259.89,148.78,60.36,139.94,200.71,139.94,200.71Z"/>
    <path class="cls-2" d="M962,62V962h-407.67c24.48-227.02,59.56-332.07,62.5-336.67,34.03-53.08,166.47-196.93,166.47-196.93,14.3-25.53,10.72-84.25,10.72-84.25l12.77-9.19s5.14,7.2,18.94,16.63c1.6-5.07,3.59-11.32,5.21-16.21l-15.98-5.53-29.33-133.4-9.48,5.74c-6.92-68.55,7.28-116.45,17.15-140.19h168.7Z"/>
    <path class="cls-6" d="M463.2,962l-42.46-211.38s8.84-140.35-139.94-200.71"/>
    <path class="cls-6" d="M190.46,62c16.47,40.87,36.24,111.31,47.81,228.02,11.35,114.57,75.11,139.48,42.53,259.89-6.99,25.82-18.4,56.03-35.71,92.45-2.05,80.68-45.96,104.17-45.96,104.17,0,0,13.82-26.1-5.14-104.94"/>
    <path class="cls-6" d="M62,130.68c20.43,18.96,42.53,46.81,46.23,80.7,0,0,7.15-9.19,0-42.38,0,0,29.62,33.19,21.45,121.02-2.7,28.97-7.5,60.38-11.08,90.87-7.28,61.94-9.5,120.06,21.29,146.07,0,0-17.36,49.02,0,74.55,0,0-1.52,3.02-3.79,8.36-6.18,14.55-17.9,46.32-19.45,81.25,0,0,0,.01-.01,.01-.4,9-.13,18.2,1.09,27.38,2.95,22.25,11.44,44.31,29.31,62.75,0,0-10.38-67.52,46.95-139.67,93.92-118.22,49.05-227.99,49.05-227.99"/>
    <path class="cls-6" d="M182.79,428.91s16.34,93.96-42.89,172.6"/>
    <path class="cls-6" d="M103.8,62c15.14,17.78,85.99,117.63,63.67,220.87-24.51,113.36-52.61,208.34-13.54,252.26l-14.04-8.17"/>
    <path class="cls-6" d="M259.53,962c10.79-35.25,17.75-68.45,24.12-97.95h0"/>
    <path class="cls-6" d="M307.63,962c-7.11-28.88-17.98-73.34-23.98-97.95h0c-2.67-10.93-4.38-17.94-4.38-17.94,0,0,9.73-80.17,10.71-83.24"/>
    <path class="cls-6" d="M116.65,691.12s0,.01-.01,.01c-15.8,22.07-33.92,40.85-54.64,55.92"/>
    <path class="cls-6" d="M62,770.91c19.56-14.68,39.14-32.88,55.73-52.4"/>
    <path class="cls-6" d="M62,639.85c2.38-.49,4.72-1.17,6.99-1.97,9.11-3.23,17.34-8.45,25.91-12.92,13-6.79,26.89-11.85,41.2-15.09"/>
    <path class="cls-6" d="M62,431.64c16.42-6.81,34.74-17.63,46.65-34.38,3.45-4.85,6.78-10.4,9.95-16.37"/>
    <path class="cls-6" d="M897.67,172.58c-.38,.49-14.23,18.35-10.2,16.33,3.72-1.86,48.12-.33,74.53-17.8"/>
    <path class="cls-6" d="M897.68,172.57h-.01s-88.84,29.62-88.84,29.62l6.13-23.49-29.33,17.75-9.48,5.74c-6.92-68.55,7.28-116.45,17.15-140.19"/>
    <polyline class="cls-6" points="785.63 196.45 814.96 329.85 830.94 335.38 841.51 339.04 869.98 316.53"/>
    <polyline class="cls-6" points="902.78 246.15 921.17 250.19 928.32 276.74 950.79 283.89 962 255.06"/>
    <path class="cls-6" d="M908.23,271.3s.68-27.57-15.66-35.74-22.13-16-39.49,0-10.55,30.64-6.81,38.81,14.34,12.83,16.34,29.62,37.79,33.7,47.66,18.38l5.11-10.55"/>
    <path class="cls-6" d="M918.79,322.7c.55,1.37-2,45.02,43.21,67.24"/>
    <path class="cls-6" d="M554.33,962c24.48-227.02,59.56-332.07,62.5-336.67,34.03-53.08,166.47-196.93,166.47-196.93,14.3-25.53,10.72-84.25,10.72-84.25l12.77-9.19s5.14,7.2,18.94,16.63c7.95,5.44,18.77,11.61,33.14,17.58,22.28,9.26,67.83,42.78,103.13,70.18"/>
    <path class="cls-6" d="M801.68,437.09s88.48,41.6,160.32,109.93"/>
    <path class="cls-6" d="M826.19,461.6s-52.09,91.91-67.4,128.68"/>
    <path class="cls-6" d="M830.28,485.09s-23.07,43.91-55.96,101.11"/>
    <path class="cls-6" d="M586.19,962l32.68-248.15,63.32-93.96s60.26-23.49,98.55-18.38"/>
    <path class="cls-6" d="M774.31,610.7s52.9,39.83,77.41,66.38"/>
    <path class="cls-6" d="M863.98,707.72s23.49,37.25,26.04,62.03"/>
    <path class="cls-6" d="M863.98,726.11s27.57,50.04,26.04,65.36l-16.2,170.53"/>
    <path class="cls-6" d="M841.77,389.09c48.17,36.6,89.04,69.6,120.23,97.8"/>
    <path class="cls-6" d="M925.89,472.83c8.95,9.4,22.85,23.23,35.28,46.47"/>
    <path class="cls-6" d="M639.3,792.49c3.06,2.04,135.02,40.85,135.02,40.85"/>
    <path class="cls-6" d="M683.47,859.89c6.89,1.02,75.32,0,75.32,0"/>
    <path class="cls-6" d="M650.53,951.81c5.11-1.02,101.11-11.23,101.11-11.23l-34.72,11.23"/>
    <path class="cls-6" d="M825.73,351.59c1.6-5.07,3.59-11.32,5.21-16.21"/>
  </g>
</svg>