<?xml version="1.0" encoding="UTF-8"?>
<svg xmlns="http://www.w3.org/2000/svg" viewBox="0 0 1024 1024">
  <defs>
    <style>
      .cls-1, .cls-2, .cls-3 {
        fill: #fff;
      }

      .cls-2, .cls-4, .cls-5, .cls-6, .cls-7, .cls-8, .cls-9, .cls-3, .cls-10, .cls-11, .cls-12 {
        stroke-linecap: round;
        stroke-linejoin: round;
      }

      .cls-2, .cls-4, .cls-5, .cls-6, .cls-9, .cls-3, .cls-10, .cls-11 {
        stroke: #151922;
      }

      .cls-2, .cls-10 {
        stroke-width: 2px;
      }

      .cls-4, .cls-5, .cls-7, .cls-8 {
        fill: #161922;
      }

      .cls-4, .cls-7, .cls-3, .cls-11, .cls-12 {
        stroke-width: 4px;
      }

      .cls-13 {
        fill: #ee4b2b;
      }

      .cls-6 {
        stroke-width: 3px;
      }

      .cls-6, .cls-9, .cls-10, .cls-11, .cls-12 {
        fill: none;
      }

      .cls-7, .cls-8, .cls-12 {
        stroke: #fff;
      }
    </style>
  </defs>
  <g id="background">
    <polygon class="cls-13" points="55.64 538.97 327.6 944.89 961 133.09 913.51 91.55 55.64 538.97"/>
    <polygon class="cls-13" points="138.36 402.83 802.61 133.09 795.09 110.81 124.57 246.45 138.36 402.83"/>
  </g>
  <g id="base">
    <polygon class="cls-2" points="678.11 95.3 683.21 78.96 707.38 77.26 702.62 91.55 678.11 95.3"/>
    <path class="cls-2" d="M447.44,110.29c1.51-2.26-1.93-12.1-4.91-13.44l-22.02,.3,5.57,13.66,21.36-.51Z"/>
    <path class="cls-3" d="M757.77,91.55s94.98,274.72,64.34,483.06-76.6,337.02-76.6,337.02c-66.38,61.28-233.51,32.16-289.02-40.85l7.15-56.17s-32.68,8.43-52.58-17.62l-98.06-238.21s-66.27-67.06-45.19-163.15c15.29-69.7,52.16-164.81,75.32-274.47,143.73-2.16,282.16-11.73,414.64-29.62Z"/>
    <g>
      <path class="cls-9" d="M394.75,509.16c7.16,14.84,14.86,29.53,24.87,42.62,10.01,13.09,22.48,24.6,37.39,31.62"/>
      <path class="cls-9" d="M417.99,529.74c7.87,17.26,21.4,31.88,38,41.05"/>
      <path class="cls-9" d="M432.33,535.21c4.1,7.76,9.99,14.57,17.09,19.73"/>
      <path class="cls-9" d="M531.96,621.58c36.74,5.9,74.36,6.29,111.21,1.17"/>
      <path class="cls-9" d="M533.49,610.55c26.34,7.64,54.64,8.4,81.35,2.18"/>
      <path class="cls-9" d="M545.02,603.58c14.3,3.24,29.18,3.86,43.7,1.83"/>
    </g>
    <path class="cls-6" d="M372.83,446.96s-10.81,96.51,112.26,171.57l-21.45,196.09"/>
    <path class="cls-6" d="M503.47,627.29s85.79,26.99,196.09-3.65"/>
    <path class="cls-10" d="M689.09,909.96c-5.12,13.51-5.36,18.29-10.96,31.77"/>
    <path class="cls-10" d="M754.19,241.6c35.15,212.77,20,422.27-50.59,628.15"/>
    <path class="cls-10" d="M719.83,86.28c14.61,48.99,17.64,66.32,27.1,114.97"/>
    <path class="cls-8" d="M769.98,110.24c-134.1,23.73-281.89,29.84-438.59,27.27-2.03-11.07-.34-20.44,6.11-27.64,155.08-2.99,287.66-10.74,423.91-30.3,5.77,10.39,8.73,20.62,8.58,30.67Z"/>
    <path class="cls-10" d="M430.96,165.09c-17.02,115.66-54.19,189.72-56.13,268.09"/>
    <path class="cls-9" d="M331.4,556.54c17.21,8.66,35.76,14.65,54.78,17.69"/>
    <path class="cls-9" d="M345.17,550.44c13.78,6.37,28.58,10.51,43.66,12.21"/>
    <path class="cls-9" d="M333.53,536.95c11.28,5.93,23.57,9.92,36.19,11.74"/>
    <path class="cls-2" d="M308.74,231.81c13.45,3.58,44.94,8.51,76.94,7.83l-45.62,160-65.02,48.68h-3.74l-12.6-22.81c3.38-45.27,25.93-118.36,50.04-193.7Z"/>
    <path class="cls-2" d="M471.81,246.45l-20.43,166.81c15.82,35.48,43.4,65.52,84.43,89.36h6.81c49.34-17.34,76.41-40.29,108.19-64.47l17.02-184.85c-73.9,4.09-131.17,4.12-196.02-6.85Z"/>
    <path class="cls-10" d="M460.99,334.79c23.31,10.82,66.53,34.61,82.37,68.04,0,0,57.25-43.46,115.38-50.77"/>
    <path class="cls-10" d="M281.16,321.35c3.43,5.34,6.65,11.77,8.1,18.63,0,0,42.52-26.49,75.92-28.44"/>
    <path class="cls-10" d="M708.71,216.94c17.94-2.71,35.88-5.42,53.82-8.14-1.25,.07-2.5,.13-3.74,.2"/>
    <path class="cls-10" d="M730.94,238.96c10.43-2.94,21.16-11.24,31.97-12.06"/>
    <path class="cls-10" d="M663.55,905.04c2.54,.72,5.24,.2,7.82-.32,16.28-3.3,32.56-6.59,48.84-9.89"/>
    <path class="cls-10" d="M678.12,880.82c11.77,1.22,23.41,3.78,34.61,7.61"/>
    <path class="cls-10" d="M742.34,598.95l-32.88,18.82c.95-.02,1.9-.04,2.85-.05,8.66,1.68,17.38,3.05,26.14,4.11"/>
    <path class="cls-3" d="M486.62,523.73c-3.93-3.7-7.61-7.68-11.01-11.87-2.11-2.6-4.14-5.36-5.14-8.56-1.96-6.3,.41-13.03,2.5-19.28,7.89-23.55,18.99-199.05,21.53-213.48l111.55,20.17s-44.66,204.61-48.99,283.4l-70.44-50.37Z"/>
    <path class="cls-4" d="M659.21,100.23l-4.1,19.26c-65.69-31.54-135.31-25.92-155.22-23.45l1.54-18.78c102.12-18.39,157.78,22.97,157.78,22.97Z"/>
    <path class="cls-3" d="M631.41,230.62l-5.65,26.51c-27.54-6.82-109.69-27.1-136.32-33.34l1.96-23.95c50.94,7.32,97.53,17.62,140.01,30.78Z"/>
    <polygon class="cls-3" points="621.3 278.06 616.32 301.43 485.09 276.91 487.1 252.36 621.3 278.06"/>
    <path class="cls-3" d="M644.38,169.8l-7.2,33.76c-39.17-12.04-86.88-22.17-143.61-30.3l2.31-28.13c30.21,.62,122.73,14.1,148.5,24.67Z"/>
    <path class="cls-3" d="M655.11,119.49l-5.79,27.15c-43.77-18.59-94.2-21.31-151.5-25.26l2.07-25.34c19.91-2.47,89.53-8.09,155.22,23.45Z"/>
    <path class="cls-4" d="M281.51,105.84c-32.29-21.4-123.94-4.9-138.27,11.06l-4.88-27.39c99.07-24.51,142.47-5.11,142.47-5.11l.68,21.44Z"/>
    <path class="cls-3" d="M282.27,129.91c-26.69-29.62-129.25-4.67-135.19,8.53l-3.84-21.54c14.33-15.96,105.98-32.46,138.27-11.06l.76,24.07Z"/>
    <path class="cls-4" d="M282.94,151.28c-15.18-29.59-134.24-3.74-132.27,7.3l-3.59-20.14c5.94-13.2,108.5-38.15,135.19-8.53l.67,21.37Z"/>
    <path class="cls-5" d="M283.38,165.09c0,14.8-130.21,23.28-129.19,13.27-1.79-10.07,129.19-30.13,129.19-13.27Z"/>
    <path class="cls-3" d="M270.07,637.39c-5.51,9.96-13.46,55.23-11.51,59s5.53,6.68,9.63,7.82c.96,.27,2.01,.44,2.95,.08,1.12-.43,1.84-1.51,2.48-2.53,6.67-10.62,31.08-63.49,31.08-63.49"/>
    <path class="cls-3" d="M342.53,604.58h0s-62.83,11.23-62.83,11.23l-14.24-30.3c-5.81-5.28-18.67-21.55-22.73-28.27-10.65-17.61-19.49-36.32-26.33-55.72-5.31-15.06-9.41-31.64-4.37-46.79,1.73-5.19,4.47-9.98,7.19-14.73l-59.92-285.89,113.87-10.35,20.29,287.98c11.4,32.45,20.65,48.54,37.79,78.36,2.1,3.65,10.61,19.22,13.3,22.47,1.17,1.41,3.6,5.33,5.66,9.07"/>
    <path class="cls-3" d="M350.21,541.64c1.63,2.95,3.03,5.79,3.39,7.19,4.21,16.32,16.35,47.23,22.67,60.48,1.81,3.79,14.31,37.59,15.92,47.43,2.05,12.43,4.1,24.87,5.7,37.38,.53,4.17,.99,11-3.2,11.38-14.8,1.37-23.99-29.8-27.05-43.82l-15.83-43.66c-2.56-4.67-5.83-9.02-9.28-13.43h0s-18.81-35.08-18.81-35.08"/>
    <path class="cls-4" d="M625.76,257.13l-4.46,20.93-134.2-25.7,2.34-28.57c26.63,6.24,108.78,26.52,136.32,33.34Z"/>
    <path class="cls-4" d="M637.18,203.56l-5.77,27.06c-42.48-13.16-89.07-23.46-140.01-30.78l2.17-26.58c56.73,8.13,104.44,18.26,143.61,30.3Z"/>
    <path class="cls-4" d="M649.32,146.64l-4.94,23.16c-25.77-10.57-118.29-24.05-148.5-24.67l1.94-23.75c57.3,3.95,107.73,6.67,151.5,25.26Z"/>
    <path class="cls-3" d="M283.38,165.09c0-16.86-130.98,3.2-129.19,13.27l-3.52-19.78c-1.97-11.04,117.09-36.89,132.27-7.3h0s.44,13.81,.44,13.81Z"/>
    <path class="cls-3" d="M554.62,528.39c1.53,5.78,2.27,11.76,2.21,17.73-.16,14.4,.59,27.36,0,41.75-.58,14.18-3.98,32.82-3.32,47s-.87,26.12-11.57,35.45c-2.61,2.27-5.65,4.12-9.02,4.91-6.98,1.65-14.13-1.34-20.68-4.26-4.05-1.81-8.1-3.62-12.16-5.43-2.21-.99-4.79-2.54-4.64-4.96-10.83,1.7-22.02,2.25-32.68-.34s-20.78-8.58-26.71-17.81-6.98-21.85-1.16-31.15c0,0,3.06-89.02,38.84-111.07"/>
    <path class="cls-3" d="M480.93,656.51c-7.38,13.65-40.82,73.89-41.82,76.17-7.75,17.72-15.5,35.44-23.25,53.15-.79,1.81-1.64,3.7-3.18,4.92-1.7,1.35-4.02,1.69-6.17,1.41-6.92-.91-11.89-7.71-12.91-14.62-1.03-6.9,1.03-13.86,3.27-20.47,5.26-15.52,11.7-30.65,19.25-45.2,2.1-4.05,20.9-40.47,30.74-57.56"/>
    <path class="cls-3" d="M480.93,656.51c-2.25,13.33-7.13,26.43-11.19,39.3-2.3,7.29,2.19,18.51,.12,25.87-.58,2.07-1.14,4.32-.36,6.32,.5,1.3,1.51,2.34,2.56,3.25,4.72,4.1,11.29,6.47,17.35,4.93,4.72-1.2,8.61-4.57,11.66-8.37,5.6-7,8.86-15.57,11.48-24.14,3.2-10.47,2.76-19.88,4.33-30.72,.52-3.59,.94-8.73,0-12.24"/>
    <path class="cls-3" d="M546.55,661.08c-2.06,13.9-4.47,27.77-8.07,41.37-4.75,17.95-11.64,35.5-22.04,50.88-.5,.74-7.15,1.77-9.16-.14-6.87-6.51-5.55-11.76-5.15-21.21,.17-3.94,1.03-7.8,1.89-11.65,3.47-15.52,6.94-31.05,10.4-46.57,.83-3.71,2.46-9.25,2.46-13.05"/>
    <path class="cls-3" d="M381.71,742.57c1.58,1.42,3.57,2.52,5.69,2.5,4.25-.05,7.04-4.3,9.05-8.05,7.63-14.22,15.25-28.44,22.88-42.67,3.06-5.7,6.16-11.52,7.32-17.88,1.17-6.36,.12-13.47-4.29-18.21-.73-.78-1.59-1.52-2.64-1.71-1.82-.33-3.48,1.03-4.81,2.32-16.99,16.51-34.48,40.57-38.54,64.6-1.13,6.68,.07,14.36,5.34,19.08Z"/>
    <path class="cls-7" d="M264.98,671.64c-.57,3.49-8.04,14.23-55.64,4.06-40.08-8.56-50.61-16.66-50.53-24.95,0,0,.01-.07,.03-.2,.7-2.3,13.06-8.27,56,1.05,42.09,9.14,50.59,17.3,50.14,20.04Z"/>
    <path class="cls-8" d="M472.12,766.64c-19.14-16.63-47.84-29.94-54.92-25.64,7.21-4.51,36.97,7.69,54.92,25.64Z"/>
    <path class="cls-8" d="M513.25,811.27c-.17,.69-.57,1.27-1.25,1.7,.87-1.58,1.09-3.28,.72-5.11,.55,1.32,.75,2.47,.53,3.41Z"/>
    <path class="cls-7" d="M512,812.97c-11.72,7.52-47.93-11.63-63-26.27-19.85-19.28-35.96-38.03-33.08-44.29,0,0,.01-.03,.04-.09,.14-.27,.31-.52,.52-.74,.07-.08,.14-.15,.22-.21,.07-.07,.14-.13,.22-.18,.09-.07,.18-.13,.28-.19,7.08-4.3,35.78,9.01,54.92,25.64,22.5,19.55,38.79,32.09,40.6,41.22,.37,1.83,.15,3.53-.72,5.11Z"/>
    <path class="cls-7" d="M531.79,764.06c-3.4,17.95-9.11,34.06-18.54,47.21-.41,.57-.83,1.14-1.25,1.7,.87-1.58,1.09-3.28,.72-5.11-1.81-9.13-18.1-21.67-40.6-41.22-19.14-16.63-47.84-29.94-54.92-25.64-.1,.06-.19,.12-.28,.19-.08,.05-.15,.11-.22,.18-.08,.06-.15,.13-.22,.21-.21,.22-.38,.47-.52,.74,.87-1.88,14.72-32,16.7-36.12,2.04-4.24-1.62-8.69-1.62-8.69-26.19-21.21-60.12-34.63-88.51-42.89-9.64-2.8-18.63-5.01-26.47-6.72-2.19-2.09-7.11-5.58-9.3-7.67-4.66-4.44-9.36-8.91-14.75-12.42s-11.59-6.04-18.02-6.2c-2.8-.07-6.03,.6-7.32,3.08-1.14,2.2-.26,4.87,.7,7.15,2.12,5.07,5.05,9.75,8.37,14.21-2.56,1.95-3.08,4-3.08,4l-7.68,21.59c.45-2.74-8.05-10.9-50.14-20.04-42.94-9.32-55.3-3.35-56-1.05,.55-3.34,8.43-47.69,46.42-65.04,59.61-16.23,256.76,40.32,317.7,133.89,8.59,13.19,11.76,29.19,8.83,44.66Z"/>
    <path class="cls-3" d="M234.51,447.96c-7.94,28.41,1.92,61,24.28,80.23,1.93,1.66,3.98,3.27,5.41,5.39,1.43,2.12,2.14,4.63,2.84,7.1,2.86,10.16,5.73,20.38,6.88,30.87,.55,5.03,.71,10.13,1.8,15.07,1.03,4.67,2.88,9.13,5.17,13.34,6.7,12.31,17.32,22.48,29.99,28.46,1.51,.71,3.09,1.38,4.76,1.53,4.69,.42,8.67-3.21,11.97-6.57-3.97-14.86-7.95-29.72-11.92-44.58-2.64-9.89-5.29-19.78-7.13-29.85-.48-2.64-.91-5.31-.76-7.98,.17-3.1,1.12-6.1,1.66-9.16,1.21-6.93,.29-14.03-.13-21.05-.04-.63,.04-1.44,.64-1.63s.76,1.16,.2,.87"/>
    <path class="cls-3" d="M342.53,654.62c-6.85,6.4-13.99,12.5-21.36,18.29-3.61,2.83-7.67,5.71-12.26,5.58-5.8-.16-10.24-5.01-13.88-9.53-6.15-7.63-13.36-14.93-19.29-22.91-3.32-4.46-6.25-9.14-8.37-14.21-.96-2.28-1.84-4.95-.7-7.15,1.29-2.48,4.52-3.15,7.32-3.08,6.43,.16,12.63,2.69,18.02,6.2s10.09,7.98,14.75,12.42c2.19,2.09,7.11,5.58,9.3,7.67,7.84,1.71,16.83,3.92,26.47,6.72Z"/>
    <path class="cls-11" d="M314.95,576.05s9.11-6.54,17.63-14.03"/>
    <path class="cls-3" d="M477.29,498.31c-2.81,2.97-13.09,5.67-15.9,8.64-3.78,3.99-7.6,8.03-10.29,12.82-2.9,5.14-4.39,10.93-5.92,16.62-5.92,21.95-12.94,43.59-21.04,64.83-5.61,14.72-11.75,29.29-16.02,44.46-.99,3.51-1.88,7.1-1.75,10.74,.14,3.96,1.47,7.77,2.82,11.5,5.07,14.01,10.64,28.3,10.37,43.19-.04,2.33-.18,4.85,1.13,6.79,1.97,2.91,6.46,3.03,9.45,1.19s4.83-5.03,6.53-8.1c5.93-10.73,11.82-22.93,8.69-34.79-1.26-4.77-3.97-9.5-2.93-14.33,.39-1.83,1.31-3.5,2.19-5.15,5.07-9.58,9.18-19.68,12.25-30.08,9.59-2.56,17.41-9.4,24.33-16.52,4.93-5.07,9.71-10.59,11.94-17.3,1.28-3.86,1.66-7.94,2.03-11.99,.79-8.57-1.6-37.96-5.76-42.69-1.6-1.82-3.52-3.36-5.64-4.54"/>
    <path class="cls-2" d="M420.51,97.15s-14.96,40.89,1.38,56.96h21.19s-7.64-25.94-.83-57.26l-21.74,.3Z"/>
    <path class="cls-2" d="M683.21,78.96s12.6,32.68,5.79,54.13c0,0,25.53-4.09,26.89-4.09s.34-40.51-8.51-51.74l-24.17,1.7Z"/>
    <g>
      <path class="cls-8" d="M802.22,809.93c.6,.18,1.18,.28,1.72,.28-.47-.49-.91-1-1.33-1.54-.12,.43-.25,.85-.39,1.26Z"/>
      <path class="cls-8" d="M768.12,790.59c-.4,1.78-.5,4.87,.63,8.49,.44-3.78-.02-6.85-.63-8.49Z"/>
      <path class="cls-8" d="M842.62,800.42c1.35-.53,2.49-1.19,3.44-1.94-.89-.38-1.72-.78-2.5-1.2-.25,1.06-.57,2.11-.94,3.14Z"/>
      <g>
        <path class="cls-8" d="M602.91,766.56c-.61,.43-1.15,.98-1.58,1.64-4.26,6.56-7.44,12.68-9.51,18.27-13.05,6.07-25.6,9.11-37.6,9.11-14.04,0-27.33-4.16-39.79-12.49-2.75-1.84-3.49-5.57-1.65-8.32,1.84-2.76,5.56-3.5,8.32-1.65,23.77,15.9,50.54,13.75,81.81-6.56Z"/>
        <g>
          <path class="cls-8" d="M626.09,811.53c-5.82,4.59-12.6,7.69-19.28,7.7-1.3,0-2.6-.12-3.88-.37-5.77-1.11-10.18-4.59-12.4-9.81-2.52-5.91-2.06-13.56,1.29-22.58,2.07-5.59,5.25-11.71,9.51-18.27,.43-.66,.97-1.21,1.58-1.64,.06-.04,.12-.08,.18-.12,.13-.08,.25-.16,.38-.23,.24-.13,.49-.25,.74-.34,.11-.05,.23-.09,.35-.12,.11-.04,.23-.07,.35-.1,.12-.03,.24-.06,.36-.08,.08-.01,.16-.03,.24-.04,.09-.01,.19-.03,.28-.03,.38-.04,.76-.04,1.13,0,.09,0,.19,.02,.28,.03,.08,.01,.16,.02,.24,.04,.12,.02,.24,.05,.36,.08,.12,.03,.24,.06,.36,.1,.23,.07,.46,.16,.68,.26,.16,.07,.31,.15,.47,.24,.11,.05,.21,.12,.32,.19,.12,.08,.25,.17,.36,.25,.09,.07,.18,.14,.27,.22,.31,.26,.58,.55,.83,.86,.06,.08,.12,.17,.18,.25,.22,.3,.4,.62,.55,.96,.1,.22,.19,.45,.26,.69,.04,.11,.07,.23,.1,.35,.03,.12,.06,.24,.08,.36,.01,.08,.03,.16,.04,.24,.01,.09,.03,.19,.03,.28,.04,.38,.04,.76,0,1.13,0,.09-.02,.19-.03,.28-.01,.08-.02,.16-.04,.24-.02,.12-.05,.24-.08,.36-.03,.12-.06,.24-.1,.36-.07,.23-.16,.46-.26,.68-.07,.16-.15,.31-.24,.47-.05,.11-.12,.21-.19,.32-.04,.06-.08,.12-.12,.18-9.88,15.27-11.49,25.21-9.7,29.43,.44,1.03,1.25,2.27,3.62,2.73,4.78,.91,11.69-2.67,17.17-8.33,.36,2.53,.87,4.9,1.47,6.92,.63,2.13,1.39,4.09,2.26,5.86Z"/>
          <path class="cls-8" d="M634.62,784.09c-1.01,3.22-1.4,10.95,.64,17.93"/>
        </g>
        <g>
          <path class="cls-8" d="M662.48,814.99c-6.41,4.71-13.62,8.02-20.07,8.02-.88,0-1.75-.06-2.59-.18-5.78-.87-10.53-4.82-13.73-11.3-.87-1.77-1.63-3.73-2.26-5.86-.6-2.02-1.11-4.39-1.47-6.92-1.26-8.97-.62-19.96,4.67-24.65,2.53-2.24,5.86-2.86,9-1.71,.18,.06,.36,.13,.54,.21,.14,.06,.28,.13,.41,.2,.11,.05,.21,.11,.31,.17,.16,.09,.31,.2,.46,.3,0,.01,.01,.01,.02,.02,.18,.14,.35,.28,.51,.43,.15,.14,.29,.28,.43,.44,.11,.12,.21,.25,.31,.39,4.64,5.75,4.24,14.25-1.08,23.41-.8,1.37-1.69,2.73-2.68,4.06,.29,1,.63,1.99,1.03,2.95,.86,2.07,2.69,5.59,5.31,5.99,3.83,.59,10.54-2.65,16.71-7.96,.58,4.34,1.97,8.55,4.17,11.99Z"/>
          <path class="cls-8" d="M634.62,784.09c-1.01,3.22-1.4,10.95,.64,17.93"/>
          <path class="cls-8" d="M671.67,806.7c-.6-1.36-1.07-2.97-1.36-4.74-1.05-6.36,.72-10.94,1.64-11.47h.03"/>
        </g>
        <path class="cls-8" d="M851.08,787.56c3.02,1.22,6.95,1.98,11.91,2.03"/>
        <g>
          <path class="cls-8" d="M846.06,798.48c-.95,.75-2.09,1.41-3.44,1.94,.37-1.03,.69-2.08,.94-3.14-5.06-2.71-7.99-6.2-9.65-9-1.55-2.62-2.48-5.45-2.78-8.26-.37-3.28,.11-6.52,1.43-9.34-.71-.78-1.65-1.37-2.73-1.67-.15-.05-.31-.08-.47-.11-5.17-1.02-9.81,.88-12.43,5.06h0c-.3,.48-.56,.97-.8,1.48h0c-.95,2.05-1.43,4.39-1.53,6.85-.3,7.31,2.76,15.81,7.1,21.55,.24,.32,.49,.63,.74,.94h.01c.29,.36,.59,.71,.91,1.05,3.06,3.41,6.62,5.69,10.43,6.75,1.64,.47,3.33,.7,5.05,.7,1.85,0,3.74-.27,5.62-.82,6.48-1.88,11.58-5.79,14.79-11.02-5.37-.38-9.7-1.48-13.19-2.96Zm-13.72-6.83c-.12,1.63-.46,3.34-1.06,4.97-.17-.23-.33-.46-.5-.7-4.16-6.01-4.68-13.2-3.85-15.27,.03,.01,.07,.01,.1,.02,4.14,.82,5.66,6.26,5.31,10.98Z"/>
          <path class="cls-8" d="M831.28,796.62c2.94,3.92,6.24,5.37,9.83,4.32,.53-.15,1.03-.33,1.51-.52"/>
          <path class="cls-8" d="M832.89,770c-.12,.22-.23,.45-.33,.68-.71-.78-1.65-1.37-2.73-1.67,1.07,.23,2.09,.57,3.06,.99Z"/>
          <path class="cls-8" d="M831.28,796.62c2.94,3.92,6.24,5.37,9.83,4.32,.53-.15,1.03-.33,1.51-.52"/>
        </g>
        <g>
          <path class="cls-8" d="M823.36,805.83c-.32-.34-.62-.69-.91-1.05h-.01c-.25-.31-.5-.62-.74-.94-4.34-5.74-7.4-14.24-7.1-21.55,.1-2.46,.58-4.8,1.53-6.84h0c-.74-1.7-2.23-3.03-4.13-3.47-.13-.03-.26-.06-.39-.08-4.79-.8-9.17,1.04-12.02,5.05-1.12,1.58-1.97,3.45-2.54,5.52-1.86,6.68-.83,15.33,3.01,22.36,.76,1.39,1.61,2.66,2.55,3.83h0c.42,.55,.86,1.06,1.33,1.55,3.5,3.71,7.92,6.01,12.87,6.66,.95,.13,1.93,.19,2.92,.19,.37,0,.75-.01,1.13-.02,5.17-.25,9.48-1.91,12.93-4.46-3.81-1.06-7.37-3.34-10.43-6.75Zm-10.04-11.51c-.07,2.4-.46,4.85-1.15,7.1-1.4-1.68-2.28-3.63-2.81-5.13-2.12-6.05-.97-11.56,.14-12.57,.04,0,.08,0,.13,.01,1.91,.32,3.87,4.46,3.69,10.59Z"/>
          <path class="cls-8" d="M812.17,801.42c1.77,2.13,4.36,3.81,8.12,3.63,.76-.04,1.47-.13,2.15-.27"/>
          <path class="cls-8" d="M816.93,773.97c-.3,.47-.56,.96-.8,1.47-.74-1.69-2.23-3.02-4.13-3.46,1.8,.35,3.45,1.02,4.93,1.99Z"/>
          <path class="cls-8" d="M812.17,801.42c1.77,2.13,4.36,3.81,8.12,3.63,.76-.04,1.47-.13,2.15-.27"/>
        </g>
        <g>
          <path class="cls-8" d="M785.4,788.39c-.01-.08-.02-.15-.03-.22"/>
          <path class="cls-8" d="M791.59,801.23h0c.42,.57,.87,1.12,1.34,1.68,3.15,3.7,6.5,6.2,9.29,7.02"/>
          <path class="cls-8" d="M803.94,810.21c-.54,0-1.12-.1-1.72-.28,.14-.41,.27-.83,.39-1.26h0c-.94-1.18-1.79-2.45-2.55-3.84-3.84-7.03-4.87-15.68-3.01-22.36-3.05-3.57-6.93-5.73-11.18-6.18-.03-.01-.07-.01-.1-.02-.17-.03-.35-.05-.53-.06-.17,0-.33-.02-.5-.02-3.97-.14-7.28,1.37-9.3,4.23-.17,.23-.33,.48-.48,.73-.23,.39-.43,.78-.6,1.19h0c-.64,1.48-.94,3.06-.99,4.68-.22,7.28,4.56,15.41,6.37,18.21,.02,.04,.05,.07,.07,.11,.85,1.3,2.33,3.42,4.32,5.72,2.71,3.12,6.37,6.58,10.72,8.8,2.79,1.44,5.86,2.36,9.15,2.36,.63,0,1.26-.03,1.91-.1,4.4-.48,8.02-2.42,10.9-5.25-4.95-.65-9.37-2.95-12.87-6.66Zm-18.54-21.82c1.59,.57,3.15,2.23,4.33,4.65,1.23,2.52,1.85,5.44,1.86,8.19-3.93-5.14-5.86-10.23-6.19-12.84Z"/>
          <path class="cls-8" d="M785.4,788.39c-.01-.08-.02-.15-.03-.22"/>
          <path class="cls-8" d="M791.59,801.23h0c.42,.57,.87,1.12,1.34,1.68,3.15,3.7,6.5,6.2,9.29,7.02"/>
        </g>
        <g>
          <path class="cls-8" d="M768.12,790.59h0m.63,8.49h0c.18,.62,.4,1.24,.66,1.87,1.16,2.84,3.74,7.29,8.91,9.21"/>
          <path class="cls-8" d="M784.13,811.06c-.51,.03-1.07,.02-1.67-.02-1.54-.12-2.91-.43-4.14-.88,.6-1.55,1.1-3.17,1.49-4.82-.02-.04-.05-.07-.07-.11-1.81-2.8-6.59-10.93-6.37-18.21,.05-1.62,.35-3.2,.99-4.67h0c.17-.42,.37-.81,.6-1.2,.15-.25,.31-.5,.48-.73-1.58-1.4-3.46-2.34-5.63-2.72-.15-.04-.31-.07-.47-.09-.15-.02-.31-.04-.46-.05-3.86-.4-7.4,1.17-9.8,4.37-.29,.38-.55,.78-.8,1.2-3.23,5.47-3.27,14.15-.09,22.1h0c.19,.48,.39,.95,.6,1.41,1,2.2,2.2,4.2,3.58,6,2.58,3.36,5.78,5.98,9.44,7.76,2.98,1.45,6.27,2.34,9.77,2.6,.66,.05,1.31,.08,1.95,.08,4.32,0,8.17-1.1,11.32-3.22-4.35-2.22-8.01-5.68-10.72-8.8Zm-15.38-11.98c-1.13-3.62-1.03-6.71-.63-8.49,.61,1.64,1.07,4.71,.63,8.49Z"/>
          <line class="cls-8" x1="768.12" y1="790.59" x2="768.12" y2="790.58"/>
          <path class="cls-8" d="M768.75,799.08h0c.18,.62,.4,1.24,.66,1.87,1.16,2.84,3.74,7.29,8.91,9.21"/>
        </g>
        <g>
          <path class="cls-8" d="M734.06,780.45c-.11-.13-.23-.25-.35-.36"/>
          <path class="cls-8" d="M731.01,790.32c-.78,4.07-.96,12.17,1.77,18.3,.26,.58,.53,1.11,.82,1.59"/>
          <path class="cls-8" d="M771.81,820.4c-3.12,3.04-7.01,5.02-11.62,5.32-.61,.04-1.2,.06-1.77,.06-4.96,0-8.69-1.39-11.41-3.11-1.32-.83-2.4-1.75-3.27-2.62-1.93-1.94-3.39-4.2-4.48-6.64-1.48-3.29-2.28-6.9-2.66-10.45-.32-2.92-.35-5.81-.23-8.44v-.06c.29-2.89,.86-5.53,1.33-7.77h0c.96-2.77,2.47-4.96,4.49-6.56,3.31-2.62,6.8-2.67,8.28-2.54,.13,.01,.25,.02,.38,.04,.03,0,.05,.01,.08,.01,.05,0,.1,0,.15,.02,.09,.02,.18,.03,.27,.06,.09,.01,.18,.03,.27,.06,.05,.01,.1,.03,.15,.04,.13,.04,.25,.07,.37,.12,2.7,.87,4.76,2.66,6.14,5.19-3.23,5.47-3.27,14.15-.09,22.1h0c-.88,2.79-2.02,5.49-3.37,7.99,1.11,.41,2.6,.65,4.61,.52,1.06-.06,2.04-.46,2.94-1.1,2.58,3.36,5.78,5.98,9.44,7.76Z"/>
          <path class="cls-8" d="M749.61,789.56c-.24,.22-.97,1.36-1.18,4.28-.56,8.14,.86,14.77,3.82,17.75,.55,.55,1.34,1.19,2.57,1.63"/>
        </g>
        <g>
          <path class="cls-8" d="M747.01,822.67c-2.63,1.93-5.57,3.07-8.77,3.07-.95,0-1.91-.1-2.9-.3-3.59-.76-6.7-2.57-9.24-5.29-2.62-2.8-4.62-6.57-5.92-11.17-.63-2.24-1.09-4.67-1.38-7.28-.21-2-1.88-19.61,6.43-23.35,2.23-1,5.49-1.07,8.27,1.55,.05,.04,.1,.09,.15,.14h0s.04,.03,.05,.05c2,1.71,3.28,3.98,3.99,6.59h0c-.67,1.86-1.08,3.97-1.24,6.33-.03,.47-.06,.96-.09,1.45v.06c-.27,2.65-.28,5.5,.23,8.44-.69,2.18-1.55,4.31-2.53,6.31-.16,.32-.31,.63-.47,.94,1.17,1.97,2.58,3.14,4.21,3.48,.42,.09,.91-.01,1.45-.28,1.09,2.44,2.55,4.7,4.48,6.64,.87,.87,1.95,1.79,3.27,2.62Z"/>
          <path class="cls-8" d="M704.47,778.56c-.15-.02-.29-.04-.44-.05,.07,0,.13,0,.2,0,.08,.01,.16,.02,.24,.04Z"/>
          <path class="cls-8" d="M731.01,790.32c-.78,4.07-.96,12.17,1.77,18.3,.26,.58,.53,1.11,.82,1.59"/>
          <path class="cls-8" d="M734.06,780.45c-.11-.13-.23-.25-.35-.36"/>
        </g>
        <g>
          <path class="cls-8" d="M697.09,816.62c-5.36,4.07-11.74,6.75-18.58,6.75-1.59,0-3.21-.14-4.85-.45-4.87-.92-8.59-3.9-11.18-7.93-2.2-3.44-3.59-7.65-4.17-11.99-.36-2.66-.41-5.37-.17-7.99,.93-10.04,6.37-16.52,13.84-16.52,.18,0,.35,.01,.52,.03,.07,0,.14,.01,.21,.02,.11,.01,.21,.02,.32,.05,.1,.01,.2,.03,.3,.06,.13,.02,.25,.05,.38,.1,.13,.03,.25,.08,.38,.13,.1,.04,.2,.08,.3,.12,.17,.08,.34,.16,.51,.25,.03,.01,.05,.03,.08,.05,3.96,2,7.23,6.58,5.15,13.78-1.2,4.14-4.3,9.02-8.46,13.62,1.08,2.48,2.59,4.12,4.21,4.42,6.54,1.23,12.24-2.49,15.71-5.59,.82,3.94,2.57,7.77,5.5,11.09Z"/>
          <path class="cls-8" d="M671.67,806.7c-.6-1.36-1.07-2.97-1.36-4.74-1.05-6.36,.72-10.94,1.64-11.47h.03"/>
          <path class="cls-8" d="M726.1,820.15c-3.74,3.3-7.93,5.08-12.19,5.08-1.24,0-2.48-.15-3.72-.45l-.51-.15c-5.56-1.9-9.66-4.7-12.58-8.01h0c-2.93-3.32-4.68-7.15-5.5-11.09-.89-4.21-.73-8.54,.16-12.53,1.69-7.61,6.16-14.99,12.28-14.49,.15,0,.29,.03,.44,.05,.15,.02,.29,.05,.44,.08,.15,.03,.3,.07,.45,.12,.02,0,.04,0,.06,.02,.15,.05,.3,.1,.45,.16,4.43,1.61,8.56,6.61,6.31,15.74-1.08,4.37-3.38,9.06-6.6,13.36,1.7,2.21,4.25,3.91,7.7,5.13,2.3,.41,4.86-1.62,6.9-4.19,1.3,4.6,3.3,8.37,5.92,11.17Z"/>
          <path class="cls-8" d="M705.64,790.13c-1.26,1.82-3.53,7.45-2.29,13.05,.4,1.84,1.14,3.45,2.23,4.86"/>
          <path class="cls-8" d="M705.64,790.13c-1.26,1.82-3.53,7.45-2.29,13.05,.4,1.84,1.14,3.45,2.23,4.86"/>
        </g>
        <g>
          <path class="cls-8" d="M882.15,793.49c-.54-3.26-3.63-5.48-6.9-4.94-4.64,.77-8.72,1.09-12.26,1.04,.06-.72,.09-1.44,.09-2.18,.06-11.12-5.93-20.78-14.62-23.76-.01,0-.03,0-.04,0-.19-.08-.38-.15-.58-.21-.16-.05-.32-.09-.48-.13h-.02c-4.89-1.29-9.82,.38-12.97,4.41-.56,.72-1.06,1.49-1.48,2.29-.12,.22-.23,.45-.33,.68-1.32,2.82-1.8,6.06-1.43,9.34,.3,2.81,1.23,5.64,2.78,8.26,1.66,2.8,4.59,6.29,9.65,9,.78,.42,1.61,.82,2.5,1.2,3.49,1.48,7.82,2.58,13.19,2.96,1.39,.11,2.84,.16,4.37,.16,4.01,0,8.52-.37,13.59-1.21,3.27-.54,5.49-3.63,4.94-6.9Zm-31.07-5.93c-4.38-1.75-6.83-4.45-7.7-7.32-.94-3.06,.22-5.17,.67-5.38,.03-.01,.14,0,.32,.05,3.86,1.17,6.74,6.51,6.71,12.44v.21Z"/>
          <path class="cls-8" d="M851.08,787.56c3.02,1.22,6.95,1.98,11.91,2.03"/>
        </g>
        <path class="cls-8" d="M749.61,789.56c-.24,.22-.97,1.36-1.18,4.28-.56,8.14,.86,14.77,3.82,17.75,.55,.55,1.34,1.19,2.57,1.63"/>
      </g>
    </g>
    <path class="cls-12" d="M655.11,119.49l4.1-19.26c-4.2-6.81-10.64-10.56-16.21-12.51"/>
    <path class="cls-1" d="M216.23,634.1c-.43,2.28-.57,4.8,.67,6.76,1.09,1.72,3.02,2.68,4.86,3.53,2.65,1.23,5.33,2.4,8.03,3.53,2.42,1.01,5,2.01,7.6,1.66,3.46-.46,6.25-3.28,7.66-6.48s1.69-6.76,1.95-10.25c.16-2.18,.32-4.35,.49-6.53,.25-3.37,.46-6.94-1.13-9.91-9.39-17.53-28.13,7.23-30.12,17.69Z"/>
    <path class="cls-1" d="M480.46,735.66c-1.59,4.92-3.15,10.44-.88,15.09,1.11,2.27,3.02,4.04,4.88,5.75,2.83,2.59,5.66,5.19,8.49,7.78,2.07,1.89,4.35,3.89,7.15,4.12,2.8,.23,5.51-1.46,7.14-3.75s2.36-5.1,2.82-7.87c1.01-6.06,.92-12.24,.83-18.37-.08-5.59-.21-11.4-2.72-16.4-1.86-3.72-4.9-6.69-7.89-9.59-5.58-5.42-11.26-10.92-18.14-14.56-4.65,5.81,5.34,10.81,5.42,16.12,.09,6.31-5.15,15.62-7.11,21.69Z"/>
    <path class="cls-9" d="M421.78,256.32c-3.63,14.54-7.27,29.08-10.9,43.61"/>
    <path class="cls-9" d="M314.59,244.59c13.97,3.4,28.5,4.46,42.82,3.11"/>
    <path class="cls-9" d="M643.84,267.49l11.21,.95c-1.32,1.25-1.7,3.17-2.01,4.95-1.95,11.17-3.91,22.34-5.86,33.51"/>
    <path class="cls-9" d="M775.53,358.2c2.96,26.17,3.81,52.58,2.55,78.89"/>
    <path class="cls-9" d="M649.31,894.67c4.82-.06,9.64-.46,14.41-1.19,2.63-.4,2.79-4.13,.2-4.75-4.11-.97-8.22-1.95-12.33-2.92"/>
    <path class="cls-9" d="M356.31,470.05c-1.07-13.29-.43-26.72,1.91-39.85"/>
    <path class="cls-9" d="M348.13,456.99c.58-6.63,1.16-13.26,1.74-19.9"/>
    <path class="cls-9" d="M328.87,223.29c5.88-13.49,10.32-27.61,13.25-42.03"/>
    <path class="cls-9" d="M231.63,434.32c1.23-2.53,.76-5.52,.26-8.29-3.92-21.84-7.87-43.67-11.84-65.5"/>
    <path class="cls-9" d="M479.02,492.75c4.09-3.19,9.93-3.98,14.72-1.99"/>
    <path class="cls-9" d="M484.59,482.37c2.29-1.5,4.58-1.82,6.86-.98"/>
    <path class="cls-9" d="M485.42,476.89c.7-.64,2.43-1.76,4.85-1.3"/>
    <path class="cls-9" d="M504,291.55c.44,21.74-.75,43.52-3.56,65.08"/>
    <path class="cls-9" d="M460.83,417.94c3.4,8.53,8.09,16.54,13.87,23.67"/>
    <path class="cls-9" d="M305.57,412.92c7.54-4.65,14.81-9.75,21.75-15.25,1.97-1.56,3.96-3.2,5.3-5.33,1.18-1.88,1.81-4.05,2.42-6.19,3.16-11.09,6.28-22.2,9.36-33.32"/>
    <path class="cls-9" d="M607.83,455.38c7.72-4.38,15.06-9.42,21.92-15.05,3.12-2.57,6.19-5.3,8.36-8.71,2.05-3.21,3.22-6.89,4.21-10.57,2.38-8.78,3.9-17.79,4.53-26.86"/>
    <path class="cls-9" d="M419.38,143.84c4.38,3.44,9.86,5.46,15.42,5.69"/>
    <path class="cls-9" d="M697.5,123.07c3.94,1.51,8.38,1.68,12.42,.49"/>
    <path class="cls-10" d="M525.65,669.2l-11.19-10.82c-2.34-2.27-4.77-4.66-5.78-7.76-.8-2.45-.62-5.1-.43-7.67,1.57-21.63,3.14-43.27,4.71-64.9,.88-12.16,.89-15.76-2.01-27.61"/>
    <path class="cls-10" d="M469.73,653.75c8.1,1.89,16.3,3.35,24.56,4.37"/>
  </g>
</svg>