<?xml version="1.0" encoding="UTF-8"?>
<svg xmlns="http://www.w3.org/2000/svg" viewBox="0 0 1024 1024">
  <defs>
    <style>
      .cls-1, .cls-2, .cls-3, .cls-4 {
        fill: #fff;
      }

      .cls-2, .cls-3, .cls-5, .cls-6, .cls-7, .cls-4, .cls-8 {
        stroke: #151922;
      }

      .cls-2, .cls-3, .cls-6, .cls-9, .cls-7, .cls-4, .cls-8, .cls-10 {
        stroke-linecap: round;
        stroke-linejoin: round;
      }

      .cls-2, .cls-8 {
        stroke-width: 1.5px;
      }

      .cls-3 {
        stroke-width: 2px;
      }

      .cls-5, .cls-9, .cls-7, .cls-11, .cls-8 {
        fill: none;
      }

      .cls-5, .cls-11 {
        stroke-miterlimit: 10;
        stroke-width: .5px;
      }

      .cls-12 {
        fill: #ee4b2b;
      }

      .cls-6, .cls-10, .cls-13 {
        fill: #151922;
      }

      .cls-9, .cls-11, .cls-10 {
        stroke: #fff;
      }
    </style>
  </defs>
  <g id="background">
    <polygon class="cls-12" points="943.18 250.26 943.18 364.43 843.17 364.43 843.17 478.59 739.42 478.59 739.42 592.76 92.47 592.76 92.47 478.59 196.22 478.59 196.22 364.43 303.7 364.43 303.7 250.26 943.18 250.26"/>
  </g>
  <g id="boy-base">
    <path class="cls-4" d="M292.31,898.45c-9.75,6.75-13.89,2.8-18.36-.87,1.54-4.98,2.18-9.21,2.18-12.81,3.73,4.92,8.94,9.66,16.18,13.68Z"/>
    <path class="cls-4" d="M268.37,868.26c-4.52-3.17-9.33-3.6-9.33-3.6,.18-3.69,.17-6.58,1.04-8.94h.01l7.25-3.44c-.37,3.4-.57,9.26,1.03,15.98Z"/>
    <path class="cls-4" d="M605.5,213.76c-7.1,9.12-14.19,18.25-21.29,27.38-.78,1-3.87,5.17-3.87,5.17-6.02,11.09-10.3,10.85-25.7,17.84-1.58,.72-3.46,1.75-5.36,2.87,3.22-10.65,5.93-23.05,9.14-33.7,.92-3.05,4.09-15.5,4.02-18.68-.01-.42-.14-.86-.35-1.31,16.64-1.53,31.09-1.37,43.41,.43Z"/>
    <path class="cls-10" d="M709.09,301.6c-3.75,17.36-11.92,36.08-23.15,48.34l-35.07,77.95s-.16,.35-.48,.97c.9,9.12,1.59,21.08,.65,26.1-.53,2.81-4.52,5.75-10.38,8.59,5.22,7.21,14.51,18.74,17.68,26.7-.38-.7-1.36-1.41-3.21-2.1-2.18-.82-4.49-.08-6.86,1.68-8.74,6.47-18.15,26.83-23.78,34.06-5.47,7.04-70.13,19.45-100.2,24.89-8.27,1.5-15.29,6.49-20.22,13.3-.03,.05-.06,.08-.09,.11-.17,.17-.37,.02-.59-.32-.77-1.2-1.71-4.78-1.71-4.78-6.38-9.71,2.3-28.35,2.3-28.35-2.37-4.35-3.96-8.93-5.02-13.21-2.89,9.37-9.2,8.63-18.22,9.38-4.59,.39-6.23,3.77-6.72,7.06-.76,5.05-2.79,9.83-6.16,13.67l-2.43,2.76c-13.28,.51-15.32-18.38-15.32-18.38,0,0-21.68-36.13-36.51-46.01-3.43-2.3-6.5-3.18-8.84-1.89,.38-.71,1-1.44,1.94-2.14,4.81-3.6,28.82-15.58,37.26-28.87-2.21-1.71-5.02-3.84-8.15-6.11-7.41-5.36,0-9.54,0-9.54,33.48-17.07,28.73-38.76,23.13-49.94-2.78-5.55-3.85-11.79-2.87-17.92,.26-1.59,.51-3.21,.74-4.84-7.7,15.35-15.89,30.68-16.92,36.03-2.8,14.55-4.08,7.15-18.63,21.7-8.93,8.92-19.04,8.82-25.53,7.41,7.3-2.49,14.57-5.39,20.09-10.69,4.04-3.88,6.9-8.85,8.99-14.05,6.31-15.65,5.79-33.93-1.42-49.19-1.89-4.01-4.31-7.91-7.94-10.45-4.26-2.99-9.66-3.74-14.85-4.14-3.87-.3-7.81-.44-11.64,.11l42.32-76.36c2.88-5.2,7.21-9.44,12.47-12.19,16.03-8.37,54.99-26.28,103.82-35.75,.96-.19,1.92-.37,2.88-.55,3.99-.52,7.87-.96,11.64-1.31,.21,.45,.34,.89,.35,1.31,.07,3.18-3.1,15.63-4.02,18.68-3.21,10.65-5.92,23.05-9.14,33.7,1.9-1.12,3.78-2.15,5.36-2.87,15.4-6.99,19.68-6.75,25.7-17.84,0,0,3.09-4.17,3.87-5.17,7.1-9.13,14.19-18.26,21.29-27.38,6.07,.89,11.62,2.18,16.66,3.87,0,0,1,.15,2.79,.52,11.51,2.3,55.81,13.15,79.37,47.02,0,0,8.51,19.06,4.77,36.43Z"/>
    <path class="cls-10" d="M626.02,216.15s-.4,.75-1.07,2c-2.43,4.56-8.45,15.84-11.93,22.42-4.44,8.4-8.85,17.4-8.25,26.88,.09,1.37,.28,2.76,.02,4.11-.25,1.35-1.06,2.7-2.36,3.15-1.26,.44-2.69-.08-3.69-.97s-1.65-2.09-2.27-3.27c-3.1-5.79-6.19-11.58-9.29-17.37-.79-1.49-1.6-3-2.82-4.15-.99-.94-4.02-2.64-4.02-2.64,0,0,3.09-4.17,3.87-5.17,7.1-9.13,14.19-18.26,21.29-27.38,3.02-3.89,6.05-7.77,9.07-11.66,1.25-1.62,3.17-3.43,5.05-2.6,1.54,.67,1.87,2.67,1.99,4.34,.14,1.86,.27,3.72,.41,5.57,.11,1.51,4,6.74,4,6.74Z"/>
    <path class="cls-10" d="M562.44,214.64c.07,3.18-3.1,15.63-4.02,18.68-3.21,10.65-5.92,23.05-9.14,33.7-1.52-6.94-8.29-26.3-9.43-27.68-1.58-1.91-5.77,1.55-3.7-1.3,1.12-1.54,6.71-13.71,11.42-22.85,2.27-4.42,4.34-8.14,5.6-9.59,2.28,1.56,7.52,4.82,8.92,7.73,.21,.45,.34,.89,.35,1.31Z"/>
    <path class="cls-3" d="M635.14,115.2c-.66,24.9-.8,48.68-7.06,70.95-7.27,16.58-16.79,31.18-27.63,40.13-7.08,5.84-17.28,8.85-25.24,8.85-7.68-.01-16.64-2.57-23.87-7.79-12.45-9-23.2-24.47-31.18-42.07h0c-5.85-25.57-7.29-49.42-6.95-68.96,.44-25.58,12.74-49.38,36.97-57.6,9.15-3.1,17.78-4.64,24.09-4.6,4.52,.03,9.93,.45,15.76,1.47,28.32,4.96,45.89,30.89,45.12,59.63Z"/>
    <path class="cls-4" d="M632.57,157.44c3.18-4.07,7.12-8.52,12.29-8.48,4.37,.04,8.18,3.64,9.36,7.85s.08,8.79-2.02,12.62-5.15,7.04-8.16,10.21c-2.98,3.13-6.11,6.39-10.2,7.8-3.27,1.13-4.71,.69-6.11-.12"/>
    <path class="cls-4" d="M519.39,157.44c-3.18-4.07-7.12-8.52-12.29-8.48-4.37,.04-8.18,3.64-9.36,7.85-1.17,4.21-.08,8.79,2.02,12.62s5.15,7.04,8.16,10.21c2.98,3.13,5.5,6.44,9.39,8.32,1.94,.94,3.91,.8,4.34,.57"/>
    <path class="cls-7" d="M564.78,187.53c-2.89,2.47-3.15,6.85-.57,9.65l3.85,2.33s1.53,3.57,2.89,4.99c2.8,2.93,7.42,2.86,10.13-.16,2.05-2.28,2.56-4.7,2.56-4.7l3.51-2.33c2.57-2.98,2.48-7.43-.22-10.29"/>
    <path class="cls-13" d="M571.37,216.9c-.24,1.09,.25,2.26,1.06,3.02s1.91,1.17,3.01,1.34c.83,.13,1.7,.13,2.5-.15s1.52-.86,1.82-1.64c.35-.91,.11-1.97-.41-2.79-1.47-2.31-7.24-3.18-7.98,.22Z"/>
    <path class="cls-7" d="M533.18,168.68c7.18,5.01,17.68,6.38,26.32,3.44"/>
    <path class="cls-10" d="M639.49,418.7c-1.89,4.77-9.79,27.58-15.21,30.64-5.41,3.06-24.81,5.11-24.81,5.11l-7.49-.68-26.21-17.37s-20.09-33.02,26.89-75.23l13.28,.68,26.55,16.68,8.51,28.26s.38,7.15-1.51,11.91Z"/>
    <path class="cls-7" d="M616.94,168.68c-7.18,5.01-17.68,6.38-26.32,3.44"/>
    <path class="cls-2" d="M557.94,214.19s-2.55-.17-8.44,5.46c-3.16,3.02-6.72,7.73-13.91,11.71l18.05,6.9,9.35-21.2c.64-1.44-.46-3.05-2.03-2.99l-3.01,.12Z"/>
    <path class="cls-13" d="M529.08,153.29c.71,.81,1.88,.99,2.96,1.11,7.17,.81,14.34,1.61,21.51,2.42,.66,.07,1.36,.14,1.96-.13,1.45-.65,1.44-2.91,.33-4.05s-2.8-1.45-4.38-1.64c-4.54-.56-9.12-.75-13.69-.55-2.27,.1-6.55,.26-7.06,.36-1.73,.33-2.11,1.95-1.64,2.49Z"/>
    <path class="cls-13" d="M619.44,153.29c-.71,.81-1.88,.99-2.96,1.11-7.17,.81-14.34,1.61-21.51,2.42-.66,.07-1.36,.14-1.96-.13-1.45-.65-1.44-2.91-.33-4.05s2.8-1.45,4.38-1.64c4.54-.56,9.12-.75,13.69-.55,2.27,.1,6.55,.26,7.06,.36,1.73,.33,2.11,1.95,1.64,2.49Z"/>
    <path class="cls-9" d="M611.86,365.57l20.97-46.95c.62-8.45,2.47-16.24,6.66-22.81"/>
    <line class="cls-9" x1="642.02" y1="303.64" x2="632.83" y2="318.62"/>
    <path class="cls-7" d="M656.66,284.23s20.02-19.21,30.98-22.81c0,0,5.79-.34,11.23,1.7"/>
    <path class="cls-7" d="M522.69,199.13v0"/>
    <path class="cls-7" d="M539.21,273.51s5.09-3.55,10.07-6.49"/>
    <path class="cls-7" d="M542.78,288.9s-.06,.11-.09,.16"/>
    <path class="cls-7" d="M541.82,287.47c-.07,.09-.15,.19-.25,.29"/>
    <path class="cls-10" d="M424.81,403.16c-2.09,5.2-4.95,10.17-8.99,14.05-5.52,5.3-12.79,8.2-20.09,10.69-1.06,.36-2.11,.7-3.16,1.05-5.9,1.95-12.23,3.92-18.21,2.23-4.52-1.28-8.21-4.49-11.65-7.68-3.96-3.68-7.92-7.6-10.12-12.55-1.85-4.17-2.32-8.81-2.38-13.37-.12-9.32,1.16-19.59,4.86-28.23,1.29-3.02,3.85-4.88,5.71-7.53,2.76-3.92,5.41-7.85,8.72-11.35,4.47-4.73,9.97-8.69,16.27-10.34,1.05-.28,2.12-.49,3.19-.64,3.83-.55,7.77-.41,11.64-.11,5.19,.4,10.59,1.15,14.85,4.14,3.63,2.54,6.05,6.44,7.94,10.45,7.21,15.26,7.73,33.54,1.42,49.19Z"/>
    <path class="cls-2" d="M361.77,382.19s-5.34,23.23,27.2,23.49,33.82-34.72,33.82-34.72l-1.02-145.45-38.55-1.87-21.45,158.55Z"/>
    <path class="cls-9" d="M599.47,454.45s10.89,4.42,24.81,2.38c12.35-1.81,23.7-23.15,26.11-27.97"/>
    <path class="cls-7" d="M443.96,451.11c3,2.32,4.87,3.85,4.87,3.85"/>
    <path class="cls-9" d="M442.19,290.32l18.9,37.74s-1.75,17.84-4.28,34.7"/>
    <path class="cls-10" d="M413.6,484.01c-2.23,1.44-4.54,2.94-6.92,4.49-.62-.2-3.61-3.2-1.92-6.38,2.34-1.29,5.41-.41,8.84,1.89Z"/>
    <path class="cls-7" d="M499.13,514.97c-.05,.19-.11,.38-.17,.56"/>
    <path class="cls-9" d="M579.3,481.52c.98,.19,41.69-8.41,61.36-17.97"/>
    <path class="cls-7" d="M658.34,490.25c.03,.05,.05,.1,.07,.15"/>
    <path class="cls-10" d="M649.13,495.92c-.23-2.05-.52-4.09-.86-6.09,2.37-1.76,4.68-2.5,6.86-1.68,1.85,.69,2.83,1.4,3.21,2.1,.03,.05,.05,.1,.07,.15,1.01,2.4-6.03,4.63-9.28,5.52Z"/>
    <path class="cls-3" d="M501.68,557.09s.94,3.58,1.71,4.78c-.3,.55-.61,1.12-.94,1.71-1.02,.57-2.06,1.14-3.12,1.72-34.71,18.8-91.61,41.6-120.25,52.71-7.72,2.99-10.06,12.77-4.55,18.95,16.65,18.68,17.58,35.27,17.58,35.27,4.66,20.25,9.24,36.29,13.56,48.99-5.71,5.71-9.18,10.76-9.18,10.76-11.91,13.88-24.12,26.83-36.05,38.68-31.14-51.32-75.19-125.32-83.44-146.68-13.02-33.7,19.91-61.72,19.91-61.72,0,0,66.26-45.38,109.77-73.76,2.38-1.55,4.69-3.05,6.92-4.49,14.83,9.88,36.51,46.01,36.51,46.01,0,0,2.04,18.89,15.32,18.38l2.43-2.76c3.37-3.84,5.4-8.62,6.16-13.67,.49-3.29,2.13-6.67,6.72-7.06,9.02-.75,15.33-.01,18.22-9.38,1.06,4.28,2.65,8.86,5.02,13.21,0,0-1.27,2.72-2.48,6.63-1.95,6.31-3.76,15.72,.18,21.72Z"/>
    <path class="cls-9" d="M498.96,515.53c-2.51-10.04-2.13-18.44-2.13-18.44-.13-5.56,15.17-12.26,15.17-12.26,2.14-6.06,.07-20.29-1.79-30.12-1.18-6.29-.92-12.79,.88-18.93,9.45-32.24,10.51-88.57,10.51-88.57"/>
    <path class="cls-9" d="M496.81,463.13s6.91,8.68,3.34,14.55c-2.63,4.31-8.99,6.22-12.47,9.57-2.97,2.87-3.96,7.22-2.48,11.07,.82,2.12,1.49,5.22,1.67,9.74,.51,13.28-19.15-1.28-23.96,15.32-4.81,16.6-9.61,17.06-9.61,17.06"/>
    <path class="cls-9" d="M509.85,337.68c0,1.36,1.48,49.36-4.11,64.68"/>
    <path class="cls-9" d="M496.81,450.85s.28-15.04,5.64-29.34"/>
    <path class="cls-7" d="M405.67,721.22c15.81,46.4,28.17,48.29,28.17,48.29-.41,4.27-1.43,8.33-2.89,12.16"/>
    <path class="cls-7" d="M360.44,770.66c17.99,29.63,31.67,51.7,31.67,51.7,0,0,1.27-.66,3.37-1.95"/>
    <rect class="cls-4" x="584.15" y="206.73" width="5.75" height="25.62" rx="1.6" ry="1.6"/>
    <path class="cls-6" d="M601.57,209.62v19.83c0,1.06-.71,1.9-1.6,1.9h-10.07v-23.64h10.07c.89,0,1.6,.84,1.6,1.9Z"/>
    <path class="cls-10" d="M497.25,899.37c-.13,.26-.27,.51-.4,.77-1.48,2.89-2.67,5.68-3.35,8.18-5.94-3.83-43.93-24.73-44.56-25.29-.7-.62-34.43-13.82-34.43-13.82,0,0,2.16-5.94,5.5-10.7,.25-.36,.51-.71,.77-1.05,3.78-4.89,9.06-2.1,9.06-2.1l4.16,1.89c-.45,2.61-.07,5.21,2.54,6.52,5.2,2.61,46.17,26.73,60.71,35.6Z"/>
    <path class="cls-7" d="M458.85,774.3c-.04-.34,.01-.66,.12-.96"/>
    <path class="cls-3" d="M437.08,849.66s-2.42,3.81-3.08,7.59l-4.16-1.89s-5.28-2.79-9.06,2.1c-.26,.34-.52,.69-.77,1.05-9.89-13.35-18.88-28.24-24.53-38.1,7.95-4.86,27.81-18.6,35.47-38.74l2.89,2.15,6.35,4.74c1.54,14.1,3.54,42.9-3.11,61.1Z"/>
    <line class="cls-7" x1="440.66" y1="788.91" x2="440.19" y2="788.56"/>
    <path class="cls-4" d="M440.19,788.56l-6.35-4.74s1.06-5.89,3.27-5.48h.01c.59,.1,1.26,.66,2.01,1.89,0,0,.5,3.19,1.06,8.33Z"/>
    <path class="cls-3" d="M501.5,535.37c-1.95,6.31-3.76,15.72,.18,21.72,0,0,.94,3.58,1.71,4.78-.3,.55-4.86,8.85-4.86,8.85-19.78-7.67-23.66-30.28-23.66-30.28"/>
    <path class="cls-10" d="M516.16,872.26s-12.17,14.34-18.91,27.11c-14.54-8.87-55.51-32.99-60.71-35.6-2.61-1.31-2.99-3.91-2.54-6.52,.66-3.78,3.08-7.59,3.08-7.59,6.65-18.2,4.65-47,3.11-61.1-.56-5.14-1.06-8.33-1.06-8.33-.75-1.23-1.42-1.79-2.01-1.89,6.65-3.84,14.79-6.19,21.85-5,1.16,.19,2.3,.48,3.39,.88,0,0,4.44,10.29,6.9,28.31,0,0,7.38,48.17,46.9,69.73Z"/>
    <path class="cls-3" d="M547.49,921.38c-6.26,6.09-10.08,5.73-10.08,5.73,0,0-2.03,.33-6.02-.92,1.22-.09,2.48-.23,3.76-.41,0,0,.02,0,.03-.01,1.71-.25,3.22-1.26,4.11-2.75,2.76-4.62,7.18-15.75-2.28-30.08-12.57-19.01-20.85-20.68-20.85-20.68-39.52-21.56-46.9-69.73-46.9-69.73-2.46-18.02-6.9-28.31-6.9-28.31-1.09-.4-2.23-.69-3.39-.88,.54-1.49,2.63-2.3,2.63-2.3l7.91,.51c8.17-.51,8.94,20.43,8.94,20.43,0,0,12.21,41.52,24.94,55.66,12.73,14.14,44.5,20.08,50.9,50.8,1.21,5.86-.54,16.85-6.8,22.94Z"/>
    <path class="cls-7" d="M281.34,614.79s5.87,3.57,14.04-2.81,27.57-31.4,27.57-31.4"/>
    <path class="cls-9" d="M506.53,527.47l54.97-10.72s35.25,6.81,52.1,0"/>
    <path class="cls-3" d="M648.27,540.44c-22.43,91.86-159.87,207.62-159.87,207.62-7.5,15.88-25.35,35.7-46.97,55.87-11.49,10.73-24.06,21.56-36.7,31.95-46.13,37.91-93.26,69.97-93.26,69.97-5.58-1.43-10.47-3.18-14.75-5.17-1.55-.71-3.02-1.46-4.41-2.23-7.24-4.02-12.45-8.76-16.18-13.68,.01-8.72-3.76-13.69-7.76-16.5h0c-1.6-6.73-1.4-12.59-1.03-15.99,.2-1.97,.47-3.11,.47-3.11,0,0,43.97-30.13,92.63-78.51,11.93-11.85,24.14-24.8,36.05-38.68,0,0,3.47-5.05,9.18-10.76,4.72-4.71,10.97-9.87,18.05-12.99,0,0-.28-5.36,6.54-15.32,5.55-8.09,54.21-96.57,72.19-129.33,.33-.59,.64-1.16,.94-1.71,.22,.34,.42,.49,.59,.32,.03-.03,.06-.06,.09-.11,4.93-6.81,11.95-11.8,20.22-13.3,30.07-5.44,94.73-17.85,100.2-24.89,5.63-7.23,15.04-27.59,23.78-34.06,.34,2,.63,4.04,.86,6.09,2.37,21.27-.86,44.52-.86,44.52Z"/>
    <path class="cls-10" d="M296.72,900.68c-4.54,3.39-10.78,5.17-10.78,5.17-14.06,3.75-31.66,18.82-31.66,18.82-8.18,7.15-15,12.82-20.65,17.32-21.62,17.22-26.33,17.31-26.33,17.31-.46-14.32-2.82-25.93-6.21-35.31,14.88-8.91,55.57-30.73,55.57-30.73,0,0,6.81-2.05,13.62,1.7,1.32,.72,2.51,1.66,3.67,2.62,4.47,3.67,8.61,7.62,18.36,.87,1.39,.77,2.86,1.52,4.41,2.23Z"/>
    <path class="cls-10" d="M260.08,855.72c-.87,2.36-.86,5.25-1.04,8.94-.34,6.81-8.85,10.21-8.85,10.21l-59.62,29.35c-11.42-15.05-24.46-18.45-24.46-18.45l93.97-30.05Z"/>
    <path class="cls-10" d="M276.13,884.77c0,3.6-.64,7.83-2.18,12.81-1.16-.96-2.35-1.9-3.67-2.62-6.81-3.75-13.62-1.7-13.62-1.7,0,0-40.69,21.82-55.57,30.73-2.92-8.16-6.63-14.64-10.52-19.77l59.62-29.35s8.51-3.4,8.85-10.21c0,0,4.81,.43,9.33,3.6h0c4,2.82,7.77,7.79,7.76,16.51Z"/>
    <path class="cls-4" d="M209.39,962.48c6.17-4.13,15.1-10.88,24.24-20.49"/>
    <path class="cls-7" d="M430.95,695.72c-.25,.51-13.53,22.72,7.92,30.13"/>
    <path class="cls-7" d="M505.51,709.26c-.77,.51-24.55,16.85-45.72,20.17"/>
    <path class="cls-7" d="M482.65,729.43s-4.71,2.81-14.93,3.83"/>
    <path class="cls-3" d="M637.6,169.17l-8.86,17.19,1.54-12.76s-18.89-41.86-33.01-53.95c.34,.91,22.29,59.01,23.47,75.05,0,0-33.36-26.04-51.91-65.7,0,0,3.91,34.54,14.29,56.08-.39-.4-31.62-42.63-39.58-78.98-2.37-10.77-2.69-21.03,.44-29.53,6.52-17.7,11.78-27.37,15.52-32.66,4.17-5.88,6.44-6.31,6.44-6.31,0,0,40.85-12.6,64.68,4.08s33.19,54.3,33.53,60.26c0,0,6.3,41.02-26.55,67.23Z"/>
    <path class="cls-3" d="M543.98,76.57c-3.13,8.5-2.81,18.76-.44,29.53-1.18,5.03-3.65,9.28-3.65,9.28-16,28.6-17.02,50.39-17.02,50.39,0,0-5.27-15.83-1.7-37.28,0,0-8.68,19.57-6.47,41.19,0,0-6.81-9.7-7.32-16.34,0,0-8.85-9.53-10.55-24,0,0-7.83-20.6,1.53-38.64,9.36-18.04,18.27-37.74,61.14-46.79-3.74,5.29-9,14.96-15.52,32.66Z"/>
    <path class="cls-2" d="M463,223.69l-3.51,4.89s-10.08,4.13-19.41-2.29l-4.38-.25c-10.93,7.99-22.4,4.09-28.37-.13,.02,.16,.04,.32,.04,.48-5.24,4.36-16.24,10.79-29.01,2.68,0,0-6.27-5.21-5.95-18.14,.24-10.23,.17-25.83,.13-31.91-.85-.57-1.38-1.18-1.38-1.18,0,0-5.05-11.01-5.81-13.3s0-4.46,0-4.46c0,0,5.35-8.99,5.81-9.45,0,0,.76-.84,4.27-1.56,3.52-.73,5.81,1.72,5.81,1.72l4.65,11.57-.37-8.13,3.66-8.79s1.98-1.98,5.96-1.98c2.26,0,4.13,1.29,5.32,2.4,.91,.84,1.43,2,1.48,3.23l2.49,17.7,.22-6.7,4.1-12.04s4.44-2.76,8.4-1.98c3.98,.76,4.74,5.8,4.74,5.8,.42,2.95,.66,5.88,.77,8.64l.07-.41,6.8-12.35s4.12-.65,7.95,1.2c3.82,1.85,4.89,7.05,4.89,7.05,0,0-5.72,12.13-9.64,20.94-1.54,3.48-2.25,16.51-2.49,22.14,2.39,1.32,4.37,3.65,5.24,7.58,0,0,4.88,5.04,11.46,6.22,0,0,12.23-.18,16.05,10.82Z"/>
    <path class="cls-7" d="M381.23,160.08s-.56,3.17-2.88,4.35"/>
    <path class="cls-7" d="M373.74,160.08s-3.36-1.5-7.49,1.41"/>
    <path class="cls-7" d="M387.65,154.22s5.96-1.3,9.93,1.6"/>
    <path class="cls-7" d="M415.63,198.78s8.61-3.05,14.63,.29"/>
    <path class="cls-7" d="M393.62,198.78s12.41,12.61,13.71,27.13"/>
    <path class="cls-7" d="M379.8,186.24s2.36,7.34,21.31,2.75c0,0,26.92,.61,29.05,5.04"/>
    <path class="cls-7" d="M497.26,182.42h-144.94s-6.81,3.09-6.81,7.94c0,15.06,32.64,16.49,32,30.47-.64,13.98-32.35,14.38-32,27.14,0,0-.15,6.52,7.55,8.44,.36,.09,.74,.17,1.13,.24h143.07"/>
    <path class="cls-8" d="M584.15,208.62v21.84h-50c-1.4,0-2.64,.9-3.08,2.23-2.07,6.27-5.59,11.88-10.15,16.45-7.58,7.58-18.04,12.26-29.6,12.26h-135.31c-9.51,0-17.22-7.71-17.22-17.22v-49.28c0-9.51,7.71-17.22,17.22-17.22h135.31c18.53,0,34.25,12.03,39.76,28.72,.44,1.32,1.68,2.22,3.07,2.22h50Z"/>
    <g>
      <path class="cls-2" d="M610.02,422.11c-10.55,23.49-41.53,8.85-41.53,8.85,0,0-19.4-27.58-39.15-75.24-7.77-18.75-14.59-35.26-20-48.39-.31-.77-.62-1.52-.93-2.26-.65-1.57-1.27-3.08-1.87-4.54l-4.99-12.12c-3.58-8.68-5.57-13.54-5.57-13.54-3.49-2.72-2.47-6.42-4.77-11.74-4.76-10.22-10.89-24-15.32-39.15l-1.18-3.74c-2.01-2.48-2.99-6.39-2.99-6.39l-9.1-14.98s-1.28-7.15-2.56-10.93c-1.27-3.79,.6-6.17,.6-6.17l5.11-8.6s3.23-1.28,4.42,0c0,0,1.7,1.28,1.19,5.19l-1.95,6.98,2.89,11.49,7.93,10.88c.6,0,1.35-.11,2.08-.41-.9-3.65-4.47-18.99-4.4-19.36,.09-.43,.6-13.07,.6-13.07l4.02-6.71s2.62-.78,6.62-.01c0,0,1.45,2.21,1.36,4.85l-1.36,3.15c.02,3.31,.01,7.29,.26,10.86,0,.06,3.07,10.25,4.53,15.08l1.7-.38c-.58-4.35-1.7-13.65-1.7-13.65l-.16-10.23c-.03-1.36,.42-2.69,1.27-3.76l2.34-2.97c.69-1.13,1.95-1.78,3.27-1.68l3.38,.26c1.22,0,2.16,1.07,2,2.29l-1.32,6.73,.26,8.47,3.54,14.01h1.53l-.36-19.7s1.83-5.76,2.88-10.31c.57-2.49,2.79-2.76,6.54-2.49,5.34,.39,4.42,4.98,4.42,4.98l-1.53,8.62,.67,16.83c-.16-.61,.01,.18,.01,.18v-.16c.19,.82,.87,3.8,2.9,12.93,3.74,16.85,16.61,18.09,16.61,18.09l15.29,.31c-1.45,2.86-3.86,7.8-3.86,7.8l-13.34,7.97c-.74,9.87-13.41,15.17-13.41,15.17,1.46,3.47,3.52,7.45,6.04,11.82l6.85,11.13c.67,1.03,1.35,2.07,2.04,3.12,.32,.47,.64,.95,.96,1.43,25.61,38.29,68.94,89.29,68.94,89.29,0,0,8.85,20.43-1.7,43.92Z"/>
      <line class="cls-8" x1="510.11" y1="203.38" x2="510.07" y2="201.18"/>
      <line class="cls-8" x1="508.96" y1="202.83" x2="508.54" y2="201.18"/>
      <path class="cls-8" d="M495.98,203.89c-.04-.11-.15-.95-.32-2.18"/>
      <path class="cls-8" d="M494.7,204.57s-.3-.98-.74-2.48"/>
      <path class="cls-8" d="M482.53,208.06c-.02-.05-.09-.32-.2-.76"/>
      <path class="cls-8" d="M475.89,221.43c-.43-.33-.83-.73-1.18-1.19"/>
      <line class="cls-8" x1="481" y1="208.74" x2="480.25" y2="207.71"/>
      <path class="cls-8" d="M483.47,210.79s1.11,4.6,4.43,6.47"/>
      <path class="cls-8" d="M497.77,208.74s.26,2.72,2.47,4.77"/>
      <path class="cls-8" d="M510.96,207.19c-.09,.37-.1,4.28,2.2,6.32"/>
      <path class="cls-10" d="M542.78,288.9c-.32-.48-.64-.96-.96-1.43,.89-1.2,.07-2.3,.07-2.3-.25-.55-.99-.81-2.11-.82-7.03-.06-28.79,9.63-33.24,16.18-.72,1.07-.99,2.06-.66,2.9,0,0,.44,2.14,2.53,1.64,.31,.74,.62,1.49,.93,2.26-4.73,1.35-6.13-1.61-6.13-1.61l-4.72-11.23c-.58-1.73,.67-3.85,3.06-6.08,6.79-6.39,22.78-13.67,31.38-15.19,2.88-.5,4.93-.36,5.54,.67l5.47,8.85s1.28,1.97-1.16,6.16Z"/>
    </g>
    <path class="cls-7" d="M570.26,36.45s-26.2,34.93-1.43,92.55"/>
    <path class="cls-7" d="M575.62,35.29s-9.4,44.2,21.65,84.36"/>
    <path class="cls-7" d="M577.39,35.29s3.51,36.45,36.38,70.14c16.85,17.27,16.51,68.17,16.51,68.17"/>
    <path class="cls-7" d="M580.34,35.29s57.17,22.32,65.79,68.1-15.64,72.76-15.64,72.76"/>
    <path class="cls-7" d="M652.14,67.48s-24.11-27.84-65.07-29.16"/>
    <path class="cls-7" d="M541.74,88.63s-12.06,8.79-20.57,39.86"/>
    <path class="cls-7" d="M547.49,67.48s-51.01,26.54-40.11,85.86"/>
    <path class="cls-7" d="M496.83,129.34c.77-1.96,5.35-61.86,58.28-78.27"/>
    <path class="cls-4" d="M207.3,959.3c-42.21,16.68-61.28-20.77-61.28-20.77,0,0-16-30.98,20.09-52.76,0,0,13.04,3.4,24.46,18.45,3.89,5.13,7.6,11.61,10.52,19.77,3.39,9.38,5.75,20.99,6.21,35.31Z"/>
    <path class="cls-3" d="M209.39,962.48c-5.02,3.37-8.22,4.99-8.22,4.99-36.08,20.76-62.64-18.73-62.64-18.73,0,0-18.04-34.04,17.02-58.55l10.56-4.42c-36.09,21.78-20.09,52.76-20.09,52.76,0,0,19.07,37.45,61.28,20.77l2.09,3.18Z"/>
    <path class="cls-1" d="M204.42,920.33c.36-.16,.72-.32,1.07-.5,.29-.15,.56-.32,.84-.48-1.96-5.51-4.64-10.36-8.25-14.91-.24-.16-.42-.38-.52-.64-.03-.03-.06-.07-.08-.1-.11-.05-.21-.11-.31-.16-.16-.07-.32-.13-.47-.21,.49,.24-.03-.01-.16-.06-.28-.11-.55-.23-.82-.34-.65,.35-1.29,.69-1.96,1.01,4.49,5.06,7.65,10.43,9.84,16.7,.28-.1,.55-.21,.83-.31Z"/>
    <path class="cls-1" d="M221.19,920.91c-3.49-5.98-23.8-17.65-31.33-21.64l1.41-2.65c1.14,.6,27.88,14.84,32.51,22.78l-2.59,1.51Z"/>
    <g>
      <path class="cls-1" d="M208.53,904.65c.29,.2,.57,.41,.86,.61,.22,.15,.45,.31,.67,.46-.63-8.63-1.86-15.89-2.29-16.53l-1.47,.99-1.2,.33c.16,.57,1.08,5.96,1.72,12.84,.58,.43,1.14,.86,1.7,1.31Z"/>
      <path class="cls-1" d="M207.39,911.95c.19,5.41,.03,10.91-.87,15.3l2.94,.6c.81-3.92,1.05-8.83,.98-13.81-1.04-.66-2.05-1.37-3.05-2.09Z"/>
    </g>
    <path class="cls-1" d="M234.73,914.39c-3.4-5.83-22.07-18.19-28.98-22.47l1.58-2.55c1.04,.64,25.53,15.84,30,23.5l-2.59,1.51Z"/>
    <g>
      <path class="cls-1" d="M221.86,897.27c.13,.04,.25,.1,.36,.18,.54,.4,1.08,.79,1.63,1.18,.21,.15,.43,.28,.64,.43-.66-8.45-1.98-15.6-2.42-16.26l-1.47,.99-1.19,.35c.17,.59,1.17,5.96,1.84,12.75,.2,.13,.4,.26,.59,.39Z"/>
      <path class="cls-1" d="M224.75,907.5c-.29-.08-.58-.22-.81-.42-.37-.32-.76-.63-1.14-.94-.29-.2-.58-.4-.87-.59-.03-.02-.05-.03-.08-.05,.15,4.79-.02,9.61-.83,13.56l2.94,.6c.72-3.49,.96-7.73,.92-12.06-.04-.03-.09-.07-.13-.1Z"/>
    </g>
    <path class="cls-1" d="M249.47,907.12c-3.38-5.8-22.03-17.16-28.93-21.04l1.47-2.61c1.04,.59,25.57,14.46,30.05,22.14l-2.59,1.51Z"/>
    <g>
      <path class="cls-1" d="M236.47,890.72c.76,.48,1.5,.99,2.22,1.51-.21-8.41-.94-15.6-1.43-16.32l-1.45,.97-1.23,.27c.17,.77,.73,6.16,1,12.9,.29,.22,.59,.45,.88,.67Z"/>
      <path class="cls-1" d="M238.47,899.55c-.32-.25-.64-.49-.95-.76-.07-.03-.14-.07-.21-.11-.53-.38-1.04-.77-1.56-1.16,0,5.64-.29,11.41-1.2,15.82l2.94,.6c.79-3.85,1.15-8.96,1.24-14.18-.09-.07-.17-.14-.26-.21Z"/>
    </g>
    <path class="cls-1" d="M263.96,899.59c-2.99-5.13-23.06-16.3-30.53-20.17l1.38-2.66c2.83,1.47,27.78,14.52,31.75,21.33l-2.59,1.51Z"/>
    <g>
      <path class="cls-1" d="M252.25,885.51c-.6-7.87-1.67-14.58-2.1-15.22l-1.44,.97-1.23,.32c.13,.51,.89,5.17,1.49,11.16,1.1,.92,2.19,1.84,3.29,2.77Z"/>
      <path class="cls-1" d="M252.38,892.29c-.96-.6-1.9-1.24-2.83-1.88,.27,5.44,.21,11.02-.64,15.14l2.94,.6c.75-3.68,.92-8.66,.77-13.74-.08-.03-.17-.07-.24-.12Z"/>
    </g>
    <path class="cls-1" d="M491.93,897.49c-.39-.15-.81-.27-1.21-.41-.11,.06-.21,.13-.32,.19-.15,.09-.32,.18-.47,.28-.18,.15-.37,.29-.56,.44l-3.07,5.8c.22,.11,.45,.21,.67,.33,.66,.37,1.28,.81,1.87,1.29l3.96-7.47c-.29-.16-.57-.32-.86-.45Z"/>
    <path class="cls-1" d="M494.25,890.53c-1.56,.96-7.11,4.5-11.18,8.18-.08,1.14-.18,2.27-.27,3.41,.12,.09,.25,.17,.37,.26,.1,.02,.2,.05,.29,.09,2.86-2.96,8.28-6.87,12.37-9.39l-1.58-2.55Z"/>
    <path class="cls-1" d="M482.41,901.82c-.08-5.63,1.46-14.33,2.23-17.96l-2.93-.63c-.28,1.29-2.08,9.96-2.29,16.83,1.05,.47,2.04,1.08,2.99,1.75Z"/>
    <path class="cls-1" d="M482.23,882.38c-1.43,1.15-6.41,5.23-10.24,9.3-.05,.37-.1,.74-.17,1.12-.02,.13-.04,.26-.06,.38,0,.01,0,.02,0,.03-.03,.55-.11,1.11-.19,1.66-.02,.13-.04,.26-.06,.39,.09,.08,.17,.17,.25,.26,.07,.06,.15,.11,.22,.17,.03,.03,.06,.06,.09,.09,.03,.02,.06,.04,.09,.07,.02,.01,.04,.03,.06,.05,2.89-3.49,8.21-8.23,11.88-11.18l-1.88-2.34Z"/>
    <path class="cls-1" d="M471.1,895.7c-.08-5.69,1.46-14.57,2.24-18.26l-2.94-.62c-.28,1.31-2.06,10.02-2.28,16.95,1,.63,1.99,1.28,2.98,1.93Z"/>
    <path class="cls-1" d="M470.93,875.96c-1.52,1.22-6.92,5.64-10.91,9.91,.02,.14,.05,.44,.05,.42,.02,.16,.05,.31,.07,.46,.12,.73,.27,1.46,.43,2.19,0,0,0,0,0,0,.15,.03,.3,.06,.45,.1,.04,.01,.07,.03,.11,.04,3.06-3.48,8.11-7.94,11.66-10.8l-1.88-2.34Z"/>
    <path class="cls-1" d="M459.22,888.66c-.2-6.1,.73-15.22,1.23-19.13l-2.97-.39c-.18,1.39-1.32,10.49-1.29,17.75,1.02,.57,2.03,1.16,3.03,1.77Z"/>
    <path class="cls-1" d="M457.96,868.23c-.87,.79-6.29,5.73-10.06,10.35,.18,.92,.29,1.86,.4,2.79,.02,.18,.04,.37,.05,.55,.18,.08,.35,.18,.51,.28,2.62-3.58,7.67-8.63,11.1-11.74l-2.01-2.23Z"/>
    <path class="cls-1" d="M447.28,882.55c.2,.08,.4,.17,.6,.26-1.26-7.09-1.55-20.74-1.55-20.9l-3,.06c.01,.59,.24,11.29,1.23,18.85,.92,.57,1.82,1.14,2.72,1.73Z"/>
    <path class="cls-4" d="M539.29,923.02c-.89,1.49-2.4,2.5-4.11,2.75-.01,.01-.02,.01-.03,.01-1.28,.18-2.54,.32-3.76,.41-24.48,1.82-38.51-14.38-38.51-14.38,.07-1.08,.28-2.25,.62-3.49,.68-2.5,1.87-5.29,3.35-8.18,.13-.26,.27-.51,.4-.77,6.74-12.77,18.91-27.11,18.91-27.11,0,0,8.28,1.67,20.85,20.68,9.46,14.33,5.04,25.46,2.28,30.08Z"/>
    <path class="cls-4" d="M422.67,160.49l-3.53,19.42s4.72,5.52,9.94,1.81l5.34-15.97c1.06-1.52,2.47-3.53,3.98-5.68"/>
    <path class="cls-7" d="M426.02,160.59s3.82,.96,6.11,3.07"/>
    <path class="cls-4" d="M404.43,166.77l-.27,8.37c0,3.72-.11,5.95,4.89,6.15,5.66,.22,6.57-4.83,6.57-4.83,0,0,2.29-14.67,2.44-14.98s2.6-5.96,2.6-5.96"/>
    <path class="cls-7" d="M406.61,161.04s4.89,.95,8.1-.45"/>
    <path class="cls-4" d="M385.88,162.35l.55,11.84s.76,5.66,5.04,5.72c4.28,.06,6.73-4.77,6.73-4.77l.77-17.18s.72-.06,1.51-3.09"/>
    <path class="cls-4" d="M370.34,175.34c.87,3.48,5.45,4.71,7.41,3.9,3.48-1.44,4.05-3.99,3.48-5.69l-2.87-9.13-.64-2.02"/>
  </g>
  <g id="boy-details">
    <path class="cls-5" d="M563.05,159.72c1.9,.35,3.77,1.21,4.99,2.72,1.29,1.6,1.7,3.76,1.55,5.81s-.81,4.02-1.46,5.96c-.21,.63-.43,1.27-.85,1.78s-1.09,.87-1.74,.74c-.72-.14-1.21-.84-1.37-1.56s-.07-1.46-.05-2.19c.12-3.86-1.89-7.72-5.12-9.83-.63-.41-1.31-.77-1.76-1.37-2.4-3.17,4.5-2.32,5.82-2.07Z"/>
    <path class="cls-5" d="M583.47,164.22c-.69,1.73-.48,3.69,.04,5.47,.33,1.16,.79,2.28,1.35,3.34,.17,.32,.37,.66,.71,.8,.61,.25,1.29-.3,1.48-.93s.06-1.3,.07-1.96c.02-1.33,.62-2.64,1.61-3.51,.58-.51,1.3-.89,1.78-1.5,.68-.84,.79-2.09,.29-3.05-1.66-3.14-6.28-1.28-7.33,1.34Z"/>
    <path class="cls-5" d="M538.45,161.09c-2.4,2.4-3.76,5.8-3.66,9.19"/>
    <path class="cls-5" d="M538.21,164.67c-1.29,1.7-1.96,3.86-1.86,5.99"/>
    <path class="cls-5" d="M592.67,173.09c-.12-1.95,.17-3.93,.83-5.77"/>
    <path class="cls-5" d="M594.96,169.32c-.29,1.06-.51,2.68-.52,3.77"/>
    <path class="cls-5" d="M558.12,228.1c4.98,2.71,10.66,4.15,16.33,4.04"/>
    <path class="cls-5" d="M569.5,212.79c1.82-1.7,4.41-2.55,6.89-2.26s4.8,1.7,6.19,3.77"/>
    <path class="cls-5" d="M569.26,220.47c.53,2.08,2.23,3.83,4.3,4.41s4.43-.02,5.97-1.52"/>
    <path class="cls-5" d="M504.62,154.64c-2.24,1.8-3.15,4.9-2.86,7.76s1.62,5.51,3.21,7.91"/>
    <path class="cls-5" d="M502.18,158.11c3.08,2.96,5.39,6.72,6.63,10.81"/>
    <path class="cls-5" d="M503.02,156.08c2.2,2.07,3.99,4.58,5.22,7.34"/>
    <path class="cls-5" d="M504.24,155.21c1.32,1.06,2.4,2.4,3.14,3.92"/>
    <path class="cls-5" d="M635.18,182.31c6.11-3.8,10.84-9.78,13.13-16.61"/>
    <path class="cls-5" d="M643.72,163.49c.23,1.02,.68,1.99,1.31,2.82"/>
    <path class="cls-5" d="M645.15,162.2c.21,.85,.54,1.68,.98,2.44"/>
    <path class="cls-5" d="M646.5,160.61c.15,.79,.42,1.55,.81,2.25"/>
    <path class="cls-5" d="M571.44,202.72c-.67-.87-2.04-3.29-.41-5.63,1.4-2.01,4.09-3.35,8.14-1.91"/>
    <path class="cls-5" d="M572.74,169.68c1.18,7.73,.69,14.04-.89,21.69"/>
    <path class="cls-5" d="M571.17,167.03c1.33,5.97,1.45,12.2,.37,18.22"/>
    <path class="cls-5" d="M574.13,171.88c.63,4.31,.75,8.7,.36,13.03"/>
    <path class="cls-5" d="M544.7,111.49c-2.34,3.98-3.99,8.37-4.83,12.91"/>
    <path class="cls-5" d="M545.63,115.18c-2.34,4.17-3.93,8.76-4.67,13.48"/>
    <path class="cls-5" d="M546.52,119.4c-1.23,3.47-2.47,6.93-3.7,10.4"/>
    <path class="cls-5" d="M548.63,123.08c-2.25,3.88-3.62,8.26-3.97,12.73"/>
    <path class="cls-5" d="M550.08,127.12c-1.99,4.25-3.03,8.94-3.03,13.63"/>
    <path class="cls-5" d="M551.93,131.54c-1.69,4.41-2.71,9.09-2.99,13.81"/>
    <path class="cls-5" d="M554.39,135.93c-1.65,4.48-2.58,9.23-2.72,14.01"/>
    <path class="cls-5" d="M556.29,141.23l-2.26,11.05"/>
    <path class="cls-5" d="M558.61,145.34c-1.37,3.68-1.91,7.67-1.58,11.58"/>
    <path class="cls-5" d="M560.51,149.94c-1.11,2.91-1.54,6.08-1.24,9.19"/>
    <path class="cls-5" d="M562.61,153.84l-.98,9.2"/>
    <path class="cls-5" d="M565.22,158.27l-1.39,7.89c-.1-.04-.2-.09-.3-.13"/>
    <path class="cls-5" d="M567.5,160.65l-.55,7.83"/>
    <path class="cls-5" d="M569.9,165.93l-.67,8.51"/>
    <path class="cls-5" d="M572.93,136.98c-.31,2.61-.63,5.23-.94,7.84"/>
    <path class="cls-5" d="M574.98,141.26c-1.07,2.92-1.4,6.11-.93,9.19"/>
    <path class="cls-5" d="M577.2,144.33c-1.3,2.98-1.67,6.36-1.06,9.55"/>
    <path class="cls-5" d="M579.75,147.74c-1.24,2.93-1.68,6.2-1.26,9.35"/>
    <path class="cls-5" d="M581.67,151.97l-.83,9.02"/>
    <path class="cls-5" d="M583.66,155.05c-.93,2.84-1.3,5.87-1.08,8.85"/>
    <path class="cls-5" d="M585.05,158.26l-1.21,6.64"/>
    <path class="cls-5" d="M587.65,159.8l-.85,8.17"/>
    <path class="cls-5" d="M590.14,163.9l-1.07,8.16"/>
    <path class="cls-5" d="M602.4,126.1c-.13,2.84-.26,5.67-.39,8.51"/>
    <path class="cls-5" d="M604.25,126.97l-.69,8.67"/>
    <path class="cls-5" d="M606.1,130.02l-1.23,8.85"/>
    <path class="cls-5" d="M607.93,132.56l-1.75,8.54"/>
    <path class="cls-5" d="M610.15,135.29l-1.46,8.15"/>
    <path class="cls-5" d="M611.62,138.72l-1.86,8"/>
    <path class="cls-5" d="M613.48,141.61c-.62,3.06-1.25,6.13-1.87,9.19"/>
    <path class="cls-5" d="M615.61,145.33l-2.08,7.48"/>
    <path class="cls-5" d="M617.11,147.93l-2.66,8.19"/>
    <path class="cls-5" d="M618.95,149.62c-.91,3.06-1.81,6.13-2.72,9.19"/>
    <path class="cls-5" d="M620.57,154.19c-.68,2.78-1.37,5.56-2.05,8.34"/>
    <path class="cls-5" d="M622.32,157.78l-2.56,7.66"/>
    <path class="cls-5" d="M623.78,160.82l-2.03,7.15"/>
    <path class="cls-5" d="M625.51,163.72l-2.07,6.97"/>
    <path class="cls-5" d="M626.95,167.15l-1.44,5.6"/>
    <path class="cls-5" d="M628.58,169.85l-1.19,4.09"/>
    <path class="cls-5" d="M560.82,232.32c-.37,3.18-.39,6.4-.03,9.58"/>
    <path class="cls-5" d="M562.7,233.6l.32,9.45"/>
    <path class="cls-5" d="M565.39,234.11c.05,3.15,.09,6.3,.14,9.45"/>
    <path class="cls-5" d="M568.09,234.62c.06,2.85,.11,5.7,.17,8.55"/>
    <path class="cls-5" d="M570.9,235.38l.03,9.19"/>
    <path class="cls-5" d="M574.14,235.51l.18,10.09"/>
    <path class="cls-5" d="M577.21,235.25l-.2,9.58"/>
    <path class="cls-5" d="M579.95,235.13c-.05,2.98-.1,5.96-.15,8.94"/>
    <path class="cls-5" d="M583.04,234.74l-.3,7.66"/>
    <path class="cls-5" d="M585.25,234.36l-.5,5.36"/>
    <path class="cls-5" d="M587.7,233.85l-.36,3.45"/>
    <path class="cls-5" d="M589.17,233.09v1.66"/>
    <path class="cls-5" d="M342.98,194.4c.19,9.19,.37,18.38,.56,27.58"/>
    <path class="cls-5" d="M345.1,202.57c-.11,3.75-.21,7.49-.32,11.24"/>
    <path class="cls-5" d="M364.83,211.25c4.04,1.69,7.4,4.95,9.21,8.93"/>
    <path class="cls-5" d="M371.32,213.83c1.81,1.34,3.16,3.29,3.77,5.45"/>
    <path class="cls-5" d="M342.66,242.65c.64-2.57,2.45-4.73,4.58-6.3s4.6-2.62,7.04-3.66"/>
    <path class="cls-5" d="M346.3,234.59c1.92-1.51,4.16-2.6,6.53-3.16"/>
    <path class="cls-5" d="M409.22,208.5c-2.32,5.35-1.65,11.89,1.71,16.66"/>
    <path class="cls-5" d="M411,212.9c-1.18,4.02-.06,8.62,2.83,11.65"/>
    <path class="cls-5" d="M433.9,223.36l6,.18c4.42,3.45,10.03,4.42,15.59,3.68"/>
    <path class="cls-5" d="M380.69,161.71l2.65,6.52"/>
    <path class="cls-5" d="M379.88,163.64l2.07,4.97"/>
    <path class="cls-5" d="M400.2,156.76l1.01,10.6"/>
    <path class="cls-5" d="M399.07,158.79l.63,10.09"/>
    <path class="cls-5" d="M418.49,160.7l-.12,7.4"/>
    <path class="cls-5" d="M419.68,158.02l-.47,7.41"/>
    <path class="cls-5" d="M381.75,226.46c3.56,2.05,7.8,2.88,11.87,2.34s7.94-2.46,10.84-5.37"/>
    <path class="cls-5" d="M388.58,225.67c5.05,1.21,10.64-.15,14.58-3.53"/>
    <path class="cls-5" d="M398.08,219.14c1.27,2.95,2.18,6.06,2.68,9.23"/>
    <path class="cls-5" d="M401.25,220.19l1.06,6.5"/>
    <path class="cls-5" d="M480.67,228.34c4.67,14.41,11.27,28.19,19.57,40.85"/>
    <path class="cls-5" d="M494.22,252.26c1.56,3.85,3.69,7.47,6.31,10.7"/>
    <path class="cls-5" d="M521.7,258.99c6.81-1.35,12.78-6.34,15.31-12.8"/>
    <path class="cls-5" d="M525.31,254.56c3.66-1.01,6.91-3.45,8.91-6.68"/>
    <path class="cls-5" d="M558.02,221.3l-4.75,11.19c-.4,.94-.8,1.89-1.38,2.73-1.9,2.78-5.31,4.02-8.5,5.1"/>
    <path class="cls-5" d="M277.43,600.13c-.52,3.73,1.2,7.68,4.29,9.84"/>
    <path class="cls-5" d="M279.4,599.46c-.24,2.15,.64,4.39,2.28,5.8"/>
    <path class="cls-5" d="M274.76,617.21c4.18,2.22,9.02,3.16,13.73,2.66"/>
    <path class="cls-5" d="M276.42,622.91c5.3,2.01,11.28,2.19,16.7,.5"/>
    <path class="cls-5" d="M278.94,628.27c4.96,2.74,11.25,2.92,16.36,.49"/>
    <path class="cls-5" d="M282.51,634.31c4.24,.77,8.65,.54,12.78-.65"/>
    <path class="cls-5" d="M284.42,638.74c4.66,1.05,9.67,.49,13.99-1.57"/>
    <path class="cls-5" d="M286.79,643.28c4.88-.09,9.75-1.01,14.33-2.71"/>
    <path class="cls-5" d="M289.19,646.43c4.62,.56,9.41-.34,13.5-2.56"/>
    <path class="cls-5" d="M290.32,650.51c4.76,1.36,10.14,.35,14.09-2.64"/>
    <path class="cls-5" d="M293.1,656.25c4.57-.53,9.02-2.09,12.93-4.53"/>
    <path class="cls-5" d="M295.64,659.75c4.52,.33,9.15-1.18,12.61-4.1"/>
    <path class="cls-5" d="M297.17,663.64c4.64-.53,9.17-2.08,13.16-4.51"/>
    <path class="cls-5" d="M299.72,666.59c4.37,.01,8.74-1.39,12.29-3.93"/>
    <path class="cls-5" d="M301.58,670.01c4.52,1.04,9.56-.74,12.42-4.39"/>
    <path class="cls-5" d="M303.47,674.18c4.1-.17,8.13-1.74,11.26-4.38"/>
    <path class="cls-5" d="M306.06,677.55c3.98-1.19,7.85-2.8,11.5-4.79"/>
    <path class="cls-5" d="M307.56,680.46c3.86-.29,7.62-1.72,10.7-4.06"/>
    <path class="cls-5" d="M308.91,683.88c3.79-.32,7.49-1.56,10.72-3.57"/>
    <path class="cls-5" d="M310.61,687.21c3.84,.1,7.69-.65,11.22-2.17"/>
    <path class="cls-5" d="M373.88,622.08c-2.92,5.95-8.48,10.54-14.87,12.29"/>
    <path class="cls-5" d="M371.94,629.22c-2.45,4.02-6.16,7.25-10.48,9.13"/>
    <path class="cls-5" d="M372.53,633.89c-.96,2.96-3.15,5.51-5.93,6.9"/>
    <path class="cls-5" d="M374.44,636.64c-1.78,4.24-5.02,7.85-9.04,10.09"/>
    <path class="cls-5" d="M376.29,639.4c-1.55,4.73-5.12,8.77-9.63,10.88"/>
    <path class="cls-5" d="M377.89,641.69c-.52,3.67-2.61,7.08-5.65,9.2"/>
    <path class="cls-5" d="M380.16,644.6c-.67,2.57-2.08,4.95-4.03,6.77"/>
    <path class="cls-5" d="M382.47,647.26l-2.63,4.03"/>
    <path class="cls-5" d="M384.39,650.24l-2.21,3.06"/>
    <path class="cls-5" d="M312.93,690.16c4.01,.95,8.4,.12,11.79-2.22"/>
    <path class="cls-5" d="M314.16,693.42c3.92,.89,8.19,.09,11.53-2.15"/>
    <path class="cls-5" d="M315.87,696.59c3.29,.87,6.9,.49,9.94-1.05"/>
    <path class="cls-5" d="M318.12,699.69c3.83,1.1,8.17,.2,11.25-2.32"/>
    <path class="cls-5" d="M319.8,703.34c4.63,1.52,9.98,.6,13.83-2.38"/>
    <path class="cls-5" d="M321.8,706.71c4.58,1.28,9.6,.92,13.95-.98"/>
    <path class="cls-5" d="M324.04,710.32c3.51,1.84,7.98,1.68,11.35-.4"/>
    <path class="cls-5" d="M327.14,714.46c4.02,.56,8.26-.58,11.46-3.08"/>
    <path class="cls-5" d="M328.95,717.6c3.88,1.08,8.19,.49,11.63-1.6"/>
    <path class="cls-5" d="M330.7,721.71c3.58,.47,7.34-.55,10.19-2.78"/>
    <path class="cls-5" d="M333.08,725.5c3.57,.23,7.22-1.07,9.84-3.51"/>
    <path class="cls-5" d="M335.13,728.54c3.62-.02,7.23-.99,10.37-2.8"/>
    <path class="cls-5" d="M336.65,731.77c3.22,.89,6.85,.1,9.41-2.04"/>
    <path class="cls-5" d="M338.53,735.12c2.97-.2,5.87-1.23,8.31-2.93"/>
    <path class="cls-5" d="M341.09,738.03c3.15-.09,6.24-1.41,8.49-3.61"/>
    <path class="cls-5" d="M342.62,741.55c3.17-.07,6.3-1.27,8.69-3.34"/>
    <path class="cls-5" d="M344.83,745.03c3.67-.1,7.29-1.52,10.03-3.95"/>
    <path class="cls-5" d="M346.89,748.01c3.06-.36,6.04-1.41,8.65-3.04"/>
    <path class="cls-5" d="M349.09,750.99c2.78-.25,5.49-1.33,7.67-3.09"/>
    <path class="cls-5" d="M350.11,754.13c3.18,0,6.35-1.18,8.76-3.25"/>
    <path class="cls-5" d="M352.32,757.1c3.42,.5,7.05-.67,9.53-3.07"/>
    <path class="cls-5" d="M354.36,761.44c3.3-.14,6.54-1.48,8.96-3.73"/>
    <path class="cls-5" d="M356.75,764.69c3.3,.23,6.68-1.23,8.76-3.8"/>
    <path class="cls-5" d="M358.44,768.11c2.46-.53,4.78-1.68,6.69-3.32"/>
    <path class="cls-5" d="M472.4,545.68c4.69,9.09,7.2,19.5,9.7,29.42-.03-.39-.06-.78-.08-1.17"/>
    <path class="cls-5" d="M479.54,553.72c2.54,6.32,4.27,12.47,5.07,18.52,0-.23-.02-.46-.03-.69"/>
    <path class="cls-5" d="M484.58,560.27l3.21,10.86c-.05-.14-.1-.28-.15-.42"/>
    <path class="cls-5" d="M488.87,565.24l1.35,4.09"/>
    <path class="cls-5" d="M480.49,525.34c-2.71,11.49,.82,28.83,5.18,35.22"/>
    <path class="cls-5" d="M485.67,524.56c-3.56,13.97,.83,33.54,5.84,41.24"/>
    <path class="cls-5" d="M489.71,524.08c-4.5,17.62,2.97,38.84,8.21,46.18"/>
    <path class="cls-5" d="M493.26,522.99c-4.39,18.77,3.08,36.57,7.33,43.27"/>
    <path class="cls-5" d="M497.17,519.52c-2.97,18.92,1.65,32.38,4.93,38.59"/>
    <path class="cls-5" d="M438.35,688.18c-7.07,8.41-10.15,20.05-8.14,30.85"/>
    <path class="cls-5" d="M435.1,701.29c-3.33,6.51-3.23,14.66,.26,21.09"/>
    <path class="cls-5" d="M290.12,887.39c7.6,6.95,17.28,11.58,27.46,13.13"/>
    <path class="cls-5" d="M301.44,887.68c6.24,4.4,14.77,8.01,22.28,9.43"/>
    <path class="cls-5" d="M309.68,885.98c5.4,2.88,12.66,6.12,18.96,7.59"/>
    <path class="cls-5" d="M318.26,882.72c4.83,3.19,11.2,6.24,15.33,7.57"/>
    <path class="cls-5" d="M325.36,880.46c4.29,1.87,8.58,3.74,12.86,5.61"/>
    <path class="cls-5" d="M332.82,876.78c4.31,1.94,8.62,3.87,12.93,5.81"/>
    <path class="cls-5" d="M339.63,873.72c4.16,1.9,5.79,2.64,9.95,4.53"/>
    <path class="cls-5" d="M344.37,871.05l9.51,4.14"/>
    <path class="cls-5" d="M350.91,868.16l7.84,3.71"/>
    <path class="cls-5" d="M355.65,863.12l8.83,4.13"/>
    <path class="cls-5" d="M360.41,861.09l8.1,3.56"/>
    <path class="cls-5" d="M364.59,858.16l7.83,3.06"/>
    <path class="cls-5" d="M370.02,854.11l8.85,2.72"/>
    <path class="cls-5" d="M376.39,850.38l7.18,1.92"/>
    <path class="cls-5" d="M381.94,846.28l6.47,2.38"/>
    <path class="cls-5" d="M386.3,841.65l6.4,2.87"/>
    <path class="cls-5" d="M391.44,839.18l5.79,2.71"/>
    <path class="cls-5" d="M395.89,837.09l5.11,2.04"/>
    <path class="cls-5" d="M400.62,834.82l3.03,1.11"/>
    <path class="cls-5" d="M403.35,831.04l4.43,1.68"/>
    <path class="cls-5" d="M408.47,828.02l5.46,.94"/>
    <path class="cls-5" d="M414.62,823.13l3.74,1.02"/>
    <path class="cls-5" d="M418.73,818.96l4.09,1.7"/>
    <path class="cls-5" d="M424.8,815.12l4.09,.63"/>
    <path class="cls-5" d="M485.09,725.16l2.43,5.42"/>
    <path class="cls-5" d="M487.42,723.92l2.72,6.49"/>
    <path class="cls-5" d="M489.9,721.91c1.1,2.51,2.2,5.03,3.3,7.54"/>
    <path class="cls-5" d="M492.52,720.03l3.96,8.3"/>
    <path class="cls-5" d="M495.25,718.67l3.54,8.18"/>
    <path class="cls-5" d="M498.02,717.54l3.36,7.95"/>
    <path class="cls-5" d="M501.16,716.02l2.57,7.53"/>
    <path class="cls-5" d="M503.79,714.46l2.12,5"/>
    <path class="cls-5" d="M506.53,712.32l1.14,3.92"/>
    <path class="cls-5" d="M508.75,710.77l.65,2.17"/>
    <path class="cls-5" d="M645.04,496.31l.19-1.42c.46,10.11,.92,20.23,1.38,30.34"/>
    <path class="cls-5" d="M641.76,499.72c.15,7.49,.31,14.98,.46,22.47"/>
    <path class="cls-5" d="M638.27,505.17l.62,14.3"/>
    <path class="cls-5" d="M635.22,511.98l.46,9.87"/>
    <path class="cls-5" d="M631.94,519.13l.06,5.11"/>
    <path class="cls-5" d="M156.65,941.49c1.01,2.23,2.66,4.11,4.43,5.81,6.28,6.01,14.41,10.06,22.99,11.45"/>
    <path class="cls-5" d="M166.89,943.86c6.09,6.37,14.34,10.64,23.06,11.93"/>
    <path class="cls-5" d="M175.51,945.16c4.09,3.32,9.18,5.4,14.43,5.9"/>
    <path class="cls-5" d="M183.07,944.02c1.49,1.75,3.91,2.66,6.18,2.33"/>
    <path class="cls-5" d="M497.34,911.3c9,8.7,21.97,13.11,34.4,11.71"/>
    <path class="cls-5" d="M502.9,911.25c7.61,5.94,17.13,9.38,26.78,9.67"/>
    <path class="cls-5" d="M513.25,913.65c3.52,1.03,7.03,2.05,10.55,3.08"/>
    <path class="cls-5" d="M541.93,920.48c5.27-2.45,9.68-6.7,12.34-11.86"/>
    <path class="cls-5" d="M542.02,916.34c6.17-1.76,11.23-7,12.77-13.24"/>
    <path class="cls-5" d="M542.9,911.53c5.89-2.76,10.71-7.74,13.27-13.72"/>
    <path class="cls-5" d="M543.32,906.92c5.08-1.91,9.13-6.38,10.53-11.62"/>
    <path class="cls-5" d="M541.57,903.72c5.7-1.73,10.17-6.94,11.01-12.84"/>
    <path class="cls-5" d="M151.89,961.78l7.83-6.46"/>
    <path class="cls-5" d="M154.7,963.91l8.47-7.53"/>
    <path class="cls-5" d="M158.46,966.64l8.25-8.09"/>
    <path class="cls-5" d="M162.56,969c2.74-3.28,5.47-6.56,8.21-9.84"/>
    <path class="cls-5" d="M167.53,971.25l5.61-8.41"/>
    <path class="cls-5" d="M171,973.33l6.69-10.97"/>
    <path class="cls-5" d="M174.83,972.42c2.55-2.9,4.44-6.37,5.52-10.08"/>
    <path class="cls-5" d="M178.22,972.36l5.28-8.61"/>
    <path class="cls-5" d="M148.15,959.78l9.43-5.94"/>
    <path class="cls-5" d="M146.27,958.64l8.82-6.17"/>
    <path class="cls-5" d="M143.36,955.67l9.51-5.48"/>
    <path class="cls-5" d="M141.63,951.52l6.48-4.07"/>
    <path class="cls-5" d="M140.57,948.4l5.79-3.74"/>
    <path class="cls-5" d="M137.68,944.96l3.97-2.25"/>
    <path class="cls-5" d="M448.82,772.95c-32.43,25.52-67.87,47.22-105.34,64.51"/>
    <path class="cls-5" d="M427.69,800.56c-11.91,6.59-23.82,13.18-35.73,19.78"/>
    <path class="cls-5" d="M644.06,506.16c-2.11,26.67-12.63,52.12-26.66,74.9-14.03,22.78-31.54,43.18-48.97,63.47-21.42,24.94-42.84,49.88-64.26,74.82"/>
    <path class="cls-5" d="M477.78,547.23c-41.88,13.21-82.39,30.75-120.68,52.27-.71,1.33-2.12,2.62-2.83,3.95-3.14,.98-6.29,1.96-9.43,2.94,3.05,1.57,6.1,3.14,9.15,4.71,4.7,25.99,13.49,51.75,26.74,74.6,8.39,14.47,10.89,30.97,13.55,47.49"/>
    <path class="cls-5" d="M368.29,587.17c22-11.15,44-22.3,66-33.45"/>
    <path class="cls-5" d="M542.15,668.44c17.93-17.35,34.07-36.56,48.08-57.2"/>
    <path class="cls-5" d="M446.2,584.39l1.64,4.45"/>
    <path class="cls-5" d="M449.2,574.66c1.16,3.96,2.32,7.93,3.47,11.89"/>
    <path class="cls-5" d="M451.8,569.82l4.92,14.59"/>
    <path class="cls-5" d="M454.53,565.74l5.78,17.25"/>
    <path class="cls-5" d="M456.86,561.21c2.39,6.83,4.77,13.66,7.16,20.49-.09-.44-.18-.89-.27-1.33"/>
    <path class="cls-5" d="M459.53,558.16c2.92,7.96,5.83,15.91,8.75,23.87"/>
    <path class="cls-5" d="M463.16,554.59c3.66,7.9,6.47,16.2,8.36,24.7"/>
    <path class="cls-5" d="M465.84,551.57c4.81,8.28,7.96,17.52,9.22,27.01-.06-.3-.12-.6-.19-.9"/>
    <path class="cls-5" d="M469.27,549.17c5.79,9.96,6.77,17.78,8.51,27.03"/>
    <path class="cls-5" d="M499.78,518.53s-1.63,12.43,.81,22.64"/>
    <path class="cls-5" d="M477.78,525.34c-.19-.09-2.83,13.85,1.33,27.02"/>
    <path class="cls-5" d="M406.7,838.77c15.84-2.83,27.51-12.7,34.32-24.11"/>
    <path class="cls-5" d="M405.23,837.32c14.28-3.55,27.66-13,35.79-25.26"/>
    <path class="cls-5" d="M407.47,834.51c12.54-5.07,23.55-11.89,33.32-24.72"/>
    <path class="cls-5" d="M414.9,828.48c11.08-6.12,20.01-13.36,25.89-21.63"/>
    <path class="cls-5" d="M407.86,841.63c13.44-1.54,26.31-10.25,33.16-21.91"/>
    <path class="cls-5" d="M410.37,844.19c11.92-.73,23.77-7.84,30.3-17.85"/>
    <path class="cls-5" d="M412.25,847.41c10.95-.81,21.65-6.93,27.89-15.97"/>
    <path class="cls-5" d="M413.6,850.19c10.04-.86,19.76-6.12,25.97-14.05"/>
    <path class="cls-5" d="M415.6,852.93c8.74-1.87,17.15-6.28,23.29-12.78"/>
    <path class="cls-5" d="M417.49,854.85c7.76-1.52,15.29-5.57,20.64-11.4"/>
    <path class="cls-5" d="M419.23,857.43c6.92-1.6,13.44-5.06,17.98-10.54"/>
    <path class="cls-5" d="M429.71,855.94l5.93-5.14"/>
    <path class="cls-5" d="M262.36,854.63c-1.34,3.49-1.49,5.92-.61,9.55"/>
    <path class="cls-5" d="M263.89,854.16c-1.31,3.99-1.39,6.43-.33,10.5"/>
    <path class="cls-5" d="M265.49,853.16c-1.56,3.88-1.09,8.49,.17,12.48"/>
    <path class="cls-5" d="M276.78,889.18c1.93,3.12,3.58,4.54,6.52,6.73,1.32,.98,2.74,1.87,4.32,2.34,1.13,.33,2.34,.45,3.49,.24"/>
    <path class="cls-5" d="M276.13,891.15c2.06,2.35,3.68,4.21,6.2,6.06,1.93,1.43,4.18,2.53,6.54,2.93"/>
    <path class="cls-5" d="M275.52,893.3c2.42,3.78,6.18,6.65,10.42,8.08"/>
    <path class="cls-5" d="M275.26,895.79c2.04,2.81,4.6,4.6,7.29,5.97"/>
    <path class="cls-5" d="M391.65,690.23c-2.79,6.01-7.17,11.28-12.59,15.1"/>
    <path class="cls-5" d="M390.68,695.75c-1.94,4.09-4.99,7.65-8.74,10.19"/>
    <path class="cls-5" d="M391.39,700.58c-.87,2.51-2.75,4.66-5.12,5.86"/>
    <path class="cls-5" d="M375.57,618.87c.49-5.78-.32-11.66-2.34-17.1"/>
    <path class="cls-5" d="M379,617.11c.78-4,.36-8.23-1.19-12.01"/>
    <path class="cls-5" d="M381.8,616.35c.88-3.54,.64-7.34-.67-10.74"/>
    <path class="cls-5" d="M385.2,615.03l-.31-7.15"/>
    <path class="cls-5" d="M389.11,614.02l-1.21-6.14"/>
    <path class="cls-5" d="M391.35,612.5l.17-4.6"/>
    <path class="cls-5" d="M394.55,611.22l.33-3.82"/>
    <path class="cls-5" d="M369.19,609.67c2.24,3.66,3.35,7.99,3.15,12.27"/>
    <path class="cls-5" d="M365.07,624.27c2.27,.61,4.8-.42,7.08,.19l-4.35-6.55"/>
    <path class="cls-5" d="M353.9,597.29c-4.2,6.56-4.44,15.45-.62,22.23"/>
    <path class="cls-5" d="M355.98,634.25c2.89,8.43,5.78,16.85,8.67,25.28"/>
    <path class="cls-5" d="M274.71,843.55c-.83,6.44-.06,13.09,2.22,19.17"/>
    <path class="cls-5" d="M277.3,842.03c-.92,4.3-.69,8.85,.66,13.03"/>
    <path class="cls-5" d="M280.82,839.72c-1.04,2.85-1.12,6.04-.23,8.94"/>
    <path class="cls-5" d="M283.06,837.93l-.27,7.66"/>
    <path class="cls-5" d="M286.16,835.11l-.39,6.9"/>
    <path class="cls-5" d="M289.53,832.81l-.44,4.86"/>
    <path class="cls-5" d="M293.05,830.53l-.51,4.08"/>
    <path class="cls-5" d="M407.75,725.86c-.65,1.76-.36,3.84,.74,5.35"/>
    <path class="cls-5" d="M410.44,722.25c-.74,2.19-.41,4.73,.88,6.65"/>
    <path class="cls-5" d="M415.46,717.21c-1.28,2.61-.95,5.92,.8,8.24"/>
    <path class="cls-5" d="M419.24,714.38c-1.38,2.82-.76,6.49,1.46,8.71"/>
    <path class="cls-5" d="M422.21,713.08c-.49,3.09,.74,6.4,3.14,8.41"/>
    <path class="cls-5" d="M412.99,489.64c6.28,3.33,11.53,8.59,14.87,14.87"/>
    <path class="cls-5" d="M408.76,491.42c2.74,.83,5.19,2.59,6.86,4.91"/>
    <path class="cls-5" d="M405.68,493.73c1.09,.08,2.11,.82,2.52,1.84"/>
    <path class="cls-5" d="M508.94,302.12c4.32-4.11,9.32-7.5,14.72-10"/>
    <path class="cls-5" d="M511.9,303.71l9.43-6.55"/>
    <path class="cls-5" d="M513.89,306.29l3.8-2.35"/>
    <path class="cls-5" d="M511.1,297.94c5.79,20.21,41.9,104.42,63.04,130.92"/>
    <path class="cls-5" d="M558.94,397.99c5.82,12.29,13.45,23.72,22.59,33.8"/>
    <path class="cls-5" d="M568.55,407.48c4.55,8.36,10.36,16.03,17.16,22.68"/>
    <path class="cls-5" d="M564.51,418.91c5.2,2.28,11.46,1.98,16.42-.79"/>
    <path class="cls-5" d="M562.97,414.6c3.11,2.06,7.2,2.56,10.71,1.31"/>
    <path class="cls-5" d="M394.19,236.35c5.79-.09,11.47-2.86,15.11-7.37"/>
    <path class="cls-5" d="M401.84,237.32c2.99-.32,5.82-1.94,7.61-4.35"/>
    <path class="cls-5" d="M407.02,237.81l3.59-1.75"/>
    <path class="cls-5" d="M366.13,385.04c.81,4.46,3.26,8.6,6.78,11.45s8.07,4.4,12.6,4.29"/>
    <path class="cls-5" d="M368.63,383.22c1.2,6.45,6.81,11.84,13.31,12.77"/>
    <path class="cls-5" d="M418.92,370.79c-2.25,12.45-11.94,23.26-24.07,26.86"/>
    <path class="cls-5" d="M414.38,376.32c-1.48,4.8-4.85,8.99-9.22,11.47"/>
    <path class="cls-5" d="M385.14,236.96c-2.17,18.73-4.34,37.46-6.51,56.18"/>
    <path class="cls-11" d="M386.66,246.63c-1.47,12.86-2.95,25.72-4.42,38.57"/>
    <path class="cls-11" d="M591.43,208.28c0,.7,0,2.34,0,3.04"/>
    <path class="cls-11" d="M592.74,208.28c-.02,.64,.02,2.15,0,2.79"/>
    <path class="cls-11" d="M594.07,208.28c-.02,.57,.02,1.85,0,2.43"/>
    <path class="cls-11" d="M595.47,208.28c-.02,.55,.02,1.72,0,2.28"/>
    <path class="cls-11" d="M596.94,208.28c0,.49-.03,1.72-.04,2.21"/>
    <path class="cls-11" d="M598.11,208.21c-.03,.45,.03,1.77,0,2.21"/>
    <path class="cls-11" d="M599.48,208.28c-.02,.43,.02,1.66,0,2.09"/>
    <path class="cls-11" d="M599.21,229.77c1.85,.06,1.48-2.62,1.48-2.62,0-1.02-.04-17.28-.06-17.55,0,0-.16-1.32-1.51-1.32h-8.74"/>
    <line class="cls-11" x1="433.68" y1="261.4" x2="489.74" y2="261.4"/>
    <line class="cls-11" x1="431.59" y1="256.66" x2="487.65" y2="256.66"/>
    <path class="cls-5" d="M524.34,187.54l-.78,3.66"/>
    <path class="cls-5" d="M525.51,187.47c-.84,2.15-1.11,4.52-.78,6.81"/>
    <path class="cls-5" d="M526.95,186.98c-1.23,3.48-1.4,7.33-.5,10.91"/>
    <path class="cls-5" d="M528.9,187.46c-1.24,4.57-1.32,9.45-.22,14.06"/>
    <path class="cls-5" d="M531.52,190.18c-1.57,4.78-1.8,10-.65,14.9"/>
    <path class="cls-5" d="M534.15,192.93c-2.06,4.96-2.36,10.63-.83,15.78"/>
    <path class="cls-5" d="M536.39,196.09c-1.84,5.56-1.92,11.69-.24,17.3"/>
    <path class="cls-5" d="M538.66,199.14c-1.33,5.36-1.47,11.01-.4,16.43"/>
    <path class="cls-5" d="M541.19,201.49c-1.37,5.06-1.63,10.43-.76,15.6"/>
    <path class="cls-5" d="M544.08,202.94c-1.66,5.23-2.02,10.87-1.04,16.27"/>
    <path class="cls-5" d="M546.27,205.68c-1.45,5.25-1.65,10.84-.58,16.19"/>
    <path class="cls-5" d="M548.04,209.51c-.72,4.02-.72,8.16,0,12.18"/>
    <path class="cls-5" d="M550.25,211.3l-.09,7.83"/>
    <path class="cls-5" d="M552.27,213l-.07,4.26"/>
    <path class="cls-5" d="M554.24,214.19l-.07,1.7"/>
    <path class="cls-5" d="M560.83,222.53c-1,2.98-1.13,6.25-.37,9.31"/>
    <path class="cls-5" d="M562.51,222.93c-.57,2.43-.85,4.93-.82,7.43,0,.86,.07,1.77,.57,2.46"/>
    <path class="cls-5" d="M564.44,225.33c-.78,2.97-.96,6.09-.52,9.13"/>
    <path class="cls-5" d="M566.64,226.54c-.96,2.61-1.07,5.52-.31,8.19"/>
    <path class="cls-5" d="M569.07,227.29c-.63,2.58-.78,5.28-.44,7.92"/>
    <path class="cls-5" d="M570.85,227.62l-.27,5.82c-.02,.33-.03,.67,.06,.99s.3,.62,.61,.74"/>
    <path class="cls-5" d="M573.53,228.83l-.03,6.89"/>
    <path class="cls-5" d="M575.85,229l-.42,6.46"/>
    <path class="cls-5" d="M578.14,229.09l-.33,5.36"/>
    <path class="cls-5" d="M580.4,229.6l-.43,4.68"/>
    <path class="cls-5" d="M582.73,230.44l-.58,3.41"/>
    <path class="cls-5" d="M565.79,189.54c-2.13,1.55-3.13,4.49-2.39,7.02"/>
    <path class="cls-5" d="M566.86,191.39c-1.91,1.37-2.87,3.94-2.33,6.23"/>
    <path class="cls-5" d="M566.99,193.47c-1.06,1.21-1.45,2.98-1,4.52"/>
    <path class="cls-5" d="M568.6,195.08c-.7,.39-1.22,1.1-1.36,1.89s.08,1.64,.59,2.25"/>
    <path class="cls-5" d="M569.94,196.15c-1.06,1.23-1.58,2.9-1.4,4.51"/>
    <path class="cls-5" d="M571.44,202.67c1.08,1.94,3.63,2.9,5.72,2.16"/>
    <path class="cls-5" d="M536.28,173.54c1.87,3.24,4.92,5.77,8.45,7.02"/>
    <path class="cls-5" d="M538.14,173.24c1.17,2.2,3.28,3.87,5.68,4.54"/>
    <path class="cls-5" d="M559.08,166.99c1.48,2.56,1.79,5.77,.83,8.57"/>
    <path class="cls-5" d="M561.17,168.74c.8,1.7,.85,3.75,.12,5.49"/>
    <path class="cls-5" d="M525.69,156.2c-.22,1.25,.37,2.5,1.04,3.58,1.77,2.81,4.29,5.14,7.23,6.67"/>
    <path class="cls-5" d="M526.47,154.34c1.03,4.16,4.24,7.72,8.27,9.17"/>
    <path class="cls-5" d="M528.72,154.59c1.53,3.24,4.13,5.97,7.31,7.64"/>
    <path class="cls-5" d="M533.2,156.37c1.01,1.85,2.74,3.29,4.73,3.95"/>
    <path class="cls-5" d="M537.26,157.17l2.52,2.2"/>
    <path class="cls-5" d="M541.08,157.04l1.04,1.26"/>
    <path class="cls-5" d="M379.72,168.95c2.07-.1,4.12-.76,5.86-1.88"/>
    <path class="cls-5" d="M398.62,168.59c2.18,.18,4.42-.58,6.04-2.05"/>
    <path class="cls-5" d="M416.97,168.23c1.51,.52,3.29,.15,4.45-.93"/>
    <path class="cls-5" d="M388.12,175.95c.56,1.09,1.64,1.91,2.84,2.16s2.51-.08,3.46-.87"/>
    <path class="cls-5" d="M372.42,176.47c1.08,.9,2.57,1.29,3.95,1.03s2.63-1.17,3.3-2.41"/>
    <path class="cls-5" d="M406.47,163.55c0,4.65-.7,9.98-.7,14.64,2.36,1.56,5.78,1.28,7.86-.65"/>
    <path class="cls-5" d="M407.91,166.62l-.09,7.15"/>
    <path class="cls-5" d="M388.11,157.77v15.32"/>
    <path class="cls-5" d="M389.54,160.66l-.25,5.62"/>
    <path class="cls-5" d="M367.08,164.19c1.66,4.26,3.45,8.46,5.36,12.61"/>
    <path class="cls-5" d="M423.76,163.51l-3.05,15.49c-.37,1.9,2.73,2.59,4.65,2.32"/>
    <path class="cls-5" d="M408.11,202.14c2.94-2.42,6.23-4.42,9.74-5.91"/>
    <path class="cls-5" d="M410.16,197.2l5.29-2.71"/>
    <path class="cls-5" d="M377.02,197.97c2.97-1.32,6.29-1.86,9.53-1.52"/>
    <path class="cls-5" d="M378.52,195.49l5.45-1.35"/>
    <path class="cls-5" d="M480.16,189.67l4.77-.47"/>
    <path class="cls-5" d="M481.69,191.01l2.38-.52"/>
    <path class="cls-5" d="M496.33,187.51l3.4-.34"/>
    <path class="cls-5" d="M496.84,189.63l2.56-.5"/>
    <path class="cls-5" d="M496.33,176c1.49-.96,3.44-1.18,5.11-.57"/>
    <path class="cls-5" d="M480.02,174.87c2.03-1.07,4.66-.88,6.51,.47"/>
    <path class="cls-5" d="M461.29,185.04c1.22-.99,2.99-1.24,4.43-.62"/>
    <path class="cls-5" d="M514.38,176.38c1.7-.56,3.65-.29,5.14,.7"/>
    <path class="cls-5" d="M511.84,186.79c2.55-1.01,5.65-.48,7.72,1.33"/>
    <path class="cls-5" d="M464.37,198.87c1.73-1.15,3.96-1.51,5.96-.95"/>
    <path class="cls-5" d="M467.06,201.77l6.73,10.84"/>
    <path class="cls-5" d="M462.3,187.37c1.35,2.94,2.15,6.14,2.35,9.37"/>
    <path class="cls-5" d="M481.47,193.01c1.36,5.22,2.71,10.44,4.07,15.66"/>
    <path class="cls-5" d="M480.35,187.55l-.17-6.47"/>
    <path class="cls-5" d="M496.41,190.12c.67,4.87,1.33,9.75,2,14.62"/>
    <path class="cls-5" d="M512.23,186.87l-.1,12.43"/>
    <path class="cls-5" d="M588.25,405.91c4.61,2.92,10.23,4.22,15.65,3.61"/>
    <path class="cls-5" d="M593.68,412.41c1.83,1.07,4.03,1.5,6.13,1.19"/>
    <path class="cls-5" d="M596.06,417.03l1.87,.17"/>
    <path class="cls-5" d="M562.57,84.55c5.21,28.14,17.53,54.95,35.48,77.24"/>
    <path class="cls-5" d="M574.34,105.04c3.79,11.37,9.22,22.2,16.07,32.04"/>
    <path class="cls-5" d="M583.47,115.04l3.4,6.81"/>
    <path class="cls-5" d="M551.25,75.54c-1.46,19.64,2.55,39.65,11.44,57.21"/>
    <path class="cls-5" d="M547.55,90.2c-.25,9.65,1.54,19.35,5.21,28.28"/>
    <path class="cls-5" d="M595.22,101.27c11.46,10.04,20.22,23.14,25.12,37.56"/>
    <path class="cls-5" d="M610.21,109.48c2.66,4.51,5.32,9.02,7.98,13.53"/>
    <path class="cls-5" d="M611.07,87.08c15.03,14.29,23.97,34.8,24.2,55.54"/>
    <path class="cls-5" d="M626.27,95.03c6.52,8.49,10.55,18.87,11.46,29.53"/>
    <path class="cls-5" d="M632.21,91.86c3.95,6.16,6.51,13.2,7.42,20.46"/>
    <path class="cls-5" d="M629.4,79.66c5.59,6.28,9.64,13.92,11.71,22.08"/>
    <path class="cls-5" d="M638.04,70.71c12.23,16.77,17.61,38.39,14.66,58.94"/>
    <path class="cls-5" d="M647.87,77.56c5.84,10.1,9.02,21.73,9.13,33.4"/>
    <path class="cls-5" d="M654.94,83.39c2.8,5.04,4.03,10.94,3.49,16.68"/>
    <path class="cls-5" d="M536.2,104.53c-6.38,7.59-10.18,17.29-10.66,27.19"/>
    <path class="cls-5" d="M534.99,112.26l-4.74,11.58"/>
    <path class="cls-5" d="M516.21,124.19c2.42-10.31,7.11-20.08,13.64-28.42"/>
    <path class="cls-5" d="M515.28,113.65c1.79-6.09,4.87-11.79,8.99-16.62"/>
    <path class="cls-5" d="M505.85,111.98c3.18-14,10.55-27.03,20.91-36.97"/>
    <path class="cls-5" d="M502.33,92.85c3.07-5.79,6.14-11.57,9.2-17.36"/>
    <path class="cls-5" d="M606.73,80.88c-10.15-10.21-17.39-23.28-20.66-37.3,4.22,12.68,12.83,23.88,23.9,31.37"/>
    <path class="cls-5" d="M595.95,54.94l12.63,9.48"/>
    <path class="cls-5" d="M612.21,47.66c8.15,3.66,15.38,9.35,20.85,16.41"/>
    <path class="cls-5" d="M615.17,39.67l15.01,5.02"/>
    <path class="cls-5" d="M567.86,84.39c-2.27-11.26-1.59-23.11,1.96-34.04-.88,8.84-.69,18.13,.76,26.89"/>
    <path class="cls-5" d="M360.48,779.54c14.11-13.69,28.21-27.39,42.32-41.08"/>
    <path class="cls-5" d="M373.96,762.05l22.78-21.82"/>
    <path class="cls-5" d="M479.38,617.06c-12,21.98-24.01,43.95-36.01,65.93"/>
    <path class="cls-5" d="M431.87,592.04c19.04-7.03,37.25-16.34,54.11-27.65"/>
    <path class="cls-5" d="M444.56,581.06c13-5.15,25.49-11.6,37.22-19.21"/>
    <path class="cls-5" d="M445.96,574.67c12.34-4.89,24.25-10.87,35.53-17.85"/>
    <path class="cls-5" d="M468.08,560.35l11.63-6.08c-.13,.09-.27,.19-.4,.28"/>
    <path class="cls-5" d="M284.03,601.32c-2.05-1.77-2.76-4.72-2.43-7.4s1.57-5.17,2.89-7.52c4.99-8.9,11.51-16.93,19.19-23.65"/>
    <path class="cls-5" d="M309.16,557.12c34.75-22.64,69.5-45.28,104.25-67.92"/>
    <path class="cls-5" d="M377.49,517.06c12.27-8.04,24.53-16.08,36.8-24.12"/>
    <path class="cls-5" d="M515.57,547.16c-6.45,11.88-12.91,23.77-19.36,35.65"/>
    <path class="cls-5" d="M519.29,544.43l-12.77,23.88"/>
    <path class="cls-5" d="M521.98,545.78l-9.11,16.13"/>
    <path class="cls-5" d="M525.66,546.45l-6.02,9.77"/>
    <path class="cls-5" d="M529.76,545.85l-4.85,7.15"/>
    <path class="cls-5" d="M492.46,589.12c5.49-1.15,11.29-.84,16.62,.9"/>
    <path class="cls-5" d="M494.26,586.4c2.58-1.17,5.7-1.06,8.2,.28"/>
    <path class="cls-5" d="M502.11,578.12l-9.36,20.72"/>
    <path class="cls-5" d="M429.91,763.62l1.28,13.79"/>
    <path class="cls-5" d="M433.02,763.89l.51,10.72"/>
    <path class="cls-5" d="M436.51,767.46l-.24,4.09"/>
    <path class="cls-5" d="M453.99,723.87l1.32,4.58"/>
    <path class="cls-5" d="M456.65,723.57l1.05,4.84"/>
    <path class="cls-5" d="M436.14,714.35c.32,3.63,1.65,7.17,3.81,10.11"/>
    <path class="cls-5" d="M441.08,721.32l2.33,3.29"/>
    <path class="cls-5" d="M614.04,578.01c1.96,4.39,2.83,9.25,2.52,14.05"/>
    <path class="cls-5" d="M617.85,576.68l1.46,6.15"/>
    <path class="cls-5" d="M422.79,555.75c2.15,4.36,3.22,9.24,3.11,14.1"/>
    <path class="cls-5" d="M426.03,556.18l1.39,5.11"/>
    <path class="cls-5" d="M474.47,542.71c7.5,6.45,17.08,10.45,26.95,11.23"/>
    <path class="cls-5" d="M476.64,547.92c7.37,5.92,16.74,9.29,26.19,9.43"/>
    <path class="cls-5" d="M478.76,552.92c6.86,5.08,15.57,7.61,24.08,7"/>
    <path class="cls-5" d="M483.03,558.73c5.66,3.37,12.34,4.99,18.91,4.59"/>
    <path class="cls-5" d="M486.59,563.01c3.34,1.58,6.94,2.61,10.62,3.05,1.34,.16,2.81,.21,3.93-.55"/>
    <path class="cls-5" d="M481.64,543.81c6.9,4,14.87,6.14,22.85,6.14"/>
    <path class="cls-5" d="M483.05,540.33c6.87,3.66,14.67,5.57,22.46,5.5"/>
    <path class="cls-5" d="M489.39,537.77c5.47,2.16,11.27,3.48,17.14,3.9"/>
    <path class="cls-5" d="M493.51,534.49c5.37,2.07,11,3.45,16.72,4.1"/>
    <path class="cls-5" d="M489.72,529.18c6.24,2.91,13,4.69,19.87,5.21"/>
    <path class="cls-5" d="M487.13,524.15c6.22,3.19,12.84,5.6,19.66,7.16"/>
    <path class="cls-5" d="M491.6,521.97c4.09,2.16,8.64,3.44,13.26,3.71"/>
    <path class="cls-5" d="M494.54,520.44c3.53,1.65,7.35,2.64,11.23,2.93"/>
    <path class="cls-5" d="M466.19,776.66l-.77,1.28c9.22-11.08,16.2-22.83,21.46-36.25,1.47-3.76,5.31-5.84,7.93-8.92,.05,.84,2.3,.8,2.92,.24s.72-1.5,.68-2.34-.15-1.72,.21-2.48c.4-.84,1.37-1.36,2.29-1.22"/>
    <path class="cls-5" d="M277.72,866.55c2.53,9.68,8.6,18.4,16.79,24.14"/>
    <path class="cls-5" d="M314.02,899.91c-.61,2.17-3.88,4.21-6.11,4.52"/>
    <path class="cls-5" d="M310.97,899.36c-.68,2.55-4.01,4.51-6.65,4.56"/>
    <path class="cls-5" d="M308.52,898.29c-.66,2.41-3.89,4.6-6.37,4.87"/>
    <path class="cls-5" d="M304.18,898.7c-.83,1.94-2.74,3.37-4.83,3.62"/>
    <path class="cls-5" d="M300.62,898.45c-.71,1.42-2.05,2.51-3.58,2.93"/>
    <path class="cls-5" d="M295.64,900.62l2.04-2.94"/>
    <path class="cls-5" d="M569.16,180.94c.67,2.29,2.99,4,5.38,3.96"/>
    <path class="cls-5" d="M569.58,179.2c.23,1.23,.94,2.36,1.94,3.1s2.29,1.1,3.53,.97"/>
    <path class="cls-5" d="M570.06,177.52c.22,1.16,.88,2.23,1.83,2.94s2.16,1.04,3.34,.92"/>
    <path class="cls-5" d="M570.17,175.73c.19,1.12,.79,2.16,1.66,2.89s2,1.15,3.13,1.15"/>
    <path class="cls-5" d="M570.45,174.19c.44,1.83,2.29,3.21,4.17,3.12"/>
    <path class="cls-5" d="M570.47,172.73c.99,1.22,2.36,2.13,3.87,2.56"/>
    <path class="cls-5" d="M571.18,170.48c.49,1.63,2.08,2.86,3.78,2.94"/>
    <path class="cls-5" d="M562.57,191.48c.12,1.32,.71,2.59,1.64,3.53s2.2,1.54,3.51,1.67"/>
    <path class="cls-5" d="M564.17,192.09c.39,1.18,1.42,2.13,2.62,2.42"/>
    <path class="cls-5" d="M533.3,139.61c-1.66,2.63-2.75,5.63-3.16,8.71"/>
    <path class="cls-5" d="M533.22,143.2l-1.28,4"/>
    <path class="cls-5" d="M528.83,192.63c3.37,9.95,9.94,18.79,18.5,24.87"/>
    <path class="cls-5" d="M532.89,196.67c2.49,5.22,6.17,9.88,10.67,13.51"/>
    <path class="cls-5" d="M527.91,196.01c4.36,9.17,10.95,17.26,19.04,23.39"/>
    <path class="cls-5" d="M534.81,196.66c2.35,4.06,5.6,7.59,9.43,10.29"/>
  </g>
</svg>